<svg width="189" height="189" viewBox="0 0 189 189" fill="none" xmlns="http://www.w3.org/2000/svg">
<path fill-rule="evenodd" clip-rule="evenodd" d="M34.8466 111.315C32.7981 116.236 31.6537 121.486 31.4683 126.813C31.751 130.098 32.8714 133.256 34.7226 135.985C38.2059 140.018 42.3949 143.382 47.0844 145.913L77.3716 166.077C81.0985 169.043 85.2891 171.374 89.7748 172.976C92.6872 173.669 95.7217 173.669 98.6341 172.976C103.15 171.394 107.374 169.079 111.138 166.125L141.75 145.949C146.487 143.41 150.724 140.032 154.253 135.979C156.118 133.235 157.237 130.054 157.502 126.748C157.301 121.377 156.126 116.088 154.035 111.137L127.262 26.8789C126.664 24.15 125.584 21.5499 124.072 19.2007C122.971 17.8629 121.549 16.8265 119.938 16.1885C117.246 15.4588 114.446 15.2148 111.669 15.468H76.8105C74.0323 15.2154 71.2313 15.4655 68.5418 16.2063C66.9271 16.8429 65.5033 17.8843 64.4074 19.2303C62.9024 21.5795 61.8321 24.1803 61.2476 26.9084L34.8466 111.315ZM113.045 33.3521C114.291 35.3319 115.173 37.518 115.65 39.8076L138.637 115.313C130.003 110.835 120.736 107.702 111.155 106.023L96.2185 55.4651C96.1267 55.1665 95.9646 54.8942 95.7459 54.6711C95.5272 54.448 95.2583 54.2806 94.9615 54.1828C94.6648 54.0851 94.349 54.0599 94.0405 54.1093C93.732 54.1587 93.4399 54.2814 93.1886 54.4669C92.8513 54.7137 92.6044 55.0644 92.4857 55.4651L77.7201 106.005C68.0946 107.68 58.7839 110.826 50.1143 115.331L73.1959 39.8254C73.6685 37.5315 74.553 35.3423 75.8065 33.3639C76.7207 32.2419 77.9029 31.3685 79.2439 30.8242C81.5032 30.2135 83.8538 30.0135 86.1838 30.2336H102.68C105.012 30.0133 107.364 30.2133 109.626 30.8242C110.971 31.3701 112.155 32.2479 113.069 33.3757L113.045 33.3521ZM95.2499 124.385C102.358 124.797 109.407 122.883 115.331 118.934C116.004 121.054 116.243 123.288 116.033 125.502C115.823 127.716 115.169 129.866 114.109 131.821C111.929 135.525 108.767 138.553 104.972 140.568C100.991 143.096 97.5651 145.293 97.5651 151.123C97.5602 152.993 97.9824 154.839 98.7995 156.521C96.115 155.406 93.8211 153.521 92.2075 151.103C90.5939 148.685 89.7329 145.843 89.7334 142.937V142.576C89.7334 138.542 89.7334 133.575 84.0516 133.575C83.2595 133.575 82.475 133.729 81.7423 134.03C80.2677 134.641 79.0953 135.811 78.482 137.284C78.1775 138.016 78.019 138.801 78.0154 139.594C74.121 135.341 72.029 129.742 72.18 123.978C72.1524 121.483 72.5009 118.998 73.2136 116.607C75.5761 121.078 84.5536 124.403 95.2499 124.403V124.385Z" fill="#FF5D01"/>
</svg>
