<svg width="140" height="149" viewBox="0 0 140 149" fill="none" xmlns="http://www.w3.org/2000/svg">
<path fill-rule="evenodd" clip-rule="evenodd" d="M25.8126 87.7571C24.2951 91.6366 23.4474 95.7755 23.3101 99.9751C23.5195 102.565 24.3494 105.055 25.7207 107.206C28.3009 110.386 31.4039 113.038 34.8776 115.033L57.3126 130.93C60.0732 133.268 63.1774 135.106 66.5001 136.368C68.6574 136.915 70.9052 136.915 73.0626 136.368C76.4074 135.121 79.5366 133.296 82.3244 130.967L105 115.061C108.509 113.06 111.647 110.397 114.262 107.202C115.643 105.039 116.472 102.531 116.668 99.9239C116.519 95.6901 115.649 91.5203 114.1 87.6175L94.2682 21.1914C93.8255 19.0401 93.0254 16.9902 91.9057 15.1383C91.0901 14.0836 90.0364 13.2665 88.8432 12.7636C86.8495 12.1883 84.7753 11.9959 82.7182 12.1955H56.8969C54.839 11.9964 52.7642 12.1936 50.7719 12.7776C49.5759 13.2795 48.5212 14.1005 47.7094 15.1616C46.5946 17.0136 45.8018 19.064 45.3688 21.2147L25.8126 87.7571ZM83.7376 26.2946C84.66 27.8554 85.3133 29.5789 85.6669 31.3839L102.694 90.9094C96.2989 87.3789 89.4341 84.909 82.3376 83.5851L71.2732 43.7276C71.2052 43.4922 71.0851 43.2776 70.9232 43.1017C70.7612 42.9258 70.5619 42.7938 70.3421 42.7168C70.1223 42.6397 69.8884 42.6198 69.6599 42.6588C69.4314 42.6978 69.215 42.7944 69.0288 42.9407C68.779 43.1353 68.5961 43.4117 68.5082 43.7276L57.5707 83.5712C50.4407 84.8922 43.5439 87.3719 37.1219 90.9234L54.2194 31.3979C54.5695 29.5895 55.2247 27.8636 56.1532 26.304C56.8304 25.4194 57.7061 24.7308 58.6994 24.3018C60.373 23.8203 62.1141 23.6626 63.8401 23.8361H76.0594C77.7868 23.6625 79.5294 23.8202 81.2044 24.3018C82.2007 24.7321 83.0782 25.4241 83.7551 26.3133L83.7376 26.2946ZM70.5557 98.0614C75.821 98.3859 81.0424 96.8773 85.4307 93.7637C85.9295 95.435 86.1064 97.1962 85.9508 98.9419C85.7951 100.688 85.3102 102.382 84.5251 103.924C82.9109 106.844 80.5682 109.23 77.7569 110.82C74.8082 112.812 72.2707 114.545 72.2707 119.14C72.267 120.614 72.5798 122.07 73.1851 123.396C71.1965 122.517 69.4973 121.031 68.3021 119.125C67.1068 117.219 66.4691 114.978 66.4694 112.687V112.403C66.4694 109.222 66.4694 105.307 62.2607 105.307C61.674 105.306 61.0928 105.428 60.5501 105.665C59.4578 106.146 58.5893 107.069 58.1351 108.231C57.9095 108.808 57.7921 109.426 57.7894 110.051C54.9047 106.698 53.3551 102.285 53.4669 97.7401C53.4465 95.7732 53.7046 93.8142 54.2326 91.9291C55.9826 95.4539 62.6326 98.0754 70.5557 98.0754V98.0614Z" fill="#FF5D01"/>
</svg>
