<svg width="189" height="189" viewBox="0 0 189 189" fill="none" xmlns="http://www.w3.org/2000/svg">
<g clip-path="url(#clip0_1080_106)">
<path d="M94.5 0C42.147 0 0 42.147 0 94.5C0 146.853 42.147 189 94.5 189C146.853 189 189 146.853 189 94.5C189 42.147 146.853 0 94.5 0ZM116.55 34.1224C117.574 34.0909 118.503 35.1934 117.897 36.3116L93.9251 80.2541C93.8039 80.4782 93.7428 80.7298 93.7479 80.9845C93.753 81.2392 93.8241 81.4883 93.9543 81.7073C94.0844 81.9263 94.2691 82.1078 94.4904 82.234C94.7116 82.3603 94.9619 82.427 95.2166 82.4276H136.639C137.978 82.4276 138.624 84.0577 137.647 84.9712L65.0396 152.736C63.7402 153.948 61.8109 152.24 62.8504 150.798L97.2169 103.383C97.3744 103.163 97.4684 102.905 97.4888 102.635C97.5091 102.366 97.4549 102.096 97.3321 101.855C97.2093 101.615 97.0227 101.412 96.7926 101.271C96.5626 101.129 96.2979 101.053 96.0278 101.052H52.1876C51.8959 101.051 51.611 100.964 51.369 100.801C51.127 100.638 50.9389 100.407 50.8283 100.137C50.7178 99.8674 50.69 99.5707 50.7483 99.2849C50.8066 98.9991 50.9485 98.737 51.156 98.532L115.573 34.5634C115.832 34.2938 116.177 34.1356 116.55 34.1224Z" fill="#3EDDB7"/>
</g>
<defs>
<clipPath id="clip0_1080_106">
<rect width="189" height="189" fill="white"/>
</clipPath>
</defs>
</svg>
