<svg width="140" height="140" viewBox="0 0 140 140" fill="none" xmlns="http://www.w3.org/2000/svg">
<g clip-path="url(#clip0_1081_170)">
<path d="M70 0C31.22 0 0 31.22 0 70C0 108.78 31.22 140 70 140C108.78 140 140 108.78 140 70C140 31.22 108.78 0 70 0ZM86.3333 25.2758C87.0917 25.2525 87.78 26.0692 87.3308 26.8975L69.5742 59.4475C69.4844 59.6135 69.4391 59.7999 69.4429 59.9886C69.4467 60.1772 69.4994 60.3617 69.5958 60.5239C69.6922 60.6861 69.829 60.8206 69.9929 60.9141C70.1568 61.0076 70.3421 61.057 70.5308 61.0575H101.214C102.206 61.0575 102.684 62.265 101.961 62.9417L48.1775 113.138C47.215 114.036 45.7858 112.77 46.5558 111.703L72.0125 76.58C72.1292 76.4174 72.1988 76.2258 72.2139 76.0262C72.2289 75.8266 72.1888 75.6267 72.0979 75.4485C72.0069 75.2702 71.8687 75.1203 71.6982 75.0154C71.5278 74.9104 71.3318 74.8543 71.1317 74.8533H38.6575C38.4414 74.8528 38.2304 74.7881 38.0511 74.6675C37.8719 74.5469 37.7325 74.3757 37.6506 74.1758C37.5688 73.9758 37.5481 73.7561 37.5913 73.5444C37.6346 73.3327 37.7397 73.1386 37.8933 72.9867L85.61 25.6025C85.8012 25.4028 86.057 25.2856 86.3333 25.2758Z" fill="#3EDDB7"/>
</g>
<defs>
<clipPath id="clip0_1081_170">
<rect width="140" height="140" fill="white"/>
</clipPath>
</defs>
</svg>
