<svg width="812" height="622" viewBox="0 0 812 622" fill="none" xmlns="http://www.w3.org/2000/svg">
<g clip-path="url(#clip0_707_16)">
<path d="M561.258 181.533C505.246 127.891 439.623 114.043 422.283 111.218C433.969 79.0189 452.018 31.1534 456.512 24.0707C459.42 23.6977 462.348 23.5265 465.277 23.5585C478.018 23.5585 505.298 26.2609 544.8 44.4003C601.849 70.5939 617.011 100.055 620.018 107.262L561.258 181.533Z" fill="white"/>
<path d="M465.278 27.0887C477.742 27.0887 504.469 29.7557 543.331 47.6125C594.866 71.3156 611.514 97.8095 615.939 106.764L560.93 176.373C533.721 151.356 501.951 132.065 467.439 119.605C454.284 114.767 440.767 111.029 427.021 108.425C439.935 72.9759 453.972 36.4851 458.692 27.3712C460.23 27.23 462.443 27.0887 465.312 27.0887H465.278ZM465.312 20.0236C461.8 19.9483 458.288 20.1967 454.82 20.7655C450.774 22.1431 417.582 114.095 417.582 114.095C417.582 114.095 496.361 122.307 561.622 186.723L623.857 107.912C623.857 107.912 613.485 72.1281 546.063 41.1833C506.595 23.0439 479.091 19.9883 465.175 19.9883L465.312 20.0236Z" fill="#A0C6F4"/>
<path d="M429.112 121.248C429.112 121.248 506.578 129.232 554.291 174.007" stroke="white" stroke-width="2.2672" stroke-linecap="round" stroke-linejoin="round"/>
<path d="M495.98 117.384L524.886 59.9805L554.586 119.839L495.98 117.384Z" fill="#A0C6F4"/>
<path d="M501.599 116.569L530.504 59.166L560.203 119.024L501.599 116.569Z" stroke="white" stroke-width="2.2672" stroke-linecap="round" stroke-linejoin="round"/>
<path d="M474.493 16.5254C474.493 16.5254 561.38 24.5795 615.317 90.0723" stroke="white" stroke-width="2.2672" stroke-linecap="round" stroke-linejoin="round"/>
<path d="M518.869 270.904C514.098 267.371 510.97 264.917 510.97 264.917C512.283 263.15 533.183 240.383 545.285 222.049C545.285 222.049 520.806 272.37 518.869 270.904Z" fill="white"/>
<path d="M222.751 105.107C225.085 109.082 226.104 107.491 232.829 106.873C239.554 106.255 249.131 111.36 252.486 119.821C255.839 128.28 254.819 129.588 253.004 130.647C251.189 131.707 238.275 133.296 237.756 135.946" stroke="white" stroke-width="2.2672" stroke-linecap="round" stroke-linejoin="round"/>
<path d="M396.958 535.12L390.924 524.717L369.557 561.119L375.159 565.535L396.958 535.12Z" fill="#F9865F"/>
<path d="M255.043 444.95C255.043 444.95 243.962 426.562 248.716 417.537L284.052 421.405L255.043 444.95Z" fill="#F9865F"/>
<path d="M255.043 444.95L257.152 449.93L250.635 475.929C250.223 477.536 250.263 479.227 250.749 480.81C251.235 482.395 252.148 483.807 253.383 484.885L285.695 436.083C287.175 433.837 287.823 431.125 287.523 428.435C287.222 425.744 285.991 423.252 284.052 421.405L276.825 414.553L255.043 444.95Z" fill="black"/>
<path d="M237.756 136.014C247.869 135.767 260.697 135.113 258.121 127.183C255.545 119.253 246.02 99.6824 224.15 105.564C224.15 105.564 216.458 112.117 226.07 123.915C235.681 135.714 237.756 136.014 237.756 136.014Z" fill="#2A1E33"/>
<path d="M288.962 421.757C288.962 421.757 271.674 369.653 286.299 346.78C298.401 327.899 337.781 358.596 343.175 362.677L371.371 310.713C371.371 310.713 364.871 301.387 348.897 292.256C332.924 283.124 266.902 255.783 235.871 305.802C224.41 324.278 224.237 403.601 246.244 433.998L288.962 421.757Z" fill="#3B3B5F"/>
<path d="M288.962 421.76C288.962 421.76 271.675 369.656 286.3 346.783C298.401 327.901 337.782 358.599 343.176 362.679" stroke="white" stroke-width="2.2672" stroke-linecap="round" stroke-linejoin="round"/>
<path d="M371.372 310.719C358.544 324.513 320.529 391.701 311.972 423.759C300.544 466.715 304.849 502.34 367.706 572.125L398.081 526.908C398.081 526.908 376.713 493.773 380.793 462.529C386.568 417.33 418.048 373.509 433.97 345.708L371.372 310.719Z" fill="#3B3B5F"/>
<path d="M376.195 316.545L426.727 357.081L441.836 333.625L376.195 316.545Z" fill="#8C3C6C"/>
<path d="M666.489 273.941C674.372 275.672 680.376 278.74 684.502 283.144C688.634 287.56 686.767 289.856 685.263 291.198C683.759 292.54 677.933 291.003 672.867 286.411C667.803 281.819 666.489 273.941 666.489 273.941Z" fill="#FF8A66"/>
<path d="M510.97 264.917C512.283 263.15 533.183 240.382 545.285 222.049C545.285 222.049 581.849 263.909 585.824 265.27C587.293 265.764 596.197 265.64 607.4 265.535C626.208 265.323 651.223 265.129 656.756 267.972C665.572 272.458 670.862 274.719 673.057 281.025C675.253 287.33 676.135 291.445 670.862 291.817C664.69 292.275 660.731 284.168 660.731 284.168C654.918 287.358 648.866 290.069 642.632 292.275C642.632 292.275 595.765 310.857 564.44 301.867C555.917 299.411 510.97 264.917 510.97 264.917Z" fill="#F9865F"/>
<path d="M226.883 97.7052C222.872 99.2772 220.417 101.149 222.751 105.106C225.085 109.062 226.104 107.491 232.829 106.873C239.554 106.253 249.131 111.358 252.486 119.819C255.839 128.28 254.819 129.586 253.004 130.646C251.189 131.705 238.275 133.296 237.757 135.945C237.238 138.594 242.943 146.383 254.888 145.871L257.724 145.341C257.724 145.341 282.738 170.298 286.369 173.99C290 177.681 316.588 196.104 331.317 199.848C342.45 202.691 365.028 199.036 378.581 196.316C385.167 194.991 389.645 193.913 389.645 193.913C389.645 193.913 379.463 175.173 377.388 146.383C377.388 146.383 353.047 150.375 336.866 154.013C336.866 154.013 299.11 132.5 280.751 122.981C280.751 122.981 264.708 102.916 257.205 100.266C249.702 97.6169 232.311 95.6034 226.883 97.7052Z" fill="#F9865F"/>
<path d="M378.511 196.401C385.097 195.076 389.575 193.999 389.575 193.999C389.575 193.999 377.25 178.103 375.192 149.348C375.192 149.348 369.625 155.476 371.354 171.779C373.532 192.374 378.511 196.401 378.511 196.401Z" fill="white"/>
<path d="M374.674 146.12C374.674 146.12 375.02 181.322 384.251 195.999L387.554 194.639C387.554 194.639 344.075 246.62 330.003 280.585C327.704 286.148 420.296 346.572 433.97 345.725C433.97 345.725 479.091 275.375 494.477 254.515L511.073 267.656C511.073 267.656 543.591 233.991 545.337 222.052C545.337 222.052 513.925 183 488.288 171.554C462.65 160.109 439.503 140.539 411.894 141.157C388.002 141.528 374.674 146.12 374.674 146.12Z" fill="#471C36"/>
<path d="M511.003 267.654L494.425 254.514L497.07 247.166L511.003 267.654Z" fill="white"/>
<path d="M536.243 128.49C533.339 137.728 524.955 164.416 515.601 167.701C506.249 170.987 496.586 166.871 496.586 166.871L486.628 172.064C485.522 175.472 477.655 178.404 467.508 178.812C459.988 179.111 455.407 169.238 457.637 162.102C458.656 158.817 462.477 142.674 462.477 142.674C462.477 142.674 470.533 112.365 478.036 106.112C485.539 99.8595 492.419 93.6422 512.213 101.82C542.363 114.325 536.243 128.49 536.243 128.49Z" fill="#F9865F"/>
<path d="M476.134 129.816C474.803 135.468 469.046 146.808 465.26 144.758C461.475 142.71 460.16 137.517 462.823 127.537C465.485 117.558 467.715 94.9148 475.252 90.8347C482.79 86.7547 486.126 91.506 486.126 91.506C486.126 91.506 482.79 74.9738 492.558 72.6954C492.558 72.6954 495.876 71.1233 494.546 82.4451C495.838 79.3319 498.113 76.7494 501.007 75.1077C503.901 73.4661 507.249 72.8595 510.519 73.3842C522.621 74.7442 526.925 92.1948 526.925 92.1948C527.276 90.7534 528.113 89.4846 529.29 88.6122C530.466 87.7398 531.906 87.3197 533.356 87.4259C538.906 87.4259 547.342 95.8156 545.336 105.088C545.336 105.088 559.529 100.549 567.067 112.154C574.604 123.757 573.722 136.404 555.536 141.385C536.519 146.596 536.693 123.935 533.805 120.985C530.918 118.035 527.824 114.644 517.175 118.724C506.525 122.804 495.427 110.793 495.427 110.793C495.427 110.793 493.698 125.294 491.883 126.689C490.068 128.085 486.558 129.869 487.44 123.069C488.321 116.269 489.445 116.94 488.771 115.138C488.097 113.337 485.107 107.596 478.797 112.648C471.709 118.194 476.134 129.816 476.134 129.816Z" fill="#2A1E33"/>
<path d="M479.159 132.325C474.924 128.793 471.985 122.293 475.702 115.9C479.419 109.506 485.521 108.64 487.371 111.06C489.221 113.48 489.946 117.56 488.2 122.4" stroke="#2A1E33" stroke-width="2.2672" stroke-linecap="round" stroke-linejoin="round"/>
<path d="M375.175 565.532L377.284 570.496L370.767 596.495C370.354 598.1 370.395 599.793 370.881 601.376C371.367 602.96 372.28 604.372 373.515 605.45L405.791 556.648C407.273 554.402 407.921 551.691 407.619 549C407.318 546.31 406.088 543.817 404.149 541.971L396.923 535.117L375.175 565.532Z" fill="black"/>
<path d="M486.127 91.5048C486.127 91.5048 483.637 83.2916 476.221 81.1191" stroke="#2A1E33" stroke-width="2.2672" stroke-linecap="round" stroke-linejoin="round"/>
<path d="M328.896 278.093L418.411 150.34" stroke="white" stroke-width="2.2672" stroke-linecap="round" stroke-linejoin="round"/>
<path d="M455.32 159.275C452.088 163.567 450.618 182.007 465.468 183.19C473.937 184.051 482.455 182.14 489.792 177.732" stroke="white" stroke-width="2.2672" stroke-linecap="round" stroke-linejoin="round"/>
<path d="M257.119 100.355C257.119 100.355 267.353 114.186 268.961 119.113" stroke="white" stroke-width="2.2672" stroke-linecap="round" stroke-linejoin="round"/>
<path d="M640.281 285.865C640.281 285.865 647.195 291.605 660.731 284.098C665.658 281.396 662.149 275.02 655.891 276.61C649.633 278.199 642.234 275.814 642.234 275.814" stroke="white" stroke-width="2.2672" stroke-linecap="round" stroke-linejoin="round"/>
<path d="M668.839 274.734C668.839 274.734 675.391 282.559 675.217 287.204" stroke="white" stroke-width="2.2672" stroke-linecap="round" stroke-linejoin="round"/>
<path d="M572.304 273.89C572.304 273.89 578.234 265.819 585.823 265.271" stroke="white" stroke-width="2.2672" stroke-linecap="round" stroke-linejoin="round"/>
<path d="M322.239 167.135C322.239 167.135 325.697 156.113 336.795 154.1" stroke="white" stroke-width="2.2672" stroke-linecap="round" stroke-linejoin="round"/>
<path d="M352.304 334.363L339.062 360.168C339.062 360.168 295.428 435.605 310.243 484.353" stroke="white" stroke-width="2.2672" stroke-linecap="round" stroke-linejoin="round"/>
<path d="M390.958 420.913L433.883 345.724C433.883 345.724 490.154 262.34 495.91 250.664L515.775 213.131" stroke="white" stroke-width="2.2672" stroke-linecap="round" stroke-linejoin="round"/>
<path d="M334.912 286.109C334.912 286.109 411.271 342.982 433.9 345.72" stroke="white" stroke-width="2.2672" stroke-linecap="round" stroke-linejoin="round"/>
<path d="M374.673 146.119C374.673 146.119 374.673 181.815 384.027 196.439" stroke="white" stroke-width="2.2672" stroke-linecap="round" stroke-linejoin="round"/>
<path d="M542.829 216.398C540.426 231.094 508.565 261.986 508.565 261.986" stroke="white" stroke-width="2.2672" stroke-linecap="round" stroke-linejoin="round"/>
<path d="M305.022 399.595C307.524 399.595 309.552 397.523 309.552 394.967C309.552 392.411 307.524 390.34 305.022 390.34C302.521 390.34 300.493 392.411 300.493 394.967C300.493 397.523 302.521 399.595 305.022 399.595Z" fill="white"/>
<path d="M730.366 494.493L727.859 476.777L742.64 486.828L734.913 488.54L730.366 494.493Z" stroke="white" stroke-width="2.2672" stroke-linecap="round" stroke-linejoin="round"/>
<path d="M239.83 192.057C211.807 166.781 165.494 229.784 334.912 430.324C432.673 546.014 509.517 556.381 519.889 516.129C538.559 443.924 471.138 425.679 496.24 453.956C532.717 495.075 636.459 503.765 713.786 465.402C790.077 427.533 743.176 368.735 738.439 365.291" stroke="white" stroke-width="2.2672" stroke-linecap="round" stroke-linejoin="round"/>
<path d="M715.066 469.661C717.567 469.661 719.595 467.59 719.595 465.034C719.595 462.478 717.567 460.406 715.066 460.406C712.564 460.406 710.536 462.478 710.536 465.034C710.536 467.59 712.564 469.661 715.066 469.661Z" fill="white"/>
<path d="M649.097 502.849L783.473 425.451" stroke="white" stroke-width="2.2672" stroke-linecap="round" stroke-linejoin="round"/>
<path d="M242.632 200.432C245.133 200.432 247.161 198.359 247.161 195.804C247.161 193.248 245.133 191.176 242.632 191.176C240.13 191.176 238.102 193.248 238.102 195.804C238.102 198.359 240.13 200.432 242.632 200.432Z" fill="white"/>
<path d="M358.233 110.103C363.609 110.103 367.966 105.651 367.966 100.159C367.966 94.667 363.609 90.2148 358.233 90.2148C352.858 90.2148 348.5 94.667 348.5 100.159C348.5 105.651 352.858 110.103 358.233 110.103Z" fill="#FF6D66"/>
<path d="M181.761 24.3692C180.913 24.3657 180.082 24.6196 179.375 25.0988C178.668 25.578 178.116 26.2609 177.788 27.061C177.461 27.8609 177.373 28.7422 177.537 29.5932C177.701 30.444 178.107 31.2261 178.706 31.8405C179.306 32.4549 180.069 32.8738 180.901 33.0443C181.733 33.2148 182.597 33.129 183.381 32.798C184.165 32.467 184.836 31.9056 185.308 31.1849C185.779 30.4641 186.032 29.6166 186.032 28.7495C186.032 27.5908 185.582 26.4793 184.782 25.6583C183.981 24.8374 182.896 24.3738 181.761 24.3692Z" fill="#A0C6F4"/>
<path d="M754.655 566.927C757.013 566.927 758.925 564.973 758.925 562.564C758.925 560.154 757.013 558.201 754.655 558.201C752.297 558.201 750.385 560.154 750.385 562.564C750.385 564.973 752.297 566.927 754.655 566.927Z" fill="#FAD8B0"/>
<path d="M678.26 365.272L632.258 343.247C631.446 342.838 630.766 342.202 630.293 341.414C629.822 340.625 629.578 339.717 629.591 338.793C629.604 337.868 629.873 336.968 630.366 336.193C630.859 335.418 631.557 334.802 632.379 334.416L717.883 295.983C718.482 295.711 719.13 295.572 719.785 295.572C720.439 295.572 721.087 295.711 721.686 295.983L780.464 321.735L678.26 365.272Z" fill="#2A1E33"/>
<path d="M675.477 292.86C675.58 312.288 678.312 365.277 678.312 365.277L780.517 321.668L778.217 247.927C778.187 246.881 777.904 245.859 777.394 244.952C776.883 244.045 776.162 243.281 775.292 242.728C774.422 242.176 773.432 241.852 772.41 241.784C771.389 241.718 770.366 241.91 769.435 242.345L681.458 283.322C679.663 284.148 678.142 285.49 677.081 287.182C676.019 288.876 675.461 290.848 675.477 292.86Z" fill="#121212"/>
<path d="M678.261 365.276L780.465 321.668L778.166 247.926C778.166 247.926 777.492 239.872 769.383 242.345" stroke="white" stroke-width="2.2672" stroke-linecap="round" stroke-linejoin="round"/>
<path d="M727.72 312.269L734.618 295.613" stroke="white" stroke-width="2.2672" stroke-linecap="round" stroke-linejoin="round"/>
<path d="M734.618 312.269L741.516 295.613" stroke="white" stroke-width="2.2672" stroke-linecap="round" stroke-linejoin="round"/>
<path d="M200.174 494.016C202.531 494.016 204.443 492.063 204.443 489.653C204.443 487.244 202.531 485.291 200.174 485.291C197.815 485.291 195.903 487.244 195.903 489.653C195.903 492.063 197.815 494.016 200.174 494.016Z" fill="#FF6D66"/>
<path d="M560.671 517.385C563.955 517.385 566.617 514.663 566.617 511.309C566.617 507.952 563.955 505.232 560.671 505.232C557.386 505.232 554.724 507.952 554.724 511.309C554.724 514.663 557.386 517.385 560.671 517.385Z" fill="#FF6D66"/>
<path d="M244.498 554.457C261.426 562.405 279.858 566.445 298.487 566.291C298.833 566.294 299.175 566.371 299.489 566.518C299.803 566.664 300.084 566.877 300.313 567.142C300.541 567.407 300.712 567.719 300.814 568.055C300.918 568.393 300.949 568.749 300.907 569.1L297.174 599.338C297.099 599.863 296.863 600.349 296.499 600.728C296.136 601.105 295.663 601.355 295.15 601.44C287.579 602.906 257.118 607.18 234.264 587.31C233.916 587.005 233.66 586.606 233.525 586.159C233.391 585.712 233.383 585.235 233.504 584.784L241.04 555.941C241.145 555.591 241.324 555.269 241.563 554.997C241.803 554.726 242.099 554.512 242.429 554.371C242.759 554.228 243.115 554.163 243.473 554.178C243.831 554.194 244.18 554.289 244.498 554.457Z" fill="#FFF7DC"/>
<path d="M247.178 563.287C247.178 563.287 260.35 582.204 265.053 584.924C269.755 587.644 295.134 572.172 295.134 572.172" stroke="white" stroke-width="2.2672" stroke-linecap="round" stroke-linejoin="round"/>
<path d="M277.483 582.311L291.33 596.846" stroke="white" stroke-width="2.2672" stroke-linecap="round" stroke-linejoin="round"/>
<path d="M258.242 579.504L242.043 584.007" stroke="white" stroke-width="2.2672" stroke-linecap="round" stroke-linejoin="round"/>
<path d="M668.458 196.596H652.986V212.404H668.458V196.596Z" fill="#FFE1C0"/>
<path d="M655.078 409.766L659.676 417.909L664.275 426.051H655.078H645.899L650.479 417.909L655.078 409.766Z" fill="#A0C6F4"/>
<path d="M283.309 49.3069L284.52 12.3568C284.381 8.82434 285.764 7.81756 287.839 7.34067C297.658 5.13285 327.6 -1.66722 359.98 8.1355C364.18 9.4072 364.042 11.668 363.973 13.7169L362.815 48.936C362.73 49.5941 362.512 50.2269 362.174 50.7936C361.835 51.3602 361.384 51.8482 360.851 52.2259C360.316 52.6037 359.71 52.8628 359.072 52.9867C358.433 53.1107 357.777 53.0965 357.145 52.9454C345.375 51.5063 333.521 50.9161 321.671 51.1791C310.272 51.1294 298.891 52.069 287.648 53.9874C284.433 54.6056 283.223 52.2035 283.309 49.3069Z" stroke="white" stroke-width="2.2672" stroke-linecap="round" stroke-linejoin="round"/>
<path d="M294.234 44.0085L313.148 21.4004L334.066 42.5072C326.839 40.0167 294.234 44.0085 294.234 44.0085Z" stroke="white" stroke-width="2.2672" stroke-linecap="round" stroke-linejoin="round"/>
<path d="M324.712 31.7902L339.995 19.2852L352.874 28.6816L353.358 43.3592L334.048 42.4054" stroke="white" stroke-width="2.2672" stroke-linecap="round" stroke-linejoin="round"/>
<path d="M302.403 19.6341C302.579 17.858 301.065 16.2474 299.023 16.0366C296.981 15.8257 295.183 17.0944 295.008 18.8705C294.832 20.6466 296.345 22.2574 298.388 22.4682C300.43 22.6791 302.228 21.4102 302.403 19.6341Z" stroke="white" stroke-width="2.2672" stroke-linecap="round" stroke-linejoin="round"/>
<path d="M648.768 529.22L661.44 553.135C662.771 555.271 662.304 556.491 661.145 557.585C655.717 562.725 639.174 578.374 614.971 584.485C611.842 585.281 611.098 583.779 610.407 582.454L598.305 559.653C598.122 559.2 598.033 558.715 598.044 558.227C598.053 557.738 598.163 557.256 598.364 556.813C598.566 556.37 598.855 555.975 599.214 555.651C599.573 555.328 599.993 555.085 600.449 554.936C608.451 551.387 616.193 547.256 623.615 542.572C630.925 538.317 637.866 533.431 644.359 527.965C646.088 526.199 647.816 527.347 648.768 529.22Z" stroke="white" stroke-width="2.2672" stroke-linecap="round" stroke-linejoin="round"/>
<path d="M643.79 536.795L640.003 558.326L619.051 552.868C624.496 551.667 643.79 536.795 643.79 536.795Z" stroke="white" stroke-width="2.2672" stroke-linecap="round" stroke-linejoin="round"/>
<path d="M628.836 556.084L623.667 569.824L612.085 568.747L606.431 559.598L619.034 552.869" stroke="white" stroke-width="2.2672" stroke-linecap="round" stroke-linejoin="round"/>
<path d="M650.818 556.454C652.19 555.813 652.871 554.329 652.34 553.141C651.807 551.952 650.265 551.508 648.892 552.148C647.52 552.789 646.839 554.271 647.371 555.461C647.903 556.65 649.446 557.094 650.818 556.454Z" stroke="white" stroke-width="2.2672" stroke-linecap="round" stroke-linejoin="round"/>
<path d="M587.051 120.898L638.551 161.169C638.819 161.38 639.125 161.534 639.452 161.623C639.779 161.711 640.119 161.732 640.454 161.685C640.789 161.636 641.111 161.521 641.402 161.344C641.693 161.168 641.946 160.934 642.146 160.656L649.926 149.882C650.309 149.345 650.473 148.678 650.386 148.02C650.299 147.362 649.967 146.764 649.46 146.35L598.686 104.825C598.416 104.605 598.107 104.444 597.775 104.351C597.442 104.258 597.096 104.234 596.755 104.282C596.413 104.33 596.086 104.448 595.79 104.63C595.495 104.811 595.239 105.052 595.038 105.337L586.533 117.348C586.15 117.892 585.991 118.568 586.088 119.23C586.185 119.893 586.53 120.491 587.051 120.898Z" fill="white" stroke="white" stroke-width="2.2672" stroke-linecap="round" stroke-linejoin="round"/>
<path d="M590.855 119.096L603.336 128.052L610.719 119.061L598.219 108.41L590.855 119.096Z" fill="#FF6D66"/>
<path d="M608.038 131.548L620.554 141.685L627.262 133.261L614.66 122.822L608.038 131.548Z" fill="#FAD8B0"/>
<path d="M624.755 145.57L637.255 154.525L643.201 146.718L631.377 136.598L624.755 145.57Z" fill="#A0C6F4"/>
<path d="M689.826 64.588L701.564 165.265C701.617 165.794 701.775 166.308 702.026 166.775C702.277 167.241 702.617 167.651 703.027 167.982C703.437 168.311 703.907 168.553 704.41 168.693C704.913 168.833 705.439 168.869 705.955 168.797L725.836 166.006C726.834 165.87 727.739 165.342 728.362 164.534C728.985 163.726 729.276 162.702 729.172 161.679L719.543 60.402C719.49 59.867 719.332 59.3485 719.077 58.8778C718.822 58.4072 718.477 57.9942 718.061 57.6639C717.647 57.3337 717.17 57.093 716.66 56.9564C716.152 56.8198 715.62 56.7903 715.1 56.8695L693.128 60.1547C692.118 60.3039 691.206 60.8521 690.589 61.6813C689.972 62.5105 689.697 63.5544 689.826 64.588Z" fill="white" stroke="white" stroke-width="2.2672" stroke-linecap="round" stroke-linejoin="round"/>
<path d="M695.825 66.9369L699.542 90.4988L717.072 89.1741L715.152 63.793L695.825 66.9369Z" fill="#FF6D66"/>
<path d="M700.804 99.509L703.276 124.36L719.492 122.877L717.244 97.6191L700.804 99.509Z" fill="#91BA83"/>
<path d="M703.587 133.241L707.303 156.803L722.05 155.143L720.269 131.068L703.587 133.241Z" fill="#FAD8B0"/>
<path d="M664.206 86.0289L696.707 183.649C696.839 184.047 697.047 184.414 697.319 184.728C697.592 185.044 697.923 185.3 698.293 185.483C698.663 185.665 699.064 185.769 699.475 185.792C699.885 185.814 700.296 185.753 700.683 185.61L721.048 178.122C721.8 177.841 722.417 177.275 722.771 176.542C723.125 175.808 723.19 174.963 722.95 174.183L692.437 75.608C692.308 75.1987 692.1 74.8202 691.825 74.4952C691.55 74.1704 691.213 73.9058 690.836 73.7176C690.458 73.5293 690.046 73.4214 689.626 73.4004C689.205 73.3792 688.786 73.4452 688.392 73.5945L666.056 82.0548C665.297 82.3344 664.677 82.9089 664.33 83.6531C663.984 84.3973 663.94 85.2512 664.206 86.0289Z" fill="white" stroke="white" stroke-width="2.2672" stroke-linecap="round" stroke-linejoin="round"/>
<path d="M670.793 87.8117L679.229 110.084L696.102 105.05L689.066 80.623L670.793 87.8117Z" fill="#A0C6F4"/>
<path d="M682.306 118.619L689.774 142.411L705.333 137.5L698.003 113.268L682.306 118.619Z" fill="#F9865F"/>
<path d="M691.883 151.027L700.319 173.282L714.409 168.512L707.771 145.34L691.883 151.027Z" fill="#FAD8B0"/>
<path d="M419.241 209.33H255.096C249.863 209.33 245.622 213.664 245.622 219.009V241.706C245.622 247.051 249.863 251.385 255.096 251.385H419.241C424.473 251.385 428.715 247.051 428.715 241.706V219.009C428.715 213.664 424.473 209.33 419.241 209.33Z" fill="#7595EC"/>
<path d="M357.732 221.713H268.251C266.524 221.713 265.123 223.144 265.123 224.91C265.123 226.676 266.524 228.107 268.251 228.107H357.732C359.46 228.107 360.861 226.676 360.861 224.91C360.861 223.144 359.46 221.713 357.732 221.713Z" fill="white"/>
<path d="M266.02 236.41H418.134" stroke="white" stroke-width="2.2672" stroke-linecap="round" stroke-linejoin="round"/>
<path d="M188.189 130.205L190.777 133.1C191.303 133.688 191.578 134.465 191.543 135.261C191.508 136.056 191.164 136.805 190.589 137.342L186.351 141.297C185.776 141.834 185.015 142.116 184.237 142.08C183.458 142.044 182.725 141.693 182.199 141.105L179.611 138.21L188.189 130.205Z" fill="#91BA83"/>
<path d="M164.88 124.576L177.088 138.23C177.719 138.936 178.79 138.986 179.482 138.341L187.918 130.467C188.609 129.822 188.658 128.728 188.026 128.022L175.819 114.368C175.189 113.663 174.116 113.613 173.426 114.257L164.989 122.132C164.298 122.776 164.249 123.871 164.88 124.576Z" stroke="white" stroke-width="2.2672" stroke-linecap="round" stroke-linejoin="round"/>
<path d="M152.13 186.619H136.797V200.925H152.13V186.619Z" fill="#FF6D66"/>
<path d="M136.797 177.414V186.616H127.634" stroke="white" stroke-width="2.2672" stroke-linecap="round" stroke-linejoin="round"/>
<path d="M657.36 25.0605H642.025V39.3672H657.36V25.0605Z" fill="#FAD8B0"/>
<path d="M642.025 15.8574V25.0597H632.863" stroke="white" stroke-width="2.2672" stroke-linecap="round" stroke-linejoin="round"/>
<path d="M226.985 113.496C67.9397 46.1669 -54.3873 175.845 245.293 374.408C268.891 390.057 305.091 395.603 305.091 395.603" stroke="white" stroke-width="2.2672" stroke-linecap="round" stroke-linejoin="round"/>
<path d="M80.7504 122.642C83.252 122.642 85.2798 120.57 85.2798 118.015C85.2798 115.459 83.252 113.387 80.7504 113.387C78.249 113.387 76.2212 115.459 76.2212 118.015C76.2212 120.57 78.249 122.642 80.7504 122.642Z" fill="white"/>
<path d="M51.9141 92.6014L56.8756 87.7266L68.2681 94.4031L74.0076 112.472L56.4952 104.983L51.9141 92.6014Z" stroke="white" stroke-width="2.2672" stroke-linecap="round" stroke-linejoin="round"/>
<path d="M56.8762 87.7245L51.9147 92.5993L49.1313 89.1551L53.8854 84.4922L56.8762 87.7245Z" stroke="white" stroke-width="2.2672" stroke-linecap="round" stroke-linejoin="round"/>
<path d="M74.0083 112.471L62.6157 99.7012" stroke="white" stroke-width="2.2672" stroke-linecap="round" stroke-linejoin="round"/>
<path d="M101.53 436.722L113.873 501.79C113.939 502.128 114.07 502.45 114.257 502.736C114.445 503.022 114.687 503.268 114.969 503.457C115.25 503.648 115.565 503.78 115.896 503.846C116.227 503.911 116.568 503.909 116.898 503.839L129.725 501.048C130.368 500.908 130.932 500.518 131.3 499.962C131.667 499.405 131.81 498.725 131.696 498.064L120.736 432.589C120.677 432.243 120.549 431.912 120.361 431.618C120.174 431.324 119.929 431.072 119.643 430.877C119.357 430.683 119.035 430.549 118.697 430.484C118.359 430.421 118.012 430.427 117.677 430.504L103.518 433.719C103.194 433.782 102.886 433.91 102.611 434.096C102.336 434.281 102.099 434.52 101.914 434.799C101.73 435.078 101.601 435.391 101.535 435.721C101.469 436.051 101.467 436.391 101.53 436.722Z" fill="white" stroke="white" stroke-width="2.2672" stroke-linecap="round" stroke-linejoin="round"/>
<path d="M105.593 437.954L109.119 453.125L120.46 451.412L118.04 434.969L105.593 437.954Z" fill="#FF6D66"/>
<path d="M110.363 458.938L113.129 474.993L123.622 473.245L120.977 456.889L110.363 458.938Z" fill="#FAD8B0"/>
<path d="M113.751 480.768L117.261 495.94L126.787 494.122L124.522 478.543L113.751 480.768Z" fill="#A0C6F4"/>
<path d="M455.424 599.761L507.633 585.49L509.638 591.266L456.824 605.272L455.424 599.761Z" stroke="white" stroke-width="2.2672" stroke-linecap="round" stroke-linejoin="round"/>
<path d="M448.162 592.311L449.684 597.151" stroke="white" stroke-width="2.2672" stroke-linecap="round" stroke-linejoin="round"/>
<path d="M446.693 595.471L451.102 593.918" stroke="white" stroke-width="2.2672" stroke-linecap="round" stroke-linejoin="round"/>
<path d="M445.639 610.801L448.474 619.95" stroke="white" stroke-width="2.2672" stroke-linecap="round" stroke-linejoin="round"/>
<path d="M443.219 616.597L451.067 614.053" stroke="white" stroke-width="2.2672" stroke-linecap="round" stroke-linejoin="round"/>
<path d="M433.693 595.717L437.41 607.833" stroke="white" stroke-width="2.2672" stroke-linecap="round" stroke-linejoin="round"/>
<path d="M430.011 603.262L441.005 599.676" stroke="white" stroke-width="2.2672" stroke-linecap="round" stroke-linejoin="round"/>
<path d="M74.6299 20.148L41.5933 4.90513L42.959 1.05469L76.203 16.686L74.6299 20.148Z" stroke="white" stroke-width="1.51902" stroke-linecap="round" stroke-linejoin="round"/>
<path d="M75.3047 27.1793L76.5321 24" stroke="white" stroke-width="1.51902" stroke-linecap="round" stroke-linejoin="round"/>
<path d="M77.3783 26.1732L74.4395 25.0605" stroke="white" stroke-width="1.51902" stroke-linecap="round" stroke-linejoin="round"/>
<path d="M84.2935 18.6671L86.6272 12.6973" stroke="white" stroke-width="1.51902" stroke-linecap="round" stroke-linejoin="round"/>
<path d="M87.959 16.7053L82.8418 14.6211" stroke="white" stroke-width="1.51902" stroke-linecap="round" stroke-linejoin="round"/>
<path d="M84.2251 31.6842L87.3369 23.7891" stroke="white" stroke-width="1.51902" stroke-linecap="round" stroke-linejoin="round"/>
<path d="M89.2732 29.3674L82.0815 26.4531" stroke="white" stroke-width="1.51902" stroke-linecap="round" stroke-linejoin="round"/>
<path d="M198.15 305.307C174.846 288.175 151.957 261.54 162.001 234.18C162.001 234.18 178.061 223.247 203.492 236.918L228.939 250.66L198.15 305.307Z" fill="url(#paint0_linear_707_16)"/>
<path d="M187.587 419.46C177.094 414.391 132.353 390.582 124.384 349.905C117.469 314.792 143.815 267.403 156.988 246.455C156.141 274.239 183.456 297.766 196.628 307.445C207.838 315.865 220.206 322.544 233.33 327.262L187.587 419.46Z" fill="white"/>
<path d="M154.983 254.724C157.836 273.199 171.631 292.328 195.108 309.601C205.701 317.589 217.34 324.016 229.682 328.695L186.464 415.948C173.256 409.236 134.238 386.522 126.96 349.395C120.927 318.539 141.395 277.615 155.018 254.724H154.983ZM162.037 234.183C162.037 234.183 112.508 302.572 121.878 350.437C131.248 398.303 188.815 422.854 188.815 422.854L236.996 325.71C221.938 320.076 212.154 315.483 198.185 305.203C174.882 288.071 151.993 261.436 162.037 234.076V234.183Z" fill="url(#paint1_linear_707_16)"/>
<path d="M148.984 273.926C150.437 282.822 153.878 291.256 159.041 298.572C164.204 305.888 170.95 311.887 178.754 316.104" stroke="white" stroke-width="2.2672" stroke-linecap="round" stroke-linejoin="round"/>
<path d="M193.137 325.924L220.019 340.637" stroke="white" stroke-width="2.2672" stroke-linecap="round" stroke-linejoin="round"/>
<path d="M152.822 313.172C152.822 313.172 161.466 332.795 189.299 345.548" stroke="white" stroke-width="2.2672" stroke-linecap="round" stroke-linejoin="round"/>
<path d="M130.728 316.102C130.728 316.102 131.697 336.713 145.129 343.585" stroke="white" stroke-width="2.2672" stroke-linecap="round" stroke-linejoin="round"/>
<path d="M161.465 244.5C161.465 244.5 158.975 270.994 198.149 305.312" stroke="white" stroke-width="2.2672" stroke-linecap="round" stroke-linejoin="round"/>
<path d="M175.867 249.408C175.867 249.408 188.348 248.419 206.587 262.16" stroke="white" stroke-width="2.2672" stroke-linecap="round" stroke-linejoin="round"/>
<path d="M117.089 333.871C116.294 346.995 117.901 394.559 185.323 424.903" stroke="white" stroke-width="2.2672" stroke-linecap="round" stroke-linejoin="round"/>
<path d="M547.67 307.414L519.076 365.966C519.076 365.966 538.473 373.26 523.311 395.992C523.311 395.992 559.166 411.182 582.625 371.742C606.085 332.301 547.67 307.414 547.67 307.414Z" fill="url(#paint2_linear_707_16)"/>
<path d="M482.22 486.37C467.75 486.37 452.485 480.33 436.805 468.408L490.294 377.834L522.12 398.304L522.327 398.393C527.89 400.479 533.776 401.52 539.702 401.466C549.753 401.53 559.569 398.359 567.759 392.406L528.655 460.848C528.568 460.972 511.73 486.424 482.22 486.424V486.37Z" fill="white"/>
<path d="M491.158 381.543L520.547 400.46L520.927 400.707L521.325 400.866C527.205 403.087 533.432 404.2 539.702 404.151C546.905 404.179 554.034 402.65 560.62 399.665L526.494 459.311C525.388 460.972 509.551 483.721 482.237 483.721C468.909 483.721 454.802 478.334 440.246 467.7L491.158 381.543ZM582.626 371.723C569.367 394.012 552.166 398.852 539.702 398.852C534.114 398.9 528.564 397.924 523.312 395.973L489.446 374.195L433.452 469.079C452.157 483.809 468.528 489.107 482.237 489.107C513.546 489.107 530.902 462.226 530.902 462.226L582.626 371.811V371.723Z" fill="url(#paint3_linear_707_16)"/>
<path d="M519.076 365.963C519.076 365.963 540.409 373.664 523.311 395.99" stroke="white" stroke-width="2.2672" stroke-linecap="round" stroke-linejoin="round"/>
<path d="M488.771 372.145C488.771 372.145 517.832 399.344 533.91 399.15C549.987 398.956 568.865 395.07 579.981 375.465" stroke="white" stroke-width="2.2672" stroke-linecap="round" stroke-linejoin="round"/>
<path d="M492.349 407.33C492.349 407.33 512.282 425.416 534.583 419.606" stroke="white" stroke-width="2.2672" stroke-linecap="round" stroke-linejoin="round"/>
<path d="M513.286 434.355C513.286 434.355 523.744 442.356 538.369 434.778" stroke="white" stroke-width="2.2672" stroke-linecap="round" stroke-linejoin="round"/>
<path d="M465.156 445.52C465.156 445.52 489.359 470.053 527.305 453.874" stroke="white" stroke-width="2.2672" stroke-linecap="round" stroke-linejoin="round"/>
<path d="M478.296 421.584C478.296 421.584 488.15 428.79 494.321 431.087" stroke="white" stroke-width="2.2672" stroke-linecap="round" stroke-linejoin="round"/>
<path d="M552.579 324.404C552.579 324.404 574.621 331.77 577.266 361.496" stroke="white" stroke-width="2.2672" stroke-linecap="round" stroke-linejoin="round"/>
<path d="M563.661 361.121C563.661 361.121 573.809 377.176 556.66 393.213" stroke="white" stroke-width="2.2672" stroke-linecap="round" stroke-linejoin="round"/>
<path d="M435.422 464.663C435.422 464.663 490.742 535.454 530.936 452.67" stroke="white" stroke-width="2.2672" stroke-linecap="round" stroke-linejoin="round"/>
<path d="M35.9233 289.131H48.8199" stroke="#FF6D66" stroke-width="2.2672" stroke-linecap="round" stroke-linejoin="round"/>
<path d="M754.654 130.572H767.551" stroke="#FF6D66" stroke-width="2.2672" stroke-linecap="round" stroke-linejoin="round"/>
<path d="M408.644 40.1426H421.558" stroke="#FAD8B0" stroke-width="2.2672" stroke-miterlimit="10"/>
<path d="M779.29 198.947L791.978 201.278" stroke="#FAD8B0" stroke-width="2.2672" stroke-miterlimit="10"/>
<path d="M272.452 527.877H285.366" stroke="#A0C6F4" stroke-width="2.2672" stroke-linecap="round" stroke-linejoin="round"/>
<path d="M807.087 367.909C809.446 367.909 811.357 365.956 811.357 363.546C811.357 361.137 809.446 359.184 807.087 359.184C804.729 359.184 802.817 361.137 802.817 363.546C802.817 365.956 804.729 367.909 807.087 367.909Z" fill="#91BA83"/>
<path d="M4.27003 158.391C6.6283 158.391 8.54007 156.438 8.54007 154.028C8.54007 151.619 6.6283 149.666 4.27003 149.666C1.91176 149.666 0 151.619 0 154.028C0 156.438 1.91176 158.391 4.27003 158.391Z" fill="#91BA83"/>
</g>
<defs>
<linearGradient id="paint0_linear_707_16" x1="155.345" y1="263.696" x2="237.142" y2="263.972" gradientUnits="userSpaceOnUse">
<stop stop-color="#AA367C"/>
<stop offset="1" stop-color="#4A2FBD"/>
</linearGradient>
<linearGradient id="paint1_linear_707_16" x1="113.609" y1="318.484" x2="250.749" y2="318.794" gradientUnits="userSpaceOnUse">
<stop stop-color="#AA367C"/>
<stop offset="1" stop-color="#4A2FBD"/>
</linearGradient>
<linearGradient id="paint2_linear_707_16" x1="514.864" y1="348.306" x2="596.354" y2="348.533" gradientUnits="userSpaceOnUse">
<stop stop-color="#AA367C"/>
<stop offset="1" stop-color="#4A2FBD"/>
</linearGradient>
<linearGradient id="paint3_linear_707_16" x1="424.36" y1="424.209" x2="600.266" y2="425.03" gradientUnits="userSpaceOnUse">
<stop stop-color="#AA367C"/>
<stop offset="1" stop-color="#4A2FBD"/>
</linearGradient>
<clipPath id="clip0_707_16">
<rect width="811.657" height="621.212" fill="white"/>
</clipPath>
</defs>
</svg>
