<svg width="140" height="140" viewBox="0 0 140 140" fill="none" xmlns="http://www.w3.org/2000/svg">
<g clip-path="url(#clip0_1081_172)">
<path d="M137.36 63.7622L76.2344 2.64018C72.7163 -0.880059 67.0069 -0.880059 63.4845 2.64018L50.7916 15.3331L66.8932 31.4348C70.6349 30.1704 74.9257 31.0186 77.9084 34.0013C80.9052 37.0031 81.7474 41.3305 80.4524 45.0842L95.97 60.6024C99.7243 59.309 104.056 60.1457 107.055 63.1492C111.245 67.3382 111.245 74.1277 107.055 78.3195C102.863 82.5118 96.0733 82.5118 91.8794 78.3195C88.7272 75.164 87.9484 70.5347 89.5442 66.6513L75.0728 52.1799L75.0712 90.2627C76.1202 90.7814 77.0784 91.4665 77.9084 92.2916C82.0991 96.4806 82.0991 103.271 77.9084 107.466C73.7166 111.656 66.9238 111.656 62.738 107.466C58.5473 103.271 58.5473 96.4812 62.738 92.2921C63.7423 91.2874 64.9358 90.4916 66.2495 89.951V51.5133C64.9339 50.9762 63.7397 50.1801 62.738 49.1721C59.5629 46.0013 58.7994 41.3425 60.4264 37.4438L44.5539 21.5697L2.64141 63.4795C-0.880469 67.003 -0.880469 72.7129 2.64141 76.2337L63.7678 137.357C67.2869 140.878 72.9952 140.878 76.5187 137.357L137.359 76.5175C140.88 72.9956 140.88 67.2824 137.359 63.7622" fill="#DE4C36"/>
</g>
<defs>
<clipPath id="clip0_1081_172">
<rect width="140" height="140" fill="white"/>
</clipPath>
</defs>
</svg>
