<svg width="189" height="189" viewBox="0 0 189 189" fill="none" xmlns="http://www.w3.org/2000/svg">
<path fill-rule="evenodd" clip-rule="evenodd" d="M70 0C31.325 0 0 32.1173 0 71.7706C0 103.529 20.0375 130.353 47.8625 139.863C51.3625 140.491 52.675 138.338 52.675 136.454C52.675 134.749 52.5875 129.097 52.5875 123.087C35 126.406 30.45 118.691 29.05 114.653C28.2625 112.59 24.85 106.22 21.875 104.516C19.425 103.17 15.925 99.8508 21.7875 99.7611C27.3 99.6714 31.2375 104.964 32.55 107.118C38.85 117.973 48.9125 114.923 52.9375 113.039C53.55 108.374 55.3875 105.234 57.4 103.439C41.825 101.645 25.55 95.4548 25.55 68.0026C25.55 60.1976 28.2625 53.7382 32.725 48.7143C32.025 46.92 29.575 39.5635 33.425 29.6951C33.425 29.6951 39.2875 27.8111 52.675 37.0516C58.275 35.4367 64.225 34.6293 70.175 34.6293C76.125 34.6293 82.075 35.4367 87.675 37.0516C101.063 27.7214 106.925 29.6951 106.925 29.6951C110.775 39.5635 108.325 46.92 107.625 48.7143C112.088 53.7382 114.8 60.1078 114.8 68.0026C114.8 95.5446 98.4375 101.645 82.8625 103.439C85.4 105.682 87.5875 109.988 87.5875 116.717C87.5875 126.316 87.5 134.032 87.5 136.454C87.5 138.338 88.8125 140.581 92.3125 139.863C106.209 135.053 118.284 125.896 126.838 113.681C135.393 101.466 139.996 86.8082 140 71.7706C140 32.1173 108.675 0 70 0Z" fill="white"/>
</svg>
