<svg width="38" height="38" viewBox="0 0 38 38" fill="none" xmlns="http://www.w3.org/2000/svg">
<path d="M31.6667 28.5007H28.5V14.6465L19 20.584L9.5 14.6465V28.5007H6.33334V9.50065H8.23334L19 16.2298L29.7667 9.50065H31.6667M31.6667 6.33398H6.33334C4.57584 6.33398 3.16667 7.74315 3.16667 9.50065V28.5007C3.16667 29.3405 3.5003 30.146 4.09417 30.7398C4.68803 31.3337 5.49349 31.6673 6.33334 31.6673H31.6667C32.5065 31.6673 33.312 31.3337 33.9058 30.7398C34.4997 30.146 34.8333 29.3405 34.8333 28.5007V9.50065C34.8333 8.6608 34.4997 7.85534 33.9058 7.26148C33.312 6.66761 32.5065 6.33398 31.6667 6.33398Z" fill="#858080"/>
</svg>
