<svg width="24" height="24" viewBox="0 0 24 24" fill="none" xmlns="http://www.w3.org/2000/svg">
<path d="M11.999 1.99219C6.48502 1.99319 1.99902 6.47919 1.99902 11.9932C1.99902 17.5072 6.48502 21.9932 12 21.9932C17.513 21.9932 21.999 17.5072 22 11.9932C22 6.47919 17.514 1.99319 11.999 1.99219ZM12 19.9932C7.58802 19.9932 3.99902 16.4042 3.99902 11.9932C3.99902 7.58219 7.58802 3.99319 11.999 3.99219C16.411 3.99319 20 7.58219 20 11.9932C19.999 16.4042 16.41 19.9932 12 19.9932Z" fill="white"/>
<path d="M12 10.9932H8V12.9932H12V15.9992L16.005 11.9942L12 7.99023V10.9932Z" fill="white"/>
</svg>
