<svg width="120" height="120" viewBox="0 0 120 120" fill="none" xmlns="http://www.w3.org/2000/svg">
<g clip-path="url(#clip0_703_229)">
<path d="M83.1473 83.4753C87.5756 82.9943 90.9352 78.989 90.7823 74.1821C90.63 69.3757 86.812 65.5303 82.2309 65.5303H81.9258C77.1914 65.6907 73.5267 69.8562 73.6795 74.823C73.8323 77.2264 74.7483 79.3092 76.1227 80.7512C70.9308 91.4862 62.9902 99.3369 51.0792 105.906C42.9858 110.392 34.5872 111.994 26.1886 110.873C19.3167 109.912 13.972 106.708 10.612 101.42C5.72578 93.569 5.26781 85.077 9.39093 76.5856C12.2925 70.497 16.8731 66.0108 19.7747 63.7677C19.1639 61.6849 18.2475 58.1602 17.7895 55.5969C-4.35282 72.42 -2.06204 95.1713 4.65703 105.906C9.69609 113.917 19.9275 118.884 31.2276 118.884C34.2816 118.884 37.3355 118.563 40.3898 117.763C59.9362 113.757 74.7487 101.58 83.1473 83.4753ZM110.024 63.6079C98.4178 49.348 81.315 41.4974 61.7686 41.4974H59.3255C57.9511 38.6134 55.0495 36.6905 51.8428 36.6905H51.5372C46.8037 36.8508 43.1391 41.0164 43.2914 45.9836C43.4442 50.79 47.2617 54.6354 51.8428 54.6354H52.148C55.5075 54.4751 58.4091 52.232 59.6306 49.1877H62.3794C73.9852 49.1877 84.9797 52.7125 94.9059 59.6021C102.541 64.8895 108.038 71.7792 111.092 80.1103C113.688 86.8397 113.535 93.4087 110.787 99.0167C106.511 107.508 99.3342 112.155 89.8664 112.155C83.7581 112.155 77.9555 110.232 74.9011 108.79C73.2216 110.392 70.1672 112.955 68.0292 114.558C74.5959 117.762 81.315 119.525 87.7284 119.525C102.388 119.525 113.23 111.033 117.353 102.541C121.782 93.2484 121.476 77.2264 110.024 63.6079ZM32.4492 86.1984C32.602 91.0052 36.4195 94.8502 41.0006 94.8502H41.3062C46.0401 94.6903 49.7048 90.5243 49.552 85.5575C49.3997 80.7507 45.5817 76.9057 41.0006 76.9057H40.6955C40.3898 76.9057 39.9314 76.9057 39.6267 77.0656C33.3656 66.1707 30.7697 54.3148 31.6861 41.4969C32.2964 31.8836 35.3508 23.552 40.6955 16.6623C45.1237 10.7341 53.6751 7.85016 59.4783 7.69033C75.6647 7.36967 82.5361 28.5187 82.9945 37.0107C84.9797 37.4911 88.3392 38.6129 90.63 39.4141C88.7972 13.4587 73.5267 0 58.8675 0C45.1237 0 32.4492 10.4144 27.4097 25.7956C20.3855 46.3038 24.9666 66.0108 33.518 81.5523C32.7548 82.6736 32.2964 84.4362 32.4492 86.1989V86.1984Z" fill="#764ABC"/>
<path d="M83.1473 83.4753C87.5756 82.9943 90.9352 78.989 90.7823 74.1821C90.63 69.3757 86.812 65.5303 82.2309 65.5303H81.9258C77.1914 65.6907 73.5267 69.8562 73.6795 74.823C73.8323 77.2264 74.7483 79.3092 76.1227 80.7512C70.9308 91.4862 62.9902 99.3369 51.0792 105.906C42.9858 110.392 34.5872 111.994 26.1886 110.873C19.3167 109.912 13.972 106.708 10.612 101.42C5.72578 93.569 5.26781 85.077 9.39093 76.5856C12.2925 70.497 16.8731 66.0108 19.7747 63.7677C19.1639 61.6849 18.2475 58.1602 17.7895 55.5969C-4.35282 72.42 -2.06204 95.1713 4.65703 105.906C9.69609 113.917 19.9275 118.884 31.2276 118.884C34.2816 118.884 37.3355 118.563 40.3898 117.763C59.9362 113.757 74.7487 101.58 83.1473 83.4753ZM110.024 63.6079C98.4178 49.348 81.315 41.4974 61.7686 41.4974H59.3255C57.9511 38.6134 55.0495 36.6905 51.8428 36.6905H51.5372C46.8037 36.8508 43.1391 41.0164 43.2914 45.9836C43.4442 50.79 47.2617 54.6354 51.8428 54.6354H52.148C55.5075 54.4751 58.4091 52.232 59.6306 49.1877H62.3794C73.9852 49.1877 84.9797 52.7125 94.9059 59.6021C102.541 64.8895 108.038 71.7792 111.092 80.1103C113.688 86.8397 113.535 93.4087 110.787 99.0167C106.511 107.508 99.3342 112.155 89.8664 112.155C83.7581 112.155 77.9555 110.232 74.9011 108.79C73.2216 110.392 70.1672 112.955 68.0292 114.558C74.5959 117.762 81.315 119.525 87.7284 119.525C102.388 119.525 113.23 111.033 117.353 102.541C121.782 93.2484 121.476 77.2264 110.024 63.6079ZM32.4492 86.1984C32.602 91.0052 36.4195 94.8502 41.0006 94.8502H41.3062C46.0401 94.6903 49.7048 90.5243 49.552 85.5575C49.3997 80.7507 45.5817 76.9057 41.0006 76.9057H40.6955C40.3898 76.9057 39.9314 76.9057 39.6267 77.0656C33.3656 66.1707 30.7697 54.3148 31.6861 41.4969C32.2964 31.8836 35.3508 23.552 40.6955 16.6623C45.1237 10.7341 53.6751 7.85016 59.4783 7.69033C75.6647 7.36967 82.5361 28.5187 82.9945 37.0107C84.9797 37.4911 88.3392 38.6129 90.63 39.4141C88.7972 13.4587 73.5267 0 58.8675 0C45.1237 0 32.4492 10.4144 27.4097 25.7956C20.3855 46.3038 24.9666 66.0108 33.518 81.5523C32.7548 82.6736 32.2964 84.4362 32.4492 86.1989V86.1984Z" fill="#764ABC"/>
</g>
<defs>
<clipPath id="clip0_703_229">
<rect width="120" height="120" fill="white"/>
</clipPath>
</defs>
</svg>
