<svg width="140" height="140" viewBox="0 0 140 140" fill="none" xmlns="http://www.w3.org/2000/svg">
<path d="M131.202 66.8067C131.163 65.2361 131.079 63.6217 130.996 62.0511C130.913 60.4805 130.874 58.8267 130.708 57.2123C130.419 55.0248 130.13 52.7892 129.631 50.6498C129.219 48.8909 128.679 47.1641 128.017 45.483C127.265 43.4683 126.409 41.494 125.453 39.568C123.722 36.5812 121.823 33.6949 119.766 30.923C118.484 29.103 116.83 27.6155 115.588 25.7561C114.816 24.6803 113.882 23.7312 112.818 22.943C111.164 21.6305 109.428 20.4186 107.691 19.2636C106.378 18.3536 105.066 17.4873 103.639 16.6998C102.524 16.0786 101.325 15.5842 100.166 15.0461C98.8752 14.3258 97.4995 13.7703 96.0707 13.3923C95.7064 13.3004 95.3471 13.1894 94.9945 13.0598C94.0451 12.7273 93.1351 12.3555 92.1813 12.0667C90.7332 11.6292 89.3288 11.0736 87.8413 10.7017C86.3838 10.3426 84.907 10.0665 83.4182 9.87483C81.7645 9.62545 80.067 9.54233 78.4132 9.38045C77.337 9.25795 76.2607 9.13108 75.2282 9.0917C73.6576 9.00858 72.0432 9.00858 70.4726 8.9692C69.6754 8.90044 68.8751 8.8727 68.0751 8.88608C66.8714 8.93547 65.6711 9.04645 64.4788 9.21858C63.3195 9.34108 62.1645 9.55108 61.0445 9.71295C59.6795 9.8792 58.3145 9.96233 56.9495 10.1286C55.6676 10.2948 54.3245 10.5442 53.0645 10.7498C52.627 10.833 52.1545 10.9992 51.6995 11.0823C50.6819 11.23 49.6739 11.4375 48.6807 11.7036C46.9045 12.2417 45.1238 12.863 43.387 13.5236C41.7785 14.1684 40.2057 14.8986 38.6751 15.7111C37.1045 16.5861 35.6126 17.6142 34.1251 18.6073C32.7207 19.5567 31.312 20.5498 29.947 21.6261C28.6353 22.6769 27.3794 23.7955 26.1845 24.9773C25.5238 25.638 24.9857 26.4255 24.3645 27.1648C23.332 28.3636 22.2951 29.523 21.302 30.7611C20.4751 31.7936 19.7313 32.8698 18.9438 33.9461C17.5719 35.846 16.3281 37.8352 15.2207 39.9005C14.7832 40.7273 14.3457 41.5542 13.9388 42.3811C13.3176 43.6236 12.657 44.8223 12.0795 46.1042C11.6627 46.9943 11.3302 47.9215 11.0863 48.8736C10.5088 50.8992 9.92696 52.9686 9.38883 54.9986C8.95143 56.8209 8.73694 58.6896 8.75008 60.5636C8.74297 62.2086 8.83941 63.8525 9.03883 65.4855C9.07821 65.8967 8.83321 66.3955 9.32758 66.728C9.36696 66.728 9.32758 66.8942 9.28383 66.9336C9.25543 66.9869 9.2394 67.046 9.23694 67.1063C9.23447 67.1667 9.24563 67.2269 9.26958 67.2823C9.29353 67.3378 9.32967 67.3872 9.37531 67.4268C9.42094 67.4664 9.47491 67.4952 9.53321 67.5111C9.55504 67.5338 9.56887 67.5629 9.57258 67.5942H9.37571C9.25321 67.9661 9.66446 68.2548 9.49821 68.6705C9.45883 68.7536 9.62071 68.9198 9.70383 69.0423C9.68346 69.1787 9.68346 69.3173 9.70383 69.4536C9.79614 69.8354 9.86481 70.2226 9.90946 70.613C9.90946 70.9017 10.1588 71.2342 10.242 71.523C10.26 71.5933 10.262 71.6669 10.2476 71.7381C10.2332 71.8093 10.2028 71.8764 10.1588 71.9342C9.90946 72.223 9.95321 72.4723 10.3251 72.6386C10.4282 72.7048 10.5018 72.8082 10.5307 72.9273C10.5099 73.1781 10.4689 73.4269 10.4082 73.6711C10.4913 73.7542 10.5307 73.8373 10.4913 73.9205C10.452 74.0036 10.3688 74.1698 10.4082 74.253C10.7173 74.9279 10.8855 75.6589 10.9026 76.4011C10.9254 76.5889 10.9817 76.7712 11.0688 76.9392C11.1538 76.935 11.2387 76.9484 11.3182 76.9786L11.0688 77.7223C11.2534 77.6219 11.4467 77.5384 11.6463 77.473C11.7549 77.9767 11.8937 78.4734 12.062 78.9605C12.1227 79.0633 12.2085 79.149 12.3113 79.2098C12.2676 79.293 12.2676 79.4592 12.1888 79.4986C12.3043 80.2306 12.4844 80.9509 12.727 81.6511C12.7707 81.6511 12.8101 81.6073 12.8495 81.6073C12.727 80.8636 12.6438 80.0761 12.517 79.3323V79.083C12.5554 79.0624 12.5967 79.0476 12.6395 79.0392C12.6948 79.2001 12.7358 79.3655 12.762 79.5336C13.0945 79.5336 13.5888 79.7392 13.9213 79.7392C13.9558 79.6133 13.9967 79.4891 14.0438 79.3673C13.7945 79.118 13.6063 78.7461 13.3395 78.4923C13.3837 78.6823 13.3837 78.8799 13.3395 79.0698C13.1732 78.9867 12.9676 78.9036 12.762 78.8205C12.9411 78.5889 13.134 78.3683 13.3395 78.1598C13.3395 77.788 13.1338 77.4555 12.552 77.4992C12.8013 77.4161 13.0507 77.2936 13.3395 77.2105C13.3734 77.3237 13.4143 77.4348 13.462 77.543C13.7945 76.9655 13.2957 76.5105 13.2957 75.9286C13.2053 75.196 13.0397 74.4747 12.8013 73.7761C12.5957 72.6167 12.6351 70.8798 12.5126 69.7248C12.5126 69.6417 12.3901 69.5586 12.307 69.4755C12.2632 69.5192 12.0576 70.053 12.0182 70.0967C12.1407 71.0898 12.2676 72.0829 12.3507 73.0761C12.3113 73.0761 12.2676 73.0761 12.2676 73.1155C12.1013 72.2405 11.9351 71.3392 11.7295 70.3461C11.69 70.5367 11.6623 70.7296 11.6463 70.9236C11.5238 70.8842 11.4801 70.8405 11.2745 70.7573C11.4407 71.1292 11.607 71.3786 11.712 71.6673C11.5142 71.5913 11.3014 71.5629 11.0907 71.5842V72.7436C10.8044 72.4288 10.5548 72.0824 10.347 71.7111C10.2638 71.3786 10.2245 71.0505 10.1413 70.718L10.2638 70.6742C10.2099 70.5414 10.1689 70.4036 10.1413 70.263C10.1005 69.9713 10.0597 69.6402 10.0188 69.2698C10.0582 69.2305 10.2245 69.1867 10.3076 69.1036L9.97508 68.6092C10.2213 68.6506 10.4696 68.6784 10.7188 68.6923C10.7188 68.6092 10.7582 68.5698 10.7188 68.5261C10.3032 68.1542 10.5963 67.8217 10.7582 67.4936C10.8413 67.3273 11.1301 67.288 11.1957 67.1217C11.5282 66.5005 12.0707 66.0061 12.0707 65.2186C12.1059 64.8295 12.1614 64.4425 12.237 64.0592C12.3201 63.3548 12.4032 62.6548 12.4426 61.9505C12.4615 61.0562 12.5434 60.1644 12.6876 59.2817C13.2617 56.7568 14.0355 54.2815 15.002 51.8792C15.5786 50.2596 16.2416 48.6721 16.9882 47.1236C18.1038 44.8923 19.3857 42.7486 20.6282 40.5611C21.4157 39.1961 22.2426 37.9361 23.1088 36.593C23.9751 35.2498 24.7626 33.968 25.7338 32.7867C27.0399 31.0933 28.5049 29.5287 30.1088 28.1142C31.7626 26.6267 33.3332 25.0955 35.1138 23.7392C37.4143 21.9535 39.8647 20.3697 42.4376 19.0055C44.5473 17.9295 46.7231 16.9884 48.952 16.188C50.3563 15.6498 51.8876 15.4048 53.327 14.9455C54.9586 14.4232 56.6584 14.1446 58.3713 14.1186C59.487 14.0792 60.5588 13.9523 61.6788 13.8298C62.672 13.7467 63.6651 13.6636 64.7413 13.5411C64.6611 13.6442 64.5921 13.7557 64.5357 13.8736C64.0982 14.5342 63.5863 15.1861 63.1313 15.8598C62.7595 16.398 62.3438 16.9755 61.972 17.5136C61.3113 18.3886 60.607 19.2636 59.9857 20.1386C59.0363 21.5036 58.1657 22.908 57.1726 24.273C56.1795 25.638 55.1032 26.8367 54.0707 28.1186C52.7057 29.8948 51.4457 31.7148 50.0588 33.4955C48.8163 35.193 47.4951 36.803 46.2963 38.5005C45.2201 39.988 44.2707 41.563 43.2338 43.0898C41.7026 45.3648 40.1713 47.5961 38.6445 49.8711C37.4457 51.6211 36.247 53.3055 35.0045 55.0423C34.9125 55.148 34.7991 55.233 34.672 55.2917C34.5888 55.3748 34.4226 55.458 34.4226 55.5411C34.3789 55.8223 34.3101 56.099 34.217 56.368C33.8845 56.9892 33.5563 57.6105 33.1845 58.188C32.9788 58.5205 32.6901 58.8092 32.4407 59.1373C32.3576 59.098 32.3182 59.0542 32.2351 59.0542C32.4013 58.6386 33.1101 58.3936 32.7732 57.7723C32.5676 58.1048 32.3576 58.3936 32.152 58.7217L31.6576 59.7148C31.8238 59.8373 32.0951 59.9205 31.8238 60.1523C31.7013 60.358 31.5745 60.5898 31.452 60.813C31.4957 60.813 31.4957 60.8523 31.5351 60.8523C31.6576 60.6861 31.7845 60.5636 31.907 60.4148C31.9463 60.4148 31.9901 60.4586 32.0295 60.4586C31.8789 60.8646 31.6853 61.2532 31.452 61.618C31.213 61.9445 30.9164 62.2247 30.577 62.4448C30.6207 62.4842 30.9095 62.6111 30.9488 62.6505C31.0713 62.4842 31.1151 62.5673 31.2376 62.4011C31.3207 62.5236 31.4432 62.318 31.487 62.4405C31.6007 62.3165 31.6978 62.1783 31.7757 62.0292C31.8415 61.8277 31.9491 61.6425 32.0917 61.4856C32.2342 61.3288 32.4083 61.2039 32.6026 61.1192C32.7613 61.0412 32.9061 60.9378 33.0313 60.813C34.2738 59.5311 35.5557 58.2886 36.6713 56.928C38.4213 54.8192 39.9788 52.6273 41.6326 50.4748C42.337 49.5648 43.1638 48.6548 43.9076 47.7886C43.9907 47.8323 44.0738 47.8323 44.1132 47.8717C44.0301 48.7467 43.947 49.648 43.9076 50.4967C43.7851 52.028 43.702 53.5592 43.5751 55.1298C43.5357 55.7511 43.5751 56.3723 43.5357 56.9892C43.5357 57.1555 43.4132 57.278 43.4132 57.4267C43.4132 57.838 43.5357 58.3017 43.5357 58.7086C43.4132 60.2398 43.247 61.7273 43.1201 63.2586C43.1247 63.5856 43.1946 63.9084 43.3257 64.208C43.2638 64.1448 43.1948 64.089 43.1201 64.0417C43.3337 66.4071 43.3615 68.7857 43.2032 71.1555C43.3695 71.1117 43.4526 71.0723 43.4526 70.9892C43.5138 70.7008 43.5548 70.4084 43.5751 70.1142C43.596 69.8521 43.596 69.5888 43.5751 69.3267V68.9155C43.6779 68.1617 43.7189 67.4009 43.6976 66.6405C43.601 65.8418 43.629 65.033 43.7807 64.243C43.8638 63.9105 43.7413 63.4992 43.947 63.0836V63.7048C43.995 66.0652 43.8986 68.4263 43.6582 70.7748C43.6188 70.9805 43.7807 71.3523 43.3257 71.313C43.282 71.313 43.2426 71.5186 43.1595 71.6455C42.9538 72.0567 43.4088 72.5948 42.9932 73.0105C42.9101 73.0936 43.0763 73.448 43.1157 73.7148C43.1157 73.798 43.1595 73.8811 43.1157 73.9205C42.9495 74.2092 42.9495 74.2092 43.1988 74.253C43.2426 75.163 43.3213 76.003 43.3651 76.878H43.4876C43.7779 75.2892 43.9432 73.6801 43.982 72.0655C44.0383 72.7391 44.0529 73.4156 44.0257 74.0911C44.0257 75.1673 43.982 76.1998 43.9426 77.2761C43.9352 77.4854 43.9074 77.6935 43.8595 77.8973C43.7796 78.4719 43.6553 79.0395 43.4876 79.5948C43.3753 80.0971 43.3472 80.6146 43.4045 81.1261V82.6967C43.4045 82.7405 43.527 82.863 43.527 83.0292C43.5663 83.4011 43.3607 83.773 43.4832 84.1886C43.527 84.2717 43.4438 84.3942 43.4001 84.4773C43.3467 84.5937 43.3329 84.7243 43.3607 84.8492L43.4832 85.4705C43.4832 85.5098 43.527 85.5536 43.5663 85.6367C43.5951 85.5282 43.6098 85.4165 43.6101 85.3042C44.3145 85.3873 43.9426 86.0086 44.2707 86.3367C44.1045 86.4198 43.982 86.4592 43.982 86.503C44.0406 86.6432 44.0817 86.7902 44.1045 86.9405C44.0972 87.3005 44.0695 87.6598 44.0213 88.0167C44.0213 88.9661 43.9776 89.9198 43.9776 90.8298C43.9776 90.9523 44.0213 91.0792 44.0213 91.2017C44.0213 91.3242 43.9776 91.368 43.9776 91.4905V92.3655H44.1438C44.0606 92.499 43.9639 92.6237 43.8551 92.7373C43.8157 92.7373 43.6888 92.7373 43.6888 92.698V87.5267H43.0807C43.1595 89.8754 43.0483 92.2266 42.7482 94.5573C42.3513 94.6208 41.951 94.6617 41.5495 94.6798C40.2676 94.6798 38.9857 94.6798 37.7038 94.7192C36.1726 94.7192 34.6851 94.763 33.1538 94.763C32.4101 94.763 31.6226 94.8461 30.8788 94.8461C29.8857 94.8461 28.8532 94.7236 27.8601 94.7236C26.3288 94.7236 24.8413 94.8461 23.3101 94.8898C22.1945 94.9292 21.0788 94.9292 19.9588 94.973C19.2151 95.0123 18.4713 95.0561 17.7276 95.1392C17.3763 95.2079 17.031 95.3045 16.6951 95.428C16.4754 95.4071 16.2542 95.4071 16.0345 95.428C15.6188 95.5111 15.247 95.7605 14.8357 95.8436C14.2145 95.9661 14.0482 96.1323 14.1313 96.7536V97.1648C14.0454 97.0828 13.9482 97.0135 13.8426 96.9592C13.8113 96.9629 13.7821 96.9767 13.7595 96.9986C13.7988 97.1211 13.882 97.2042 13.9257 97.3311C14.092 97.248 14.2976 97.0423 14.4638 97.0423H15.0413C14.9582 97.0423 14.9188 97.2917 14.792 97.4798C15.1245 97.3573 15.3301 97.2742 15.5357 97.1911C15.5647 97.2995 15.5779 97.4114 15.5751 97.5236C16.106 97.4153 16.6502 97.3873 17.1895 97.4405C18.8089 97.8125 20.4543 98.0611 22.1113 98.1842C23.1876 98.2673 24.2201 98.3067 25.2963 98.3505C26.8276 98.4336 28.3588 98.5167 29.8857 98.5167C31.1676 98.5167 32.4101 98.3942 33.692 98.3942C35.4682 98.3942 37.2488 98.4773 39.0251 98.5167C39.397 98.5167 39.8126 98.473 40.2238 98.473H43.2426C45.9288 98.3898 48.6195 98.3505 51.3057 98.2673C52.837 98.228 54.4076 98.1448 55.9388 98.1011L60.6507 97.9786C62.4707 97.9392 64.2907 97.9392 66.067 97.8955C67.432 97.8955 68.7532 97.8561 70.1182 97.8123C71.6495 97.7686 73.2201 97.6461 74.7513 97.563C75.5782 97.5236 76.4051 97.4405 77.232 97.3573C78.2251 97.2742 79.2576 97.1517 80.2507 97.108C81.7382 97.0248 83.2695 96.9855 84.757 96.9023C86.6163 96.7798 88.4801 96.6136 90.3788 96.5698C92.1288 96.4867 93.8788 96.5305 95.6288 96.4867C97.1601 96.4473 98.6913 96.3642 100.262 96.3205L102.887 96.198C102.887 96.198 104.637 96.1586 105.512 96.0755C106.999 95.9923 108.491 95.8261 109.979 95.7867C110.928 95.7473 111.882 95.7867 112.831 95.7473C114.363 95.7036 115.933 95.6248 117.464 95.6248C118.042 95.6248 118.663 95.708 119.407 95.7473C119.074 96.0361 118.869 96.1848 118.619 96.408C118.791 96.4591 118.957 96.528 119.114 96.6136C119.114 96.6573 119.074 96.6967 119.074 96.7798C118.869 96.7798 118.663 96.8236 118.453 96.8236C118.337 97.0453 118.253 97.2825 118.204 97.528H118.948C118.659 97.528 118.409 97.8998 118.121 98.1492C118.164 98.1886 118.204 98.1886 118.243 98.2323C117.806 98.0661 117.499 98.1492 117.333 98.6042C117.441 98.6377 117.553 98.651 117.666 98.6436C117.626 98.7661 117.583 98.893 117.543 99.0548C117.491 99.1425 117.463 99.2418 117.46 99.3436L117.338 99.2211C117.345 99.136 117.331 99.0504 117.298 98.9717C117.049 99.2211 116.677 99.3873 116.883 99.9211C116.716 100.004 116.511 100.087 116.305 100.21C116.369 100.301 116.425 100.397 116.471 100.499C116.099 100.538 115.728 100.621 115.811 101.076C115.977 101.115 116.143 101.199 116.248 101.242C116.043 101.325 115.837 101.448 115.627 101.531C115.583 101.614 115.544 101.82 115.461 101.864C114.883 101.986 115.211 102.196 115.378 102.402C115.263 102.486 115.138 102.555 115.006 102.607C115.114 102.638 115.214 102.695 115.294 102.774C115.202 102.835 115.106 102.891 115.006 102.94C115.084 102.989 115.168 103.03 115.255 103.062C115.089 103.185 114.882 103.35 114.634 103.557C114.627 103.628 114.641 103.699 114.673 103.762C114.489 103.937 114.323 104.131 114.179 104.34C114.049 104.624 113.903 104.9 113.741 105.167C112.989 106.211 112.107 107.157 111.116 107.98C110.701 108.29 110.313 108.635 109.957 109.012C109.213 109.717 108.553 110.5 107.769 111.165C106.737 112.04 105.661 112.819 104.545 113.606C103.18 114.555 101.815 115.509 100.45 116.419C99.7063 116.914 98.8795 117.294 98.092 117.732C97.3045 118.169 96.5607 118.607 95.7776 119.044C95.3086 119.425 94.8113 119.771 94.2901 120.077C92.9251 120.654 91.477 121.153 90.0726 121.691C89.9501 121.73 89.867 121.774 89.7401 121.814C88.7076 122.251 87.7145 122.763 86.6776 123.126C85.717 123.451 84.7364 123.714 83.742 123.914C83.3843 123.948 83.0249 123.961 82.6657 123.953C81.9613 124.075 81.2613 124.242 80.557 124.325C78.737 124.574 76.917 124.736 75.097 124.985C74.0207 125.108 72.9882 125.318 71.912 125.423C71.1682 125.467 70.3807 125.384 69.637 125.384C69.0875 125.438 68.5347 125.451 67.9832 125.423C67.1082 125.3 66.2332 125.09 65.3582 124.929C65.1457 124.855 64.9172 124.842 64.6976 124.889C64.3651 125.055 64.0763 124.806 63.7482 124.889C63.5426 124.929 63.337 124.767 63.127 124.767C62.917 124.767 62.7551 124.806 62.5495 124.767C62.1136 124.6 61.6509 124.516 61.1845 124.517C60.6605 124.482 60.1446 124.37 59.6532 124.185L57.4657 123.69C57.1757 123.601 56.8979 123.476 56.6388 123.319C56.5272 123.39 56.3992 123.432 56.267 123.441C55.5659 123.368 54.8732 123.23 54.1976 123.03C53.6569 122.751 53.0558 122.61 52.4476 122.619C52.2813 122.658 52.1588 122.575 52.0101 122.575C51.8876 122.409 51.7607 122.08 51.6382 122.08C50.8113 122.124 50.3257 121.42 49.6126 121.205C49.2407 121.083 48.952 120.667 48.5801 120.545C47.6701 120.173 46.9263 119.385 45.8938 119.263C45.5402 119.184 45.1946 119.073 44.8613 118.93C44.9619 119.077 45.073 119.216 45.1938 119.346L45.1107 119.429C43.9951 118.769 42.8795 118.117 41.7595 117.487C41.5932 117.443 41.4707 117.281 41.3438 117.198L40.2282 116.454C40.1057 116.371 39.8563 116.249 39.8563 116.288C39.607 116.577 39.362 116.332 39.1957 116.249C38.0801 115.461 36.7982 114.967 35.722 114.096C35.2413 113.793 34.8004 113.432 34.4095 113.02C33.8363 112.347 33.1323 111.798 32.3401 111.405C31.7188 111.073 31.1413 110.701 30.5638 110.329C30.3975 110.24 30.2569 110.109 30.1558 109.95C30.0546 109.791 29.9962 109.608 29.9863 109.419C29.9863 109.13 29.8638 108.842 29.492 109.008C29.3257 108.759 29.1595 108.47 28.9538 108.387C28.5047 108.155 28.0991 107.847 27.7551 107.477C27.3832 107.144 27.0945 106.689 26.6395 106.527C25.9077 106.149 25.282 105.594 24.8195 104.913C23.6601 103.548 22.632 102.06 21.5513 100.612C21.4369 100.491 21.3125 100.38 21.1795 100.28L21.1357 100.324C21.3413 100.735 21.5513 101.111 21.757 101.522C21.7132 101.562 21.6345 101.605 21.5907 101.645C21.3413 101.356 21.0526 101.067 20.8032 100.77C20.7595 100.814 20.7201 100.853 20.6807 100.853L23.6251 105.639C23.8745 106.011 24.0626 106.383 24.3295 106.755C24.2821 106.806 24.2257 106.847 24.1632 106.877C23.9384 106.83 23.7262 106.735 23.5407 106.599C23.3552 106.463 23.2006 106.29 23.087 106.09C22.9678 105.768 22.7439 105.495 22.4513 105.314C22.1586 105.134 21.814 105.058 21.4726 105.097C21.3843 104.798 21.3156 104.494 21.267 104.187C21.0737 104.19 20.8805 104.177 20.6895 104.147C21.267 105.057 21.7657 105.845 22.3038 106.772L21.8926 106.523C22.6363 107.31 23.1745 108.299 24.1238 108.798C24.3295 109.747 25.4057 110.202 25.6551 111.112L25.0776 110.99C24.7451 110.579 24.3732 110.163 24.0013 109.708C24.0745 109.978 24.2009 110.231 24.3732 110.452C24.8388 111.081 25.3507 111.675 25.9045 112.228C26.1101 112.434 26.3988 112.517 26.3988 112.889C26.4971 112.802 26.6096 112.732 26.7313 112.683C26.6662 112.802 26.6106 112.927 26.5651 113.055C26.7313 113.055 26.8538 113.094 26.9807 113.094C27.0638 113.344 26.937 113.715 27.4182 113.632C27.462 113.632 27.5013 113.672 27.5407 113.715C27.7463 114.254 28.0788 114.254 28.5338 114.048C28.5914 114.029 28.6533 114.026 28.7122 114.041C28.7711 114.056 28.8245 114.087 28.8663 114.131C29.072 114.569 29.3607 114.625 29.7413 114.297C29.7413 114.503 29.7807 114.709 29.7807 114.875H29.9688C29.9688 114.792 29.9295 114.669 29.9295 114.464C30.1351 114.63 30.262 114.713 30.3451 114.796C30.7197 115.384 31.1797 115.914 31.7101 116.367C32.4976 117.027 33.1976 117.732 33.9413 118.353C35.4037 119.523 36.9674 120.562 38.6138 121.455C40.6001 122.57 42.4988 123.769 44.5288 124.845C46.9772 126.098 49.577 127.029 52.2638 127.615C53.257 127.82 54.2063 128.026 55.1995 128.275C56.0745 128.525 56.9495 128.897 57.8245 129.102C59.137 129.391 60.5107 129.64 61.8363 129.89L62.7463 130.012V130.095C63.1182 130.095 63.5732 129.929 63.6563 130.052C63.862 130.384 64.0282 130.218 64.2776 130.174C64.5889 130.104 64.9082 130.076 65.227 130.091C66.3672 130.221 67.5137 130.29 68.6613 130.297C68.9107 130.297 69.2826 130.091 69.4882 130.502C69.5713 130.459 69.6107 130.419 69.6938 130.38C69.8601 130.336 70.0657 130.336 70.232 130.297V130.375C70.1238 130.413 70.0125 130.441 69.8995 130.459C70.0479 130.489 70.1941 130.53 70.337 130.581C70.2783 130.637 70.2081 130.678 70.1313 130.704C69.9997 130.757 69.8749 130.826 69.7595 130.909C71.1201 131.22 72.5332 131.22 73.8938 130.909V130.66H74.0601C74.0687 130.748 74.0971 130.833 74.1432 130.909C76.02 131.072 77.9098 130.832 79.6863 130.205C79.8526 130.41 79.9751 130.699 80.2245 130.288C80.3076 130.165 80.5132 130.122 80.662 130.082C81.0266 129.936 81.423 129.886 81.8126 129.938C82.1845 130.06 82.307 129.732 82.6001 129.732C83.071 129.734 83.541 129.693 84.0045 129.61C84.2538 129.57 84.4988 129.444 84.792 129.36C84.7947 129.338 84.7926 129.316 84.7858 129.295C84.779 129.274 84.7676 129.254 84.7526 129.238C84.463 129.192 84.1707 129.164 83.8776 129.155C84.372 128.905 84.827 128.717 85.282 128.494C85.282 128.534 85.3257 128.534 85.3257 128.577C85.2032 128.617 85.1201 128.783 84.9538 128.783H85.5313C85.4088 128.783 85.2426 129.155 85.037 129.404L89.2151 128.372V128.289C89.0488 128.328 88.9263 128.328 88.7995 128.372C88.7601 127.497 89.7095 127.794 90.042 127.295C89.6263 127.418 89.2151 127.545 88.7995 127.628V127.545C90.2038 126.924 91.652 126.302 93.0607 125.685C93.0607 125.729 93.1045 125.729 93.1045 125.769C92.8551 125.935 92.6101 126.057 92.2295 126.263C92.4102 126.281 92.5898 126.309 92.7676 126.346C92.7676 126.469 92.7676 126.552 92.7282 126.595C93.4326 126.552 93.2663 125.935 93.472 125.563C93.5945 125.602 93.7607 125.685 93.8876 125.646C94.2519 125.554 94.6111 125.443 94.9638 125.314C95.3795 125.191 95.7907 125.064 96.2063 124.898C96.867 124.609 97.4882 124.237 98.1488 123.905C98.313 123.884 98.4791 123.884 98.6432 123.905C98.7576 123.89 98.8614 123.83 98.932 123.739C99.0982 123.616 99.2645 123.367 99.3695 123.406C99.489 123.44 99.614 123.449 99.7373 123.434C99.8605 123.419 99.9796 123.38 100.087 123.319C100.195 123.257 100.29 123.175 100.366 123.076C100.442 122.978 100.497 122.865 100.529 122.745C100.573 122.745 100.573 122.702 100.612 122.702C100.81 122.543 101.017 122.397 101.233 122.264C102.143 121.77 103.009 121.271 103.919 120.777C103.959 120.737 104.042 120.777 104.125 120.777C104.25 120.786 104.376 120.773 104.497 120.737C105.035 120.488 105.529 120.199 106.028 119.91C105.906 119.867 106.028 119.827 105.617 119.788V119.7C105.885 119.653 106.148 119.584 106.404 119.495L106.321 119.412C107.398 118.335 108.763 117.552 109.795 116.642C109.931 116.682 110.07 116.71 110.211 116.725C110.244 116.618 110.258 116.505 110.254 116.393C110.411 116.167 110.591 115.959 110.793 115.772C111.703 114.945 112.696 114.24 113.523 113.374C114.721 112.175 115.881 110.933 116.957 109.651C117.975 108.517 118.915 107.316 119.77 106.055C120.929 104.279 121.923 102.459 122.955 100.595C123.699 99.2823 124.359 97.9698 125.108 96.6267C125.191 96.5042 125.357 96.338 125.479 96.338C126.595 96.2155 127.711 96.1323 128.787 96.0055C129.063 95.9304 129.328 95.8186 129.574 95.673C129.452 95.4673 129.369 95.2355 129.242 95.0123C129.115 94.7892 128.831 94.5748 128.664 94.308C128.502 94.0881 128.363 93.8521 128.249 93.6036C128.126 93.398 127.999 93.2317 127.877 93.0261C127.618 92.5706 127.383 92.1019 127.173 91.6217C127.108 91.4855 127.079 91.3348 127.089 91.1842C127.833 89.5698 128.122 87.833 128.839 86.223C129.442 84.5081 129.859 82.7333 130.082 80.9292C130.371 79.2317 130.519 77.5386 130.743 75.8411C130.865 74.6423 131.031 73.483 131.075 72.2842C131.259 70.4702 131.3 68.6446 131.198 66.8242L131.202 66.8067ZM27.2388 112.959C26.9501 112.626 26.7007 112.254 26.412 111.926L26.5345 111.804C26.972 112.302 27.4445 112.797 27.8995 113.335C27.6575 113.254 27.4332 113.128 27.2388 112.963V112.959ZM27.8995 113.33C28.022 113.291 28.1488 113.291 28.2713 113.247C28.3938 113.453 28.477 113.685 28.6038 113.952C28.0263 113.912 27.7288 113.663 27.8995 113.33V113.33ZM70.9057 130.393V130.288L73.2201 130.039V130.161C72.4536 130.285 71.681 130.368 70.9057 130.41V130.393ZM81.327 129.317C80.7495 129.439 80.1282 129.522 79.5507 129.605C79.3451 129.649 79.1132 129.855 79.0126 129.483C78.9295 129.522 78.8463 129.522 78.7632 129.566C78.9688 130.187 79.4676 129.689 79.8788 129.938C78.9688 130.06 78.1026 130.144 77.2538 130.27V130.187L78.0413 130.065V129.938C77.6288 129.89 77.2141 129.862 76.7988 129.855C76.6763 129.855 76.5101 130.021 76.3876 130.06C76.2125 130.111 76.0317 130.139 75.8495 130.144C75.1451 130.183 74.4451 130.183 73.7801 130.227C73.7407 130.227 73.6576 130.183 73.6138 130.183V130.06L81.8826 128.945C81.922 129.028 81.922 129.111 81.9657 129.194C81.7546 129.211 81.5461 129.252 81.3445 129.317H81.327ZM81.9482 128.901C82.8976 128.779 83.7682 128.695 84.6782 128.569C82.7751 129.107 82.1538 129.19 81.9482 128.901ZM45.9376 45.4305C47.2501 43.6105 48.6238 41.7905 49.9495 39.9311C50.3607 39.393 50.6932 38.8155 51.1088 38.2773C51.2559 38.119 51.4219 37.9794 51.6032 37.8617L51.5595 37.7786C51.7123 37.6119 51.85 37.4318 51.9707 37.2405C52.1604 36.8937 52.3256 36.534 52.4651 36.1642C52.5086 36.0981 52.5652 36.0415 52.6313 35.998C53.2088 36.2867 53.2088 35.6655 53.4188 35.4598C53.7907 35.0486 54.1626 34.5848 54.4951 34.178C54.7531 33.864 54.9885 33.5322 55.1995 33.1848C55.2388 33.0623 55.1163 32.8523 55.077 32.6905H54.9545C55.077 32.6073 55.2038 32.4848 55.3263 32.4017C55.3701 32.4017 55.3701 32.4017 55.4095 32.3623C55.6588 31.9905 55.9038 31.6186 56.1532 31.2861C56.6461 30.6147 57.1856 29.9788 57.7676 29.383C57.6845 29.5886 57.6013 29.7986 57.5182 29.9605C57.5576 29.9605 57.5576 30.0042 57.6013 30.0042C58.0957 29.3436 58.6338 28.7223 59.1326 28.0617C59.0888 28.0223 59.0495 27.9786 59.0101 27.9786C58.8045 28.1842 58.6382 28.3898 58.4326 28.5998C58.3888 28.5605 58.3495 28.5167 58.3101 28.5167C58.7257 27.9786 59.137 27.4405 59.5526 26.8192C59.6748 27.02 59.7858 27.2274 59.8851 27.4405C60.0513 27.0248 60.2176 26.7361 60.3226 26.4473C60.2001 26.5698 60.0338 26.6967 59.9113 26.8192L59.7845 26.688L60.5282 25.5723C61.3157 24.4567 62.0988 23.2973 62.8863 22.1817C63.1751 21.7661 63.547 21.438 63.7963 21.0223C64.704 19.544 65.6988 18.1211 66.7757 16.7611C67.0022 16.4791 67.2509 16.2158 67.5195 15.9736C67.7251 15.7242 67.8913 15.8073 68.0576 16.0173C69.1732 17.4217 70.2888 18.8698 71.4088 20.2786C72.2357 21.3111 73.0626 22.3042 73.8501 23.3805C74.7995 24.693 75.7095 26.0055 76.6632 27.3486C77.7395 28.8798 78.8157 30.4111 79.8482 31.9817C81.4188 34.2961 82.9107 36.6148 84.4813 38.9292C85.6407 40.6267 86.7957 42.2805 87.9157 43.9736H85.807C83.8645 43.9298 81.8695 43.768 79.9357 43.8511C77.3107 43.9736 74.6026 44.2623 71.9557 44.4723C68.6045 44.7611 65.2138 44.8048 61.867 44.8048C60.6682 44.8048 59.4695 44.9711 58.2707 45.0542C56.8226 45.1373 55.4182 45.2205 53.9701 45.2598C52.2726 45.343 50.6188 45.3823 48.9257 45.4261C47.9763 45.4698 46.9832 45.4261 45.9463 45.4261L45.9376 45.4305ZM93.3626 64.453V64.8248C93.3232 64.8248 93.2795 64.8642 93.1963 64.8642C93.0301 64.2867 92.8638 63.6655 92.6582 63.088C92.2824 61.8613 91.7391 60.6924 91.0438 59.6142C90.217 58.4548 89.4732 57.2561 88.6463 56.0573C88.4201 55.7751 88.1714 55.5118 87.9026 55.2698C87.0738 54.2708 86.1144 53.3879 85.0501 52.6448C83.4046 51.6235 81.6745 50.7453 79.8788 50.0198C79.3798 49.805 78.896 49.5565 78.4307 49.2761H79.4238L86.4938 49.1536C88.0251 49.1098 89.5126 49.1098 91.0438 49.0311C91.2036 49.0184 91.3635 49.0531 91.5036 49.1309C91.6437 49.2087 91.7577 49.3262 91.8313 49.4686C92.2032 50.0898 92.5751 50.7067 92.9907 51.328C93.0564 51.428 93.0983 51.5417 93.1132 51.6605C93.1132 52.5705 93.1132 53.5198 93.1526 54.4298C93.192 55.3398 93.2751 56.2892 93.3188 57.243C93.3626 58.1967 93.2357 59.1855 93.2751 60.1786C93.3188 61.583 93.3582 63.0311 93.3582 64.4792L93.3626 64.453ZM48.8688 50.5973C50.8113 50.5142 52.6751 50.3917 54.5563 50.3086C56.0438 50.2255 57.5751 50.1861 59.0626 50.103C59.6676 50.0407 60.2775 50.0407 60.8826 50.103C60.2213 50.4118 59.585 50.7716 58.9795 51.1792C58.2357 51.6736 57.5313 52.3386 56.792 52.8767C56.0484 53.4342 55.3691 54.0725 54.7663 54.7798C53.9788 55.7292 53.1126 56.5561 52.2857 57.4661C51.669 58.098 51.0849 58.7609 50.5357 59.4523C49.8313 60.3623 49.2232 61.3555 48.5495 62.388C48.7551 58.4505 48.987 54.5742 48.8382 50.6017L48.8688 50.5973ZM75.8713 90.3792C74.5401 90.7538 73.1872 91.046 71.8201 91.2542C70.6388 91.3784 69.4502 91.4194 68.2632 91.3767C67.187 91.3767 66.1545 91.3373 65.0782 91.2542C63.8565 91.1951 62.6538 90.9288 61.5213 90.4667C60.5282 90.0292 59.4957 89.5917 58.5026 89.1017C57.4615 88.6415 56.5308 87.9644 55.7726 87.1155C55.1749 86.4711 54.5252 85.877 53.8301 85.3392C53.9525 85.8384 54.2669 86.2692 54.7051 86.538C54.4995 86.7873 54.2107 86.6605 53.7951 85.9998C53.6886 86.0636 53.5775 86.1192 53.4626 86.1661C53.5851 85.8773 53.712 85.5886 53.8345 85.3392C53.6682 85.0067 53.4626 84.6348 53.2963 84.3067C52.9635 83.765 52.6469 83.2135 52.347 82.653C52.2638 82.5305 52.2638 82.4036 52.1807 82.2811C51.9754 82.0434 51.7826 81.7951 51.6032 81.5373C51.2876 81.0082 50.9429 80.497 50.5707 80.0061C50.5707 80.1286 50.6101 80.2555 50.6101 80.4173C50.5788 80.421 50.5496 80.4349 50.527 80.4567L49.652 78.348C49.6082 78.348 49.6082 78.348 49.5688 78.3917L50.3126 81.1217C50.2688 81.1217 50.2295 81.1655 50.1901 81.1655C50.0556 81.0018 49.9437 80.8208 49.8576 80.6273C49.7745 80.2948 49.5251 80.2948 49.3195 80.4217C49.2543 80.4849 49.2052 80.5627 49.1763 80.6487C49.1474 80.7347 49.1395 80.8264 49.1532 80.9161C49.442 81.6205 49.7745 82.3205 50.1026 83.0248C50.1811 83.2665 50.2776 83.502 50.3913 83.7292C50.4351 83.8123 50.5576 83.8955 50.5576 84.018C50.6976 84.3467 50.8629 84.6641 51.052 84.9673C51.4238 85.4617 51.8395 85.9605 52.2113 86.4548C52.5832 86.9492 52.9157 87.4873 53.2438 87.9861C53.2876 88.0692 53.4101 88.0692 53.4495 88.1086C53.6551 88.7298 54.3595 89.1848 54.8538 88.9355C54.9763 89.8848 56.0132 90.2173 56.4245 91.123C56.018 90.9593 55.6181 90.7798 55.2257 90.5848C55.1863 90.6286 55.1863 90.668 55.1426 90.7511C55.6385 90.9886 56.1218 91.2514 56.5907 91.5386C57.0058 91.7767 57.4061 92.0397 57.7895 92.3261C58.2947 92.7707 58.9094 93.0728 59.5701 93.2011C59.5546 93.1403 59.5263 93.0837 59.487 93.0348C60.6463 93.573 61.8451 94.1505 62.7551 94.6055C58.4545 94.6886 53.8651 94.7717 49.1095 94.8548C49.1095 94.0673 49.0701 93.3236 49.0701 92.5405C49.1039 92.2252 49.117 91.9081 49.1095 91.5911C48.987 89.688 48.987 87.7848 48.7376 85.9255C48.5242 83.9615 48.4555 81.9845 48.532 80.0105C48.5713 78.9342 48.4882 77.823 48.4488 76.7423C48.4488 75.2942 48.4488 73.8898 48.4882 72.4417C48.5049 72.2401 48.5614 72.0438 48.6545 71.8642H48.777C48.8163 71.9473 48.777 72.0698 48.8601 72.1136C48.9826 72.2361 49.1926 72.4461 49.2757 72.4023C49.5251 72.2361 49.897 72.0698 49.9801 71.8248C50.1754 71.3382 50.2735 70.8179 50.2688 70.2936C50.2826 69.9737 50.3992 69.6669 50.6013 69.4186C50.6781 69.2858 50.7468 69.1484 50.807 69.0073C50.6407 68.8848 50.4745 68.8017 50.2688 68.6355C50.4351 68.198 50.3913 67.6423 51.0126 67.393C51.0957 67.3492 51.0957 67.1436 51.1351 67.0211L51.2576 65.9886C51.3156 66.0799 51.3846 66.1636 51.4632 66.238C51.4849 66.1933 51.5129 66.1521 51.5463 66.1155C51.5463 65.9492 51.507 65.6211 51.5463 65.6211C52.0407 65.538 51.8351 64.9998 52.0845 64.7461C52.1238 64.7067 52.0407 64.5798 52.0407 64.4967C52.0407 64.4136 52.0407 64.2911 52.0845 64.2911C52.662 64.1686 52.5788 63.5473 52.9595 63.2586C53.082 63.1755 53.1257 63.053 53.292 62.8473C53.6245 63.4248 53.0426 63.7223 53.0032 64.1292C53.7076 63.7136 53.9132 62.7248 53.4976 62.4317C53.6619 62.3056 53.809 62.1586 53.9351 61.9942C54.3726 61.4998 54.8845 61.0448 55.3001 60.5461C55.5888 60.1742 55.7376 59.7192 56.0438 59.3473C56.2579 59.1365 56.5103 58.9687 56.7876 58.853C57.5419 58.4946 58.1957 57.955 58.6907 57.2823C58.7937 57.1892 58.905 57.1057 59.0232 57.033C59.1457 56.9498 59.3951 56.9498 59.4345 56.8273C59.4738 56.7048 59.3513 56.5386 59.2682 56.4161C59.4345 56.333 59.6007 56.1667 59.9288 56.0048C59.8063 56.2542 59.7626 56.4161 59.6795 56.5823L59.8851 56.788C60.257 56.4992 60.8345 56.1667 61.1976 55.913C61.1976 55.8736 60.992 55.7073 60.992 55.7073C60.7426 55.8298 60.3707 56.0398 59.9988 56.2017C60.082 56.0792 60.082 55.9961 60.1213 55.9523C60.6896 55.5688 61.283 55.2238 61.8976 54.9198C63.3457 54.2592 64.7938 53.6073 66.2376 52.9773C66.5229 52.9005 66.8215 52.8871 67.1126 52.938C67.2249 52.9453 67.3376 52.932 67.4451 52.8986C68.1057 52.693 68.7576 52.4873 69.4313 52.3211C69.7278 52.2397 70.0339 52.1985 70.3413 52.1986C71.5838 52.238 72.822 52.238 74.0645 52.3211C74.5867 52.3679 75.1011 52.4796 75.5957 52.6536C76.2328 52.8732 76.854 53.1364 77.4551 53.4411C78.1538 53.8156 78.8301 54.2305 79.4807 54.6836C80.6795 55.4711 81.7951 56.3373 82.9807 57.0417C84.1013 57.7421 85.0602 58.6726 85.7938 59.7717C86.8205 60.9522 87.62 62.3123 88.152 63.7836L88.7732 66.5136C88.9951 67.006 89.0942 67.545 89.062 68.0842C88.8563 69.1167 88.6901 70.193 88.5238 71.2255C88.4221 71.6299 88.3808 72.0471 88.4013 72.4636C88.3891 73.7052 88.0769 74.9255 87.4913 76.0205C87.3251 76.3923 87.0757 76.7642 86.8701 77.1798C86.972 77.2516 87.084 77.3077 87.2026 77.3461L87.5745 76.6023C87.6138 76.6023 87.6138 76.6023 87.6576 76.6461C87.452 77.2236 87.2857 77.8448 87.0801 78.4223C86.5857 79.7042 86.087 81.0473 85.4657 82.268C85.0662 82.9404 84.628 83.589 84.1532 84.2105C83.7376 84.788 83.4095 85.4092 82.9938 85.9605C82.6456 86.4342 82.2283 86.8531 81.7557 87.203C80.6498 88.0497 79.4893 88.8228 78.282 89.5173C77.5185 89.9416 76.6955 90.2484 75.8407 90.4273L75.8713 90.3792ZM53.8301 88.1917L53.7907 88.2311C53.6862 88.1915 53.5887 88.1354 53.502 88.0648L52.5001 86.5773C52.4554 86.519 52.4247 86.4512 52.4103 86.3792C52.3959 86.3071 52.3982 86.2327 52.417 86.1617C52.8545 86.8661 53.327 87.5267 53.8213 88.1873L53.8301 88.1917ZM79.5507 93.8573C81.3272 93.0824 82.9556 92.0047 84.3632 90.6723C84.5638 90.4584 84.785 90.265 85.0238 90.0948C86.6924 88.9921 88.115 87.5562 89.202 85.8773C90.4123 83.9191 91.5036 81.8898 92.4701 79.8005C92.5449 79.6501 92.6282 79.504 92.7195 79.363C92.7276 84.05 93.0874 88.7298 93.7957 93.363L79.5682 93.8573H79.5507ZM121.485 92.6192C121.441 92.7023 121.363 92.7855 121.319 92.8686C121.282 92.7468 121.254 92.6226 121.236 92.4967C120.986 93.1573 120.448 92.8292 120.076 92.8292C117.845 92.8686 115.57 92.8686 113.334 92.8686C111.182 92.8686 108.994 92.8686 106.842 92.9123C106.138 92.9123 105.394 93.0786 104.689 93.118C102.992 93.2011 101.299 93.2405 99.6013 93.2842C99.4788 93.2842 99.352 93.0786 99.1638 92.9123C99.091 93.0429 99.0076 93.1673 98.9145 93.2842C98.8751 93.2011 98.792 93.118 98.7088 92.9955C98.6749 93.1087 98.634 93.2198 98.5863 93.328H98.4376C98.3139 92.7688 98.2306 92.2015 98.1882 91.6305C98.1882 90.388 98.3107 89.1498 98.3545 87.9073C98.3938 87.3298 98.3545 86.7917 98.3545 86.2536L98.792 86.5861C98.8656 86.4421 98.9489 86.3032 99.0413 86.1705C98.9802 86.138 98.9242 86.0967 98.8751 86.048C98.9582 86.0086 99.0413 85.9255 99.0413 85.8817C99.0937 85.7755 99.1348 85.664 99.1638 85.5492C99.1467 85.2836 99.1057 85.02 99.0413 84.7617C99.0634 84.7644 99.0858 84.7623 99.1069 84.7555C99.1281 84.7487 99.1475 84.7374 99.1638 84.7223L99.4132 85.9605H99.5357C99.3695 85.6717 99.9076 85.4223 99.4526 85.0855C99.4132 85.0461 99.4963 84.7967 99.4963 84.6742C99.3714 84.4045 99.2604 84.1285 99.1638 83.8473C99.253 83.7915 99.3504 83.7501 99.4526 83.7248C99.3197 83.6482 99.1824 83.5795 99.0413 83.5192C99.4526 83.1473 99.4526 82.9417 99.0851 82.5261C99.1682 82.4867 99.2513 82.4867 99.2513 82.443C99.2648 82.0692 99.2369 81.695 99.1682 81.3273C99.0851 80.9161 99.2907 80.4173 98.6738 80.168C98.7123 80.2865 98.7683 80.3986 98.8401 80.5005C98.7524 80.5312 98.6687 80.5723 98.5907 80.623C98.0526 80.1286 98.3851 79.4636 98.2582 78.7198C98.4974 78.79 98.7325 78.8732 98.9626 78.9692C98.8795 78.6805 98.6738 78.348 98.5513 77.9761H98.3851V75.2505C98.3851 75.2898 98.6738 75.2898 98.8226 75.3336C98.8226 75.2942 98.862 75.2505 98.862 75.2111C98.7395 75.0448 98.5732 74.8786 98.4245 74.673L98.5076 74.5898C98.3065 74.2547 98.2467 73.8534 98.3413 73.4742V70.578C98.7526 70.9892 98.1357 71.5273 98.7526 71.7767V71.3567H98.7132C98.6695 70.7355 98.6695 70.1142 98.6301 69.4973H98.547C98.5076 69.5805 98.5076 69.6198 98.4638 69.703H98.3807L98.6301 59.8198C99.056 60.313 99.4436 60.8381 99.7895 61.3905C100.796 63.0687 101.916 64.6766 103.141 66.203C104.134 67.568 105.044 69.0555 105.954 70.4642C107.069 72.1617 108.141 73.8548 109.261 75.5523C110.088 76.8342 110.959 78.1161 111.825 79.3586C112.613 80.4742 113.439 81.5461 114.266 82.6267C114.971 83.5761 115.714 84.5298 116.414 85.4792C117.241 86.6386 118.068 87.7936 118.895 88.9136C119.306 89.4911 119.77 90.073 120.208 90.6636C120.467 90.9599 120.761 91.2242 121.083 91.4511C121.024 91.4524 120.967 91.4373 120.916 91.4073C121.005 91.5369 121.102 91.6611 121.205 91.7792C121.643 92.0286 121.699 92.2736 121.454 92.6542L121.485 92.6192ZM123.594 82.2811V81.9923C123.594 82.0755 123.633 82.198 123.594 82.2811ZM124.998 64.0461C124.877 63.9619 124.766 63.8651 124.666 63.7573C124.622 63.8798 124.666 64.0067 124.583 64.1686C124.543 64.0461 124.25 64.0855 124.25 63.963C124.206 64.5405 124.499 65.1223 124.456 65.713C124.578 65.6298 125.077 65.5905 125.199 65.4636C125.245 65.5076 125.303 65.5366 125.366 65.5467C124.539 66.168 124.744 66.7892 125.116 67.4892C125.199 67.6555 125.449 67.9836 125.199 68.3161C125.116 68.3992 125.243 68.6486 125.283 68.8542H125.405V68.9373L125.033 69.0598C124.95 68.9373 124.456 68.688 124.456 68.4823V70.5911C124.867 70.7136 124.867 71.2955 125.033 71.5842C125.105 71.4823 125.161 71.3702 125.199 71.2517L125.243 71.2911C125.208 71.543 125.152 71.7917 125.077 72.0348C124.988 72.3895 124.92 72.7488 124.871 73.1111C124.871 73.1505 124.954 73.2336 124.954 73.2773C124.686 74.3453 124.561 75.4444 124.583 76.5455C124.46 77.333 124.583 78.1598 124.499 78.9867C124.403 79.7113 124.265 80.4299 124.088 81.1392C124.049 81.2617 123.966 81.3055 123.756 81.3886C123.824 80.9625 123.81 80.5271 123.712 80.1067C123.673 80.1067 123.134 79.818 123.091 79.818C123.186 80.5031 123.332 81.1802 123.528 81.8436C123.406 81.8042 122.907 81.5111 122.868 81.5111C122.784 82.0055 122.784 82.6705 122.745 83.2086C122.701 83.6198 122.329 83.9961 122.308 84.4511C122.308 84.7005 122.596 84.8623 122.557 85.278H122.889C122.889 84.4511 123.261 83.7073 123.261 82.8367H123.375C123.414 82.9198 123.541 83.003 123.498 83.0423C123.369 83.4996 123.3 83.9717 123.292 84.4467C123.292 84.6961 123.498 84.9411 123.414 85.2342C123.327 85.5189 123.271 85.8123 123.248 86.1092C123.208 85.9749 123.18 85.8372 123.165 85.698L122.728 85.6586C122.688 85.908 123.016 86.153 122.977 86.363C122.933 86.4067 122.894 86.4067 122.811 86.4461L121.446 84.4598C120.369 82.8892 119.293 81.3186 118.221 79.7042C117.943 79.3088 117.695 78.8935 117.478 78.4617C116.197 76.2623 114.773 74.149 113.216 72.1355C112.018 70.6042 111.064 68.9505 109.948 67.323C108.916 65.7917 107.879 64.3042 106.846 62.773C106.474 62.2786 106.019 61.8236 105.687 61.2855C104.611 59.588 103.661 57.8511 102.585 56.158C101.675 54.7536 100.682 53.3886 99.7326 52.0236C99.4001 51.5861 99.072 51.0742 98.7395 50.5755C98.6875 50.4879 98.6589 50.3885 98.6563 50.2867C98.5732 49.3767 98.4901 48.4667 98.4507 47.6005C98.4113 46.7342 98.5338 45.9467 98.5338 45.0761V44.3323C98.5338 44.1267 98.5732 43.9605 98.5732 43.7548C98.6126 43.7111 98.6563 43.6323 98.6957 43.5886C97.497 43.5886 96.2545 43.5492 95.0557 43.5886C94.7137 43.6036 94.3734 43.5312 94.0672 43.3781C93.761 43.2249 93.4989 42.9962 93.3057 42.7136C91.8447 40.8888 90.4779 38.9905 89.2107 37.0261C87.9288 35.2061 86.5857 33.4298 85.2732 31.6492C84.197 30.2011 83.1251 28.7967 82.0488 27.3486C80.8501 25.6948 79.6907 24.0411 78.4526 22.3873C76.9651 20.4011 75.4338 18.4192 73.9026 16.433C73.1982 15.523 72.4151 14.6567 71.6276 13.703C72.1657 13.7861 72.6601 13.8692 73.1588 13.9086L75.1451 14.0311C76.6326 14.1536 78.1245 14.2367 79.612 14.4467C80.8545 14.613 82.0926 14.8623 83.3745 15.068C86.0989 15.5476 88.7816 16.2395 91.3982 17.1373C92.9295 17.6317 94.417 18.2967 95.9045 18.9136C99.2277 20.2914 102.467 21.8648 105.604 23.6255C106.49 24.2224 107.272 24.9615 107.918 25.813C108.994 26.9286 110.071 28.0442 111.103 29.2036C112.302 30.5686 113.418 31.973 114.577 33.3817C115.609 34.6242 116.686 35.8623 117.718 37.1048C118.033 37.5019 118.326 37.9168 118.593 38.3473C119.254 39.3405 119.998 40.2898 120.579 41.3661C120.964 42.1941 121.281 43.0514 121.529 43.9298C121.94 45.2117 122.356 46.4542 122.771 47.7361C123.06 48.6855 123.309 49.6786 123.515 50.6717C123.681 51.3323 123.638 52.0367 123.848 52.6973C124.097 53.5723 123.848 54.5173 124.097 55.3836L124.219 55.6723C124.386 55.8386 124.508 56.0048 124.263 56.2498C124.219 56.3563 124.219 56.4758 124.263 56.5823C124.341 56.4933 124.41 56.3965 124.469 56.2936C124.469 56.3767 124.508 56.4161 124.508 56.4598C124.488 56.624 124.488 56.79 124.508 56.9542C124.531 57.057 124.573 57.1549 124.631 57.243C124.736 57.153 124.847 57.0697 124.963 56.9936C125.286 58.3899 125.424 59.8225 125.374 61.2548C125.553 62.6135 125.44 63.9947 125.042 65.3061C125.164 64.8686 124.876 64.4311 124.998 64.0242V64.0461Z" fill="#DD3735"/>
<path d="M98.7131 80.255C98.7449 80.2599 98.7741 80.2753 98.7962 80.2987L98.7524 80.255C98.7524 80.2156 98.7524 80.2156 98.7131 80.255V80.255ZM105.245 121.113C104.809 121.466 104.301 121.719 103.757 121.857C103.718 121.818 103.718 121.774 103.674 121.734C104.112 121.446 104.624 121.157 105.079 120.859C105.118 120.942 105.201 121.026 105.245 121.109V121.113ZM27.7068 65.0781C28.1443 64.5006 28.6168 63.9188 29.1112 63.3281C29.1506 63.3675 29.4831 63.4506 29.5268 63.4944C29.0893 64.0719 28.4506 64.8594 27.9956 65.4806C27.9124 65.3975 27.7899 65.1087 27.7068 65.0694V65.0781ZM15.9643 85.3431C15.6318 84.6387 15.3037 83.895 14.9712 83.1906C15.0869 83.1183 15.212 83.0623 15.3431 83.0244C15.7328 83.7133 16.0649 84.4333 16.3362 85.1769C16.2158 85.2399 16.0916 85.2955 15.9643 85.3431V85.3431ZM26.5081 65.4937C26.2587 65.8656 26.0137 66.2812 25.7643 66.6531C25.7249 66.6137 25.2699 66.8194 25.2262 66.7756C25.4756 66.4037 26.1012 65.7431 26.3418 65.3713C26.3892 65.422 26.4455 65.4636 26.5081 65.4937ZM100.817 122.806C100.861 122.806 100.861 122.762 100.901 122.762C101.215 122.813 101.532 122.84 101.85 122.846C101.312 123.218 100.975 123.178 100.817 122.806V122.806ZM26.5912 67.2262C26.644 67.0942 26.713 66.9693 26.7968 66.8544C26.8667 66.8498 26.9358 66.8366 27.0024 66.815C27.1687 66.5262 27.1687 66.3206 27.3349 66.0712C27.2956 66.0319 27.2518 66.0319 27.2124 65.9881C26.9631 66.1544 26.7181 66.36 26.4687 66.5262C26.4989 66.5506 26.5225 66.5823 26.537 66.6182C26.5516 66.6542 26.5567 66.6934 26.5518 66.7319C26.2193 66.6925 26.1143 66.8544 25.9306 67.3094C25.8868 67.4319 25.6812 67.4756 25.4931 67.6419C25.4537 67.725 25.4099 67.9306 25.3268 68.1362L25.3706 68.18C25.3107 68.234 25.2409 68.2756 25.1649 68.3025C24.9156 68.5519 24.6268 68.74 24.3774 69.0069C24.3301 69.1256 24.302 69.2511 24.2943 69.3787C24.5831 69.09 25.0818 68.5519 25.4537 68.2194L25.4931 68.2587C25.6593 68.0094 25.7818 67.7644 25.9306 67.515C25.9699 67.5544 25.9699 67.5981 26.0137 67.6375L25.6418 68.67C25.5587 68.7094 25.4362 68.7925 25.4362 68.7531C25.2699 68.8756 25.1474 69.0419 24.9987 69.1688L24.2549 69.6631C23.8393 70.035 23.4281 70.3675 22.9731 70.7394C22.6843 71.1769 22.3956 71.6144 22.0631 72.1437C22.5574 72.0212 22.6843 72.2269 22.6406 72.6381C23.2181 72.7213 23.2618 72.2662 23.4281 71.9337C23.4718 71.8506 23.5112 71.6844 23.5943 71.645C23.9662 71.3125 24.3818 71.0238 24.7931 70.6956C24.8637 70.5853 24.8932 70.4536 24.8762 70.3237C24.8762 70.2844 24.6706 70.2844 24.5437 70.2406C24.9156 69.825 25.4537 69.125 25.8256 68.67C26.0312 68.5475 26.2368 68.3812 26.2368 68.2544C26.1931 67.8169 26.4862 67.6769 26.8143 67.5106C26.7618 67.4795 26.7164 67.4377 26.6809 67.388C26.6455 67.3383 26.6209 67.2817 26.6087 67.2219L26.5912 67.2262Z" fill="#DD3735"/>
<path d="M27.418 66.772C27.2517 67.0607 27.0855 67.3101 26.9236 67.5988L26.6873 67.4763C26.6476 67.8838 26.5067 68.2749 26.2775 68.6141C26.0483 68.9533 25.738 69.2299 25.3748 69.4188C25.5027 69.5078 25.6569 69.551 25.8123 69.5413C25.9348 69.502 26.018 69.292 26.1011 69.1695L27.2167 67.5551L27.5623 66.9382L27.3961 66.772H27.418ZM13.6455 84.9282C13.8511 84.9282 14.0611 84.972 14.3061 84.972C14.3061 84.8057 14.5117 84.8495 14.5117 84.6832H14.6342C14.6342 84.8888 14.678 85.0551 14.678 85.2607H13.803C13.7592 85.217 13.5973 84.972 13.6367 84.9282H13.6455ZM13.313 83.0251C13.1905 82.9026 12.9805 82.7757 12.9805 82.6532C12.9805 82.5307 13.0636 82.2813 13.1861 82.0757C13.2692 82.3645 13.3086 82.6138 13.3917 82.9026C13.348 82.9419 13.3086 82.9857 13.3086 83.0251H13.313ZM14.3455 80.4001C14.5117 80.8157 14.678 81.2751 14.8398 81.682C14.7213 81.7204 14.6092 81.7764 14.5073 81.8482C14.3411 81.437 14.1355 80.9732 13.9692 80.5663C14.0807 80.4865 14.2072 80.4299 14.3411 80.4001H14.3455ZM106.395 119.933C106.654 119.849 106.917 119.78 107.183 119.727C106.865 119.956 106.561 120.205 106.273 120.471C106.229 120.427 106.19 120.388 106.15 120.388C106.234 120.221 106.317 120.099 106.4 119.95L106.395 119.933ZM55.5623 32.5332C55.8117 32.367 55.9998 32.2445 56.2667 32.0957L56.3498 32.1788C56.1005 32.5113 55.9123 32.8395 55.6061 33.2551C55.5667 32.9663 55.5667 32.8176 55.523 32.5945C55.4836 32.5945 55.523 32.5945 55.5667 32.5551L55.5623 32.5332ZM67.6767 53.4588L68.8755 52.9207C68.843 53.1114 68.8284 53.3048 68.8317 53.4982C68.6979 53.4504 68.5579 53.4224 68.4161 53.4151C68.1667 53.4545 67.7117 53.787 67.5061 53.8263C67.4623 53.8263 67.6723 53.4938 67.6723 53.4545L67.6767 53.4588ZM98.6911 88.5244C98.7742 88.9357 99.5661 89.1457 98.7742 89.5569C98.8967 89.6401 99.0236 89.6795 99.1461 89.7626C99.1357 89.8251 99.1068 89.883 99.063 89.9288C98.9798 89.9726 98.8136 90.0513 98.7305 90.0119C98.6473 89.9726 98.608 89.8457 98.608 89.7626C98.608 89.3907 98.6517 89.0188 98.6911 88.5201V88.5244Z" fill="#DD3735"/>
<path d="M131.202 66.8067C131.163 65.2361 131.08 63.6217 130.997 62.0511C130.914 60.4805 130.874 58.8267 130.708 57.2123C130.419 55.0248 130.131 52.7892 129.632 50.6498C129.219 48.8909 128.679 47.1641 128.017 45.483C127.266 43.4683 126.41 41.494 125.454 39.568C123.723 36.5812 121.824 33.6949 119.766 30.923C118.484 29.103 116.831 27.6155 115.588 25.7561C114.817 24.6803 113.882 23.7312 112.819 22.943C111.165 21.6305 109.428 20.4186 107.691 19.2636C106.379 18.3536 105.066 17.4873 103.64 16.6998C102.524 16.0786 101.326 15.5842 100.166 15.0461C98.8757 14.3258 97.4999 13.7703 96.0712 13.3923C95.7069 13.3004 95.3476 13.1894 94.9949 13.0598C94.0456 12.7273 93.1356 12.3555 92.1818 12.0667C90.7337 11.6292 89.3293 11.0736 87.8418 10.7017C86.3843 10.3426 84.9075 10.0665 83.4187 9.87483C81.7649 9.62545 80.0674 9.54233 78.4137 9.38045C77.3374 9.25795 76.2612 9.13108 75.2287 9.0917C73.6581 9.00858 72.0437 9.00858 70.4731 8.9692C69.6759 8.90044 68.8756 8.8727 68.0756 8.88608C66.8719 8.93547 65.6716 9.04645 64.4793 9.21858C63.3199 9.34108 62.1649 9.55108 61.0449 9.71295C59.6799 9.8792 58.3149 9.96233 56.9499 10.1286C55.6681 10.2948 54.3249 10.5442 53.0649 10.7498C52.6274 10.833 52.1549 10.9992 51.6999 11.0823C50.6824 11.23 49.6744 11.4375 48.6812 11.7036C46.9049 12.2417 45.1243 12.863 43.3874 13.5236C41.779 14.1684 40.2062 14.8986 38.6756 15.7111C37.1049 16.5861 35.6131 17.6142 34.1256 18.6073C32.7212 19.5567 31.3124 20.5498 29.9474 21.6261C28.6358 22.6769 27.3799 23.7955 26.1849 24.9773C25.5243 25.638 24.9862 26.4255 24.3649 27.1648C23.3324 28.3636 22.2956 29.523 21.3024 30.7611C20.4756 31.7936 19.7318 32.8698 18.9443 33.9461C17.5724 35.846 16.3286 37.8352 15.2212 39.9005C14.7837 40.7273 14.3462 41.5542 13.9393 42.3811C13.3181 43.6236 12.6574 44.8223 12.0799 46.1042C11.6632 46.9943 11.3307 47.9215 11.0868 48.8736C10.5093 50.8992 9.92744 52.9686 9.38932 54.9986C8.95192 56.8209 8.73743 58.6896 8.75057 60.5636C8.74346 62.2086 8.8399 63.8525 9.03932 65.4855C9.07869 65.8967 8.83369 66.3955 9.32807 66.728C9.36744 66.728 9.32807 66.8942 9.28432 66.9336C9.25592 66.9869 9.23989 67.046 9.23742 67.1063C9.23496 67.1667 9.24612 67.2269 9.27007 67.2823C9.29402 67.3378 9.33016 67.3872 9.3758 67.4268C9.42143 67.4664 9.4754 67.4952 9.53369 67.5111C9.55553 67.5338 9.56936 67.5629 9.57307 67.5942H9.37619C9.25369 67.9661 9.66494 68.2548 9.49869 68.6705C9.45932 68.7536 9.62119 68.9198 9.70432 69.0423C9.68395 69.1787 9.68395 69.3173 9.70432 69.4536C9.79663 69.8354 9.8653 70.2226 9.90994 70.613C9.90994 70.9017 10.1593 71.2342 10.2424 71.523C10.2605 71.5933 10.2625 71.6669 10.2481 71.7381C10.2337 71.8093 10.2033 71.8764 10.1593 71.9342C9.90994 72.223 9.95369 72.4723 10.3256 72.6386C10.4287 72.7048 10.5023 72.8082 10.5312 72.9273C10.5104 73.1781 10.4694 73.4269 10.4087 73.6711C10.4918 73.7542 10.5312 73.8373 10.4918 73.9205C10.4524 74.0036 10.3693 74.1698 10.4087 74.253C10.7178 74.9279 10.886 75.6589 10.9031 76.4011C10.9259 76.5889 10.9822 76.7712 11.0693 76.9392C11.1543 76.935 11.2392 76.9484 11.3187 76.9786L11.0693 77.7223C11.2539 77.6219 11.4472 77.5384 11.6468 77.473C11.7554 77.9767 11.8942 78.4734 12.0624 78.9605C12.1232 79.0633 12.209 79.149 12.3118 79.2098C12.2681 79.293 12.2681 79.4592 12.1893 79.4986C12.3048 80.2306 12.4849 80.9509 12.7274 81.6511C12.7712 81.6511 12.8106 81.6073 12.8499 81.6073C12.7274 80.8636 12.6443 80.0761 12.5174 79.3323V79.083C12.5559 79.0624 12.5972 79.0476 12.6399 79.0392C12.6953 79.2001 12.7363 79.3655 12.7624 79.5336C13.0949 79.5336 13.5893 79.7392 13.9218 79.7392C13.9563 79.6133 13.9972 79.4891 14.0443 79.3673C13.7949 79.118 13.6068 78.7461 13.3399 78.4923C13.3842 78.6823 13.3842 78.8799 13.3399 79.0698C13.1737 78.9867 12.9681 78.9036 12.7624 78.8205C12.9416 78.5889 13.1344 78.3683 13.3399 78.1598C13.3399 77.788 13.1343 77.4555 12.5524 77.4992C12.8018 77.4161 13.0512 77.2936 13.3399 77.2105C13.3739 77.3237 13.4148 77.4348 13.4624 77.543C13.7949 76.9655 13.2962 76.5105 13.2962 75.9286C13.2058 75.196 13.0402 74.4747 12.8018 73.7761C12.5962 72.6167 12.6356 70.8798 12.5131 69.7248C12.5131 69.6417 12.3906 69.5586 12.3074 69.4755C12.2637 69.5192 12.0581 70.053 12.0187 70.0967C12.1412 71.0898 12.2681 72.0829 12.3512 73.0761C12.3118 73.0761 12.2681 73.0761 12.2681 73.1155C12.1018 72.2405 11.9356 71.3392 11.7299 70.3461C11.6905 70.5367 11.6628 70.7296 11.6468 70.9236C11.5243 70.8842 11.4806 70.8405 11.2749 70.7573C11.4412 71.1292 11.6074 71.3786 11.7124 71.6673C11.5147 71.5913 11.3019 71.5629 11.0912 71.5842V72.7436C10.8049 72.4288 10.5553 72.0824 10.3474 71.7111C10.2643 71.3786 10.2249 71.0505 10.1418 70.718L10.2643 70.6742C10.2104 70.5414 10.1694 70.4036 10.1418 70.263C10.101 69.9713 10.0602 69.6402 10.0193 69.2698C10.0587 69.2305 10.2249 69.1867 10.3081 69.1036L9.97557 68.6092C10.2218 68.6506 10.4701 68.6784 10.7193 68.6923C10.7193 68.6092 10.7587 68.5698 10.7193 68.5261C10.3037 68.1542 10.5968 67.8217 10.7587 67.4936C10.8418 67.3273 11.1306 67.288 11.1962 67.1217C11.5287 66.5005 12.0712 66.0061 12.0712 65.2186C12.1064 64.8295 12.1619 64.4425 12.2374 64.0592C12.3206 63.3548 12.4037 62.6548 12.4431 61.9505C12.462 61.0562 12.5439 60.1644 12.6881 59.2817C13.2621 56.7568 14.036 54.2815 15.0024 51.8792C15.579 50.2596 16.2421 48.6721 16.9887 47.1236C18.1043 44.8923 19.3862 42.7486 20.6287 40.5611C21.4162 39.1961 22.2431 37.9361 23.1093 36.593C23.9756 35.2498 24.7631 33.968 25.7343 32.7867C27.0404 31.0933 28.5054 29.5287 30.1093 28.1142C31.7631 26.6267 33.3337 25.0955 35.1143 23.7392C37.4148 21.9535 39.8651 20.3697 42.4381 19.0055C44.5478 17.9295 46.7236 16.9884 48.9524 16.188C50.3568 15.6498 51.8881 15.4048 53.3274 14.9455C54.9591 14.4232 56.6588 14.1446 58.3718 14.1186C59.4874 14.0792 60.5593 13.9523 61.6793 13.8298C62.6724 13.7467 63.6656 13.6636 64.7418 13.5411C64.6616 13.6442 64.5926 13.7557 64.5362 13.8736C64.0987 14.5342 63.5868 15.1861 63.1318 15.8598C62.7599 16.398 62.3443 16.9755 61.9724 17.5136C61.3118 18.3886 60.6074 19.2636 59.9862 20.1386C59.0368 21.5036 58.1662 22.908 57.1731 24.273C56.1799 25.638 55.1037 26.8367 54.0712 28.1186C52.7062 29.8948 51.4462 31.7148 50.0593 33.4955C48.8168 35.193 47.4956 36.803 46.2968 38.5005C45.2206 39.988 44.2712 41.563 43.2343 43.0898C41.7031 45.3648 40.1718 47.5961 38.6449 49.8711C37.4462 51.6211 36.2474 53.3055 35.0049 55.0423C34.9129 55.148 34.7996 55.233 34.6724 55.2917C34.5893 55.3748 34.4231 55.458 34.4231 55.5411C34.3794 55.8223 34.3106 56.099 34.2174 56.368C33.8849 56.9892 33.5568 57.6105 33.1849 58.188C32.9793 58.5205 32.6906 58.8092 32.4412 59.1373C32.3581 59.098 32.3187 59.0542 32.2356 59.0542C32.4018 58.6386 33.1106 58.3936 32.7737 57.7723C32.5681 58.1048 32.3581 58.3936 32.1524 58.7217L31.6581 59.7148C31.8243 59.8373 32.0956 59.9205 31.8243 60.1523C31.7018 60.358 31.5749 60.5898 31.4524 60.813C31.4962 60.813 31.4962 60.8523 31.5356 60.8523C31.6581 60.6861 31.7849 60.5636 31.9074 60.4148C31.9468 60.4148 31.9906 60.4586 32.0299 60.4586C31.8794 60.8646 31.6858 61.2532 31.4524 61.618C31.2134 61.9445 30.9169 62.2247 30.5774 62.4448C30.6212 62.4842 30.9099 62.6111 30.9493 62.6505C31.0718 62.4842 31.1156 62.5673 31.2381 62.4011C31.3212 62.5236 31.4437 62.318 31.4874 62.4405C31.6012 62.3165 31.6983 62.1783 31.7762 62.0292C31.8419 61.8277 31.9496 61.6425 32.0922 61.4856C32.2347 61.3288 32.4088 61.2039 32.6031 61.1192C32.7618 61.0412 32.9066 60.9378 33.0318 60.813C34.2743 59.5311 35.5562 58.2886 36.6718 56.928C38.4218 54.8192 39.9793 52.6273 41.6331 50.4748C42.3374 49.5648 43.1643 48.6548 43.9081 47.7886C43.9912 47.8323 44.0743 47.8323 44.1137 47.8717C44.0306 48.7467 43.9474 49.648 43.9081 50.4967C43.7856 52.028 43.7024 53.5592 43.5756 55.1298C43.5362 55.7511 43.5756 56.3723 43.5362 56.9892C43.5362 57.1555 43.4137 57.278 43.4137 57.4267C43.4137 57.838 43.5362 58.3017 43.5362 58.7086C43.4137 60.2398 43.2474 61.7273 43.1206 63.2586C43.1252 63.5856 43.1951 63.9084 43.3262 64.208C43.2643 64.1448 43.1953 64.089 43.1206 64.0417C43.3342 66.4071 43.3619 68.7857 43.2037 71.1555C43.3699 71.1117 43.4531 71.0723 43.4531 70.9892C43.5143 70.7008 43.5552 70.4084 43.5756 70.1142C43.5965 69.8521 43.5965 69.5888 43.5756 69.3267V68.9155C43.6784 68.1617 43.7193 67.4009 43.6981 66.6405C43.6015 65.8418 43.6295 65.033 43.7812 64.243C43.8643 63.9105 43.7418 63.4992 43.9474 63.0836V63.7048C43.9955 66.0652 43.8991 68.4263 43.6587 70.7748C43.6193 70.9805 43.7812 71.3523 43.3262 71.313C43.2824 71.313 43.2431 71.5186 43.1599 71.6455C42.9543 72.0567 43.4093 72.5948 42.9937 73.0105C42.9106 73.0936 43.0768 73.448 43.1162 73.7148C43.1162 73.798 43.1599 73.8811 43.1162 73.9205C42.9499 74.2092 42.9499 74.2092 43.1993 74.253C43.2431 75.163 43.3218 76.003 43.3656 76.878H43.4881C43.7784 75.2892 43.9437 73.6801 43.9824 72.0655C44.0388 72.7391 44.0534 73.4156 44.0262 74.0911C44.0262 75.1673 43.9824 76.1998 43.9431 77.2761C43.9357 77.4854 43.9079 77.6935 43.8599 77.8973C43.7801 78.4719 43.6558 79.0395 43.4881 79.5948C43.3758 80.0971 43.3477 80.6146 43.4049 81.1261V82.6967C43.4049 82.7405 43.5274 82.863 43.5274 83.0292C43.5668 83.4011 43.3612 83.773 43.4837 84.1886C43.5274 84.2717 43.4443 84.3942 43.4006 84.4773C43.3472 84.5937 43.3334 84.7243 43.3612 84.8492L43.4837 85.4705C43.4837 85.5098 43.5274 85.5536 43.5668 85.6367C43.5956 85.5282 43.6103 85.4165 43.6106 85.3042C44.3149 85.3873 43.9431 86.0086 44.2712 86.3367C44.1049 86.4198 43.9824 86.4592 43.9824 86.503C44.041 86.6432 44.0822 86.7902 44.1049 86.9405C44.0977 87.3005 44.07 87.6598 44.0218 88.0167C44.0218 88.9661 43.9781 89.9198 43.9781 90.8298C43.9781 90.9523 44.0218 91.0792 44.0218 91.2017C44.0218 91.3242 43.9781 91.368 43.9781 91.4905V92.3655H44.1443C44.0611 92.499 43.9644 92.6237 43.8556 92.7373C43.8162 92.7373 43.6893 92.7373 43.6893 92.698V87.5267H43.0812C43.16 89.8754 43.0488 92.2266 42.7487 94.5573C42.3518 94.6208 41.9515 94.6617 41.5499 94.6798C40.2681 94.6798 38.9862 94.6798 37.7043 94.7192C36.1731 94.7192 34.6856 94.763 33.1543 94.763C32.4106 94.763 31.6231 94.8461 30.8793 94.8461C29.8862 94.8461 28.8537 94.7236 27.8606 94.7236C26.3293 94.7236 24.8418 94.8461 23.3106 94.8898C22.1949 94.9292 21.0793 94.9292 19.9593 94.973C19.2156 95.0123 18.4718 95.0561 17.7281 95.1392C17.3768 95.2079 17.0315 95.3045 16.6956 95.428C16.4759 95.4071 16.2547 95.4071 16.0349 95.428C15.6193 95.5111 15.2474 95.7605 14.8362 95.8436C14.2149 95.9661 14.0487 96.1323 14.1318 96.7536V97.1648C14.0459 97.0828 13.9487 97.0135 13.8431 96.9592C13.8118 96.9629 13.7826 96.9767 13.7599 96.9986C13.7993 97.1211 13.8824 97.2042 13.9262 97.3311C14.0924 97.248 14.2981 97.0423 14.4643 97.0423H15.0418C14.9587 97.0423 14.9193 97.2917 14.7924 97.4798C15.1249 97.3573 15.3306 97.2742 15.5362 97.1911C15.5652 97.2995 15.5784 97.4114 15.5756 97.5236C16.1065 97.4153 16.6507 97.3873 17.1899 97.4405C18.8094 97.8125 20.4547 98.0611 22.1118 98.1842C23.1881 98.2673 24.2206 98.3067 25.2968 98.3505C26.8281 98.4336 28.3593 98.5167 29.8862 98.5167C31.1681 98.5167 32.4106 98.3942 33.6924 98.3942C35.4687 98.3942 37.2493 98.4773 39.0256 98.5167C39.3974 98.5167 39.8131 98.473 40.2243 98.473H43.2431C45.9293 98.3898 48.6199 98.3505 51.3062 98.2673C52.8374 98.228 54.4081 98.1448 55.9393 98.1011L60.6512 97.9786C62.4712 97.9392 64.2912 97.9392 66.0674 97.8955C67.4324 97.8955 68.7537 97.8561 70.1187 97.8123C71.6499 97.7686 73.2206 97.6461 74.7518 97.563C75.5787 97.5236 76.4056 97.4405 77.2324 97.3573C78.2256 97.2742 79.2581 97.1517 80.2512 97.108C81.7387 97.0248 83.2699 96.9855 84.7574 96.9023C86.6168 96.7798 88.4806 96.6136 90.3793 96.5698C92.1293 96.4867 93.8793 96.5305 95.6293 96.4867C97.1606 96.4473 98.6918 96.3642 100.262 96.3205L102.887 96.198C102.887 96.198 104.637 96.1586 105.512 96.0755C107 95.9923 108.492 95.8261 109.979 95.7867C110.929 95.7473 111.882 95.7867 112.832 95.7473C114.363 95.7036 115.934 95.6248 117.465 95.6248C118.042 95.6248 118.664 95.708 119.407 95.7473C119.075 96.0361 118.869 96.1848 118.62 96.408C118.791 96.4591 118.957 96.528 119.114 96.6136C119.114 96.6573 119.075 96.6967 119.075 96.7798C118.869 96.7798 118.664 96.8236 118.454 96.8236C118.337 97.0453 118.253 97.2825 118.204 97.528H118.948C118.659 97.528 118.41 97.8998 118.121 98.1492C118.165 98.1886 118.204 98.1886 118.244 98.2323C117.806 98.0661 117.5 98.1492 117.334 98.6042C117.441 98.6377 117.554 98.651 117.666 98.6436C117.627 98.7661 117.583 98.893 117.544 99.0548C117.492 99.1425 117.463 99.2418 117.461 99.3436L117.338 99.2211C117.345 99.136 117.332 99.0504 117.299 98.9717C117.049 99.2211 116.677 99.3873 116.883 99.9211C116.717 100.004 116.511 100.087 116.306 100.21C116.37 100.301 116.425 100.397 116.472 100.499C116.1 100.538 115.728 100.621 115.811 101.076C115.977 101.115 116.144 101.199 116.249 101.242C116.043 101.325 115.837 101.448 115.627 101.531C115.584 101.614 115.544 101.82 115.461 101.864C114.884 101.986 115.212 102.196 115.378 102.402C115.263 102.486 115.138 102.555 115.006 102.607C115.115 102.638 115.214 102.695 115.295 102.774C115.203 102.835 115.106 102.891 115.006 102.94C115.085 102.989 115.168 103.03 115.256 103.062C115.089 103.185 114.882 103.35 114.634 103.557C114.628 103.628 114.641 103.699 114.674 103.762C114.489 103.937 114.323 104.131 114.179 104.34C114.049 104.624 113.903 104.9 113.742 105.167C112.989 106.211 112.107 107.157 111.117 107.98C110.701 108.29 110.314 108.635 109.957 109.012C109.214 109.717 108.553 110.5 107.77 111.165C106.737 112.04 105.661 112.819 104.546 113.606C103.181 114.555 101.816 115.509 100.451 116.419C99.7068 116.914 98.8799 117.294 98.0924 117.732C97.3049 118.169 96.5612 118.607 95.7781 119.044C95.3091 119.425 94.8118 119.771 94.2906 120.077C92.9256 120.654 91.4774 121.153 90.0731 121.691C89.9506 121.73 89.8674 121.774 89.7406 121.814C88.7081 122.251 87.7149 122.763 86.6781 123.126C85.7174 123.451 84.7369 123.714 83.7424 123.914C83.3848 123.948 83.0254 123.961 82.6662 123.953C81.9618 124.075 81.2618 124.242 80.5574 124.325C78.7374 124.574 76.9174 124.736 75.0974 124.985C74.0212 125.108 72.9887 125.318 71.9124 125.423C71.1687 125.467 70.3812 125.384 69.6374 125.384C69.088 125.438 68.5351 125.451 67.9837 125.423C67.1087 125.3 66.2337 125.09 65.3587 124.929C65.1462 124.855 64.9177 124.842 64.6981 124.889C64.3656 125.055 64.0768 124.806 63.7487 124.889C63.5431 124.929 63.3374 124.767 63.1274 124.767C62.9174 124.767 62.7556 124.806 62.5499 124.767C62.1141 124.6 61.6514 124.516 61.1849 124.517C60.661 124.482 60.1451 124.37 59.6537 124.185L57.4662 123.69C57.1762 123.601 56.8984 123.476 56.6393 123.319C56.5276 123.39 56.3997 123.432 56.2674 123.441C55.5664 123.368 54.8737 123.23 54.1981 123.03C53.6574 122.751 53.0563 122.61 52.4481 122.619C52.2818 122.658 52.1593 122.575 52.0106 122.575C51.8881 122.409 51.7612 122.08 51.6387 122.08C50.8118 122.124 50.3262 121.42 49.6131 121.205C49.2412 121.083 48.9524 120.667 48.5806 120.545C47.6706 120.173 46.9268 119.385 45.8943 119.263C45.5407 119.184 45.1951 119.073 44.8618 118.93C44.9624 119.077 45.0735 119.216 45.1943 119.346L45.1112 119.429C43.9956 118.769 42.8799 118.117 41.7599 117.487C41.5937 117.443 41.4712 117.281 41.3443 117.198L40.2287 116.454C40.1062 116.371 39.8568 116.249 39.8568 116.288C39.6074 116.577 39.3624 116.332 39.1962 116.249C38.0806 115.461 36.7987 114.967 35.7224 114.096C35.2418 113.793 34.8009 113.432 34.4099 113.02C33.8368 112.347 33.1327 111.798 32.3406 111.405C31.7193 111.073 31.1418 110.701 30.5643 110.329C30.398 110.24 30.2574 110.109 30.1562 109.95C30.0551 109.791 29.9967 109.608 29.9868 109.419C29.9868 109.13 29.8643 108.842 29.4924 109.008C29.3262 108.759 29.1599 108.47 28.9543 108.387C28.5052 108.155 28.0996 107.847 27.7556 107.477C27.3837 107.144 27.0949 106.689 26.6399 106.527C25.9082 106.149 25.2825 105.594 24.8199 104.913C23.6606 103.548 22.6324 102.06 21.5518 100.612C21.4374 100.491 21.313 100.38 21.1799 100.28L21.1362 100.324C21.3418 100.735 21.5518 101.111 21.7574 101.522C21.7137 101.562 21.6349 101.605 21.5912 101.645C21.3418 101.356 21.0531 101.067 20.8037 100.77C20.7599 100.814 20.7206 100.853 20.6812 100.853L23.6256 105.639C23.8749 106.011 24.0631 106.383 24.3299 106.755C24.2826 106.806 24.2262 106.847 24.1637 106.877C23.9389 106.83 23.7267 106.735 23.5412 106.599C23.3557 106.463 23.2011 106.29 23.0874 106.09C22.9683 105.768 22.7444 105.495 22.4518 105.314C22.1591 105.134 21.8145 105.058 21.4731 105.097C21.3848 104.798 21.3161 104.494 21.2674 104.187C21.0742 104.19 20.881 104.177 20.6899 104.147C21.2674 105.057 21.7662 105.845 22.3043 106.772L21.8931 106.523C22.6368 107.31 23.1749 108.299 24.1243 108.798C24.3299 109.747 25.4062 110.202 25.6556 111.112L25.0781 110.99C24.7456 110.579 24.3737 110.163 24.0018 109.708C24.075 109.978 24.2014 110.231 24.3737 110.452C24.8393 111.081 25.3512 111.675 25.9049 112.228C26.1106 112.434 26.3993 112.517 26.3993 112.889C26.4976 112.802 26.6101 112.732 26.7318 112.683C26.6667 112.802 26.6111 112.927 26.5656 113.055C26.7318 113.055 26.8543 113.094 26.9812 113.094C27.0643 113.344 26.9374 113.715 27.4187 113.632C27.4624 113.632 27.5018 113.672 27.5412 113.715C27.7468 114.254 28.0793 114.254 28.5343 114.048C28.5919 114.029 28.6538 114.026 28.7127 114.041C28.7716 114.056 28.825 114.087 28.8668 114.131C29.0724 114.569 29.3612 114.625 29.7418 114.297C29.7418 114.503 29.7812 114.709 29.7812 114.875H29.9693C29.9693 114.792 29.9299 114.669 29.9299 114.464C30.1356 114.63 30.2624 114.713 30.3456 114.796C30.7202 115.384 31.1802 115.914 31.7106 116.367C32.4981 117.027 33.1981 117.732 33.9418 118.353C35.4042 119.523 36.9679 120.562 38.6143 121.455C40.6006 122.57 42.4993 123.769 44.5293 124.845C46.9777 126.098 49.5775 127.029 52.2643 127.615C53.2574 127.82 54.2068 128.026 55.1999 128.275C56.0749 128.525 56.9499 128.897 57.8249 129.102C59.1374 129.391 60.5112 129.64 61.8368 129.89L62.7468 130.012V130.095C63.1187 130.095 63.5737 129.929 63.6568 130.052C63.8624 130.384 64.0287 130.218 64.2781 130.174C64.5893 130.104 64.9087 130.076 65.2274 130.091C66.3677 130.221 67.5142 130.29 68.6618 130.297C68.9112 130.297 69.2831 130.091 69.4887 130.502C69.5718 130.459 69.6112 130.419 69.6943 130.38C69.8606 130.336 70.0662 130.336 70.2324 130.297V130.375C70.1243 130.413 70.013 130.441 69.8999 130.459C70.0484 130.489 70.1946 130.53 70.3374 130.581C70.2788 130.637 70.2086 130.678 70.1318 130.704C70.0002 130.757 69.8754 130.826 69.7599 130.909C71.1205 131.22 72.5337 131.22 73.8943 130.909V130.66H74.0606C74.0692 130.748 74.0976 130.833 74.1437 130.909C76.0205 131.072 77.9103 130.832 79.6868 130.205C79.8531 130.41 79.9756 130.699 80.2249 130.288C80.3081 130.165 80.5137 130.122 80.6624 130.082C81.0271 129.936 81.4235 129.886 81.8131 129.938C82.1849 130.06 82.3074 129.732 82.6006 129.732C83.0714 129.734 83.5415 129.693 84.0049 129.61C84.2543 129.57 84.4993 129.444 84.7924 129.36C84.7952 129.338 84.793 129.316 84.7862 129.295C84.7794 129.274 84.7681 129.254 84.7531 129.238C84.4635 129.192 84.1712 129.164 83.8781 129.155C84.3724 128.905 84.8274 128.717 85.2824 128.494C85.2824 128.534 85.3262 128.534 85.3262 128.577C85.2037 128.617 85.1206 128.783 84.9543 128.783H85.5318C85.4093 128.783 85.2431 129.155 85.0374 129.404L89.2156 128.372V128.289C89.0493 128.328 88.9268 128.328 88.7999 128.372C88.7606 127.497 89.7099 127.794 90.0424 127.295C89.6268 127.418 89.2156 127.545 88.7999 127.628V127.545C90.2043 126.924 91.6524 126.302 93.0612 125.685C93.0612 125.729 93.1049 125.729 93.1049 125.769C92.8556 125.935 92.6106 126.057 92.2299 126.263C92.4106 126.281 92.5903 126.309 92.7681 126.346C92.7681 126.469 92.7681 126.552 92.7287 126.595C93.4331 126.552 93.2668 125.935 93.4724 125.563C93.5949 125.602 93.7612 125.685 93.8881 125.646C94.2524 125.554 94.6116 125.443 94.9643 125.314C95.3799 125.191 95.7912 125.064 96.2068 124.898C96.8674 124.609 97.4887 124.237 98.1493 123.905C98.3135 123.884 98.4795 123.884 98.6437 123.905C98.7581 123.89 98.8619 123.83 98.9324 123.739C99.0987 123.616 99.2649 123.367 99.3699 123.406C99.4894 123.44 99.6145 123.449 99.7377 123.434C99.861 123.419 99.9801 123.38 100.088 123.319C100.196 123.257 100.29 123.175 100.366 123.076C100.442 122.978 100.497 122.865 100.529 122.745C100.573 122.745 100.573 122.702 100.612 122.702C100.81 122.543 101.018 122.397 101.234 122.264C102.144 121.77 103.01 121.271 103.92 120.777C103.959 120.737 104.042 120.777 104.126 120.777C104.251 120.786 104.377 120.773 104.497 120.737C105.036 120.488 105.53 120.199 106.029 119.91C105.906 119.867 106.029 119.827 105.617 119.788V119.7C105.885 119.653 106.148 119.584 106.405 119.495L106.322 119.412C107.398 118.335 108.763 117.552 109.796 116.642C109.931 116.682 110.07 116.71 110.211 116.725C110.244 116.618 110.259 116.505 110.255 116.393C110.412 116.167 110.592 115.959 110.793 115.772C111.703 114.945 112.696 114.24 113.523 113.374C114.722 112.175 115.881 110.933 116.957 109.651C117.975 108.517 118.915 107.316 119.771 106.055C120.93 104.279 121.923 102.459 122.956 100.595C123.699 99.2823 124.36 97.9698 125.108 96.6267C125.191 96.5042 125.357 96.338 125.48 96.338C126.596 96.2155 127.711 96.1323 128.787 96.0055C129.064 95.9304 129.329 95.8186 129.575 95.673C129.452 95.4673 129.369 95.2355 129.242 95.0123C129.116 94.7892 128.831 94.5748 128.665 94.308C128.503 94.0881 128.363 93.8521 128.249 93.6036C128.127 93.398 128 93.2317 127.877 93.0261C127.618 92.5706 127.383 92.1019 127.173 91.6217C127.108 91.4855 127.079 91.3348 127.09 91.1842C127.834 89.5698 128.122 87.833 128.84 86.223C129.443 84.5081 129.86 82.7333 130.082 80.9292C130.371 79.2317 130.52 77.5386 130.743 75.8411C130.866 74.6423 131.032 73.483 131.076 72.2842C131.259 70.4702 131.3 68.6446 131.198 66.8242L131.202 66.8067ZM27.2393 112.959C26.9506 112.626 26.7012 112.254 26.4124 111.926L26.5349 111.804C26.9724 112.302 27.4449 112.797 27.8999 113.335C27.6579 113.254 27.4337 113.128 27.2393 112.963V112.959ZM27.8999 113.33C28.0224 113.291 28.1493 113.291 28.2718 113.247C28.3943 113.453 28.4774 113.685 28.6043 113.952C28.0268 113.912 27.7293 113.663 27.8999 113.33V113.33ZM70.9062 130.393V130.288L73.2206 130.039V130.161C72.4541 130.285 71.6815 130.368 70.9062 130.41V130.393ZM81.3274 129.317C80.7499 129.439 80.1287 129.522 79.5512 129.605C79.3456 129.649 79.1137 129.855 79.0131 129.483C78.9299 129.522 78.8468 129.522 78.7637 129.566C78.9693 130.187 79.4681 129.689 79.8793 129.938C78.9693 130.06 78.1031 130.144 77.2543 130.27V130.187L78.0418 130.065V129.938C77.6293 129.89 77.2146 129.862 76.7993 129.855C76.6768 129.855 76.5106 130.021 76.3881 130.06C76.213 130.111 76.0322 130.139 75.8499 130.144C75.1456 130.183 74.4456 130.183 73.7806 130.227C73.7412 130.227 73.6581 130.183 73.6143 130.183V130.06L81.8831 128.945C81.9224 129.028 81.9224 129.111 81.9662 129.194C81.7551 129.211 81.5466 129.252 81.3449 129.317H81.3274ZM81.9487 128.901C82.8981 128.779 83.7687 128.695 84.6787 128.569C82.7756 129.107 82.1543 129.19 81.9487 128.901ZM45.9381 45.4305C47.2506 43.6105 48.6243 41.7905 49.9499 39.9311C50.3612 39.393 50.6937 38.8155 51.1093 38.2773C51.2564 38.119 51.4224 37.9794 51.6037 37.8617L51.5599 37.7786C51.7128 37.6119 51.8505 37.4318 51.9712 37.2405C52.1609 36.8937 52.3261 36.534 52.4656 36.1642C52.5091 36.0981 52.5657 36.0415 52.6318 35.998C53.2093 36.2867 53.2093 35.6655 53.4193 35.4598C53.7912 35.0486 54.1631 34.5848 54.4956 34.178C54.7536 33.864 54.989 33.5322 55.1999 33.1848C55.2393 33.0623 55.1168 32.8523 55.0774 32.6905H54.9549C55.0774 32.6073 55.2043 32.4848 55.3268 32.4017C55.3706 32.4017 55.3706 32.4017 55.4099 32.3623C55.6593 31.9905 55.9043 31.6186 56.1537 31.2861C56.6466 30.6147 57.1861 29.9788 57.7681 29.383C57.6849 29.5886 57.6018 29.7986 57.5187 29.9605C57.5581 29.9605 57.5581 30.0042 57.6018 30.0042C58.0962 29.3436 58.6343 28.7223 59.1331 28.0617C59.0893 28.0223 59.0499 27.9786 59.0106 27.9786C58.8049 28.1842 58.6387 28.3898 58.4331 28.5998C58.3893 28.5605 58.3499 28.5167 58.3106 28.5167C58.7262 27.9786 59.1374 27.4405 59.5531 26.8192C59.6753 27.02 59.7863 27.2274 59.8856 27.4405C60.0518 27.0248 60.2181 26.7361 60.3231 26.4473C60.2006 26.5698 60.0343 26.6967 59.9118 26.8192L59.7849 26.688L60.5287 25.5723C61.3162 24.4567 62.0993 23.2973 62.8868 22.1817C63.1756 21.7661 63.5474 21.438 63.7968 21.0223C64.7044 19.544 65.6993 18.1211 66.7762 16.7611C67.0027 16.4791 67.2514 16.2158 67.5199 15.9736C67.7256 15.7242 67.8918 15.8073 68.0581 16.0173C69.1737 17.4217 70.2893 18.8698 71.4093 20.2786C72.2362 21.3111 73.0631 22.3042 73.8506 23.3805C74.7999 24.693 75.7099 26.0055 76.6637 27.3486C77.7399 28.8798 78.8162 30.4111 79.8487 31.9817C81.4193 34.2961 82.9112 36.6148 84.4818 38.9292C85.6412 40.6267 86.7962 42.2805 87.9162 43.9736H85.8074C83.8649 43.9298 81.8699 43.768 79.9362 43.8511C77.3112 43.9736 74.6031 44.2623 71.9562 44.4723C68.6049 44.7611 65.2143 44.8048 61.8674 44.8048C60.6687 44.8048 59.4699 44.9711 58.2712 45.0542C56.8231 45.1373 55.4187 45.2205 53.9706 45.2598C52.2731 45.343 50.6193 45.3823 48.9262 45.4261C47.9768 45.4698 46.9837 45.4261 45.9468 45.4261L45.9381 45.4305ZM93.3631 64.453V64.8248C93.3237 64.8248 93.2799 64.8642 93.1968 64.8642C93.0306 64.2867 92.8643 63.6655 92.6587 63.088C92.2828 61.8613 91.7396 60.6924 91.0443 59.6142C90.2174 58.4548 89.4737 57.2561 88.6468 56.0573C88.4206 55.7751 88.1719 55.5118 87.9031 55.2698C87.0743 54.2708 86.1149 53.3879 85.0506 52.6448C83.4051 51.6235 81.675 50.7453 79.8793 50.0198C79.3803 49.805 78.8965 49.5565 78.4312 49.2761H79.4243L86.4943 49.1536C88.0256 49.1098 89.5131 49.1098 91.0443 49.0311C91.2041 49.0184 91.364 49.0531 91.5041 49.1309C91.6442 49.2087 91.7582 49.3262 91.8318 49.4686C92.2037 50.0898 92.5756 50.7067 92.9912 51.328C93.0569 51.428 93.0988 51.5417 93.1137 51.6605C93.1137 52.5705 93.1137 53.5198 93.1531 54.4298C93.1924 55.3398 93.2756 56.2892 93.3193 57.243C93.3631 58.1967 93.2362 59.1855 93.2756 60.1786C93.3193 61.583 93.3587 63.0311 93.3587 64.4792L93.3631 64.453ZM48.8693 50.5973C50.8118 50.5142 52.6756 50.3917 54.5568 50.3086C56.0443 50.2255 57.5756 50.1861 59.0631 50.103C59.6681 50.0407 60.278 50.0407 60.8831 50.103C60.2217 50.4118 59.5855 50.7716 58.9799 51.1792C58.2362 51.6736 57.5318 52.3386 56.7924 52.8767C56.0489 53.4342 55.3696 54.0725 54.7668 54.7798C53.9793 55.7292 53.1131 56.5561 52.2862 57.4661C51.6695 58.098 51.0854 58.7609 50.5362 59.4523C49.8318 60.3623 49.2237 61.3555 48.5499 62.388C48.7556 58.4505 48.9874 54.5742 48.8387 50.6017L48.8693 50.5973ZM75.8718 90.3792C74.5406 90.7538 73.1877 91.046 71.8206 91.2542C70.6393 91.3784 69.4507 91.4194 68.2637 91.3767C67.1874 91.3767 66.1549 91.3373 65.0787 91.2542C63.857 91.1951 62.6543 90.9288 61.5218 90.4667C60.5287 90.0292 59.4962 89.5917 58.5031 89.1017C57.462 88.6415 56.5313 87.9644 55.7731 87.1155C55.1754 86.4711 54.5257 85.877 53.8306 85.3392C53.953 85.8384 54.2674 86.2692 54.7056 86.538C54.4999 86.7873 54.2112 86.6605 53.7956 85.9998C53.6891 86.0636 53.578 86.1192 53.4631 86.1661C53.5856 85.8773 53.7124 85.5886 53.8349 85.3392C53.6687 85.0067 53.4631 84.6348 53.2968 84.3067C52.964 83.765 52.6474 83.2135 52.3474 82.653C52.2643 82.5305 52.2643 82.4036 52.1812 82.2811C51.9759 82.0434 51.7831 81.7951 51.6037 81.5373C51.2881 81.0082 50.9434 80.497 50.5712 80.0061C50.5712 80.1286 50.6106 80.2555 50.6106 80.4173C50.5793 80.421 50.5501 80.4349 50.5274 80.4567L49.6524 78.348C49.6087 78.348 49.6087 78.348 49.5693 78.3917L50.3131 81.1217C50.2693 81.1217 50.2299 81.1655 50.1906 81.1655C50.0561 81.0018 49.9442 80.8208 49.8581 80.6273C49.7749 80.2948 49.5256 80.2948 49.3199 80.4217C49.2548 80.4849 49.2057 80.5627 49.1768 80.6487C49.1479 80.7347 49.14 80.8264 49.1537 80.9161C49.4424 81.6205 49.7749 82.3205 50.1031 83.0248C50.1816 83.2665 50.2781 83.502 50.3918 83.7292C50.4356 83.8123 50.5581 83.8955 50.5581 84.018C50.6981 84.3467 50.8634 84.6641 51.0524 84.9673C51.4243 85.4617 51.8399 85.9605 52.2118 86.4548C52.5837 86.9492 52.9162 87.4873 53.2443 87.9861C53.2881 88.0692 53.4106 88.0692 53.4499 88.1086C53.6556 88.7298 54.3599 89.1848 54.8543 88.9355C54.9768 89.8848 56.0137 90.2173 56.4249 91.123C56.0185 90.9593 55.6186 90.7798 55.2262 90.5848C55.1868 90.6286 55.1868 90.668 55.1431 90.7511C55.639 90.9886 56.1223 91.2514 56.5912 91.5386C57.0063 91.7767 57.4066 92.0397 57.7899 92.3261C58.2952 92.7707 58.9098 93.0728 59.5706 93.2011C59.5551 93.1403 59.5267 93.0837 59.4874 93.0348C60.6468 93.573 61.8456 94.1505 62.7556 94.6055C58.4549 94.6886 53.8656 94.7717 49.1099 94.8548C49.1099 94.0673 49.0706 93.3236 49.0706 92.5405C49.1044 92.2252 49.1175 91.9081 49.1099 91.5911C48.9874 89.688 48.9874 87.7848 48.7381 85.9255C48.5247 83.9615 48.456 81.9845 48.5324 80.0105C48.5718 78.9342 48.4887 77.823 48.4493 76.7423C48.4493 75.2942 48.4493 73.8898 48.4887 72.4417C48.5054 72.2401 48.5619 72.0438 48.6549 71.8642H48.7774C48.8168 71.9473 48.7774 72.0698 48.8606 72.1136C48.9831 72.2361 49.1931 72.4461 49.2762 72.4023C49.5256 72.2361 49.8974 72.0698 49.9806 71.8248C50.1759 71.3382 50.274 70.8179 50.2693 70.2936C50.2831 69.9737 50.3997 69.6669 50.6018 69.4186C50.6786 69.2858 50.7472 69.1484 50.8074 69.0073C50.6412 68.8848 50.4749 68.8017 50.2693 68.6355C50.4356 68.198 50.3918 67.6423 51.0131 67.393C51.0962 67.3492 51.0962 67.1436 51.1356 67.0211L51.2581 65.9886C51.3161 66.0799 51.3851 66.1636 51.4637 66.238C51.4854 66.1933 51.5134 66.1521 51.5468 66.1155C51.5468 65.9492 51.5074 65.6211 51.5468 65.6211C52.0412 65.538 51.8356 64.9998 52.0849 64.7461C52.1243 64.7067 52.0412 64.5798 52.0412 64.4967C52.0412 64.4136 52.0412 64.2911 52.0849 64.2911C52.6624 64.1686 52.5793 63.5473 52.9599 63.2586C53.0824 63.1755 53.1262 63.053 53.2924 62.8473C53.6249 63.4248 53.0431 63.7223 53.0037 64.1292C53.7081 63.7136 53.9137 62.7248 53.4981 62.4317C53.6624 62.3056 53.8095 62.1586 53.9356 61.9942C54.3731 61.4998 54.8849 61.0448 55.3006 60.5461C55.5893 60.1742 55.7381 59.7192 56.0443 59.3473C56.2583 59.1365 56.5108 58.9687 56.7881 58.853C57.5424 58.4946 58.1962 57.955 58.6912 57.2823C58.7942 57.1892 58.9055 57.1057 59.0237 57.033C59.1462 56.9498 59.3956 56.9498 59.4349 56.8273C59.4743 56.7048 59.3518 56.5386 59.2687 56.4161C59.4349 56.333 59.6012 56.1667 59.9293 56.0048C59.8068 56.2542 59.7631 56.4161 59.6799 56.5823L59.8856 56.788C60.2574 56.4992 60.8349 56.1667 61.1981 55.913C61.1981 55.8736 60.9924 55.7073 60.9924 55.7073C60.7431 55.8298 60.3712 56.0398 59.9993 56.2017C60.0824 56.0792 60.0824 55.9961 60.1218 55.9523C60.6901 55.5688 61.2835 55.2238 61.8981 54.9198C63.3462 54.2592 64.7943 53.6073 66.2381 52.9773C66.5234 52.9005 66.822 52.8871 67.1131 52.938C67.2254 52.9453 67.3381 52.932 67.4456 52.8986C68.1062 52.693 68.7581 52.4873 69.4318 52.3211C69.7283 52.2397 70.0344 52.1985 70.3418 52.1986C71.5843 52.238 72.8224 52.238 74.0649 52.3211C74.5872 52.3679 75.1016 52.4796 75.5962 52.6536C76.2333 52.8732 76.8545 53.1364 77.4556 53.4411C78.1543 53.8156 78.8306 54.2305 79.4812 54.6836C80.6799 55.4711 81.7956 56.3373 82.9812 57.0417C84.1018 57.7421 85.0607 58.6726 85.7943 59.7717C86.821 60.9522 87.6205 62.3123 88.1524 63.7836L88.7737 66.5136C88.9956 67.006 89.0947 67.545 89.0624 68.0842C88.8568 69.1167 88.6906 70.193 88.5243 71.2255C88.4226 71.6299 88.3813 72.0471 88.4018 72.4636C88.3895 73.7052 88.0773 74.9255 87.4918 76.0205C87.3256 76.3923 87.0762 76.7642 86.8706 77.1798C86.9724 77.2516 87.0845 77.3077 87.2031 77.3461L87.5749 76.6023C87.6143 76.6023 87.6143 76.6023 87.6581 76.6461C87.4524 77.2236 87.2862 77.8448 87.0806 78.4223C86.5862 79.7042 86.0874 81.0473 85.4662 82.268C85.0667 82.9404 84.6285 83.589 84.1537 84.2105C83.7381 84.788 83.4099 85.4092 82.9943 85.9605C82.6461 86.4342 82.2287 86.8531 81.7562 87.203C80.6503 88.0497 79.4898 88.8228 78.2824 89.5173C77.519 89.9416 76.696 90.2484 75.8412 90.4273L75.8718 90.3792ZM53.8306 88.1917L53.7912 88.2311C53.6866 88.1915 53.5891 88.1354 53.5024 88.0648L52.5006 86.5773C52.4559 86.519 52.4252 86.4512 52.4108 86.3792C52.3964 86.3071 52.3987 86.2327 52.4174 86.1617C52.8549 86.8661 53.3274 87.5267 53.8218 88.1873L53.8306 88.1917ZM79.5512 93.8573C81.3277 93.0824 82.9561 92.0047 84.3637 90.6723C84.5642 90.4584 84.7855 90.265 85.0243 90.0948C86.6929 88.9921 88.1154 87.5562 89.2024 85.8773C90.4128 83.9191 91.5041 81.8898 92.4706 79.8005C92.5454 79.6501 92.6287 79.504 92.7199 79.363C92.7281 84.05 93.0879 88.7298 93.7962 93.363L79.5687 93.8573H79.5512ZM121.486 92.6192C121.442 92.7023 121.363 92.7855 121.319 92.8686C121.282 92.7468 121.255 92.6226 121.236 92.4967C120.987 93.1573 120.449 92.8292 120.077 92.8292C117.846 92.8686 115.571 92.8686 113.335 92.8686C111.182 92.8686 108.995 92.8686 106.842 92.9123C106.138 92.9123 105.394 93.0786 104.69 93.118C102.992 93.2011 101.299 93.2405 99.6018 93.2842C99.4793 93.2842 99.3524 93.0786 99.1643 92.9123C99.0915 93.0429 99.0081 93.1673 98.9149 93.2842C98.8756 93.2011 98.7924 93.118 98.7093 92.9955C98.6754 93.1087 98.6345 93.2198 98.5868 93.328H98.4381C98.3144 92.7688 98.2311 92.2015 98.1887 91.6305C98.1887 90.388 98.3112 89.1498 98.3549 87.9073C98.3943 87.3298 98.3549 86.7917 98.3549 86.2536L98.7924 86.5861C98.8661 86.4421 98.9494 86.3032 99.0418 86.1705C98.9807 86.138 98.9247 86.0967 98.8756 86.048C98.9587 86.0086 99.0418 85.9255 99.0418 85.8817C99.0942 85.7755 99.1353 85.664 99.1643 85.5492C99.1472 85.2836 99.1062 85.02 99.0418 84.7617C99.0639 84.7644 99.0862 84.7623 99.1074 84.7555C99.1286 84.7487 99.148 84.7374 99.1643 84.7223L99.4137 85.9605H99.5362C99.3699 85.6717 99.9081 85.4223 99.4531 85.0855C99.4137 85.0461 99.4968 84.7967 99.4968 84.6742C99.3719 84.4045 99.2609 84.1285 99.1643 83.8473C99.2535 83.7915 99.3509 83.7501 99.4531 83.7248C99.3202 83.6482 99.1829 83.5795 99.0418 83.5192C99.4531 83.1473 99.4531 82.9417 99.0856 82.5261C99.1687 82.4867 99.2518 82.4867 99.2518 82.443C99.2653 82.0692 99.2374 81.695 99.1687 81.3273C99.0856 80.9161 99.2912 80.4173 98.6743 80.168C98.7128 80.2865 98.7688 80.3986 98.8406 80.5005C98.7529 80.5312 98.6691 80.5723 98.5912 80.623C98.0531 80.1286 98.3856 79.4636 98.2587 78.7198C98.4979 78.79 98.733 78.8732 98.9631 78.9692C98.8799 78.6805 98.6743 78.348 98.5518 77.9761H98.3856V75.2505C98.3856 75.2898 98.6743 75.2898 98.8231 75.3336C98.8231 75.2942 98.8624 75.2505 98.8624 75.2111C98.7399 75.0448 98.5737 74.8786 98.4249 74.673L98.5081 74.5898C98.307 74.2547 98.2472 73.8534 98.3418 73.4742V70.578C98.7531 70.9892 98.1362 71.5273 98.7531 71.7767V71.3567H98.7137C98.6699 70.7355 98.6699 70.1142 98.6306 69.4973H98.5474C98.5081 69.5805 98.5081 69.6198 98.4643 69.703H98.3812L98.6306 59.8198C99.0565 60.313 99.4441 60.8381 99.7899 61.3905C100.797 63.0687 101.916 64.6766 103.141 66.203C104.134 67.568 105.044 69.0555 105.954 70.4642C107.07 72.1617 108.142 73.8548 109.262 75.5523C110.089 76.8342 110.959 78.1161 111.826 79.3586C112.613 80.4742 113.44 81.5461 114.267 82.6267C114.971 83.5761 115.715 84.5298 116.415 85.4792C117.242 86.6386 118.069 87.7936 118.896 88.9136C119.307 89.4911 119.771 90.073 120.208 90.6636C120.467 90.9599 120.761 91.2242 121.083 91.4511C121.025 91.4524 120.967 91.4373 120.917 91.4073C121.006 91.5369 121.102 91.6611 121.206 91.7792C121.643 92.0286 121.7 92.2736 121.455 92.6542L121.486 92.6192ZM123.594 82.2811V81.9923C123.594 82.0755 123.634 82.198 123.594 82.2811ZM124.999 64.0461C124.878 63.9619 124.767 63.8651 124.666 63.7573C124.622 63.8798 124.666 64.0067 124.583 64.1686C124.544 64.0461 124.251 64.0855 124.251 63.963C124.207 64.5405 124.5 65.1223 124.456 65.713C124.579 65.6298 125.077 65.5905 125.2 65.4636C125.246 65.5076 125.304 65.5366 125.366 65.5467C124.539 66.168 124.745 66.7892 125.117 67.4892C125.2 67.6555 125.449 67.9836 125.2 68.3161C125.117 68.3992 125.244 68.6486 125.283 68.8542H125.406V68.9373L125.034 69.0598C124.951 68.9373 124.456 68.688 124.456 68.4823V70.5911C124.867 70.7136 124.867 71.2955 125.034 71.5842C125.105 71.4823 125.162 71.3702 125.2 71.2517L125.244 71.2911C125.208 71.543 125.152 71.7917 125.077 72.0348C124.989 72.3895 124.92 72.7488 124.872 73.1111C124.872 73.1505 124.955 73.2336 124.955 73.2773C124.686 74.3453 124.561 75.4444 124.583 76.5455C124.461 77.333 124.583 78.1598 124.5 78.9867C124.403 79.7113 124.266 80.4299 124.089 81.1392C124.049 81.2617 123.966 81.3055 123.756 81.3886C123.825 80.9625 123.81 80.5271 123.712 80.1067C123.673 80.1067 123.135 79.818 123.091 79.818C123.186 80.5031 123.333 81.1802 123.529 81.8436C123.406 81.8042 122.907 81.5111 122.868 81.5111C122.785 82.0055 122.785 82.6705 122.746 83.2086C122.702 83.6198 122.33 83.9961 122.308 84.4511C122.308 84.7005 122.597 84.8623 122.557 85.278H122.89C122.89 84.4511 123.262 83.7073 123.262 82.8367H123.376C123.415 82.9198 123.542 83.003 123.498 83.0423C123.369 83.4996 123.3 83.9717 123.292 84.4467C123.292 84.6961 123.498 84.9411 123.415 85.2342C123.327 85.5189 123.272 85.8123 123.249 86.1092C123.209 85.9749 123.181 85.8372 123.166 85.698L122.728 85.6586C122.689 85.908 123.017 86.153 122.977 86.363C122.934 86.4067 122.894 86.4067 122.811 86.4461L121.446 84.4598C120.37 82.8892 119.294 81.3186 118.222 79.7042C117.944 79.3088 117.695 78.8935 117.478 78.4617C116.197 76.2623 114.774 74.149 113.217 72.1355C112.018 70.6042 111.064 68.9505 109.949 67.323C108.916 65.7917 107.879 64.3042 106.847 62.773C106.475 62.2786 106.02 61.8236 105.687 61.2855C104.611 59.588 103.662 57.8511 102.586 56.158C101.676 54.7536 100.682 53.3886 99.7331 52.0236C99.4006 51.5861 99.0724 51.0742 98.7399 50.5755C98.688 50.4879 98.6594 50.3885 98.6568 50.2867C98.5737 49.3767 98.4906 48.4667 98.4512 47.6005C98.4118 46.7342 98.5343 45.9467 98.5343 45.0761V44.3323C98.5343 44.1267 98.5737 43.9605 98.5737 43.7548C98.6131 43.7111 98.6568 43.6323 98.6962 43.5886C97.4974 43.5886 96.2549 43.5492 95.0562 43.5886C94.7141 43.6036 94.3739 43.5312 94.0677 43.3781C93.7615 43.2249 93.4994 42.9962 93.3062 42.7136C91.8451 40.8888 90.4784 38.9905 89.2112 37.0261C87.9293 35.2061 86.5862 33.4298 85.2737 31.6492C84.1974 30.2011 83.1256 28.7967 82.0493 27.3486C80.8506 25.6948 79.6912 24.0411 78.4531 22.3873C76.9656 20.4011 75.4343 18.4192 73.9031 16.433C73.1987 15.523 72.4156 14.6567 71.6281 13.703C72.1662 13.7861 72.6606 13.8692 73.1593 13.9086L75.1456 14.0311C76.6331 14.1536 78.1249 14.2367 79.6124 14.4467C80.8549 14.613 82.0931 14.8623 83.3749 15.068C86.0994 15.5476 88.7821 16.2395 91.3987 17.1373C92.9299 17.6317 94.4174 18.2967 95.9049 18.9136C99.2282 20.2914 102.467 21.8648 105.604 23.6255C106.491 24.2224 107.273 24.9615 107.919 25.813C108.995 26.9286 110.071 28.0442 111.104 29.2036C112.302 30.5686 113.418 31.973 114.577 33.3817C115.61 34.6242 116.686 35.8623 117.719 37.1048C118.034 37.5019 118.326 37.9168 118.594 38.3473C119.254 39.3405 119.998 40.2898 120.58 41.3661C120.964 42.1941 121.282 43.0514 121.529 43.9298C121.941 45.2117 122.356 46.4542 122.772 47.7361C123.061 48.6855 123.31 49.6786 123.516 50.6717C123.682 51.3323 123.638 52.0367 123.848 52.6973C124.097 53.5723 123.848 54.5173 124.097 55.3836L124.22 55.6723C124.386 55.8386 124.509 56.0048 124.264 56.2498C124.22 56.3563 124.22 56.4758 124.264 56.5823C124.342 56.4933 124.411 56.3965 124.469 56.2936C124.469 56.3767 124.509 56.4161 124.509 56.4598C124.488 56.624 124.488 56.79 124.509 56.9542C124.532 57.057 124.573 57.1549 124.631 57.243C124.737 57.153 124.848 57.0697 124.964 56.9936C125.287 58.3899 125.425 59.8225 125.375 61.2548C125.554 62.6135 125.44 63.9947 125.042 65.3061C125.165 64.8686 124.876 64.4311 124.999 64.0242V64.0461Z" fill="#DD3735"/>
<path d="M98.7126 80.255C98.7444 80.2599 98.7736 80.2753 98.7957 80.2987L98.752 80.255C98.752 80.2156 98.7519 80.2156 98.7126 80.255V80.255ZM105.244 121.113C104.808 121.466 104.301 121.719 103.757 121.857C103.718 121.818 103.718 121.774 103.674 121.734C104.111 121.446 104.623 121.157 105.078 120.859C105.118 120.942 105.201 121.026 105.244 121.109V121.113ZM27.7063 65.0781C28.1438 64.5006 28.6163 63.9188 29.1107 63.3281C29.1501 63.3675 29.4826 63.4506 29.5263 63.4944C29.0888 64.0719 28.4501 64.8594 27.9951 65.4806C27.912 65.3975 27.7895 65.1087 27.7063 65.0694V65.0781ZM15.9638 85.3431C15.6313 84.6387 15.3032 83.895 14.9707 83.1906C15.0864 83.1183 15.2115 83.0623 15.3426 83.0244C15.7323 83.7133 16.0644 84.4333 16.3357 85.1769C16.2153 85.2399 16.0911 85.2955 15.9638 85.3431V85.3431ZM26.5076 65.4937C26.2582 65.8656 26.0132 66.2812 25.7638 66.6531C25.7245 66.6137 25.2695 66.8194 25.2257 66.7756C25.4751 66.4037 26.1007 65.7431 26.3413 65.3713C26.3887 65.422 26.445 65.4636 26.5076 65.4937ZM100.817 122.806C100.861 122.806 100.861 122.762 100.9 122.762C101.214 122.813 101.531 122.84 101.849 122.846C101.311 123.218 100.974 123.178 100.817 122.806V122.806ZM26.5907 67.2262C26.6435 67.0942 26.7126 66.9693 26.7963 66.8544C26.8662 66.8498 26.9353 66.8366 27.002 66.815C27.1682 66.5262 27.1682 66.3206 27.3345 66.0712C27.2951 66.0319 27.2513 66.0319 27.212 65.9881C26.9626 66.1544 26.7176 66.36 26.4682 66.5262C26.4985 66.5506 26.522 66.5823 26.5365 66.6182C26.5511 66.6542 26.5562 66.6934 26.5513 66.7319C26.2188 66.6925 26.1138 66.8544 25.9301 67.3094C25.8863 67.4319 25.6807 67.4756 25.4926 67.6419C25.4532 67.725 25.4095 67.9306 25.3263 68.1362L25.3701 68.18C25.3103 68.234 25.2404 68.2756 25.1645 68.3025C24.9151 68.5519 24.6263 68.74 24.377 69.0069C24.3296 69.1256 24.3015 69.2511 24.2938 69.3787C24.5826 69.09 25.0813 68.5519 25.4532 68.2194L25.4926 68.2587C25.6588 68.0094 25.7813 67.7644 25.9301 67.515C25.9695 67.5544 25.9695 67.5981 26.0132 67.6375L25.6413 68.67C25.5582 68.7094 25.4357 68.7925 25.4357 68.7531C25.2695 68.8756 25.147 69.0419 24.9982 69.1688L24.2545 69.6631C23.8388 70.035 23.4276 70.3675 22.9726 70.7394C22.6838 71.1769 22.3951 71.6144 22.0626 72.1437C22.557 72.0212 22.6838 72.2269 22.6401 72.6381C23.2176 72.7213 23.2613 72.2662 23.4276 71.9337C23.4713 71.8506 23.5107 71.6844 23.5938 71.645C23.9657 71.3125 24.3813 71.0238 24.7926 70.6956C24.8633 70.5853 24.8927 70.4536 24.8757 70.3237C24.8757 70.2844 24.6701 70.2844 24.5432 70.2406C24.9151 69.825 25.4532 69.125 25.8251 68.67C26.0307 68.5475 26.2363 68.3812 26.2363 68.2544C26.1926 67.8169 26.4857 67.6769 26.8138 67.5106C26.7613 67.4795 26.7159 67.4377 26.6805 67.388C26.645 67.3383 26.6204 67.2817 26.6082 67.2219L26.5907 67.2262Z" fill="#DD3735"/>
</svg>
