<svg width="140" height="140" viewBox="0 0 140 140" fill="none" xmlns="http://www.w3.org/2000/svg">
<path d="M8.75 8.75H131.25V131.25H8.75V8.75Z" fill="#F5DE19"/>
<path d="M91.0393 104.453C92.0831 106.574 93.7047 108.356 95.7172 109.594C97.7298 110.833 100.051 111.477 102.414 111.453C107.183 111.453 110.232 109.069 110.232 105.766C110.232 101.828 107.1 100.42 101.85 98.1229L98.9712 96.8891C90.6587 93.3497 85.1462 88.9179 85.1462 79.5466C85.1462 70.9147 91.7087 64.3391 102.003 64.3391C105.336 64.0985 108.665 64.8443 111.576 66.4836C114.488 68.1229 116.852 70.583 118.374 73.5572L109.375 79.3104C108.789 77.8357 107.768 76.5739 106.448 75.6926C105.129 74.8112 103.572 74.3519 101.986 74.3754C101.293 74.3061 100.594 74.3817 99.9327 74.5976C99.2713 74.8134 98.662 75.1646 98.1438 75.6289C97.6256 76.0932 97.2098 76.6603 96.9229 77.2941C96.636 77.928 96.4843 78.6146 96.4774 79.3104C96.4774 82.7622 98.6168 84.1622 103.556 86.3104L106.435 87.5441C116.217 91.7397 121.747 96.0141 121.747 105.626C121.747 115.99 113.606 121.669 102.672 121.669C98.4125 121.941 94.1651 120.973 90.4426 118.884C86.7202 116.795 83.6819 113.674 81.6943 109.896L91.0393 104.453ZM50.3737 105.451C52.1806 108.658 53.8256 111.37 57.7806 111.37C61.5606 111.37 63.9493 109.892 63.9493 104.138V64.9954H75.4599V104.292C75.4599 116.209 68.4599 121.634 58.2706 121.634C54.6689 121.831 51.0919 120.933 48.0098 119.059C44.9278 117.185 42.4849 114.422 41.0024 111.134L50.3737 105.451Z" fill="black"/>
<path d="M8.75 8.75H131.25V131.25H8.75V8.75Z" fill="#F5DE19"/>
<path d="M91.0388 104.453C92.0826 106.574 93.7042 108.356 95.7167 109.594C97.7293 110.833 100.051 111.477 102.414 111.453C107.183 111.453 110.232 109.069 110.232 105.766C110.232 101.828 107.099 100.42 101.849 98.1229L98.9707 96.8891C90.6582 93.3497 85.1457 88.9179 85.1457 79.5466C85.1457 70.9147 91.7082 64.3391 102.003 64.3391C105.335 64.0985 108.665 64.8443 111.576 66.4836C114.487 68.1229 116.852 70.583 118.374 73.5572L109.374 79.3104C108.788 77.8357 107.768 76.5739 106.448 75.6926C105.128 74.8112 103.572 74.3519 101.985 74.3754C101.293 74.3061 100.594 74.3817 99.9322 74.5976C99.2708 74.8134 98.6615 75.1646 98.1433 75.6289C97.6252 76.0932 97.2094 76.6603 96.9225 77.2941C96.6355 77.928 96.4838 78.6146 96.477 79.3104C96.477 82.7622 98.6163 84.1622 103.556 86.3104L106.434 87.5441C116.217 91.7397 121.747 96.0141 121.747 105.626C121.747 115.99 113.605 121.669 102.672 121.669C98.412 121.941 94.1646 120.973 90.4422 118.884C86.7197 116.795 83.6814 113.674 81.6938 109.896L91.0388 104.453ZM50.3732 105.451C52.1801 108.658 53.8251 111.37 57.7801 111.37C61.5601 111.37 63.9488 109.892 63.9488 104.138V64.9954H75.4595V104.292C75.4595 116.209 68.4595 121.634 58.2701 121.634C54.6684 121.831 51.0914 120.933 48.0093 119.059C44.9273 117.185 42.4844 114.422 41.002 111.134L50.3732 105.451Z" fill="black"/>
</svg>
