<svg width="140" height="140" viewBox="0 0 140 140" fill="none" xmlns="http://www.w3.org/2000/svg">
<path d="M25.8213 119.254L15.9907 9H124.009L114.166 119.237L69.9345 131.5L25.8213 119.254Z" fill="#E44F26"/>
<path d="M70 122.112L105.744 112.203L114.152 18H70V122.112Z" fill="#F1662A"/>
<path d="M70 59.37H52.1062L50.8725 45.5231H70V32H36.0938L36.4175 35.6313L39.7381 72.8931H70V59.37V59.37ZM70 94.4881L69.9388 94.5056L54.88 90.4413L53.9175 79.6569H40.3419L42.2363 100.884L69.9388 108.576L70 108.558V94.4881Z" fill="#EBEBEB"/>
<path d="M69.9517 59.37V72.8931H86.6029L85.0367 90.4325L69.9517 94.5012V108.571L97.676 100.884L97.8773 98.6006L101.054 63.0012L101.386 59.37H69.9517ZM69.9517 32V45.5231H102.615L102.887 42.4869L103.504 35.6312L103.827 32H69.9517Z" fill="white"/>
</svg>
