<svg width="120" height="120" viewBox="0 0 120 120" fill="none" xmlns="http://www.w3.org/2000/svg">
<path d="M112.459 57.2623C112.425 55.9161 112.354 54.5323 112.283 53.1861C112.212 51.8398 112.178 50.4223 112.035 49.0386C111.788 47.1636 111.54 45.2473 111.113 43.4136C110.759 41.9059 110.297 40.4258 109.729 38.9848C109.085 37.258 108.351 35.5657 107.532 33.9148C106.048 31.3547 104.42 28.8808 102.657 26.5048C101.558 24.9448 100.14 23.6698 99.0755 22.0761C98.4142 21.154 97.6133 20.3405 96.7017 19.6648C95.2842 18.5398 93.7955 17.5011 92.3067 16.5111C91.1817 15.7311 90.0567 14.9886 88.8342 14.3136C87.878 13.7811 86.8505 13.3573 85.8567 12.8961C84.7506 12.2787 83.5714 11.8025 82.3467 11.4786C82.0345 11.3998 81.7265 11.3047 81.4242 11.1936C80.6105 10.9086 79.8305 10.5898 79.013 10.3423C77.7717 9.96733 76.568 9.49108 75.293 9.17233C74.0437 8.86453 72.7779 8.6279 71.5017 8.46358C70.0842 8.24983 68.6292 8.17858 67.2117 8.03983C66.2892 7.93483 65.3667 7.82608 64.4817 7.79233C63.1355 7.72108 61.7517 7.72108 60.4055 7.68733C59.7222 7.62839 59.0363 7.60461 58.3505 7.61608C57.3188 7.65842 56.29 7.75354 55.268 7.90108C54.2742 8.00608 53.2842 8.18608 52.3242 8.32483C51.1542 8.46733 49.9842 8.53858 48.8142 8.68108C47.7155 8.82358 46.5642 9.03733 45.4842 9.21358C45.1092 9.28483 44.7042 9.42733 44.3142 9.49858C43.442 9.62517 42.578 9.80297 41.7267 10.0311C40.2042 10.4923 38.678 11.0248 37.1892 11.5911C35.8106 12.1438 34.4624 12.7697 33.1505 13.4661C31.8042 14.2161 30.5255 15.0973 29.2505 15.9486C28.0467 16.7623 26.8392 17.6136 25.6692 18.5361C24.545 19.4368 23.4685 20.3956 22.4442 21.4086C21.878 21.9748 21.4167 22.6498 20.8842 23.2836C19.9992 24.3111 19.1105 25.3048 18.2592 26.3661C17.5505 27.2511 16.913 28.1736 16.238 29.0961C15.0621 30.7246 13.996 32.4296 13.0467 34.1998C12.6717 34.9086 12.2967 35.6173 11.948 36.3261C11.4155 37.3911 10.8492 38.4186 10.3542 39.5173C9.99705 40.2803 9.71205 41.075 9.50299 41.8911C9.00799 43.6273 8.50924 45.4011 8.04799 47.1411C7.67307 48.7031 7.48923 50.3048 7.50049 51.9111C7.49439 53.3211 7.57706 54.7302 7.74799 56.1298C7.78174 56.4823 7.57174 56.9098 7.99549 57.1948C8.02924 57.1948 7.99549 57.3373 7.95799 57.3711C7.93365 57.4168 7.91991 57.4674 7.91779 57.5192C7.91568 57.5709 7.92524 57.6225 7.94577 57.67C7.96631 57.7176 7.99728 57.7599 8.0364 57.7938C8.07551 57.8278 8.12177 57.8525 8.17174 57.8661C8.19045 57.8855 8.20231 57.9105 8.20549 57.9373H8.03674C7.93174 58.2561 8.28424 58.5036 8.14174 58.8598C8.10799 58.9311 8.24674 59.0736 8.31799 59.1786C8.30053 59.2954 8.30053 59.4142 8.31799 59.5311C8.39711 59.8584 8.45597 60.1903 8.49424 60.5248C8.49424 60.7723 8.70799 61.0573 8.77924 61.3048C8.79474 61.3652 8.79639 61.4282 8.78405 61.4893C8.77171 61.5503 8.74571 61.6078 8.70799 61.6573C8.49424 61.9048 8.53174 62.1186 8.85049 62.2611C8.93886 62.3179 9.00197 62.4065 9.02674 62.5086C9.00891 62.7236 8.9738 62.9368 8.92174 63.1461C8.99299 63.2173 9.02674 63.2886 8.99299 63.3598C8.95924 63.4311 8.88799 63.5736 8.92174 63.6448C9.1867 64.2234 9.33089 64.8499 9.34549 65.4861C9.36505 65.6471 9.41331 65.8033 9.48799 65.9473C9.5608 65.9437 9.63358 65.9552 9.70174 65.9811L9.48799 66.6186C9.64617 66.5325 9.81185 66.4609 9.98299 66.4048C10.0761 66.8366 10.195 67.2624 10.3392 67.6798C10.3913 67.768 10.4649 67.8415 10.553 67.8936C10.5155 67.9648 10.5155 68.1073 10.448 68.1411C10.547 68.7685 10.7013 69.3859 10.9092 69.9861C10.9467 69.9861 10.9805 69.9486 11.0142 69.9486C10.9092 69.3111 10.838 68.6361 10.7292 67.9986V67.7848C10.7622 67.7672 10.7976 67.7545 10.8342 67.7473C10.8817 67.8852 10.9168 68.027 10.9392 68.1711C11.2242 68.1711 11.648 68.3473 11.933 68.3473C11.9626 68.2394 11.9976 68.133 12.038 68.0286C11.8242 67.8148 11.663 67.4961 11.4342 67.2786C11.4722 67.4414 11.4722 67.6108 11.4342 67.7736C11.2917 67.7023 11.1155 67.6311 10.9392 67.5598C11.0928 67.3614 11.2581 67.1723 11.4342 66.9936C11.4342 66.6748 11.258 66.3898 10.7592 66.4273C10.973 66.3561 11.1867 66.2511 11.4342 66.1798C11.4633 66.2769 11.4984 66.3721 11.5392 66.4648C11.8242 65.9698 11.3967 65.5798 11.3967 65.0811C11.3193 64.4532 11.1773 63.8349 10.973 63.2361C10.7967 62.2423 10.8305 60.7536 10.7255 59.7636C10.7255 59.6923 10.6205 59.6211 10.5492 59.5498C10.5117 59.5873 10.3355 60.0448 10.3017 60.0823C10.4067 60.9336 10.5155 61.7848 10.5867 62.6361C10.553 62.6361 10.5155 62.6361 10.5155 62.6698C10.373 61.9198 10.2305 61.1473 10.0542 60.2961C10.0204 60.4595 9.99665 60.6248 9.98299 60.7911C9.87799 60.7573 9.84049 60.7198 9.66424 60.6486C9.80674 60.9673 9.94924 61.1811 10.0392 61.4286C9.86977 61.3634 9.68737 61.339 9.50674 61.3573V62.3511C9.2613 62.0813 9.04742 61.7844 8.86924 61.4661C8.79799 61.1811 8.76424 60.8998 8.69299 60.6148L8.79799 60.5773C8.75177 60.4635 8.7166 60.3454 8.69299 60.2248C8.65799 59.9748 8.62299 59.6911 8.58799 59.3736C8.62174 59.3398 8.76424 59.3023 8.83549 59.2311L8.55049 58.8073C8.76151 58.8428 8.97434 58.8666 9.18799 58.8786C9.18799 58.8073 9.22174 58.7736 9.18799 58.7361C8.83174 58.4173 9.08299 58.1323 9.22174 57.8511C9.29299 57.7086 9.54049 57.6748 9.59674 57.5323C9.88174 56.9998 10.3467 56.5761 10.3467 55.9011C10.3769 55.5676 10.4244 55.2359 10.4892 54.9073C10.5605 54.3036 10.6317 53.7036 10.6655 53.0998C10.6817 52.3334 10.7519 51.569 10.8755 50.8123C11.3675 48.6481 12.0309 46.5264 12.8592 44.4673C13.3535 43.0791 13.9218 41.7184 14.5617 40.3911C15.518 38.4786 16.6167 36.6411 17.6817 34.7661C18.3567 33.5961 19.0655 32.5161 19.808 31.3648C20.5505 30.2136 21.2255 29.1148 22.058 28.1023C23.1775 26.6508 24.4332 25.3097 25.808 24.0973C27.2255 22.8223 28.5717 21.5098 30.098 20.3473C32.0698 18.8167 34.1701 17.4592 36.3755 16.2898C38.1838 15.3676 40.0488 14.561 41.9592 13.8748C43.163 13.4136 44.4755 13.2036 45.7092 12.8098C47.1078 12.3622 48.5647 12.1234 50.033 12.1011C50.9892 12.0673 51.908 11.9586 52.868 11.8536C53.7192 11.7823 54.5705 11.7111 55.493 11.6061C55.4242 11.6945 55.3651 11.79 55.3167 11.8911C54.9417 12.4573 54.503 13.0161 54.113 13.5936C53.7942 14.0548 53.438 14.5498 53.1192 15.0111C52.553 15.7611 51.9492 16.5111 51.4167 17.2611C50.603 18.4311 49.8567 19.6348 49.0055 20.8048C48.1542 21.9748 47.2317 23.0023 46.3467 24.1011C45.1767 25.6236 44.0967 27.1836 42.908 28.7098C41.843 30.1648 40.7105 31.5448 39.683 32.9998C38.7605 34.2748 37.9467 35.6248 37.058 36.9336C35.7455 38.8836 34.433 40.7961 33.1242 42.7461C32.0967 44.2461 31.0692 45.6898 30.0042 47.1786C29.9254 47.2691 29.8283 47.342 29.7192 47.3923C29.648 47.4636 29.5055 47.5348 29.5055 47.6061C29.468 47.8471 29.4091 48.0843 29.3292 48.3148C29.0442 48.8473 28.763 49.3798 28.4442 49.8748C28.268 50.1598 28.0205 50.4073 27.8067 50.6886C27.7355 50.6548 27.7017 50.6173 27.6305 50.6173C27.773 50.2611 28.3805 50.0511 28.0917 49.5186C27.9155 49.8036 27.7355 50.0511 27.5592 50.3323L27.1355 51.1836C27.278 51.2886 27.5105 51.3598 27.278 51.5586C27.173 51.7348 27.0642 51.9336 26.9592 52.1248C26.9967 52.1248 26.9967 52.1586 27.0305 52.1586C27.1355 52.0161 27.2442 51.9111 27.3492 51.7836C27.383 51.7836 27.4205 51.8211 27.4542 51.8211C27.3252 52.1691 27.1593 52.5022 26.9592 52.8148C26.7544 53.0947 26.5002 53.3349 26.2092 53.5236C26.2467 53.5573 26.4942 53.6661 26.528 53.6998C26.633 53.5573 26.6705 53.6286 26.7755 53.4861C26.8467 53.5911 26.9517 53.4148 26.9892 53.5198C27.0868 53.4136 27.17 53.2951 27.2367 53.1673C27.2931 52.9946 27.3854 52.8359 27.5076 52.7014C27.6297 52.567 27.779 52.4599 27.9455 52.3873C28.0815 52.3205 28.2056 52.2318 28.313 52.1248C29.378 51.0261 30.4767 49.9611 31.433 48.7948C32.933 46.9873 34.268 45.1086 35.6855 43.2636C36.2892 42.4836 36.998 41.7036 37.6355 40.9611C37.7067 40.9986 37.778 40.9986 37.8117 41.0323C37.7405 41.7823 37.6692 42.5548 37.6355 43.2823C37.5305 44.5948 37.4592 45.9073 37.3505 47.2536C37.3167 47.7861 37.3505 48.3186 37.3167 48.8473C37.3167 48.9898 37.2117 49.0948 37.2117 49.2223C37.2117 49.5748 37.3167 49.9723 37.3167 50.3211C37.2117 51.6336 37.0692 52.9086 36.9605 54.2211C36.9644 54.5014 37.0244 54.778 37.1367 55.0348C37.0837 54.9807 37.0245 54.9329 36.9605 54.8923C37.1436 56.9198 37.1674 58.9586 37.0317 60.9898C37.1742 60.9523 37.2455 60.9186 37.2455 60.8473C37.298 60.6001 37.3331 60.3495 37.3505 60.0973C37.3684 59.8727 37.3684 59.647 37.3505 59.4223V59.0698C37.4386 58.4238 37.4737 57.7716 37.4555 57.1198C37.3727 56.4353 37.3967 55.742 37.5267 55.0648C37.598 54.7798 37.493 54.4273 37.6692 54.0711V54.6036C37.7104 56.6267 37.6278 58.6505 37.4217 60.6636C37.388 60.8398 37.5267 61.1586 37.1367 61.1248C37.0992 61.1248 37.0655 61.3011 36.9942 61.4098C36.818 61.7623 37.208 62.2236 36.8517 62.5798C36.7805 62.6511 36.923 62.9548 36.9567 63.1836C36.9567 63.2548 36.9942 63.3261 36.9567 63.3598C36.8142 63.6073 36.8142 63.6073 37.028 63.6448C37.0655 64.4248 37.133 65.1448 37.1705 65.8948H37.2755C37.5243 64.533 37.666 63.1538 37.6992 61.7698C37.7476 62.3473 37.7601 62.9271 37.7367 63.5061C37.7367 64.4286 37.6992 65.3136 37.6655 66.2361C37.6592 66.4155 37.6353 66.5938 37.5942 66.7686C37.5258 67.2611 37.4193 67.7476 37.2755 68.2236C37.1793 68.6541 37.1552 69.0977 37.2042 69.5361V70.8823C37.2042 70.9198 37.3092 71.0248 37.3092 71.1673C37.343 71.4861 37.1667 71.8048 37.2717 72.1611C37.3092 72.2323 37.238 72.3373 37.2005 72.4086C37.1547 72.5083 37.1429 72.6202 37.1667 72.7273L37.2717 73.2598C37.2717 73.2936 37.3092 73.3311 37.343 73.4023C37.3676 73.3093 37.3802 73.2135 37.3805 73.1173C37.9842 73.1886 37.6655 73.7211 37.9467 74.0023C37.8042 74.0736 37.6992 74.1073 37.6992 74.1448C37.7495 74.2651 37.7847 74.391 37.8042 74.5198C37.7981 74.8284 37.7743 75.1364 37.733 75.4423C37.733 76.2561 37.6955 77.0736 37.6955 77.8536C37.6955 77.9586 37.733 78.0673 37.733 78.1723C37.733 78.2773 37.6955 78.3148 37.6955 78.4198V79.1698H37.838C37.7667 79.2843 37.6837 79.3912 37.5905 79.4886C37.5567 79.4886 37.448 79.4886 37.448 79.4548V75.0223H36.9267C36.9943 77.0355 36.899 79.0508 36.6417 81.0486C36.3015 81.103 35.9584 81.1381 35.6142 81.1536C34.5155 81.1536 33.4167 81.1536 32.318 81.1873C31.0055 81.1873 29.7305 81.2248 28.418 81.2248C27.7805 81.2248 27.1055 81.2961 26.468 81.2961C25.6167 81.2961 24.7317 81.1911 23.8805 81.1911C22.568 81.1911 21.293 81.2961 19.9805 81.3336C19.0242 81.3673 18.068 81.3673 17.108 81.4048C16.4705 81.4386 15.833 81.4761 15.1955 81.5473C14.8944 81.6062 14.5984 81.689 14.3105 81.7948C14.1222 81.777 13.9326 81.777 13.7442 81.7948C13.388 81.8661 13.0692 82.0798 12.7167 82.1511C12.1842 82.2561 12.0417 82.3986 12.113 82.9311V83.2836C12.0394 83.2133 11.956 83.1539 11.8655 83.1073C11.8387 83.1105 11.8137 83.1224 11.7942 83.1411C11.828 83.2461 11.8992 83.3173 11.9367 83.4261C12.0792 83.3548 12.2555 83.1786 12.398 83.1786H12.893C12.8217 83.1786 12.788 83.3923 12.6792 83.5536C12.9642 83.4486 13.1405 83.3773 13.3167 83.3061C13.3416 83.399 13.3529 83.495 13.3505 83.5911C13.8056 83.4983 14.272 83.4742 14.7342 83.5198C16.1223 83.8387 17.5326 84.0518 18.953 84.1573C19.8755 84.2286 20.7605 84.2623 21.683 84.2998C22.9955 84.3711 24.308 84.4423 25.6167 84.4423C26.7155 84.4423 27.7805 84.3373 28.8792 84.3373C30.4017 84.3373 31.928 84.4086 33.4505 84.4423C33.7692 84.4423 34.1255 84.4048 34.478 84.4048H37.0655C39.368 84.3336 41.6742 84.2998 43.9767 84.2286C45.2892 84.1948 46.6355 84.1236 47.948 84.0861L51.9867 83.9811C53.5467 83.9473 55.1067 83.9473 56.6292 83.9098C57.7992 83.9098 58.9317 83.8761 60.1017 83.8386C61.4142 83.8011 62.7605 83.6961 64.073 83.6248C64.7817 83.5911 65.4905 83.5198 66.1992 83.4486C67.0505 83.3773 67.9355 83.2723 68.7867 83.2348C70.0617 83.1636 71.3742 83.1298 72.6492 83.0586C74.243 82.9536 75.8405 82.8111 77.468 82.7736C78.968 82.7023 80.468 82.7398 81.968 82.7023C83.2805 82.6686 84.593 82.5973 85.9392 82.5598L88.1892 82.4548C88.1892 82.4548 89.6892 82.4211 90.4392 82.3498C91.7142 82.2786 92.993 82.1361 94.268 82.1023C95.0817 82.0686 95.8992 82.1023 96.713 82.0686C98.0255 82.0311 99.3717 81.9636 100.684 81.9636C101.179 81.9636 101.712 82.0348 102.349 82.0686C102.064 82.3161 101.888 82.4436 101.674 82.6348C101.821 82.6787 101.963 82.7378 102.098 82.8111C102.098 82.8486 102.064 82.8823 102.064 82.9536C101.888 82.9536 101.712 82.9911 101.532 82.9911C101.432 83.1811 101.36 83.3844 101.318 83.5948H101.955C101.708 83.5948 101.494 83.9136 101.247 84.1273C101.284 84.1611 101.318 84.1611 101.352 84.1986C100.977 84.0561 100.714 84.1273 100.572 84.5173C100.664 84.546 100.76 84.5575 100.857 84.5511C100.823 84.6561 100.785 84.7648 100.752 84.9036C100.707 84.9787 100.683 85.0639 100.68 85.1511L100.575 85.0461C100.582 84.9732 100.57 84.8998 100.542 84.8323C100.328 85.0461 100.009 85.1886 100.185 85.6461C100.043 85.7173 99.8667 85.7886 99.6905 85.8936C99.7455 85.9715 99.7932 86.0544 99.833 86.1411C99.5142 86.1748 99.1955 86.2461 99.2667 86.6361C99.4092 86.6698 99.5517 86.7411 99.6417 86.7786C99.4655 86.8498 99.2892 86.9548 99.1092 87.0261C99.0717 87.0973 99.038 87.2736 98.9667 87.3111C98.4717 87.4161 98.753 87.5961 98.8955 87.7723C98.7972 87.8445 98.6901 87.9037 98.5767 87.9486C98.6699 87.9745 98.7551 88.0235 98.8242 88.0911C98.745 88.1441 98.6624 88.1917 98.5767 88.2336C98.6442 88.2758 98.7159 88.311 98.7905 88.3386C98.648 88.4436 98.4705 88.5848 98.258 88.7623C98.2523 88.8231 98.264 88.8842 98.2917 88.9386C98.1335 89.0882 97.9915 89.2542 97.868 89.4336C97.7567 89.6768 97.6315 89.9135 97.493 90.1423C96.8477 91.0378 96.0917 91.848 95.243 92.5536C94.8869 92.8195 94.5544 93.1156 94.2492 93.4386C93.6117 94.0423 93.0455 94.7136 92.3742 95.2836C91.4892 96.0336 90.5667 96.7011 89.6105 97.3761C88.4405 98.1898 87.2705 99.0073 86.1005 99.7873C85.463 100.211 84.7542 100.537 84.0792 100.912C83.4042 101.287 82.7667 101.662 82.0955 102.037C81.6935 102.364 81.2673 102.66 80.8205 102.922C79.6505 103.417 78.4092 103.845 77.2055 104.306C77.1005 104.34 77.0292 104.377 76.9205 104.411C76.0355 104.786 75.1842 105.225 74.2955 105.536C73.4721 105.815 72.6316 106.04 71.7792 106.211C71.4727 106.241 71.1646 106.252 70.8567 106.245C70.253 106.35 69.653 106.492 69.0492 106.564C67.4892 106.777 65.9292 106.916 64.3692 107.13C63.4467 107.235 62.5617 107.415 61.6392 107.505C61.0017 107.542 60.3267 107.471 59.6892 107.471C59.2182 107.518 58.7444 107.529 58.2717 107.505C57.5217 107.4 56.7717 107.22 56.0217 107.081C55.8396 107.018 55.6438 107.007 55.4555 107.047C55.1705 107.19 54.923 106.976 54.6417 107.047C54.4655 107.081 54.2892 106.942 54.1092 106.942C53.9292 106.942 53.7905 106.976 53.6142 106.942C53.2407 106.8 52.8441 106.727 52.4442 106.729C51.9951 106.698 51.5529 106.602 51.1317 106.444L49.2567 106.02C49.0081 105.944 48.77 105.836 48.548 105.701C48.4523 105.762 48.3426 105.798 48.2292 105.806C47.6284 105.744 47.0346 105.626 46.4555 105.454C45.9921 105.215 45.4769 105.094 44.9555 105.101C44.813 105.135 44.708 105.064 44.5805 105.064C44.4755 104.921 44.3667 104.64 44.2617 104.64C43.553 104.677 43.1367 104.074 42.5255 103.89C42.2067 103.785 41.9592 103.429 41.6405 103.324C40.8605 103.005 40.223 102.33 39.338 102.225C39.0349 102.157 38.7387 102.062 38.453 101.94C38.5392 102.065 38.6344 102.184 38.738 102.296L38.6667 102.367C37.7105 101.801 36.7542 101.242 35.7942 100.702C35.6517 100.665 35.5467 100.526 35.438 100.455L34.4817 99.8173C34.3767 99.7461 34.163 99.6411 34.163 99.6748C33.9492 99.9223 33.7392 99.7123 33.5967 99.6411C32.6405 98.9661 31.5417 98.5423 30.6192 97.7961C30.2072 97.5367 29.8293 97.2268 29.4942 96.8736C29.003 96.2968 28.3995 95.826 27.7205 95.4898C27.188 95.2048 26.693 94.8861 26.198 94.5673C26.0554 94.4908 25.9349 94.3789 25.8482 94.2422C25.7615 94.1056 25.7115 93.9489 25.703 93.7873C25.703 93.5398 25.598 93.2923 25.2792 93.4348C25.1367 93.2211 24.9942 92.9736 24.818 92.9023C24.433 92.7036 24.0854 92.4397 23.7905 92.1223C23.4717 91.8373 23.2242 91.4473 22.8342 91.3086C22.207 90.9846 21.6707 90.5089 21.2742 89.9248C20.2805 88.7548 19.3992 87.4798 18.473 86.2386C18.3749 86.1348 18.2683 86.0395 18.1542 85.9536L18.1167 85.9911C18.293 86.3436 18.473 86.6661 18.6492 87.0186C18.6117 87.0523 18.5442 87.0898 18.5067 87.1236C18.293 86.8761 18.0455 86.6286 17.8317 86.3736C17.7942 86.4111 17.7605 86.4448 17.7267 86.4448L20.2505 90.5473C20.4642 90.8661 20.6255 91.1848 20.8542 91.5036C20.8137 91.5471 20.7653 91.5827 20.7117 91.6086C20.519 91.5676 20.3372 91.4863 20.1782 91.3699C20.0192 91.2536 19.8866 91.1049 19.7892 90.9336C19.6871 90.6573 19.4952 90.4233 19.2444 90.269C18.9935 90.1147 18.6981 90.049 18.4055 90.0823C18.3298 89.8264 18.271 89.5659 18.2292 89.3023C18.0636 89.3052 17.898 89.2939 17.7342 89.2686C18.2292 90.0486 18.6567 90.7236 19.118 91.5186L18.7655 91.3048C19.403 91.9798 19.8642 92.8273 20.678 93.2548C20.8542 94.0686 21.7767 94.4586 21.9905 95.2386L21.4955 95.1336C21.2105 94.7811 20.8917 94.4248 20.573 94.0348C20.6357 94.2665 20.7441 94.4832 20.8917 94.6723C21.2909 95.2117 21.7296 95.7206 22.2042 96.1948C22.3805 96.3711 22.628 96.4423 22.628 96.7611C22.7122 96.6865 22.8086 96.6269 22.913 96.5848C22.8572 96.6872 22.8095 96.7938 22.7705 96.9036C22.913 96.9036 23.018 96.9373 23.1267 96.9373C23.198 97.1511 23.0892 97.4698 23.5017 97.3986C23.5392 97.3986 23.573 97.4323 23.6067 97.4698C23.783 97.9311 24.068 97.9311 24.458 97.7548C24.5074 97.7384 24.5604 97.7364 24.6109 97.749C24.6613 97.7616 24.7072 97.7884 24.743 97.8261C24.9192 98.2011 25.1667 98.2498 25.493 97.9686C25.493 98.1448 25.5267 98.3211 25.5267 98.4636H25.688C25.688 98.3923 25.6542 98.2873 25.6542 98.1111C25.8305 98.2536 25.9392 98.3248 26.0105 98.3961C26.3316 98.9004 26.7259 99.3541 27.1805 99.7423C27.8555 100.309 28.4555 100.912 29.093 101.445C30.3465 102.448 31.6868 103.338 33.098 104.104C34.8005 105.06 36.428 106.087 38.168 107.01C40.2666 108.083 42.495 108.881 44.798 109.384C45.6492 109.56 46.463 109.736 47.3142 109.95C48.0642 110.164 48.8142 110.482 49.5642 110.659C50.6892 110.906 51.8667 111.12 53.003 111.334L53.783 111.439V111.51C54.1017 111.51 54.4917 111.367 54.563 111.472C54.7392 111.757 54.8817 111.615 55.0955 111.577C55.3623 111.517 55.636 111.493 55.9092 111.506C56.8866 111.618 57.8693 111.677 58.853 111.682C59.0667 111.682 59.3855 111.506 59.5617 111.859C59.633 111.821 59.6667 111.787 59.738 111.754C59.8805 111.716 60.0567 111.716 60.1992 111.682V111.75C60.1066 111.782 60.0112 111.806 59.9142 111.821C60.0415 111.847 60.1668 111.883 60.2892 111.926C60.239 111.974 60.1788 112.01 60.113 112.031C60.0002 112.077 59.8932 112.136 59.7942 112.207C60.9605 112.474 62.1717 112.474 63.338 112.207V111.994H63.4805C63.4879 112.069 63.5122 112.142 63.5517 112.207C65.1604 112.347 66.7803 112.141 68.303 111.604C68.4455 111.78 68.5505 112.027 68.7642 111.675C68.8355 111.57 69.0117 111.532 69.1392 111.499C69.4518 111.373 69.7916 111.33 70.1255 111.375C70.4442 111.48 70.5492 111.199 70.8005 111.199C71.2041 111.2 71.607 111.165 72.0042 111.094C72.218 111.06 72.428 110.951 72.6792 110.88C72.6816 110.861 72.6797 110.842 72.6739 110.824C72.6681 110.805 72.6584 110.789 72.6455 110.775C72.3973 110.735 72.1468 110.711 71.8955 110.704C72.3192 110.49 72.7092 110.329 73.0992 110.137C73.0992 110.171 73.1367 110.171 73.1367 110.209C73.0317 110.242 72.9605 110.385 72.818 110.385H73.313C73.208 110.385 73.0655 110.704 72.8892 110.917L76.4705 110.032V109.961C76.328 109.995 76.223 109.995 76.1142 110.032C76.0805 109.282 76.8942 109.537 77.1792 109.11C76.823 109.215 76.4705 109.324 76.1142 109.395V109.324C77.318 108.791 78.5592 108.259 79.7667 107.73C79.7667 107.767 79.8042 107.767 79.8042 107.801C79.5905 107.944 79.3805 108.049 79.0542 108.225C79.2091 108.241 79.3631 108.264 79.5155 108.296C79.5155 108.401 79.5155 108.472 79.4817 108.51C80.0855 108.472 79.943 107.944 80.1192 107.625C80.2242 107.659 80.3667 107.73 80.4755 107.696C80.7878 107.617 81.0957 107.522 81.398 107.411C81.7542 107.306 82.1067 107.197 82.463 107.055C83.0292 106.807 83.5617 106.489 84.128 106.204C84.2687 106.186 84.411 106.186 84.5517 106.204C84.6498 106.191 84.7388 106.139 84.7992 106.061C84.9417 105.956 85.0842 105.742 85.1742 105.776C85.2767 105.805 85.3838 105.813 85.4895 105.8C85.5952 105.788 85.6972 105.754 85.7897 105.701C85.8822 105.648 85.9632 105.578 86.0282 105.493C86.0931 105.409 86.1407 105.313 86.168 105.21C86.2055 105.21 86.2055 105.172 86.2392 105.172C86.4087 105.036 86.5865 104.911 86.7717 104.797C87.5517 104.374 88.2942 103.946 89.0742 103.522C89.108 103.489 89.1792 103.522 89.2505 103.522C89.3579 103.531 89.4659 103.519 89.5692 103.489C90.0305 103.275 90.4542 103.027 90.8817 102.78C90.7767 102.742 90.8817 102.709 90.5292 102.675V102.6C90.7586 102.559 90.9843 102.5 91.2042 102.424L91.133 102.352C92.0555 101.43 93.2255 100.759 94.1105 99.9786C94.2269 100.013 94.3461 100.037 94.4667 100.05C94.4949 99.9576 94.5076 99.8613 94.5042 99.7648C94.6385 99.5713 94.7931 99.3928 94.9655 99.2323C95.7455 98.5236 96.5967 97.9198 97.3055 97.1773C98.333 96.1498 99.3267 95.0848 100.249 93.9861C101.122 93.0144 101.927 91.9845 102.66 90.9036C103.654 89.3811 104.505 87.8211 105.39 86.2236C106.028 85.0986 106.594 83.9736 107.235 82.8223C107.307 82.7173 107.449 82.5748 107.554 82.5748C108.51 82.4698 109.467 82.3986 110.389 82.2898C110.626 82.2255 110.853 82.1297 111.064 82.0048C110.959 81.8286 110.888 81.6298 110.779 81.4386C110.67 81.2473 110.427 81.0636 110.284 80.8348C110.145 80.6464 110.026 80.4441 109.928 80.2311C109.823 80.0548 109.714 79.9123 109.609 79.7361C109.387 79.3457 109.185 78.9439 109.005 78.5323C108.95 78.4156 108.925 78.2864 108.934 78.1573C109.572 76.7736 109.819 75.2848 110.434 73.9048C110.951 72.435 111.308 70.9137 111.499 69.3673C111.747 67.9123 111.874 66.4611 112.065 65.0061C112.17 63.9786 112.313 62.9848 112.35 61.9573C112.508 60.4025 112.543 58.8377 112.455 57.2773L112.459 57.2623ZM23.348 96.8211C23.1005 96.5361 22.8867 96.2173 22.6392 95.9361L22.7442 95.8311C23.1192 96.2586 23.5242 96.6823 23.9142 97.1436C23.7068 97.0746 23.5146 96.9664 23.348 96.8248V96.8211ZM23.9142 97.1398C24.0192 97.1061 24.128 97.1061 24.233 97.0686C24.338 97.2448 24.4092 97.4436 24.518 97.6723C24.023 97.6386 23.768 97.4248 23.9142 97.1398ZM60.7767 111.765V111.675L62.7605 111.461V111.566C62.1035 111.672 61.4413 111.744 60.7767 111.78V111.765ZM69.7092 110.842C69.2142 110.947 68.6817 111.019 68.1867 111.09C68.0105 111.127 67.8117 111.304 67.7255 110.985C67.6542 111.019 67.583 111.019 67.5117 111.056C67.688 111.589 68.1155 111.161 68.468 111.375C67.688 111.48 66.9455 111.551 66.218 111.66V111.589L66.893 111.484V111.375C66.5394 111.333 66.184 111.31 65.828 111.304C65.723 111.304 65.5805 111.446 65.4755 111.48C65.3255 111.523 65.1704 111.547 65.0142 111.551C64.4105 111.585 63.8105 111.585 63.2405 111.622C63.2067 111.622 63.1355 111.585 63.098 111.585V111.48L70.1855 110.524C70.2192 110.595 70.2192 110.666 70.2567 110.737C70.0758 110.752 69.8971 110.787 69.7242 110.842H69.7092ZM70.2417 110.486C71.0555 110.381 71.8017 110.31 72.5817 110.201C70.9505 110.662 70.418 110.734 70.2417 110.486ZM39.3755 38.9398C40.5005 37.3798 41.678 35.8198 42.8142 34.2261C43.1667 33.7648 43.4517 33.2698 43.808 32.8086C43.934 32.6728 44.0764 32.5532 44.2317 32.4523L44.1942 32.3811C44.3253 32.2382 44.4433 32.0838 44.5467 31.9198C44.7093 31.6226 44.8509 31.3143 44.9705 30.9973C45.0078 30.9406 45.0563 30.8921 45.113 30.8548C45.608 31.1023 45.608 30.5698 45.788 30.3936C46.1067 30.0411 46.4255 29.6436 46.7105 29.2948C46.9317 29.0258 47.1334 28.7413 47.3142 28.4436C47.348 28.3386 47.243 28.1586 47.2092 28.0198H47.1042C47.2092 27.9486 47.318 27.8436 47.423 27.7723C47.4605 27.7723 47.4605 27.7723 47.4942 27.7386C47.708 27.4198 47.918 27.1011 48.1317 26.8161C48.5542 26.2406 49.0166 25.6955 49.5155 25.1848C49.4442 25.3611 49.373 25.5411 49.3017 25.6798C49.3355 25.6798 49.3355 25.7173 49.373 25.7173C49.7967 25.1511 50.258 24.6186 50.6855 24.0523C50.648 24.0186 50.6142 23.9811 50.5805 23.9811C50.4042 24.1573 50.2617 24.3336 50.0855 24.5136C50.048 24.4798 50.0142 24.4423 49.9805 24.4423C50.3367 23.9811 50.6892 23.5198 51.0455 22.9873C51.1503 23.1594 51.2454 23.3372 51.3305 23.5198C51.473 23.1636 51.6155 22.9161 51.7055 22.6686C51.6005 22.7736 51.458 22.8823 51.353 22.9873L51.2442 22.8748L51.8817 21.9186C52.5567 20.9623 53.228 19.9686 53.903 19.0123C54.1505 18.6561 54.4692 18.3748 54.683 18.0186C55.461 16.7515 56.3137 15.5318 57.2367 14.3661C57.4308 14.1244 57.644 13.8987 57.8742 13.6911C58.0505 13.4773 58.193 13.5486 58.3355 13.7286C59.2917 14.9323 60.248 16.1736 61.208 17.3811C61.9167 18.2661 62.6255 19.1173 63.3005 20.0398C64.1142 21.1648 64.8942 22.2898 65.7117 23.4411C66.6342 24.7536 67.5567 26.0661 68.4417 27.4123C69.788 29.3961 71.0667 31.3836 72.413 33.3673C73.4067 34.8223 74.3967 36.2398 75.3567 37.6911H73.5492C71.8842 37.6536 70.1742 37.5148 68.5167 37.5861C66.2667 37.6911 63.9455 37.9386 61.6767 38.1186C58.8042 38.3661 55.898 38.4036 53.0292 38.4036C52.0017 38.4036 50.9742 38.5461 49.9467 38.6173C48.7055 38.6886 47.5017 38.7598 46.2605 38.7936C44.8055 38.8648 43.388 38.8986 41.9367 38.9361C41.123 38.9736 40.2717 38.9361 39.383 38.9361L39.3755 38.9398ZM80.0255 55.2448V55.5636C79.9917 55.5636 79.9542 55.5973 79.883 55.5973C79.7405 55.1023 79.598 54.5698 79.4217 54.0748C79.0996 53.0234 78.6339 52.0215 78.038 51.0973C77.3292 50.1036 76.6917 49.0761 75.983 48.0486C75.7891 47.8067 75.5759 47.581 75.3455 47.3736C74.6351 46.5173 73.8128 45.7605 72.9005 45.1236C71.4901 44.2482 70.0071 43.4954 68.468 42.8736C68.0403 42.6894 67.6256 42.4764 67.2267 42.2361H68.078L74.138 42.1311C75.4505 42.0936 76.7255 42.0936 78.038 42.0261C78.1749 42.0152 78.312 42.0449 78.4321 42.1117C78.5522 42.1784 78.6499 42.2791 78.713 42.4011C79.0317 42.9336 79.3505 43.4623 79.7067 43.9948C79.763 44.0806 79.799 44.1781 79.8117 44.2798C79.8117 45.0598 79.8117 45.8736 79.8455 46.6536C79.8792 47.4336 79.9505 48.2473 79.988 49.0648C80.0255 49.8823 79.9167 50.7298 79.9505 51.5811C79.988 52.7848 80.0217 54.0261 80.0217 55.2673L80.0255 55.2448ZM41.888 43.3686C43.553 43.2973 45.1505 43.1923 46.763 43.1211C48.038 43.0498 49.3505 43.0161 50.6255 42.9448C51.1441 42.8915 51.6669 42.8915 52.1855 42.9448C51.6186 43.2096 51.0732 43.518 50.5542 43.8673C49.9167 44.2911 49.313 44.8611 48.6792 45.3223C48.0419 45.8002 47.4596 46.3473 46.943 46.9536C46.268 47.7673 45.5255 48.4761 44.8167 49.2561C44.2881 49.7977 43.7875 50.3659 43.3167 50.9586C42.713 51.7386 42.1917 52.5898 41.6142 53.4748C41.7905 50.0998 41.9892 46.7773 41.8617 43.3723L41.888 43.3686ZM65.033 77.4673C63.892 77.7884 62.7323 78.0388 61.5605 78.2173C60.548 78.3238 59.5292 78.3589 58.5117 78.3223C57.5892 78.3223 56.7042 78.2886 55.7817 78.2173C54.7346 78.1667 53.7037 77.9385 52.733 77.5423C51.8817 77.1673 50.9967 76.7923 50.1455 76.3723C49.2532 75.9779 48.4554 75.3975 47.8055 74.6698C47.2932 74.1175 46.7363 73.6083 46.1405 73.1473C46.2454 73.5753 46.5149 73.9445 46.8905 74.1748C46.7142 74.3886 46.4667 74.2798 46.1105 73.7136C46.0192 73.7682 45.924 73.8159 45.8255 73.8561C45.9305 73.6086 46.0392 73.3611 46.1442 73.1473C46.0017 72.8623 45.8255 72.5436 45.683 72.2623C45.3977 71.798 45.1263 71.3253 44.8692 70.8448C44.798 70.7398 44.798 70.6311 44.7267 70.5261C44.5507 70.3224 44.3855 70.1096 44.2317 69.8886C43.9612 69.4351 43.6658 68.9969 43.3467 68.5761C43.3467 68.6811 43.3805 68.7898 43.3805 68.9286C43.3537 68.9318 43.3287 68.9436 43.3092 68.9623L42.5592 67.1548C42.5217 67.1548 42.5217 67.1548 42.488 67.1923L43.1255 69.5323C43.088 69.5323 43.0542 69.5698 43.0205 69.5698C42.9052 69.4296 42.8093 69.2744 42.7355 69.1086C42.6642 68.8236 42.4505 68.8236 42.2742 68.9323C42.2184 68.9865 42.1763 69.0532 42.1515 69.1269C42.1268 69.2006 42.12 69.2792 42.1317 69.3561C42.3792 69.9598 42.6642 70.5598 42.9455 71.1636C43.0128 71.3707 43.0955 71.5725 43.193 71.7673C43.2305 71.8386 43.3355 71.9098 43.3355 72.0148C43.4555 72.2966 43.5972 72.5687 43.7592 72.8286C44.078 73.2523 44.4342 73.6798 44.753 74.1036C45.0717 74.5273 45.3567 74.9886 45.638 75.4161C45.6755 75.4873 45.7805 75.4873 45.8142 75.5211C45.9905 76.0536 46.5942 76.4436 47.018 76.2298C47.123 77.0436 48.0117 77.3286 48.3642 78.1048C48.0159 77.9646 47.6731 77.8107 47.3367 77.6436C47.303 77.6811 47.303 77.7148 47.2655 77.7861C47.6905 77.9896 48.1048 78.2149 48.5067 78.4611C48.8625 78.6652 49.2056 78.8906 49.5342 79.1361C49.9673 79.5172 50.4941 79.7761 51.0605 79.8861C51.0472 79.834 51.0229 79.7854 50.9892 79.7436C51.983 80.2048 53.0105 80.6998 53.7905 81.0898C50.1042 81.1611 46.1705 81.2323 42.0942 81.3036C42.0942 80.6286 42.0605 79.9911 42.0605 79.3198C42.0895 79.0496 42.1007 78.7778 42.0942 78.5061C41.9892 76.8748 41.9892 75.2436 41.7755 73.6498C41.5926 71.9664 41.5337 70.2719 41.5992 68.5798C41.633 67.6573 41.5617 66.7048 41.528 65.7786C41.528 64.5373 41.528 63.3336 41.5617 62.0923C41.5761 61.9195 41.6245 61.7513 41.7042 61.5973H41.8092C41.843 61.6686 41.8092 61.7736 41.8805 61.8111C41.9855 61.9161 42.1655 62.0961 42.2367 62.0586C42.4505 61.9161 42.7692 61.7736 42.8405 61.5636C43.0079 61.1464 43.092 60.7005 43.088 60.2511C43.0998 59.9769 43.1998 59.7139 43.373 59.5011C43.4388 59.3872 43.4976 59.2695 43.5492 59.1486C43.4067 59.0436 43.2642 58.9723 43.088 58.8298C43.2305 58.4548 43.193 57.9786 43.7255 57.7648C43.7967 57.7273 43.7967 57.5511 43.8305 57.4461L43.9355 56.5611C43.9852 56.6393 44.0444 56.7111 44.1117 56.7748C44.1303 56.7366 44.1543 56.7012 44.183 56.6698C44.183 56.5273 44.1492 56.2461 44.183 56.2461C44.6067 56.1748 44.4305 55.7136 44.6442 55.4961C44.678 55.4623 44.6067 55.3536 44.6067 55.2823C44.6067 55.2111 44.6067 55.1061 44.6442 55.1061C45.1392 55.0011 45.068 54.4686 45.3942 54.2211C45.4992 54.1498 45.5367 54.0448 45.6792 53.8686C45.9642 54.3636 45.4655 54.6186 45.4317 54.9673C46.0355 54.6111 46.2117 53.7636 45.8555 53.5123C45.9964 53.4043 46.1224 53.2782 46.2305 53.1373C46.6055 52.7136 47.0442 52.3236 47.4005 51.8961C47.648 51.5773 47.7755 51.1873 48.038 50.8686C48.2214 50.6879 48.4378 50.544 48.6755 50.4448C49.322 50.1376 49.8825 49.6751 50.3067 49.0986C50.395 49.0188 50.4904 48.9472 50.5917 48.8848C50.6967 48.8136 50.9105 48.8136 50.9442 48.7086C50.978 48.6036 50.873 48.4611 50.8017 48.3561C50.9442 48.2848 51.0867 48.1423 51.368 48.0036C51.263 48.2173 51.2255 48.3561 51.1542 48.4986L51.3305 48.6748C51.6492 48.4273 52.1442 48.1423 52.4555 47.9248C52.4555 47.8911 52.2792 47.7486 52.2792 47.7486C52.0655 47.8536 51.7467 48.0336 51.428 48.1723C51.4992 48.0673 51.4992 47.9961 51.533 47.9586C52.0201 47.6298 52.5287 47.3342 53.0555 47.0736C54.2967 46.5073 55.538 45.9486 56.7755 45.4086C57.02 45.3428 57.276 45.3313 57.5255 45.3748C57.6218 45.3811 57.7184 45.3697 57.8105 45.3411C58.3767 45.1648 58.9355 44.9886 59.513 44.8461C59.7671 44.7764 60.0295 44.7411 60.293 44.7411C61.358 44.7748 62.4192 44.7748 63.4842 44.8461C63.9319 44.8862 64.3728 44.9819 64.7967 45.1311C65.3428 45.3194 65.8753 45.5449 66.3905 45.8061C66.9894 46.1271 67.5691 46.4827 68.1267 46.8711C69.1542 47.5461 70.1105 48.2886 71.1267 48.8923C72.0872 49.4926 72.9092 50.2903 73.538 51.2323C74.418 52.2442 75.1033 53.41 75.5592 54.6711L76.0917 57.0111C76.2819 57.4332 76.3669 57.8952 76.3392 58.3573C76.163 59.2423 76.0205 60.1648 75.878 61.0498C75.7908 61.3965 75.7554 61.7541 75.773 62.1111C75.7625 63.1753 75.4949 64.2213 74.993 65.1598C74.8505 65.4786 74.6367 65.7973 74.4605 66.1536C74.5478 66.2151 74.6439 66.2631 74.7455 66.2961L75.0642 65.6586C75.098 65.6586 75.098 65.6586 75.1355 65.6961C74.9592 66.1911 74.8167 66.7236 74.6405 67.2186C74.2167 68.3173 73.7892 69.4686 73.2567 70.5148C72.9143 71.0912 72.5387 71.6471 72.1317 72.1798C71.7755 72.6748 71.4942 73.2073 71.138 73.6798C70.8395 74.0859 70.4818 74.4449 70.0767 74.7448C69.1288 75.4706 68.1341 76.1333 67.0992 76.7286C66.4449 77.0922 65.7395 77.3552 65.0067 77.5086L65.033 77.4673ZM46.1405 75.5923L46.1067 75.6261C46.0171 75.5922 45.9336 75.5441 45.8592 75.4836L45.0005 74.2086C44.9622 74.1586 44.9359 74.1005 44.9235 74.0387C44.9112 73.977 44.9131 73.9132 44.9292 73.8523C45.3042 74.4561 45.7092 75.0223 46.133 75.5886L46.1405 75.5923ZM68.1867 80.4486C69.7095 79.7843 71.1052 78.8606 72.3117 77.7186C72.4836 77.5352 72.6733 77.3694 72.878 77.2236C74.3082 76.2784 75.5275 75.0476 76.4592 73.6086C77.4967 71.9301 78.4321 70.1907 79.2605 68.3998C79.3247 68.2709 79.396 68.1457 79.4742 68.0248C79.4812 72.0423 79.7896 76.0535 80.3967 80.0248L68.2017 80.4486H68.1867ZM104.13 79.3873C104.093 79.4586 104.025 79.5298 103.988 79.6011C103.956 79.4967 103.933 79.3902 103.917 79.2823C103.703 79.8486 103.242 79.5673 102.923 79.5673C101.01 79.6011 99.0605 79.6011 97.1442 79.6011C95.2992 79.6011 93.4242 79.6011 91.5792 79.6386C90.9755 79.6386 90.338 79.7811 89.7342 79.8148C88.2792 79.8861 86.828 79.9198 85.373 79.9573C85.268 79.9573 85.1592 79.7811 84.998 79.6386C84.9356 79.7505 84.8641 79.8571 84.7842 79.9573C84.7505 79.8861 84.6792 79.8148 84.608 79.7098C84.5789 79.8069 84.5438 79.9021 84.503 79.9948H84.3755C84.2695 79.5156 84.1981 79.0293 84.1617 78.5398C84.1617 77.4748 84.2667 76.4136 84.3042 75.3486C84.338 74.8536 84.3042 74.3923 84.3042 73.9311L84.6792 74.2161C84.7424 74.0927 84.8138 73.9736 84.893 73.8598C84.8406 73.832 84.7926 73.7966 84.7505 73.7548C84.8217 73.7211 84.893 73.6498 84.893 73.6123C84.9379 73.5213 84.9731 73.4258 84.998 73.3273C84.9833 73.0996 84.9482 72.8737 84.893 72.6523C84.9119 72.6547 84.9311 72.6529 84.9492 72.647C84.9673 72.6412 84.984 72.6315 84.998 72.6186L85.2117 73.6798H85.3167C85.1742 73.4323 85.6355 73.2186 85.2455 72.9298C85.2117 72.8961 85.283 72.6823 85.283 72.5773C85.1759 72.3461 85.0808 72.1096 84.998 71.8686C85.0744 71.8207 85.1579 71.7853 85.2455 71.7636C85.1316 71.6979 85.0139 71.639 84.893 71.5873C85.2455 71.2686 85.2455 71.0923 84.9305 70.7361C85.0017 70.7023 85.073 70.7023 85.073 70.6648C85.0845 70.3444 85.0606 70.0237 85.0017 69.7086C84.9305 69.3561 85.1067 68.9286 84.578 68.7148C84.6109 68.8164 84.659 68.9125 84.7205 68.9998C84.6453 69.0262 84.5736 69.0615 84.5067 69.1048C84.0455 68.6811 84.3305 68.1111 84.2217 67.4736C84.4268 67.5337 84.6283 67.6051 84.8255 67.6873C84.7542 67.4398 84.578 67.1548 84.473 66.8361H84.3305V64.4998C84.3305 64.5336 84.578 64.5336 84.7055 64.5711C84.7055 64.5373 84.7392 64.4998 84.7392 64.4661C84.6342 64.3236 84.4917 64.1811 84.3642 64.0048L84.4355 63.9336C84.2631 63.6463 84.2119 63.3024 84.293 62.9773V60.4948C84.6455 60.8473 84.1167 61.3086 84.6455 61.5223V61.1623H84.6117C84.5742 60.6298 84.5742 60.0973 84.5405 59.5686H84.4692C84.4355 59.6398 84.4355 59.6736 84.398 59.7448H84.3267L84.5405 51.2736C84.9056 51.6963 85.2378 52.1464 85.5342 52.6198C86.3971 54.0584 87.3568 55.4365 88.4067 56.7448C89.258 57.9148 90.038 59.1898 90.818 60.3973C91.7742 61.8523 92.693 63.3036 93.653 64.7586C94.3617 65.8573 95.108 66.9561 95.8505 68.0211C96.5255 68.9773 97.2342 69.8961 97.943 70.8223C98.5467 71.6361 99.1842 72.4536 99.7842 73.2673C100.493 74.2611 101.202 75.2511 101.91 76.2111C102.263 76.7061 102.66 77.2048 103.035 77.7111C103.258 77.9651 103.51 78.1917 103.785 78.3861C103.735 78.3872 103.686 78.3742 103.643 78.3486C103.719 78.4596 103.802 78.5661 103.89 78.6673C104.265 78.8811 104.314 79.0911 104.104 79.4173L104.13 79.3873ZM105.938 70.5261V70.2786C105.938 70.3498 105.972 70.4548 105.938 70.5261ZM107.142 54.8961C107.038 54.8239 106.943 54.7409 106.857 54.6486C106.819 54.7536 106.857 54.8623 106.785 55.0011C106.752 54.8961 106.5 54.9298 106.5 54.8248C106.463 55.3198 106.714 55.8186 106.677 56.3248C106.782 56.2536 107.209 56.2198 107.314 56.1111C107.353 56.1488 107.403 56.1737 107.457 56.1823C106.748 56.7148 106.924 57.2473 107.243 57.8473C107.314 57.9898 107.528 58.2711 107.314 58.5561C107.243 58.6273 107.352 58.8411 107.385 59.0173H107.49V59.0886L107.172 59.1936C107.1 59.0886 106.677 58.8748 106.677 58.6986V60.5061C107.029 60.6111 107.029 61.1098 107.172 61.3573C107.233 61.27 107.281 61.1739 107.314 61.0723L107.352 61.1061C107.321 61.322 107.274 61.5352 107.209 61.7436C107.133 62.0476 107.074 62.3555 107.033 62.6661C107.033 62.6998 107.104 62.7711 107.104 62.8086C106.874 63.724 106.767 64.6661 106.785 65.6098C106.68 66.2848 106.785 66.9936 106.714 67.7023C106.631 68.3234 106.513 68.9394 106.362 69.5473C106.328 69.6523 106.257 69.6898 106.077 69.7611C106.136 69.3959 106.123 69.0227 106.039 68.6623C106.005 68.6623 105.544 68.4148 105.507 68.4148C105.588 69.0021 105.714 69.5825 105.882 70.1511C105.777 70.1173 105.349 69.8661 105.315 69.8661C105.244 70.2898 105.244 70.8598 105.21 71.3211C105.173 71.6736 104.854 71.9961 104.835 72.3861C104.835 72.5998 105.083 72.7386 105.049 73.0948H105.334C105.334 72.3861 105.653 71.7486 105.653 71.0023H105.75C105.784 71.0736 105.893 71.1448 105.855 71.1786C105.745 71.5706 105.686 71.9752 105.679 72.3823C105.679 72.5961 105.855 72.8061 105.784 73.0573C105.709 73.3013 105.661 73.5528 105.642 73.8073C105.608 73.6922 105.584 73.5742 105.57 73.4548L105.195 73.4211C105.162 73.6348 105.443 73.8448 105.409 74.0248C105.372 74.0623 105.338 74.0623 105.267 74.0961L104.097 72.3936C103.174 71.0473 102.252 69.7011 101.333 68.3173C101.095 67.9784 100.882 67.6225 100.695 67.2523C99.5975 65.3671 98.3774 63.5558 97.043 61.8298C96.0155 60.5173 95.198 59.0998 94.2417 57.7048C93.3567 56.3923 92.468 55.1173 91.583 53.8048C91.2642 53.3811 90.8742 52.9911 90.5892 52.5298C89.6667 51.0748 88.853 49.5861 87.9305 48.1348C87.1505 46.9311 86.2992 45.7611 85.4855 44.5911C85.2005 44.2161 84.9192 43.7773 84.6342 43.3498C84.5897 43.2748 84.5652 43.1896 84.563 43.1023C84.4917 42.3223 84.4205 41.5423 84.3867 40.7998C84.353 40.0573 84.458 39.3823 84.458 38.6361V37.9986C84.458 37.8223 84.4917 37.6798 84.4917 37.5036C84.5255 37.4661 84.563 37.3986 84.5967 37.3611C83.5692 37.3611 82.5042 37.3273 81.4767 37.3611C81.1836 37.374 80.8919 37.3119 80.6295 37.1806C80.367 37.0494 80.1423 36.8534 79.9767 36.6111C78.7244 35.047 77.5529 33.4198 76.4667 31.7361C75.368 30.1761 74.2167 28.6536 73.0917 27.1273C72.1692 25.8861 71.2505 24.6823 70.328 23.4411C69.3005 22.0236 68.3067 20.6061 67.2455 19.1886C65.9705 17.4861 64.658 15.7873 63.3455 14.0848C62.7417 13.3048 62.0705 12.5623 61.3955 11.7448C61.8567 11.8161 62.2805 11.8873 62.708 11.9211L64.4105 12.0261C65.6855 12.1311 66.9642 12.2023 68.2392 12.3823C69.3042 12.5248 70.3655 12.7386 71.4642 12.9148C73.7995 13.3259 76.099 13.919 78.3417 14.6886C79.6542 15.1123 80.9292 15.6823 82.2042 16.2111C85.0528 17.3921 87.8289 18.7407 90.518 20.2498C91.2779 20.7615 91.9481 21.395 92.5017 22.1248C93.4242 23.0811 94.3467 24.0373 95.2317 25.0311C96.2592 26.2011 97.2155 27.4048 98.2092 28.6123C99.0942 29.6773 100.017 30.7386 100.902 31.8036C101.172 32.1439 101.422 32.4995 101.652 32.8686C102.218 33.7198 102.855 34.5336 103.354 35.4561C103.683 36.1658 103.956 36.9006 104.168 37.6536C104.52 38.7523 104.877 39.8173 105.233 40.9161C105.48 41.7298 105.694 42.5811 105.87 43.4323C106.013 43.9986 105.975 44.6023 106.155 45.1686C106.369 45.9186 106.155 46.7286 106.369 47.4711L106.474 47.7186C106.617 47.8611 106.722 48.0036 106.512 48.2136C106.474 48.3049 106.474 48.4073 106.512 48.4986C106.579 48.4223 106.638 48.3393 106.688 48.2511C106.688 48.3223 106.722 48.3561 106.722 48.3936C106.704 48.5343 106.704 48.6766 106.722 48.8173C106.742 48.9055 106.777 48.9893 106.827 49.0648C106.917 48.9877 107.012 48.9163 107.112 48.8511C107.388 50.0479 107.507 51.2759 107.464 52.5036C107.618 53.6682 107.52 54.8521 107.179 55.9761C107.284 55.6011 107.037 55.2261 107.142 54.8773V54.8961Z" fill="#DD3735"/>
<path d="M84.6108 68.79C84.638 68.7942 84.6631 68.8074 84.682 68.8275L84.6445 68.79C84.6445 68.7562 84.6445 68.7562 84.6108 68.79ZM90.2095 103.811C89.8355 104.113 89.4006 104.331 88.9345 104.449C88.9008 104.415 88.9008 104.378 88.8633 104.344C89.2383 104.096 89.677 103.849 90.067 103.594C90.1008 103.665 90.172 103.736 90.2095 103.807V103.811ZM23.7483 55.7812C24.1233 55.2862 24.5283 54.7875 24.952 54.2812C24.9858 54.315 25.2708 54.3862 25.3083 54.4237C24.9333 54.9187 24.3858 55.5937 23.9958 56.1262C23.9245 56.055 23.8195 55.8075 23.7483 55.7737V55.7812ZM13.6833 73.1512C13.3983 72.5475 13.117 71.91 12.832 71.3062C12.9312 71.2442 13.0384 71.1963 13.1508 71.1637C13.4848 71.7543 13.7695 72.3714 14.002 73.0087C13.8988 73.0628 13.7924 73.1104 13.6833 73.1512ZM22.7208 56.1375C22.507 56.4562 22.297 56.8125 22.0833 57.1312C22.0495 57.0975 21.6595 57.2737 21.622 57.2362C21.8358 56.9175 22.372 56.3513 22.5783 56.0325C22.6189 56.076 22.6672 56.1116 22.7208 56.1375ZM86.4145 105.263C86.452 105.263 86.452 105.225 86.4858 105.225C86.755 105.268 87.0269 105.292 87.2995 105.296C86.8383 105.615 86.5495 105.581 86.4145 105.263ZM22.792 57.6225C22.8373 57.5093 22.8965 57.4022 22.9683 57.3037C23.0282 57.2998 23.0874 57.2885 23.1445 57.27C23.287 57.0225 23.287 56.8462 23.4295 56.6325C23.3958 56.5987 23.3583 56.5987 23.3245 56.5612C23.1108 56.7037 22.9008 56.88 22.687 57.0225C22.713 57.0434 22.7331 57.0705 22.7456 57.1014C22.7581 57.1322 22.7624 57.1657 22.7583 57.1987C22.4733 57.165 22.3833 57.3037 22.2258 57.6937C22.1883 57.7987 22.012 57.8363 21.8508 57.9788C21.817 58.05 21.7795 58.2263 21.7083 58.4025L21.7458 58.44C21.6945 58.4862 21.6346 58.5219 21.5695 58.545C21.3558 58.7588 21.1083 58.92 20.8945 59.1487C20.8539 59.2505 20.8299 59.3581 20.8233 59.4675C21.0708 59.22 21.4983 58.7588 21.817 58.4738L21.8508 58.5075C21.9933 58.2937 22.0983 58.0837 22.2258 57.87C22.2595 57.9037 22.2595 57.9412 22.297 57.975L21.9783 58.86C21.907 58.8937 21.802 58.965 21.802 58.9312C21.6595 59.0362 21.5545 59.1788 21.427 59.2875L20.7895 59.7113C20.4333 60.03 20.0808 60.315 19.6908 60.6338C19.4433 61.0088 19.1958 61.3837 18.9108 61.8375C19.3345 61.7325 19.4433 61.9088 19.4058 62.2613C19.9008 62.3325 19.9383 61.9425 20.0808 61.6575C20.1183 61.5862 20.152 61.4437 20.2233 61.41C20.542 61.125 20.8983 60.8775 21.2508 60.5963C21.3114 60.5017 21.3366 60.3888 21.322 60.2775C21.322 60.2437 21.1458 60.2438 21.037 60.2063C21.3558 59.85 21.817 59.25 22.1358 58.86C22.312 58.755 22.4883 58.6125 22.4883 58.5037C22.4508 58.1287 22.702 58.0087 22.9833 57.8662C22.9383 57.8396 22.8993 57.8038 22.869 57.7611C22.8386 57.7185 22.8175 57.67 22.807 57.6187L22.792 57.6225Z" fill="#DD3735"/>
<path d="M23.501 57.2323C23.3585 57.4798 23.216 57.6935 23.0772 57.941L22.8747 57.836C22.8406 58.1853 22.7199 58.5205 22.5234 58.8112C22.327 59.102 22.061 59.3391 21.7497 59.501C21.8593 59.5773 21.9915 59.6143 22.1247 59.606C22.2297 59.5723 22.301 59.3923 22.3722 59.2873L23.3285 57.9035L23.6247 57.3748L23.4822 57.2323H23.501ZM11.696 72.7948C11.8722 72.7948 12.0522 72.8323 12.2622 72.8323C12.2622 72.6898 12.4385 72.7273 12.4385 72.5848H12.5435C12.5435 72.761 12.581 72.9035 12.581 73.0798H11.831C11.7935 73.0423 11.6547 72.8323 11.6885 72.7948H11.696ZM11.411 71.1635C11.306 71.0585 11.126 70.9498 11.126 70.8448C11.126 70.7398 11.1972 70.526 11.3022 70.3498C11.3735 70.5973 11.4072 70.811 11.4785 71.0585C11.441 71.0923 11.4072 71.1298 11.4072 71.1635H11.411ZM12.296 68.9135C12.4385 69.2698 12.581 69.6635 12.7197 70.0123C12.6181 70.0452 12.522 70.0932 12.4347 70.1548C12.2922 69.8023 12.116 69.4048 11.9735 69.056C12.0691 68.9876 12.1775 68.9391 12.2922 68.9135H12.296ZM91.196 102.799C91.4173 102.727 91.6427 102.668 91.871 102.622C91.5984 102.819 91.3379 103.032 91.091 103.26C91.0535 103.222 91.0197 103.189 90.986 103.189C91.0572 103.046 91.1285 102.941 91.1997 102.814L91.196 102.799ZM47.6247 27.8848C47.8385 27.7423 47.9997 27.6373 48.2285 27.5098L48.2997 27.581C48.086 27.866 47.9247 28.1473 47.6622 28.5035C47.6285 28.256 47.6285 28.1285 47.591 27.9373C47.5572 27.9373 47.591 27.9373 47.6285 27.9035L47.6247 27.8848ZM58.0085 45.821L59.036 45.3598C59.0082 45.5232 58.9956 45.689 58.9985 45.8548C58.8838 45.8138 58.7638 45.7898 58.6422 45.7835C58.4285 45.8173 58.0385 46.1023 57.8622 46.136C57.8247 46.136 58.0047 45.851 58.0047 45.8173L58.0085 45.821ZM84.5922 75.8773C84.6635 76.2298 85.3422 76.4098 84.6635 76.7623C84.7685 76.8335 84.8772 76.8673 84.9822 76.9385C84.9733 76.9921 84.9485 77.0418 84.911 77.081C84.8397 77.1185 84.6972 77.186 84.626 77.1523C84.5547 77.1185 84.521 77.0098 84.521 76.9385C84.521 76.6198 84.5585 76.301 84.5922 75.8735V75.8773Z" fill="#DD3735"/>
<path d="M112.459 57.2623C112.425 55.9161 112.354 54.5323 112.283 53.1861C112.212 51.8398 112.178 50.4223 112.035 49.0386C111.788 47.1636 111.54 45.2473 111.113 43.4136C110.759 41.9059 110.297 40.4258 109.729 38.9848C109.085 37.258 108.351 35.5657 107.532 33.9148C106.048 31.3547 104.42 28.8808 102.657 26.5048C101.558 24.9448 100.14 23.6698 99.0755 22.0761C98.4142 21.154 97.6133 20.3405 96.7017 19.6648C95.2842 18.5398 93.7955 17.5011 92.3067 16.5111C91.1817 15.7311 90.0567 14.9886 88.8342 14.3136C87.878 13.7811 86.8505 13.3573 85.8567 12.8961C84.7506 12.2787 83.5714 11.8025 82.3467 11.4786C82.0345 11.3998 81.7265 11.3047 81.4242 11.1936C80.6105 10.9086 79.8305 10.5898 79.013 10.3423C77.7717 9.96733 76.568 9.49108 75.293 9.17233C74.0437 8.86453 72.7779 8.6279 71.5017 8.46358C70.0842 8.24983 68.6292 8.17858 67.2117 8.03983C66.2892 7.93483 65.3667 7.82608 64.4817 7.79233C63.1355 7.72108 61.7517 7.72108 60.4055 7.68733C59.7222 7.62839 59.0363 7.60461 58.3505 7.61608C57.3188 7.65842 56.29 7.75354 55.268 7.90108C54.2742 8.00608 53.2842 8.18608 52.3242 8.32483C51.1542 8.46733 49.9842 8.53858 48.8142 8.68108C47.7155 8.82358 46.5642 9.03733 45.4842 9.21358C45.1092 9.28483 44.7042 9.42733 44.3142 9.49858C43.442 9.62517 42.578 9.80297 41.7267 10.0311C40.2042 10.4923 38.678 11.0248 37.1892 11.5911C35.8106 12.1438 34.4624 12.7697 33.1505 13.4661C31.8042 14.2161 30.5255 15.0973 29.2505 15.9486C28.0467 16.7623 26.8392 17.6136 25.6692 18.5361C24.545 19.4368 23.4685 20.3956 22.4442 21.4086C21.878 21.9748 21.4167 22.6498 20.8842 23.2836C19.9992 24.3111 19.1105 25.3048 18.2592 26.3661C17.5505 27.2511 16.913 28.1736 16.238 29.0961C15.0621 30.7246 13.996 32.4296 13.0467 34.1998C12.6717 34.9086 12.2967 35.6173 11.948 36.3261C11.4155 37.3911 10.8492 38.4186 10.3542 39.5173C9.99705 40.2803 9.71205 41.075 9.50299 41.8911C9.00799 43.6273 8.50924 45.4011 8.04799 47.1411C7.67307 48.7031 7.48923 50.3048 7.50049 51.9111C7.49439 53.3211 7.57706 54.7302 7.74799 56.1298C7.78174 56.4823 7.57174 56.9098 7.99549 57.1948C8.02924 57.1948 7.99549 57.3373 7.95799 57.3711C7.93365 57.4168 7.91991 57.4674 7.91779 57.5192C7.91568 57.5709 7.92524 57.6225 7.94577 57.67C7.96631 57.7176 7.99728 57.7599 8.0364 57.7938C8.07551 57.8278 8.12177 57.8525 8.17174 57.8661C8.19045 57.8855 8.20231 57.9105 8.20549 57.9373H8.03674C7.93174 58.2561 8.28424 58.5036 8.14174 58.8598C8.10799 58.9311 8.24674 59.0736 8.31799 59.1786C8.30053 59.2954 8.30053 59.4142 8.31799 59.5311C8.39711 59.8584 8.45597 60.1903 8.49424 60.5248C8.49424 60.7723 8.70799 61.0573 8.77924 61.3048C8.79474 61.3652 8.79639 61.4282 8.78405 61.4893C8.77171 61.5503 8.74571 61.6078 8.70799 61.6573C8.49424 61.9048 8.53174 62.1186 8.85049 62.2611C8.93886 62.3179 9.00197 62.4065 9.02674 62.5086C9.00891 62.7236 8.9738 62.9368 8.92174 63.1461C8.99299 63.2173 9.02674 63.2886 8.99299 63.3598C8.95924 63.4311 8.88799 63.5736 8.92174 63.6448C9.1867 64.2234 9.33089 64.8499 9.34549 65.4861C9.36505 65.6471 9.41331 65.8033 9.48799 65.9473C9.5608 65.9437 9.63358 65.9552 9.70174 65.9811L9.48799 66.6186C9.64617 66.5325 9.81185 66.4609 9.98299 66.4048C10.0761 66.8366 10.195 67.2624 10.3392 67.6798C10.3913 67.768 10.4649 67.8415 10.553 67.8936C10.5155 67.9648 10.5155 68.1073 10.448 68.1411C10.547 68.7685 10.7013 69.3859 10.9092 69.9861C10.9467 69.9861 10.9805 69.9486 11.0142 69.9486C10.9092 69.3111 10.838 68.6361 10.7292 67.9986V67.7848C10.7622 67.7672 10.7976 67.7545 10.8342 67.7473C10.8817 67.8852 10.9168 68.027 10.9392 68.1711C11.2242 68.1711 11.648 68.3473 11.933 68.3473C11.9626 68.2394 11.9976 68.133 12.038 68.0286C11.8242 67.8148 11.663 67.4961 11.4342 67.2786C11.4722 67.4414 11.4722 67.6108 11.4342 67.7736C11.2917 67.7023 11.1155 67.6311 10.9392 67.5598C11.0928 67.3614 11.2581 67.1723 11.4342 66.9936C11.4342 66.6748 11.258 66.3898 10.7592 66.4273C10.973 66.3561 11.1867 66.2511 11.4342 66.1798C11.4633 66.2769 11.4984 66.3721 11.5392 66.4648C11.8242 65.9698 11.3967 65.5798 11.3967 65.0811C11.3193 64.4532 11.1773 63.8349 10.973 63.2361C10.7967 62.2423 10.8305 60.7536 10.7255 59.7636C10.7255 59.6923 10.6205 59.6211 10.5492 59.5498C10.5117 59.5873 10.3355 60.0448 10.3017 60.0823C10.4067 60.9336 10.5155 61.7848 10.5867 62.6361C10.553 62.6361 10.5155 62.6361 10.5155 62.6698C10.373 61.9198 10.2305 61.1473 10.0542 60.2961C10.0204 60.4595 9.99665 60.6248 9.98299 60.7911C9.87799 60.7573 9.84049 60.7198 9.66424 60.6486C9.80674 60.9673 9.94924 61.1811 10.0392 61.4286C9.86977 61.3634 9.68737 61.339 9.50674 61.3573V62.3511C9.2613 62.0813 9.04742 61.7844 8.86924 61.4661C8.79799 61.1811 8.76424 60.8998 8.69299 60.6148L8.79799 60.5773C8.75177 60.4635 8.7166 60.3454 8.69299 60.2248C8.65799 59.9748 8.62299 59.6911 8.58799 59.3736C8.62174 59.3398 8.76424 59.3023 8.83549 59.2311L8.55049 58.8073C8.76151 58.8428 8.97434 58.8666 9.18799 58.8786C9.18799 58.8073 9.22174 58.7736 9.18799 58.7361C8.83174 58.4173 9.08299 58.1323 9.22174 57.8511C9.29299 57.7086 9.54049 57.6748 9.59674 57.5323C9.88174 56.9998 10.3467 56.5761 10.3467 55.9011C10.3769 55.5676 10.4244 55.2359 10.4892 54.9073C10.5605 54.3036 10.6317 53.7036 10.6655 53.0998C10.6817 52.3334 10.7519 51.569 10.8755 50.8123C11.3675 48.6481 12.0309 46.5264 12.8592 44.4673C13.3535 43.0791 13.9218 41.7184 14.5617 40.3911C15.518 38.4786 16.6167 36.6411 17.6817 34.7661C18.3567 33.5961 19.0655 32.5161 19.808 31.3648C20.5505 30.2136 21.2255 29.1148 22.058 28.1023C23.1775 26.6508 24.4332 25.3097 25.808 24.0973C27.2255 22.8223 28.5717 21.5098 30.098 20.3473C32.0698 18.8167 34.1701 17.4592 36.3755 16.2898C38.1838 15.3676 40.0488 14.561 41.9592 13.8748C43.163 13.4136 44.4755 13.2036 45.7092 12.8098C47.1078 12.3622 48.5647 12.1234 50.033 12.1011C50.9892 12.0673 51.908 11.9586 52.868 11.8536C53.7192 11.7823 54.5705 11.7111 55.493 11.6061C55.4242 11.6945 55.3651 11.79 55.3167 11.8911C54.9417 12.4573 54.503 13.0161 54.113 13.5936C53.7942 14.0548 53.438 14.5498 53.1192 15.0111C52.553 15.7611 51.9492 16.5111 51.4167 17.2611C50.603 18.4311 49.8567 19.6348 49.0055 20.8048C48.1542 21.9748 47.2317 23.0023 46.3467 24.1011C45.1767 25.6236 44.0967 27.1836 42.908 28.7098C41.843 30.1648 40.7105 31.5448 39.683 32.9998C38.7605 34.2748 37.9467 35.6248 37.058 36.9336C35.7455 38.8836 34.433 40.7961 33.1242 42.7461C32.0967 44.2461 31.0692 45.6898 30.0042 47.1786C29.9254 47.2691 29.8283 47.342 29.7192 47.3923C29.648 47.4636 29.5055 47.5348 29.5055 47.6061C29.468 47.8471 29.4091 48.0843 29.3292 48.3148C29.0442 48.8473 28.763 49.3798 28.4442 49.8748C28.268 50.1598 28.0205 50.4073 27.8067 50.6886C27.7355 50.6548 27.7017 50.6173 27.6305 50.6173C27.773 50.2611 28.3805 50.0511 28.0917 49.5186C27.9155 49.8036 27.7355 50.0511 27.5592 50.3323L27.1355 51.1836C27.278 51.2886 27.5105 51.3598 27.278 51.5586C27.173 51.7348 27.0642 51.9336 26.9592 52.1248C26.9967 52.1248 26.9967 52.1586 27.0305 52.1586C27.1355 52.0161 27.2442 51.9111 27.3492 51.7836C27.383 51.7836 27.4205 51.8211 27.4542 51.8211C27.3252 52.1691 27.1593 52.5022 26.9592 52.8148C26.7544 53.0947 26.5002 53.3349 26.2092 53.5236C26.2467 53.5573 26.4942 53.6661 26.528 53.6998C26.633 53.5573 26.6705 53.6286 26.7755 53.4861C26.8467 53.5911 26.9517 53.4148 26.9892 53.5198C27.0868 53.4136 27.17 53.2951 27.2367 53.1673C27.2931 52.9946 27.3854 52.8359 27.5076 52.7014C27.6297 52.567 27.779 52.4599 27.9455 52.3873C28.0815 52.3205 28.2056 52.2318 28.313 52.1248C29.378 51.0261 30.4767 49.9611 31.433 48.7948C32.933 46.9873 34.268 45.1086 35.6855 43.2636C36.2892 42.4836 36.998 41.7036 37.6355 40.9611C37.7067 40.9986 37.778 40.9986 37.8117 41.0323C37.7405 41.7823 37.6692 42.5548 37.6355 43.2823C37.5305 44.5948 37.4592 45.9073 37.3505 47.2536C37.3167 47.7861 37.3505 48.3186 37.3167 48.8473C37.3167 48.9898 37.2117 49.0948 37.2117 49.2223C37.2117 49.5748 37.3167 49.9723 37.3167 50.3211C37.2117 51.6336 37.0692 52.9086 36.9605 54.2211C36.9644 54.5014 37.0244 54.778 37.1367 55.0348C37.0837 54.9807 37.0245 54.9329 36.9605 54.8923C37.1436 56.9198 37.1674 58.9586 37.0317 60.9898C37.1742 60.9523 37.2455 60.9186 37.2455 60.8473C37.298 60.6001 37.3331 60.3495 37.3505 60.0973C37.3684 59.8727 37.3684 59.647 37.3505 59.4223V59.0698C37.4386 58.4238 37.4737 57.7716 37.4555 57.1198C37.3727 56.4353 37.3967 55.742 37.5267 55.0648C37.598 54.7798 37.493 54.4273 37.6692 54.0711V54.6036C37.7104 56.6267 37.6278 58.6505 37.4217 60.6636C37.388 60.8398 37.5267 61.1586 37.1367 61.1248C37.0992 61.1248 37.0655 61.3011 36.9942 61.4098C36.818 61.7623 37.208 62.2236 36.8517 62.5798C36.7805 62.6511 36.923 62.9548 36.9567 63.1836C36.9567 63.2548 36.9942 63.3261 36.9567 63.3598C36.8142 63.6073 36.8142 63.6073 37.028 63.6448C37.0655 64.4248 37.133 65.1448 37.1705 65.8948H37.2755C37.5243 64.533 37.666 63.1538 37.6992 61.7698C37.7476 62.3473 37.7601 62.9271 37.7367 63.5061C37.7367 64.4286 37.6992 65.3136 37.6655 66.2361C37.6592 66.4155 37.6353 66.5938 37.5942 66.7686C37.5258 67.2611 37.4193 67.7476 37.2755 68.2236C37.1793 68.6541 37.1552 69.0977 37.2042 69.5361V70.8823C37.2042 70.9198 37.3092 71.0248 37.3092 71.1673C37.343 71.4861 37.1667 71.8048 37.2717 72.1611C37.3092 72.2323 37.238 72.3373 37.2005 72.4086C37.1547 72.5083 37.1429 72.6202 37.1667 72.7273L37.2717 73.2598C37.2717 73.2936 37.3092 73.3311 37.343 73.4023C37.3676 73.3093 37.3802 73.2135 37.3805 73.1173C37.9842 73.1886 37.6655 73.7211 37.9467 74.0023C37.8042 74.0736 37.6992 74.1073 37.6992 74.1448C37.7495 74.2651 37.7847 74.391 37.8042 74.5198C37.7981 74.8284 37.7743 75.1364 37.733 75.4423C37.733 76.2561 37.6955 77.0736 37.6955 77.8536C37.6955 77.9586 37.733 78.0673 37.733 78.1723C37.733 78.2773 37.6955 78.3148 37.6955 78.4198V79.1698H37.838C37.7667 79.2843 37.6837 79.3912 37.5905 79.4886C37.5567 79.4886 37.448 79.4886 37.448 79.4548V75.0223H36.9267C36.9943 77.0355 36.899 79.0508 36.6417 81.0486C36.3015 81.103 35.9584 81.1381 35.6142 81.1536C34.5155 81.1536 33.4167 81.1536 32.318 81.1873C31.0055 81.1873 29.7305 81.2248 28.418 81.2248C27.7805 81.2248 27.1055 81.2961 26.468 81.2961C25.6167 81.2961 24.7317 81.1911 23.8805 81.1911C22.568 81.1911 21.293 81.2961 19.9805 81.3336C19.0242 81.3673 18.068 81.3673 17.108 81.4048C16.4705 81.4386 15.833 81.4761 15.1955 81.5473C14.8944 81.6062 14.5984 81.689 14.3105 81.7948C14.1222 81.777 13.9326 81.777 13.7442 81.7948C13.388 81.8661 13.0692 82.0798 12.7167 82.1511C12.1842 82.2561 12.0417 82.3986 12.113 82.9311V83.2836C12.0394 83.2133 11.956 83.1539 11.8655 83.1073C11.8387 83.1105 11.8137 83.1224 11.7942 83.1411C11.828 83.2461 11.8992 83.3173 11.9367 83.4261C12.0792 83.3548 12.2555 83.1786 12.398 83.1786H12.893C12.8217 83.1786 12.788 83.3923 12.6792 83.5536C12.9642 83.4486 13.1405 83.3773 13.3167 83.3061C13.3416 83.399 13.3529 83.495 13.3505 83.5911C13.8056 83.4983 14.272 83.4742 14.7342 83.5198C16.1223 83.8387 17.5326 84.0518 18.953 84.1573C19.8755 84.2286 20.7605 84.2623 21.683 84.2998C22.9955 84.3711 24.308 84.4423 25.6167 84.4423C26.7155 84.4423 27.7805 84.3373 28.8792 84.3373C30.4017 84.3373 31.928 84.4086 33.4505 84.4423C33.7692 84.4423 34.1255 84.4048 34.478 84.4048H37.0655C39.368 84.3336 41.6742 84.2998 43.9767 84.2286C45.2892 84.1948 46.6355 84.1236 47.948 84.0861L51.9867 83.9811C53.5467 83.9473 55.1067 83.9473 56.6292 83.9098C57.7992 83.9098 58.9317 83.8761 60.1017 83.8386C61.4142 83.8011 62.7605 83.6961 64.073 83.6248C64.7817 83.5911 65.4905 83.5198 66.1992 83.4486C67.0505 83.3773 67.9355 83.2723 68.7867 83.2348C70.0617 83.1636 71.3742 83.1298 72.6492 83.0586C74.243 82.9536 75.8405 82.8111 77.468 82.7736C78.968 82.7023 80.468 82.7398 81.968 82.7023C83.2805 82.6686 84.593 82.5973 85.9392 82.5598L88.1892 82.4548C88.1892 82.4548 89.6892 82.4211 90.4392 82.3498C91.7142 82.2786 92.993 82.1361 94.268 82.1023C95.0817 82.0686 95.8992 82.1023 96.713 82.0686C98.0255 82.0311 99.3717 81.9636 100.684 81.9636C101.179 81.9636 101.712 82.0348 102.349 82.0686C102.064 82.3161 101.888 82.4436 101.674 82.6348C101.821 82.6787 101.963 82.7378 102.098 82.8111C102.098 82.8486 102.064 82.8823 102.064 82.9536C101.888 82.9536 101.712 82.9911 101.532 82.9911C101.432 83.1811 101.36 83.3844 101.318 83.5948H101.955C101.708 83.5948 101.494 83.9136 101.247 84.1273C101.284 84.1611 101.318 84.1611 101.352 84.1986C100.977 84.0561 100.714 84.1273 100.572 84.5173C100.664 84.546 100.76 84.5575 100.857 84.5511C100.823 84.6561 100.785 84.7648 100.752 84.9036C100.707 84.9787 100.683 85.0639 100.68 85.1511L100.575 85.0461C100.582 84.9732 100.57 84.8998 100.542 84.8323C100.328 85.0461 100.009 85.1886 100.185 85.6461C100.043 85.7173 99.8667 85.7886 99.6905 85.8936C99.7455 85.9715 99.7932 86.0544 99.833 86.1411C99.5142 86.1748 99.1955 86.2461 99.2667 86.6361C99.4092 86.6698 99.5517 86.7411 99.6417 86.7786C99.4655 86.8498 99.2892 86.9548 99.1092 87.0261C99.0717 87.0973 99.038 87.2736 98.9667 87.3111C98.4717 87.4161 98.753 87.5961 98.8955 87.7723C98.7972 87.8445 98.6901 87.9037 98.5767 87.9486C98.6699 87.9745 98.7551 88.0235 98.8242 88.0911C98.745 88.1441 98.6624 88.1917 98.5767 88.2336C98.6442 88.2758 98.7159 88.311 98.7905 88.3386C98.648 88.4436 98.4705 88.5848 98.258 88.7623C98.2523 88.8231 98.264 88.8842 98.2917 88.9386C98.1335 89.0882 97.9915 89.2542 97.868 89.4336C97.7567 89.6768 97.6315 89.9135 97.493 90.1423C96.8477 91.0378 96.0917 91.848 95.243 92.5536C94.8869 92.8195 94.5544 93.1156 94.2492 93.4386C93.6117 94.0423 93.0455 94.7136 92.3742 95.2836C91.4892 96.0336 90.5667 96.7011 89.6105 97.3761C88.4405 98.1898 87.2705 99.0073 86.1005 99.7873C85.463 100.211 84.7542 100.537 84.0792 100.912C83.4042 101.287 82.7667 101.662 82.0955 102.037C81.6935 102.364 81.2673 102.66 80.8205 102.922C79.6505 103.417 78.4092 103.845 77.2055 104.306C77.1005 104.34 77.0292 104.377 76.9205 104.411C76.0355 104.786 75.1842 105.225 74.2955 105.536C73.4721 105.815 72.6316 106.04 71.7792 106.211C71.4727 106.241 71.1646 106.252 70.8567 106.245C70.253 106.35 69.653 106.492 69.0492 106.564C67.4892 106.777 65.9292 106.916 64.3692 107.13C63.4467 107.235 62.5617 107.415 61.6392 107.505C61.0017 107.542 60.3267 107.471 59.6892 107.471C59.2182 107.518 58.7444 107.529 58.2717 107.505C57.5217 107.4 56.7717 107.22 56.0217 107.081C55.8396 107.018 55.6438 107.007 55.4555 107.047C55.1705 107.19 54.923 106.976 54.6417 107.047C54.4655 107.081 54.2892 106.942 54.1092 106.942C53.9292 106.942 53.7905 106.976 53.6142 106.942C53.2407 106.8 52.8441 106.727 52.4442 106.729C51.9951 106.698 51.5529 106.602 51.1317 106.444L49.2567 106.02C49.0081 105.944 48.77 105.836 48.548 105.701C48.4523 105.762 48.3426 105.798 48.2292 105.806C47.6284 105.744 47.0346 105.626 46.4555 105.454C45.9921 105.215 45.4769 105.094 44.9555 105.101C44.813 105.135 44.708 105.064 44.5805 105.064C44.4755 104.921 44.3667 104.64 44.2617 104.64C43.553 104.677 43.1367 104.074 42.5255 103.89C42.2067 103.785 41.9592 103.429 41.6405 103.324C40.8605 103.005 40.223 102.33 39.338 102.225C39.0349 102.157 38.7387 102.062 38.453 101.94C38.5392 102.065 38.6344 102.184 38.738 102.296L38.6667 102.367C37.7105 101.801 36.7542 101.242 35.7942 100.702C35.6517 100.665 35.5467 100.526 35.438 100.455L34.4817 99.8173C34.3767 99.7461 34.163 99.6411 34.163 99.6748C33.9492 99.9223 33.7392 99.7123 33.5967 99.6411C32.6405 98.9661 31.5417 98.5423 30.6192 97.7961C30.2072 97.5367 29.8293 97.2268 29.4942 96.8736C29.003 96.2968 28.3995 95.826 27.7205 95.4898C27.188 95.2048 26.693 94.8861 26.198 94.5673C26.0554 94.4908 25.9349 94.3789 25.8482 94.2422C25.7615 94.1056 25.7115 93.9489 25.703 93.7873C25.703 93.5398 25.598 93.2923 25.2792 93.4348C25.1367 93.2211 24.9942 92.9736 24.818 92.9023C24.433 92.7036 24.0854 92.4397 23.7905 92.1223C23.4717 91.8373 23.2242 91.4473 22.8342 91.3086C22.207 90.9846 21.6707 90.5089 21.2742 89.9248C20.2805 88.7548 19.3992 87.4798 18.473 86.2386C18.3749 86.1348 18.2683 86.0395 18.1542 85.9536L18.1167 85.9911C18.293 86.3436 18.473 86.6661 18.6492 87.0186C18.6117 87.0523 18.5442 87.0898 18.5067 87.1236C18.293 86.8761 18.0455 86.6286 17.8317 86.3736C17.7942 86.4111 17.7605 86.4448 17.7267 86.4448L20.2505 90.5473C20.4642 90.8661 20.6255 91.1848 20.8542 91.5036C20.8137 91.5471 20.7653 91.5827 20.7117 91.6086C20.519 91.5676 20.3372 91.4863 20.1782 91.3699C20.0192 91.2536 19.8866 91.1049 19.7892 90.9336C19.6871 90.6573 19.4952 90.4233 19.2444 90.269C18.9935 90.1147 18.6981 90.049 18.4055 90.0823C18.3298 89.8264 18.271 89.5659 18.2292 89.3023C18.0636 89.3052 17.898 89.2939 17.7342 89.2686C18.2292 90.0486 18.6567 90.7236 19.118 91.5186L18.7655 91.3048C19.403 91.9798 19.8642 92.8273 20.678 93.2548C20.8542 94.0686 21.7767 94.4586 21.9905 95.2386L21.4955 95.1336C21.2105 94.7811 20.8917 94.4248 20.573 94.0348C20.6357 94.2665 20.7441 94.4832 20.8917 94.6723C21.2909 95.2117 21.7296 95.7206 22.2042 96.1948C22.3805 96.3711 22.628 96.4423 22.628 96.7611C22.7122 96.6865 22.8086 96.6269 22.913 96.5848C22.8572 96.6872 22.8095 96.7938 22.7705 96.9036C22.913 96.9036 23.018 96.9373 23.1267 96.9373C23.198 97.1511 23.0892 97.4698 23.5017 97.3986C23.5392 97.3986 23.573 97.4323 23.6067 97.4698C23.783 97.9311 24.068 97.9311 24.458 97.7548C24.5074 97.7384 24.5604 97.7364 24.6109 97.749C24.6613 97.7616 24.7072 97.7884 24.743 97.8261C24.9192 98.2011 25.1667 98.2498 25.493 97.9686C25.493 98.1448 25.5267 98.3211 25.5267 98.4636H25.688C25.688 98.3923 25.6542 98.2873 25.6542 98.1111C25.8305 98.2536 25.9392 98.3248 26.0105 98.3961C26.3316 98.9004 26.7259 99.3541 27.1805 99.7423C27.8555 100.309 28.4555 100.912 29.093 101.445C30.3465 102.448 31.6868 103.338 33.098 104.104C34.8005 105.06 36.428 106.087 38.168 107.01C40.2666 108.083 42.495 108.881 44.798 109.384C45.6492 109.56 46.463 109.736 47.3142 109.95C48.0642 110.164 48.8142 110.482 49.5642 110.659C50.6892 110.906 51.8667 111.12 53.003 111.334L53.783 111.439V111.51C54.1017 111.51 54.4917 111.367 54.563 111.472C54.7392 111.757 54.8817 111.615 55.0955 111.577C55.3623 111.517 55.636 111.493 55.9092 111.506C56.8866 111.618 57.8693 111.677 58.853 111.682C59.0667 111.682 59.3855 111.506 59.5617 111.859C59.633 111.821 59.6667 111.787 59.738 111.754C59.8805 111.716 60.0567 111.716 60.1992 111.682V111.75C60.1066 111.782 60.0112 111.806 59.9142 111.821C60.0415 111.847 60.1668 111.883 60.2892 111.926C60.239 111.974 60.1788 112.01 60.113 112.031C60.0002 112.077 59.8932 112.136 59.7942 112.207C60.9605 112.474 62.1717 112.474 63.338 112.207V111.994H63.4805C63.4879 112.069 63.5122 112.142 63.5517 112.207C65.1604 112.347 66.7803 112.141 68.303 111.604C68.4455 111.78 68.5505 112.027 68.7642 111.675C68.8355 111.57 69.0117 111.532 69.1392 111.499C69.4518 111.373 69.7916 111.33 70.1255 111.375C70.4442 111.48 70.5492 111.199 70.8005 111.199C71.2041 111.2 71.607 111.165 72.0042 111.094C72.218 111.06 72.428 110.951 72.6792 110.88C72.6816 110.861 72.6797 110.842 72.6739 110.824C72.6681 110.805 72.6584 110.789 72.6455 110.775C72.3973 110.735 72.1468 110.711 71.8955 110.704C72.3192 110.49 72.7092 110.329 73.0992 110.137C73.0992 110.171 73.1367 110.171 73.1367 110.209C73.0317 110.242 72.9605 110.385 72.818 110.385H73.313C73.208 110.385 73.0655 110.704 72.8892 110.917L76.4705 110.032V109.961C76.328 109.995 76.223 109.995 76.1142 110.032C76.0805 109.282 76.8942 109.537 77.1792 109.11C76.823 109.215 76.4705 109.324 76.1142 109.395V109.324C77.318 108.791 78.5592 108.259 79.7667 107.73C79.7667 107.767 79.8042 107.767 79.8042 107.801C79.5905 107.944 79.3805 108.049 79.0542 108.225C79.2091 108.241 79.3631 108.264 79.5155 108.296C79.5155 108.401 79.5155 108.472 79.4817 108.51C80.0855 108.472 79.943 107.944 80.1192 107.625C80.2242 107.659 80.3667 107.73 80.4755 107.696C80.7878 107.617 81.0957 107.522 81.398 107.411C81.7542 107.306 82.1067 107.197 82.463 107.055C83.0292 106.807 83.5617 106.489 84.128 106.204C84.2687 106.186 84.411 106.186 84.5517 106.204C84.6498 106.191 84.7388 106.139 84.7992 106.061C84.9417 105.956 85.0842 105.742 85.1742 105.776C85.2767 105.805 85.3838 105.813 85.4895 105.8C85.5952 105.788 85.6972 105.754 85.7897 105.701C85.8822 105.648 85.9632 105.578 86.0282 105.493C86.0931 105.409 86.1407 105.313 86.168 105.21C86.2055 105.21 86.2055 105.172 86.2392 105.172C86.4087 105.036 86.5865 104.911 86.7717 104.797C87.5517 104.374 88.2942 103.946 89.0742 103.522C89.108 103.489 89.1792 103.522 89.2505 103.522C89.3579 103.531 89.4659 103.519 89.5692 103.489C90.0305 103.275 90.4542 103.027 90.8817 102.78C90.7767 102.742 90.8817 102.709 90.5292 102.675V102.6C90.7586 102.559 90.9843 102.5 91.2042 102.424L91.133 102.352C92.0555 101.43 93.2255 100.759 94.1105 99.9786C94.2269 100.013 94.3461 100.037 94.4667 100.05C94.4949 99.9576 94.5076 99.8613 94.5042 99.7648C94.6385 99.5713 94.7931 99.3928 94.9655 99.2323C95.7455 98.5236 96.5967 97.9198 97.3055 97.1773C98.333 96.1498 99.3267 95.0848 100.249 93.9861C101.122 93.0144 101.927 91.9845 102.66 90.9036C103.654 89.3811 104.505 87.8211 105.39 86.2236C106.028 85.0986 106.594 83.9736 107.235 82.8223C107.307 82.7173 107.449 82.5748 107.554 82.5748C108.51 82.4698 109.467 82.3986 110.389 82.2898C110.626 82.2255 110.853 82.1297 111.064 82.0048C110.959 81.8286 110.888 81.6298 110.779 81.4386C110.67 81.2473 110.427 81.0636 110.284 80.8348C110.145 80.6464 110.026 80.4441 109.928 80.2311C109.823 80.0548 109.714 79.9123 109.609 79.7361C109.387 79.3457 109.185 78.9439 109.005 78.5323C108.95 78.4156 108.925 78.2864 108.934 78.1573C109.572 76.7736 109.819 75.2848 110.434 73.9048C110.951 72.435 111.308 70.9137 111.499 69.3673C111.747 67.9123 111.874 66.4611 112.065 65.0061C112.17 63.9786 112.313 62.9848 112.35 61.9573C112.508 60.4025 112.543 58.8377 112.455 57.2773L112.459 57.2623ZM23.348 96.8211C23.1005 96.5361 22.8867 96.2173 22.6392 95.9361L22.7442 95.8311C23.1192 96.2586 23.5242 96.6823 23.9142 97.1436C23.7068 97.0746 23.5146 96.9664 23.348 96.8248V96.8211ZM23.9142 97.1398C24.0192 97.1061 24.128 97.1061 24.233 97.0686C24.338 97.2448 24.4092 97.4436 24.518 97.6723C24.023 97.6386 23.768 97.4248 23.9142 97.1398ZM60.7767 111.765V111.675L62.7605 111.461V111.566C62.1035 111.672 61.4413 111.744 60.7767 111.78V111.765ZM69.7092 110.842C69.2142 110.947 68.6817 111.019 68.1867 111.09C68.0105 111.127 67.8117 111.304 67.7255 110.985C67.6542 111.019 67.583 111.019 67.5117 111.056C67.688 111.589 68.1155 111.161 68.468 111.375C67.688 111.48 66.9455 111.551 66.218 111.66V111.589L66.893 111.484V111.375C66.5394 111.333 66.184 111.31 65.828 111.304C65.723 111.304 65.5805 111.446 65.4755 111.48C65.3255 111.523 65.1704 111.547 65.0142 111.551C64.4105 111.585 63.8105 111.585 63.2405 111.622C63.2067 111.622 63.1355 111.585 63.098 111.585V111.48L70.1855 110.524C70.2192 110.595 70.2192 110.666 70.2567 110.737C70.0758 110.752 69.8971 110.787 69.7242 110.842H69.7092ZM70.2417 110.486C71.0555 110.381 71.8017 110.31 72.5817 110.201C70.9505 110.662 70.418 110.734 70.2417 110.486ZM39.3755 38.9398C40.5005 37.3798 41.678 35.8198 42.8142 34.2261C43.1667 33.7648 43.4517 33.2698 43.808 32.8086C43.934 32.6728 44.0764 32.5532 44.2317 32.4523L44.1942 32.3811C44.3253 32.2382 44.4433 32.0838 44.5467 31.9198C44.7093 31.6226 44.8509 31.3143 44.9705 30.9973C45.0078 30.9406 45.0563 30.8921 45.113 30.8548C45.608 31.1023 45.608 30.5698 45.788 30.3936C46.1067 30.0411 46.4255 29.6436 46.7105 29.2948C46.9317 29.0258 47.1334 28.7413 47.3142 28.4436C47.348 28.3386 47.243 28.1586 47.2092 28.0198H47.1042C47.2092 27.9486 47.318 27.8436 47.423 27.7723C47.4605 27.7723 47.4605 27.7723 47.4942 27.7386C47.708 27.4198 47.918 27.1011 48.1317 26.8161C48.5542 26.2406 49.0166 25.6955 49.5155 25.1848C49.4442 25.3611 49.373 25.5411 49.3017 25.6798C49.3355 25.6798 49.3355 25.7173 49.373 25.7173C49.7967 25.1511 50.258 24.6186 50.6855 24.0523C50.648 24.0186 50.6142 23.9811 50.5805 23.9811C50.4042 24.1573 50.2617 24.3336 50.0855 24.5136C50.048 24.4798 50.0142 24.4423 49.9805 24.4423C50.3367 23.9811 50.6892 23.5198 51.0455 22.9873C51.1503 23.1594 51.2454 23.3372 51.3305 23.5198C51.473 23.1636 51.6155 22.9161 51.7055 22.6686C51.6005 22.7736 51.458 22.8823 51.353 22.9873L51.2442 22.8748L51.8817 21.9186C52.5567 20.9623 53.228 19.9686 53.903 19.0123C54.1505 18.6561 54.4692 18.3748 54.683 18.0186C55.461 16.7515 56.3137 15.5318 57.2367 14.3661C57.4308 14.1244 57.644 13.8987 57.8742 13.6911C58.0505 13.4773 58.193 13.5486 58.3355 13.7286C59.2917 14.9323 60.248 16.1736 61.208 17.3811C61.9167 18.2661 62.6255 19.1173 63.3005 20.0398C64.1142 21.1648 64.8942 22.2898 65.7117 23.4411C66.6342 24.7536 67.5567 26.0661 68.4417 27.4123C69.788 29.3961 71.0667 31.3836 72.413 33.3673C73.4067 34.8223 74.3967 36.2398 75.3567 37.6911H73.5492C71.8842 37.6536 70.1742 37.5148 68.5167 37.5861C66.2667 37.6911 63.9455 37.9386 61.6767 38.1186C58.8042 38.3661 55.898 38.4036 53.0292 38.4036C52.0017 38.4036 50.9742 38.5461 49.9467 38.6173C48.7055 38.6886 47.5017 38.7598 46.2605 38.7936C44.8055 38.8648 43.388 38.8986 41.9367 38.9361C41.123 38.9736 40.2717 38.9361 39.383 38.9361L39.3755 38.9398ZM80.0255 55.2448V55.5636C79.9917 55.5636 79.9542 55.5973 79.883 55.5973C79.7405 55.1023 79.598 54.5698 79.4217 54.0748C79.0996 53.0234 78.6339 52.0215 78.038 51.0973C77.3292 50.1036 76.6917 49.0761 75.983 48.0486C75.7891 47.8067 75.5759 47.581 75.3455 47.3736C74.6351 46.5173 73.8128 45.7605 72.9005 45.1236C71.4901 44.2482 70.0071 43.4954 68.468 42.8736C68.0403 42.6894 67.6256 42.4764 67.2267 42.2361H68.078L74.138 42.1311C75.4505 42.0936 76.7255 42.0936 78.038 42.0261C78.1749 42.0152 78.312 42.0449 78.4321 42.1117C78.5522 42.1784 78.6499 42.2791 78.713 42.4011C79.0317 42.9336 79.3505 43.4623 79.7067 43.9948C79.763 44.0806 79.799 44.1781 79.8117 44.2798C79.8117 45.0598 79.8117 45.8736 79.8455 46.6536C79.8792 47.4336 79.9505 48.2473 79.988 49.0648C80.0255 49.8823 79.9167 50.7298 79.9505 51.5811C79.988 52.7848 80.0217 54.0261 80.0217 55.2673L80.0255 55.2448ZM41.888 43.3686C43.553 43.2973 45.1505 43.1923 46.763 43.1211C48.038 43.0498 49.3505 43.0161 50.6255 42.9448C51.1441 42.8915 51.6669 42.8915 52.1855 42.9448C51.6186 43.2096 51.0732 43.518 50.5542 43.8673C49.9167 44.2911 49.313 44.8611 48.6792 45.3223C48.0419 45.8002 47.4596 46.3473 46.943 46.9536C46.268 47.7673 45.5255 48.4761 44.8167 49.2561C44.2881 49.7977 43.7875 50.3659 43.3167 50.9586C42.713 51.7386 42.1917 52.5898 41.6142 53.4748C41.7905 50.0998 41.9892 46.7773 41.8617 43.3723L41.888 43.3686ZM65.033 77.4673C63.892 77.7884 62.7323 78.0388 61.5605 78.2173C60.548 78.3238 59.5292 78.3589 58.5117 78.3223C57.5892 78.3223 56.7042 78.2886 55.7817 78.2173C54.7346 78.1667 53.7037 77.9385 52.733 77.5423C51.8817 77.1673 50.9967 76.7923 50.1455 76.3723C49.2532 75.9779 48.4554 75.3975 47.8055 74.6698C47.2932 74.1175 46.7363 73.6083 46.1405 73.1473C46.2454 73.5753 46.5149 73.9445 46.8905 74.1748C46.7142 74.3886 46.4667 74.2798 46.1105 73.7136C46.0192 73.7682 45.924 73.8159 45.8255 73.8561C45.9305 73.6086 46.0392 73.3611 46.1442 73.1473C46.0017 72.8623 45.8255 72.5436 45.683 72.2623C45.3977 71.798 45.1263 71.3253 44.8692 70.8448C44.798 70.7398 44.798 70.6311 44.7267 70.5261C44.5507 70.3224 44.3855 70.1096 44.2317 69.8886C43.9612 69.4351 43.6658 68.9969 43.3467 68.5761C43.3467 68.6811 43.3805 68.7898 43.3805 68.9286C43.3537 68.9318 43.3287 68.9436 43.3092 68.9623L42.5592 67.1548C42.5217 67.1548 42.5217 67.1548 42.488 67.1923L43.1255 69.5323C43.088 69.5323 43.0542 69.5698 43.0205 69.5698C42.9052 69.4296 42.8093 69.2744 42.7355 69.1086C42.6642 68.8236 42.4505 68.8236 42.2742 68.9323C42.2184 68.9865 42.1763 69.0532 42.1515 69.1269C42.1268 69.2006 42.12 69.2792 42.1317 69.3561C42.3792 69.9598 42.6642 70.5598 42.9455 71.1636C43.0128 71.3707 43.0955 71.5725 43.193 71.7673C43.2305 71.8386 43.3355 71.9098 43.3355 72.0148C43.4555 72.2966 43.5972 72.5687 43.7592 72.8286C44.078 73.2523 44.4342 73.6798 44.753 74.1036C45.0717 74.5273 45.3567 74.9886 45.638 75.4161C45.6755 75.4873 45.7805 75.4873 45.8142 75.5211C45.9905 76.0536 46.5942 76.4436 47.018 76.2298C47.123 77.0436 48.0117 77.3286 48.3642 78.1048C48.0159 77.9646 47.6731 77.8107 47.3367 77.6436C47.303 77.6811 47.303 77.7148 47.2655 77.7861C47.6905 77.9896 48.1048 78.2149 48.5067 78.4611C48.8625 78.6652 49.2056 78.8906 49.5342 79.1361C49.9673 79.5172 50.4941 79.7761 51.0605 79.8861C51.0472 79.834 51.0229 79.7854 50.9892 79.7436C51.983 80.2048 53.0105 80.6998 53.7905 81.0898C50.1042 81.1611 46.1705 81.2323 42.0942 81.3036C42.0942 80.6286 42.0605 79.9911 42.0605 79.3198C42.0895 79.0496 42.1007 78.7778 42.0942 78.5061C41.9892 76.8748 41.9892 75.2436 41.7755 73.6498C41.5926 71.9664 41.5337 70.2719 41.5992 68.5798C41.633 67.6573 41.5617 66.7048 41.528 65.7786C41.528 64.5373 41.528 63.3336 41.5617 62.0923C41.5761 61.9195 41.6245 61.7513 41.7042 61.5973H41.8092C41.843 61.6686 41.8092 61.7736 41.8805 61.8111C41.9855 61.9161 42.1655 62.0961 42.2367 62.0586C42.4505 61.9161 42.7692 61.7736 42.8405 61.5636C43.0079 61.1464 43.092 60.7005 43.088 60.2511C43.0998 59.9769 43.1998 59.7139 43.373 59.5011C43.4388 59.3872 43.4976 59.2695 43.5492 59.1486C43.4067 59.0436 43.2642 58.9723 43.088 58.8298C43.2305 58.4548 43.193 57.9786 43.7255 57.7648C43.7967 57.7273 43.7967 57.5511 43.8305 57.4461L43.9355 56.5611C43.9852 56.6393 44.0444 56.7111 44.1117 56.7748C44.1303 56.7366 44.1543 56.7012 44.183 56.6698C44.183 56.5273 44.1492 56.2461 44.183 56.2461C44.6067 56.1748 44.4305 55.7136 44.6442 55.4961C44.678 55.4623 44.6067 55.3536 44.6067 55.2823C44.6067 55.2111 44.6067 55.1061 44.6442 55.1061C45.1392 55.0011 45.068 54.4686 45.3942 54.2211C45.4992 54.1498 45.5367 54.0448 45.6792 53.8686C45.9642 54.3636 45.4655 54.6186 45.4317 54.9673C46.0355 54.6111 46.2117 53.7636 45.8555 53.5123C45.9964 53.4043 46.1224 53.2782 46.2305 53.1373C46.6055 52.7136 47.0442 52.3236 47.4005 51.8961C47.648 51.5773 47.7755 51.1873 48.038 50.8686C48.2214 50.6879 48.4378 50.544 48.6755 50.4448C49.322 50.1376 49.8825 49.6751 50.3067 49.0986C50.395 49.0188 50.4904 48.9472 50.5917 48.8848C50.6967 48.8136 50.9105 48.8136 50.9442 48.7086C50.978 48.6036 50.873 48.4611 50.8017 48.3561C50.9442 48.2848 51.0867 48.1423 51.368 48.0036C51.263 48.2173 51.2255 48.3561 51.1542 48.4986L51.3305 48.6748C51.6492 48.4273 52.1442 48.1423 52.4555 47.9248C52.4555 47.8911 52.2792 47.7486 52.2792 47.7486C52.0655 47.8536 51.7467 48.0336 51.428 48.1723C51.4992 48.0673 51.4992 47.9961 51.533 47.9586C52.0201 47.6298 52.5287 47.3342 53.0555 47.0736C54.2967 46.5073 55.538 45.9486 56.7755 45.4086C57.02 45.3428 57.276 45.3313 57.5255 45.3748C57.6218 45.3811 57.7184 45.3697 57.8105 45.3411C58.3767 45.1648 58.9355 44.9886 59.513 44.8461C59.7671 44.7764 60.0295 44.7411 60.293 44.7411C61.358 44.7748 62.4192 44.7748 63.4842 44.8461C63.9319 44.8862 64.3728 44.9819 64.7967 45.1311C65.3428 45.3194 65.8753 45.5449 66.3905 45.8061C66.9894 46.1271 67.5691 46.4827 68.1267 46.8711C69.1542 47.5461 70.1105 48.2886 71.1267 48.8923C72.0872 49.4926 72.9092 50.2903 73.538 51.2323C74.418 52.2442 75.1033 53.41 75.5592 54.6711L76.0917 57.0111C76.2819 57.4332 76.3669 57.8952 76.3392 58.3573C76.163 59.2423 76.0205 60.1648 75.878 61.0498C75.7908 61.3965 75.7554 61.7541 75.773 62.1111C75.7625 63.1753 75.4949 64.2213 74.993 65.1598C74.8505 65.4786 74.6367 65.7973 74.4605 66.1536C74.5478 66.2151 74.6439 66.2631 74.7455 66.2961L75.0642 65.6586C75.098 65.6586 75.098 65.6586 75.1355 65.6961C74.9592 66.1911 74.8167 66.7236 74.6405 67.2186C74.2167 68.3173 73.7892 69.4686 73.2567 70.5148C72.9143 71.0912 72.5387 71.6471 72.1317 72.1798C71.7755 72.6748 71.4942 73.2073 71.138 73.6798C70.8395 74.0859 70.4818 74.4449 70.0767 74.7448C69.1288 75.4706 68.1341 76.1333 67.0992 76.7286C66.4449 77.0922 65.7395 77.3552 65.0067 77.5086L65.033 77.4673ZM46.1405 75.5923L46.1067 75.6261C46.0171 75.5922 45.9336 75.5441 45.8592 75.4836L45.0005 74.2086C44.9622 74.1586 44.9359 74.1005 44.9235 74.0387C44.9112 73.977 44.9131 73.9132 44.9292 73.8523C45.3042 74.4561 45.7092 75.0223 46.133 75.5886L46.1405 75.5923ZM68.1867 80.4486C69.7095 79.7843 71.1052 78.8606 72.3117 77.7186C72.4836 77.5352 72.6733 77.3694 72.878 77.2236C74.3082 76.2784 75.5275 75.0476 76.4592 73.6086C77.4967 71.9301 78.4321 70.1907 79.2605 68.3998C79.3247 68.2709 79.396 68.1457 79.4742 68.0248C79.4812 72.0423 79.7896 76.0535 80.3967 80.0248L68.2017 80.4486H68.1867ZM104.13 79.3873C104.093 79.4586 104.025 79.5298 103.988 79.6011C103.956 79.4967 103.933 79.3902 103.917 79.2823C103.703 79.8486 103.242 79.5673 102.923 79.5673C101.01 79.6011 99.0605 79.6011 97.1442 79.6011C95.2992 79.6011 93.4242 79.6011 91.5792 79.6386C90.9755 79.6386 90.338 79.7811 89.7342 79.8148C88.2792 79.8861 86.828 79.9198 85.373 79.9573C85.268 79.9573 85.1592 79.7811 84.998 79.6386C84.9356 79.7505 84.8641 79.8571 84.7842 79.9573C84.7505 79.8861 84.6792 79.8148 84.608 79.7098C84.5789 79.8069 84.5438 79.9021 84.503 79.9948H84.3755C84.2695 79.5156 84.1981 79.0293 84.1617 78.5398C84.1617 77.4748 84.2667 76.4136 84.3042 75.3486C84.338 74.8536 84.3042 74.3923 84.3042 73.9311L84.6792 74.2161C84.7424 74.0927 84.8138 73.9736 84.893 73.8598C84.8406 73.832 84.7926 73.7966 84.7505 73.7548C84.8217 73.7211 84.893 73.6498 84.893 73.6123C84.9379 73.5213 84.9731 73.4258 84.998 73.3273C84.9833 73.0996 84.9482 72.8737 84.893 72.6523C84.9119 72.6547 84.9311 72.6529 84.9492 72.647C84.9673 72.6412 84.984 72.6315 84.998 72.6186L85.2117 73.6798H85.3167C85.1742 73.4323 85.6355 73.2186 85.2455 72.9298C85.2117 72.8961 85.283 72.6823 85.283 72.5773C85.1759 72.3461 85.0808 72.1096 84.998 71.8686C85.0744 71.8207 85.1579 71.7853 85.2455 71.7636C85.1316 71.6979 85.0139 71.639 84.893 71.5873C85.2455 71.2686 85.2455 71.0923 84.9305 70.7361C85.0017 70.7023 85.073 70.7023 85.073 70.6648C85.0845 70.3444 85.0606 70.0237 85.0017 69.7086C84.9305 69.3561 85.1067 68.9286 84.578 68.7148C84.6109 68.8164 84.659 68.9125 84.7205 68.9998C84.6453 69.0262 84.5736 69.0615 84.5067 69.1048C84.0455 68.6811 84.3305 68.1111 84.2217 67.4736C84.4268 67.5337 84.6283 67.6051 84.8255 67.6873C84.7542 67.4398 84.578 67.1548 84.473 66.8361H84.3305V64.4998C84.3305 64.5336 84.578 64.5336 84.7055 64.5711C84.7055 64.5373 84.7392 64.4998 84.7392 64.4661C84.6342 64.3236 84.4917 64.1811 84.3642 64.0048L84.4355 63.9336C84.2631 63.6463 84.2119 63.3024 84.293 62.9773V60.4948C84.6455 60.8473 84.1167 61.3086 84.6455 61.5223V61.1623H84.6117C84.5742 60.6298 84.5742 60.0973 84.5405 59.5686H84.4692C84.4355 59.6398 84.4355 59.6736 84.398 59.7448H84.3267L84.5405 51.2736C84.9056 51.6963 85.2378 52.1464 85.5342 52.6198C86.3971 54.0584 87.3568 55.4365 88.4067 56.7448C89.258 57.9148 90.038 59.1898 90.818 60.3973C91.7742 61.8523 92.693 63.3036 93.653 64.7586C94.3617 65.8573 95.108 66.9561 95.8505 68.0211C96.5255 68.9773 97.2342 69.8961 97.943 70.8223C98.5467 71.6361 99.1842 72.4536 99.7842 73.2673C100.493 74.2611 101.202 75.2511 101.91 76.2111C102.263 76.7061 102.66 77.2048 103.035 77.7111C103.258 77.9651 103.51 78.1917 103.785 78.3861C103.735 78.3872 103.686 78.3742 103.643 78.3486C103.719 78.4596 103.802 78.5661 103.89 78.6673C104.265 78.8811 104.314 79.0911 104.104 79.4173L104.13 79.3873ZM105.938 70.5261V70.2786C105.938 70.3498 105.972 70.4548 105.938 70.5261ZM107.142 54.8961C107.038 54.8239 106.943 54.7409 106.857 54.6486C106.819 54.7536 106.857 54.8623 106.785 55.0011C106.752 54.8961 106.5 54.9298 106.5 54.8248C106.463 55.3198 106.714 55.8186 106.677 56.3248C106.782 56.2536 107.209 56.2198 107.314 56.1111C107.353 56.1488 107.403 56.1737 107.457 56.1823C106.748 56.7148 106.924 57.2473 107.243 57.8473C107.314 57.9898 107.528 58.2711 107.314 58.5561C107.243 58.6273 107.352 58.8411 107.385 59.0173H107.49V59.0886L107.172 59.1936C107.1 59.0886 106.677 58.8748 106.677 58.6986V60.5061C107.029 60.6111 107.029 61.1098 107.172 61.3573C107.233 61.27 107.281 61.1739 107.314 61.0723L107.352 61.1061C107.321 61.322 107.274 61.5352 107.209 61.7436C107.133 62.0476 107.074 62.3555 107.033 62.6661C107.033 62.6998 107.104 62.7711 107.104 62.8086C106.874 63.724 106.767 64.6661 106.785 65.6098C106.68 66.2848 106.785 66.9936 106.714 67.7023C106.631 68.3234 106.513 68.9394 106.362 69.5473C106.328 69.6523 106.257 69.6898 106.077 69.7611C106.136 69.3959 106.123 69.0227 106.039 68.6623C106.005 68.6623 105.544 68.4148 105.507 68.4148C105.588 69.0021 105.714 69.5825 105.882 70.1511C105.777 70.1173 105.349 69.8661 105.315 69.8661C105.244 70.2898 105.244 70.8598 105.21 71.3211C105.173 71.6736 104.854 71.9961 104.835 72.3861C104.835 72.5998 105.083 72.7386 105.049 73.0948H105.334C105.334 72.3861 105.653 71.7486 105.653 71.0023H105.75C105.784 71.0736 105.893 71.1448 105.855 71.1786C105.745 71.5706 105.686 71.9752 105.679 72.3823C105.679 72.5961 105.855 72.8061 105.784 73.0573C105.709 73.3013 105.661 73.5528 105.642 73.8073C105.608 73.6922 105.584 73.5742 105.57 73.4548L105.195 73.4211C105.162 73.6348 105.443 73.8448 105.409 74.0248C105.372 74.0623 105.338 74.0623 105.267 74.0961L104.097 72.3936C103.174 71.0473 102.252 69.7011 101.333 68.3173C101.095 67.9784 100.882 67.6225 100.695 67.2523C99.5975 65.3671 98.3774 63.5558 97.043 61.8298C96.0155 60.5173 95.198 59.0998 94.2417 57.7048C93.3567 56.3923 92.468 55.1173 91.583 53.8048C91.2642 53.3811 90.8742 52.9911 90.5892 52.5298C89.6667 51.0748 88.853 49.5861 87.9305 48.1348C87.1505 46.9311 86.2992 45.7611 85.4855 44.5911C85.2005 44.2161 84.9192 43.7773 84.6342 43.3498C84.5897 43.2748 84.5652 43.1896 84.563 43.1023C84.4917 42.3223 84.4205 41.5423 84.3867 40.7998C84.353 40.0573 84.458 39.3823 84.458 38.6361V37.9986C84.458 37.8223 84.4917 37.6798 84.4917 37.5036C84.5255 37.4661 84.563 37.3986 84.5967 37.3611C83.5692 37.3611 82.5042 37.3273 81.4767 37.3611C81.1836 37.374 80.8919 37.3119 80.6295 37.1806C80.367 37.0494 80.1423 36.8534 79.9767 36.6111C78.7244 35.047 77.5529 33.4198 76.4667 31.7361C75.368 30.1761 74.2167 28.6536 73.0917 27.1273C72.1692 25.8861 71.2505 24.6823 70.328 23.4411C69.3005 22.0236 68.3067 20.6061 67.2455 19.1886C65.9705 17.4861 64.658 15.7873 63.3455 14.0848C62.7417 13.3048 62.0705 12.5623 61.3955 11.7448C61.8567 11.8161 62.2805 11.8873 62.708 11.9211L64.4105 12.0261C65.6855 12.1311 66.9642 12.2023 68.2392 12.3823C69.3042 12.5248 70.3655 12.7386 71.4642 12.9148C73.7995 13.3259 76.099 13.919 78.3417 14.6886C79.6542 15.1123 80.9292 15.6823 82.2042 16.2111C85.0528 17.3921 87.8289 18.7407 90.518 20.2498C91.2779 20.7615 91.9481 21.395 92.5017 22.1248C93.4242 23.0811 94.3467 24.0373 95.2317 25.0311C96.2592 26.2011 97.2155 27.4048 98.2092 28.6123C99.0942 29.6773 100.017 30.7386 100.902 31.8036C101.172 32.1439 101.422 32.4995 101.652 32.8686C102.218 33.7198 102.855 34.5336 103.354 35.4561C103.683 36.1658 103.956 36.9006 104.168 37.6536C104.52 38.7523 104.877 39.8173 105.233 40.9161C105.48 41.7298 105.694 42.5811 105.87 43.4323C106.013 43.9986 105.975 44.6023 106.155 45.1686C106.369 45.9186 106.155 46.7286 106.369 47.4711L106.474 47.7186C106.617 47.8611 106.722 48.0036 106.512 48.2136C106.474 48.3049 106.474 48.4073 106.512 48.4986C106.579 48.4223 106.638 48.3393 106.688 48.2511C106.688 48.3223 106.722 48.3561 106.722 48.3936C106.704 48.5343 106.704 48.6766 106.722 48.8173C106.742 48.9055 106.777 48.9893 106.827 49.0648C106.917 48.9877 107.012 48.9163 107.112 48.8511C107.388 50.0479 107.507 51.2759 107.464 52.5036C107.618 53.6682 107.52 54.8521 107.179 55.9761C107.284 55.6011 107.037 55.2261 107.142 54.8773V54.8961Z" fill="#DD3735"/>
<path d="M84.6108 68.79C84.638 68.7942 84.6631 68.8074 84.682 68.8275L84.6445 68.79C84.6445 68.7562 84.6445 68.7562 84.6108 68.79ZM90.2095 103.811C89.8355 104.113 89.4006 104.331 88.9345 104.449C88.9008 104.415 88.9008 104.378 88.8633 104.344C89.2383 104.096 89.677 103.849 90.067 103.594C90.1008 103.665 90.172 103.736 90.2095 103.807V103.811ZM23.7483 55.7812C24.1233 55.2862 24.5283 54.7875 24.952 54.2812C24.9858 54.315 25.2708 54.3862 25.3083 54.4237C24.9333 54.9187 24.3858 55.5937 23.9958 56.1262C23.9245 56.055 23.8195 55.8075 23.7483 55.7737V55.7812ZM13.6833 73.1512C13.3983 72.5475 13.117 71.91 12.832 71.3062C12.9312 71.2442 13.0384 71.1963 13.1508 71.1637C13.4848 71.7543 13.7695 72.3714 14.002 73.0087C13.8988 73.0628 13.7924 73.1104 13.6833 73.1512ZM22.7208 56.1375C22.507 56.4562 22.297 56.8125 22.0833 57.1312C22.0495 57.0975 21.6595 57.2737 21.622 57.2362C21.8358 56.9175 22.372 56.3513 22.5783 56.0325C22.6189 56.076 22.6672 56.1116 22.7208 56.1375ZM86.4145 105.263C86.452 105.263 86.452 105.225 86.4858 105.225C86.755 105.268 87.0269 105.292 87.2995 105.296C86.8383 105.615 86.5495 105.581 86.4145 105.263ZM22.792 57.6225C22.8373 57.5093 22.8965 57.4022 22.9683 57.3037C23.0282 57.2998 23.0874 57.2885 23.1445 57.27C23.287 57.0225 23.287 56.8462 23.4295 56.6325C23.3958 56.5987 23.3583 56.5987 23.3245 56.5612C23.1108 56.7037 22.9008 56.88 22.687 57.0225C22.713 57.0434 22.7331 57.0705 22.7456 57.1014C22.7581 57.1322 22.7624 57.1657 22.7583 57.1987C22.4733 57.165 22.3833 57.3037 22.2258 57.6937C22.1883 57.7987 22.012 57.8363 21.8508 57.9788C21.817 58.05 21.7795 58.2263 21.7083 58.4025L21.7458 58.44C21.6945 58.4862 21.6346 58.5219 21.5695 58.545C21.3558 58.7588 21.1083 58.92 20.8945 59.1487C20.8539 59.2505 20.8299 59.3581 20.8233 59.4675C21.0708 59.22 21.4983 58.7588 21.817 58.4738L21.8508 58.5075C21.9933 58.2937 22.0983 58.0837 22.2258 57.87C22.2595 57.9037 22.2595 57.9412 22.297 57.975L21.9783 58.86C21.907 58.8937 21.802 58.965 21.802 58.9312C21.6595 59.0362 21.5545 59.1788 21.427 59.2875L20.7895 59.7113C20.4333 60.03 20.0808 60.315 19.6908 60.6338C19.4433 61.0088 19.1958 61.3837 18.9108 61.8375C19.3345 61.7325 19.4433 61.9088 19.4058 62.2613C19.9008 62.3325 19.9383 61.9425 20.0808 61.6575C20.1183 61.5862 20.152 61.4437 20.2233 61.41C20.542 61.125 20.8983 60.8775 21.2508 60.5963C21.3114 60.5017 21.3366 60.3888 21.322 60.2775C21.322 60.2437 21.1458 60.2438 21.037 60.2063C21.3558 59.85 21.817 59.25 22.1358 58.86C22.312 58.755 22.4883 58.6125 22.4883 58.5037C22.4508 58.1287 22.702 58.0087 22.9833 57.8662C22.9383 57.8396 22.8993 57.8038 22.869 57.7611C22.8386 57.7185 22.8175 57.67 22.807 57.6187L22.792 57.6225Z" fill="#DD3735"/>
<path d="M23.501 57.2323C23.3585 57.4798 23.216 57.6935 23.0772 57.941L22.8747 57.836C22.8406 58.1853 22.7199 58.5205 22.5234 58.8112C22.327 59.102 22.061 59.3391 21.7497 59.501C21.8593 59.5773 21.9915 59.6143 22.1247 59.606C22.2297 59.5723 22.301 59.3923 22.3722 59.2873L23.3285 57.9035L23.6247 57.3748L23.4822 57.2323H23.501ZM11.696 72.7948C11.8722 72.7948 12.0522 72.8323 12.2622 72.8323C12.2622 72.6898 12.4385 72.7273 12.4385 72.5848H12.5435C12.5435 72.761 12.581 72.9035 12.581 73.0798H11.831C11.7935 73.0423 11.6547 72.8323 11.6885 72.7948H11.696ZM11.411 71.1635C11.306 71.0585 11.126 70.9498 11.126 70.8448C11.126 70.7398 11.1972 70.526 11.3022 70.3498C11.3735 70.5973 11.4072 70.811 11.4785 71.0585C11.441 71.0923 11.4072 71.1298 11.4072 71.1635H11.411ZM12.296 68.9135C12.4385 69.2698 12.581 69.6635 12.7197 70.0123C12.6181 70.0452 12.522 70.0932 12.4347 70.1548C12.2922 69.8023 12.116 69.4048 11.9735 69.056C12.0691 68.9876 12.1775 68.9391 12.2922 68.9135H12.296ZM91.196 102.799C91.4173 102.727 91.6427 102.668 91.871 102.622C91.5984 102.819 91.3379 103.032 91.091 103.26C91.0535 103.222 91.0197 103.189 90.986 103.189C91.0572 103.046 91.1285 102.941 91.1997 102.814L91.196 102.799ZM47.6247 27.8848C47.8385 27.7423 47.9997 27.6373 48.2285 27.5098L48.2997 27.581C48.086 27.866 47.9247 28.1473 47.6622 28.5035C47.6285 28.256 47.6285 28.1285 47.591 27.9373C47.5572 27.9373 47.591 27.9373 47.6285 27.9035L47.6247 27.8848ZM58.0085 45.821L59.036 45.3598C59.0082 45.5232 58.9956 45.689 58.9985 45.8548C58.8838 45.8138 58.7638 45.7898 58.6422 45.7835C58.4285 45.8173 58.0385 46.1023 57.8622 46.136C57.8247 46.136 58.0047 45.851 58.0047 45.8173L58.0085 45.821ZM84.5922 75.8773C84.6635 76.2298 85.3422 76.4098 84.6635 76.7623C84.7685 76.8335 84.8772 76.8673 84.9822 76.9385C84.9733 76.9921 84.9485 77.0418 84.911 77.081C84.8397 77.1185 84.6972 77.186 84.626 77.1523C84.5547 77.1185 84.521 77.0098 84.521 76.9385C84.521 76.6198 84.5585 76.301 84.5922 75.8735V75.8773Z" fill="#DD3735"/>
</svg>
