<svg width="120" height="120" viewBox="0 0 120 120" fill="none" xmlns="http://www.w3.org/2000/svg">
<g clip-path="url(#clip0_703_50)">
<path d="M119.603 17.7145L63.2328 118.121C62.0689 120.194 59.0788 120.207 57.8975 118.144L0.410005 17.7238C-0.877183 15.476 1.05266 12.7529 3.61016 13.2086L60.0406 23.2555C60.4007 23.3196 60.7693 23.3189 61.1291 23.2536L116.379 13.2226C118.928 12.7599 120.867 15.462 119.603 17.7145Z" fill="url(#paint0_linear_703_50)"/>
<path d="M86.9216 0.0294669L45.2066 8.17172C44.8733 8.23677 44.5712 8.41031 44.3477 8.66505C44.1242 8.9198 43.992 9.24131 43.9719 9.57904L41.406 52.7492C41.3919 52.9859 41.4334 53.2227 41.5272 53.4407C41.621 53.6587 41.7645 53.8519 41.9464 54.005C42.1282 54.1581 42.3434 54.2669 42.5749 54.3227C42.8063 54.3785 43.0476 54.3798 43.2796 54.3264L54.8938 51.6566C55.9804 51.4067 56.9624 52.3602 56.7388 53.4486L53.2884 70.2799C53.0563 71.4127 54.1237 72.3811 55.2341 72.0449L62.4079 69.8741C63.5198 69.538 64.5885 70.5092 64.3532 71.6429L58.8698 98.0807C58.5266 99.7345 60.7349 100.636 61.6555 99.2186L62.271 98.2717L96.2629 30.6981C96.8324 29.5667 95.8504 28.2766 94.6035 28.5166L82.648 30.8148C81.5249 31.0306 80.5691 29.9884 80.886 28.8939L88.6888 1.94993C89.0062 0.852658 88.0466 -0.189988 86.9221 0.0294669H86.9216Z" fill="url(#paint1_linear_703_50)"/>
</g>
<defs>
<linearGradient id="paint0_linear_703_50" x1="-0.993599" y1="21.3095" x2="59.494" y2="103.778" gradientUnits="userSpaceOnUse">
<stop stop-color="#41D1FF"/>
<stop offset="1" stop-color="#BD34FE"/>
</linearGradient>
<linearGradient id="paint1_linear_703_50" x1="65.2711" y1="2.24025" x2="77.6826" y2="87.7128" gradientUnits="userSpaceOnUse">
<stop stop-color="#FFEA83"/>
<stop offset="0.08333" stop-color="#FFDD35"/>
<stop offset="1" stop-color="#FFA800"/>
</linearGradient>
<clipPath id="clip0_703_50">
<rect width="120" height="120" fill="white"/>
</clipPath>
</defs>
</svg>
