<svg width="140" height="140" viewBox="0 0 140 140" fill="none" xmlns="http://www.w3.org/2000/svg">
<path d="M70.4375 92.875C76.4781 92.875 81.375 87.9781 81.375 81.9375C81.375 75.8969 76.4781 71 70.4375 71C64.3969 71 59.5 75.8969 59.5 81.9375C59.5 87.9781 64.3969 92.875 70.4375 92.875Z" fill="#00D8FF"/>
<path d="M70 106.946C56.8537 107.264 43.7404 105.492 31.15 101.696C25.334 99.8523 19.9095 96.948 15.1506 93.1298C13.3347 91.8254 11.8224 90.1436 10.7176 88.1998C9.61281 86.2559 8.94158 84.0961 8.75 81.8685C8.75 74.6366 16.695 67.5491 30.0037 62.9116C42.9307 58.8024 56.4372 56.8109 70 57.0141C83.3818 56.8272 96.7074 58.7827 109.471 62.8066C115.073 64.5923 120.313 67.3563 124.95 70.9704C126.735 72.2139 128.224 73.8348 129.313 75.7181C130.402 77.6015 131.063 79.7012 131.25 81.8685C131.25 89.3847 122.369 97.0016 108.063 101.735C95.7159 105.408 82.8793 107.165 70 106.946V106.946ZM70 62.2466C57.0242 62.0732 44.1036 63.9665 31.7231 67.8554C19.4731 72.1298 13.9825 77.9747 13.9825 81.8554C13.9825 85.9154 19.8844 92.2985 32.8431 96.7304C44.8878 100.343 57.4289 102.025 70 101.714C82.3218 101.934 94.6047 100.267 106.422 96.7697C119.875 92.3116 126 85.9197 126 81.8685C125.779 80.4782 125.273 79.1489 124.512 77.9643C123.751 76.7798 122.754 75.7659 121.581 74.9866C117.433 71.7804 112.751 69.3308 107.752 67.7504C95.5414 63.9168 82.7968 62.0588 70 62.2466V62.2466Z" fill="#00D8FF"/>
<path d="M45.9959 135.944C43.955 135.991 41.9382 135.496 40.151 134.509C33.886 130.895 31.716 120.474 34.3453 106.627C37.2444 93.3756 42.2676 80.6802 49.2203 69.0327C55.7423 57.3475 64.0917 46.7811 73.9522 37.7339C78.2973 33.7733 83.3097 30.6138 88.7572 28.4021C90.7275 27.4787 92.8769 27 95.0528 27C97.2288 27 99.3781 27.4787 101.348 28.4021C107.863 32.1558 110.02 43.6533 106.979 58.4102C103.99 70.9426 99.0978 82.9427 92.4716 93.9921C86.1792 105.539 78.0926 116.014 68.5141 125.024C64.0113 129.14 58.7855 132.387 53.1009 134.601C50.8252 135.445 48.423 135.9 45.9959 135.944V135.944ZM53.7528 71.6314C47.1208 82.7847 42.3063 94.9226 39.4903 107.59C37.071 120.343 39.3941 128.012 42.7716 129.963C46.2716 131.989 54.7678 130.068 65.0841 121.056C74.2279 112.424 81.9463 102.397 87.9522 91.3496C94.3 80.7862 98.9934 69.3133 101.869 57.3296C104.73 43.4389 102.258 34.9339 98.7497 32.9127C97.4346 32.4088 96.0293 32.1832 94.6226 32.2503C93.2159 32.3173 91.8384 32.6754 90.5772 33.3021C85.7283 35.3029 81.2704 38.1436 77.4084 41.6933C67.9876 50.3593 60.0121 60.4749 53.7834 71.6577L53.7528 71.6314Z" fill="#00D8FF"/>
<path d="M95.6126 135.849C89.6845 135.849 82.1551 132.262 74.3151 125.52C64.2819 116.39 55.7912 105.698 49.172 93.8579C42.3064 82.3707 37.323 69.859 34.4107 56.7973C33.1477 51.0507 32.9136 45.1256 33.7195 39.2973C33.9058 37.1352 34.5641 35.0403 35.6481 33.1603C36.7321 31.2803 38.2153 29.661 39.9932 28.4167C46.4988 24.6498 57.537 28.5217 68.8026 38.5229C78.1677 47.37 86.1205 57.601 92.3838 68.8592C99.2451 80.0782 104.281 92.3159 107.303 105.115C108.62 111.072 108.823 117.222 107.902 123.254C107.683 125.478 106.985 127.628 105.857 129.558C104.729 131.487 103.197 133.15 101.366 134.432C99.6077 135.406 97.6221 135.895 95.6126 135.849V135.849ZM53.7001 91.2242C60.0501 102.54 68.1607 112.773 77.7276 121.539C87.567 130.004 95.372 131.824 98.7276 129.851C102.228 127.817 104.809 119.513 102.149 106.077C99.2345 93.8576 94.4046 82.1762 87.8382 71.4667C81.8612 60.6916 74.2702 50.8948 65.3288 42.4167C54.7238 33.0017 46.1226 30.8973 42.6182 32.9273C41.526 33.8149 40.6296 34.9193 39.9858 36.1708C39.342 37.4224 38.9646 38.7938 38.8776 40.1985C38.182 45.3964 38.4086 50.6762 39.547 55.7954C42.3483 68.2866 47.1277 80.25 53.7045 91.2329L53.7001 91.2242Z" fill="#00D8FF"/>
</svg>
