<svg width="120" height="120" viewBox="0 0 120 120" fill="none" xmlns="http://www.w3.org/2000/svg">
<path d="M7.5 7.5H112.5V112.5H7.5V7.5Z" fill="#F5DE19"/>
<path d="M78.0333 89.531C78.9279 91.3482 80.3179 92.8757 82.0429 93.9372C83.768 94.9988 85.7579 95.5513 87.7833 95.531C91.8708 95.531 94.4845 93.4873 94.4845 90.656C94.4845 87.281 91.7995 86.0735 87.2995 84.1048L84.832 83.0473C77.707 80.0135 72.982 76.2148 72.982 68.1823C72.982 60.7835 78.607 55.1473 87.4308 55.1473C90.2872 54.941 93.1411 55.5803 95.6365 56.9854C98.132 58.3905 100.158 60.4992 101.463 63.0485L93.7495 67.9798C93.2471 66.7157 92.3723 65.6343 91.2411 64.8788C90.11 64.1234 88.7759 63.7296 87.4158 63.7498C86.8224 63.6904 86.2231 63.7552 85.6562 63.9402C85.0892 64.1252 84.567 64.4263 84.1229 64.8242C83.6787 65.2222 83.3223 65.7083 83.0764 66.2516C82.8305 66.7949 82.7004 67.3834 82.6945 67.9798C82.6945 70.9385 84.5283 72.1385 88.762 73.9798L91.2295 75.0373C99.6145 78.6335 104.355 82.2973 104.355 90.536C104.355 99.4198 97.3758 104.287 88.0045 104.287C84.3532 104.52 80.7125 103.691 77.5218 101.9C74.3312 100.11 71.7269 97.4339 70.0233 94.196L78.0333 89.531ZM43.177 90.386C44.7258 93.1348 46.1358 95.4598 49.5258 95.4598C52.7658 95.4598 54.8133 94.1923 54.8133 89.261V55.7098H64.6795V89.3923C64.6795 99.6073 58.6795 104.257 49.9458 104.257C46.8586 104.426 43.7926 103.657 41.1509 102.05C38.5091 100.444 36.4152 98.0759 35.1445 95.2573L43.177 90.386Z" fill="black"/>
<path d="M7.5 7.5H112.5V112.5H7.5V7.5Z" fill="#F5DE19"/>
<path d="M78.0333 89.531C78.9279 91.3482 80.3179 92.8757 82.0429 93.9372C83.768 94.9988 85.7579 95.5513 87.7833 95.531C91.8708 95.531 94.4845 93.4873 94.4845 90.656C94.4845 87.281 91.7995 86.0735 87.2995 84.1048L84.832 83.0473C77.707 80.0135 72.982 76.2148 72.982 68.1823C72.982 60.7835 78.607 55.1473 87.4308 55.1473C90.2872 54.941 93.1411 55.5803 95.6365 56.9854C98.132 58.3905 100.158 60.4992 101.463 63.0485L93.7495 67.9798C93.2471 66.7157 92.3723 65.6343 91.2411 64.8788C90.11 64.1234 88.7759 63.7296 87.4158 63.7498C86.8224 63.6904 86.2231 63.7552 85.6562 63.9402C85.0892 64.1252 84.567 64.4263 84.1229 64.8242C83.6787 65.2222 83.3223 65.7083 83.0764 66.2516C82.8305 66.7949 82.7004 67.3834 82.6945 67.9798C82.6945 70.9385 84.5283 72.1385 88.762 73.9798L91.2295 75.0373C99.6145 78.6335 104.355 82.2973 104.355 90.536C104.355 99.4198 97.3758 104.287 88.0045 104.287C84.3532 104.52 80.7125 103.691 77.5218 101.9C74.3312 100.11 71.7269 97.4339 70.0233 94.196L78.0333 89.531ZM43.177 90.386C44.7258 93.1348 46.1358 95.4598 49.5258 95.4598C52.7658 95.4598 54.8133 94.1923 54.8133 89.261V55.7098H64.6795V89.3923C64.6795 99.6073 58.6795 104.257 49.9458 104.257C46.8586 104.426 43.7926 103.657 41.1509 102.05C38.5091 100.444 36.4152 98.0759 35.1445 95.2573L43.177 90.386Z" fill="black"/>
</svg>
