<svg width="120" height="120" viewBox="0 0 120 120" fill="none" xmlns="http://www.w3.org/2000/svg">
<path d="M22.1325 102.004L13.71 7.5H106.29L97.8562 101.989L59.9437 112.5L22.1325 102.004Z" fill="#1572B6"/>
<path d="M60 104.467L90.6375 95.9735L97.845 15.2285H60V104.467Z" fill="#33A9DC"/>
<path d="M60 49.4659H75.3375L76.395 37.5971H60V26.0059H89.0625L88.785 29.1146L85.9387 61.0571H60V49.4659Z" fill="white"/>
<path d="M60.0716 79.5678L60.0191 79.5828L47.1116 76.0953L46.2866 66.8516H34.6504L36.2741 85.0503L60.0154 91.6428L60.0716 91.6278V79.5678Z" fill="#EBEBEB"/>
<path d="M74.3515 60.5664L72.9565 76.0877L60.0303 79.5752V91.6352L83.7903 85.0502L83.9665 83.0927L85.9803 60.5664H74.3515Z" fill="white"/>
<path d="M60.0411 26.0059V37.5971H32.0436L31.8111 34.9909L31.2824 29.1146L31.0049 26.0059H60.0411ZM59.9999 49.4659V61.0571H47.2536L47.0211 58.4509L46.4961 52.5746L46.2186 49.4659H59.9999Z" fill="#EBEBEB"/>
</svg>
