<svg width="120" height="120" viewBox="0 0 120 120" fill="none" xmlns="http://www.w3.org/2000/svg">
<g clip-path="url(#clip0_703_23)">
<path d="M65.8662 118.964L98.7992 91.3401C98.9211 91.2406 99.0804 91.2842 99.1554 91.4458C99.2304 91.6075 99.1976 91.8189 99.0757 91.9184L66.035 119.629C65.9928 119.666 65.9459 119.685 65.899 119.685L65.8662 118.964Z" fill="url(#paint0_linear_703_23)"/>
<path d="M65.8992 119.685C65.8711 119.685 65.8383 119.679 65.8101 119.667L20.91 97.4703C20.878 97.455 20.8486 97.4312 20.8237 97.4005C20.7987 97.3698 20.7787 97.3328 20.7647 97.2916C20.7507 97.2505 20.7431 97.206 20.7423 97.1609C20.7415 97.1158 20.7475 97.0709 20.76 97.0289C20.8116 96.8486 20.9569 96.7615 21.0928 96.8299L65.8758 118.964L65.8992 119.685Z" fill="url(#paint1_linear_703_23)"/>
<path d="M113.016 13.5601L107.832 24.944L87.0063 36.6891L85.8485 37.3419L67.1318 60.5572C66.7708 61.036 66.5271 61.7199 66.4849 62.0992C66.4661 62.2298 66.3818 62.1738 66.3021 62.1676C66.2177 62.1614 66.1005 62.2049 66.0911 62.0681C66.0818 61.5707 66.0396 61.0173 65.4349 60.5199L56.0557 52.4619L49.2166 46.58L29.9524 40.0273L13.8274 34.5434L3.61426 13.498L3.76895 13.2617L3.77832 13.243L42.1207 0.0243944C42.1769 -0.000476035 42.1863 0.0119592 42.2097 0.0554825L55.2869 26.0383L55.5447 26.5481C55.826 27.0953 55.8541 27.431 55.8541 27.6735H56.0932V27.6176C56.0932 27.5927 56.0932 27.5616 56.0979 27.5305C56.0979 27.5119 56.1025 27.4932 56.1025 27.4683C56.1072 27.4435 56.1072 27.4186 56.1119 27.3937C56.1166 27.3688 56.1166 27.344 56.1213 27.3129C56.1353 27.2258 56.1541 27.1264 56.1728 27.0269C56.1775 26.9958 56.1869 26.9647 56.1916 26.9398C56.215 26.8403 56.2385 26.7347 56.2666 26.6352C56.2807 26.5979 56.29 26.5543 56.3041 26.517C56.3416 26.3927 56.3791 26.2808 56.4213 26.1813C56.4588 26.0818 56.4963 26.001 56.5338 25.9326L68.3228 3.18916C68.351 3.1332 68.365 3.10833 68.426 3.12077L112.941 13.2804L113.016 13.5601H113.016Z" fill="#E8B67F"/>
<path d="M56.0554 52.4566H56.0507L49.2168 46.5816L29.9521 40.0282L55.8539 27.6744L55.9242 27.4941V27.6744L56.0554 52.4566Z" fill="url(#paint2_linear_703_23)"/>
<path d="M55.8541 27.6742L29.9524 40.0218L27.618 39.2259L13.8274 34.5316L3.61426 13.4863L3.77832 13.2313L42.1207 0.0126757C42.1769 -0.0121948 42.1863 0.000240449 42.2097 0.0437638L55.2869 26.0266L55.5447 26.5364C55.826 27.096 55.8541 27.4317 55.8541 27.6742Z" fill="url(#paint3_linear_703_23)"/>
<path d="M55.9454 28.9852L31.4541 40.6612L27.6338 39.3617L55.3032 26.168L55.561 26.6778C55.8422 27.225 55.8704 27.5607 55.8704 27.8032H55.9407L55.9454 28.9845V28.9852Z" fill="url(#paint4_linear_703_23)"/>
<path d="M14.1796 34.6557L13.8327 34.5375L3.61914 13.4921L3.77383 13.2559L14.1796 34.6557Z" fill="#D2A679"/>
<path d="M87.0059 36.689L85.8481 37.3419L67.1314 60.5578C66.7704 61.0366 66.5267 61.7205 66.4845 62.0998C66.4657 62.2304 66.3814 62.1744 66.3017 62.1682C66.2173 62.162 66.1001 62.2055 66.0907 62.0687C66.0814 61.5713 66.0392 61.0179 65.4345 60.5205L56.0553 52.4563L55.9287 27.6803V27.5L56.1021 27.6803L87.0059 36.6896V36.689Z" fill="url(#paint5_linear_703_23)"/>
<path d="M113.015 13.5601L107.831 24.9439L88.8759 35.632L87.0103 36.6828L56.0972 27.6734C56.0784 27.3563 56.2425 26.6351 56.4206 26.175C56.4581 26.0755 56.4956 25.9947 56.5331 25.9263L68.3222 3.18286C68.3503 3.1269 68.3644 3.10203 68.4253 3.11447L112.941 13.2741L113.016 13.5601H113.015Z" fill="url(#paint6_linear_703_23)"/>
<path d="M88.876 35.6312L85.8526 37.3348L85.4635 37.8322L55.9238 29.1711L56.0598 27.6664H56.0973C56.0785 27.3493 56.2426 26.6281 56.4207 26.168L88.876 35.6312Z" fill="url(#paint7_linear_703_23)"/>
<path opacity="0.75" d="M56.7449 27.8604V53.0467L56.0559 52.456H56.0512L55.1465 51.6726V28.0096L55.8543 27.6738H56.0934L56.7449 27.8604Z" fill="url(#paint8_linear_703_23)"/>
<path d="M65.7164 119.281L20.7787 97.0407C20.5256 96.8977 20.4881 96.5806 20.4741 96.1889C20.4741 96.1889 18.5428 45.3935 18.5381 45.3873C18.5334 45.2567 18.6553 45.1759 18.6459 45.095C18.6131 44.9023 18.3366 44.1748 18.2475 44.1002L0 30.3468L0.154688 29.8805L49.2169 46.581L65.4305 60.5141C66.0352 61.0115 66.082 61.5649 66.0867 62.0623C66.0914 62.1991 66.2133 62.1555 66.2977 62.1618C66.382 62.168 66.4617 62.2239 66.4805 62.0934C66.5227 61.7141 66.7664 61.0302 67.1273 60.5576L85.8436 37.3417L119.784 18.2051L119.991 18.5844L101.668 39.9412C101.312 40.4138 101.148 40.992 101.218 41.2283L99.3431 91.0109C99.315 91.328 99.2025 91.4212 98.9634 91.6389L66.1148 119.219C65.9836 119.331 65.843 119.362 65.7164 119.281V119.281Z" fill="#BF9064"/>
<path d="M66.297 62.1626L65.9735 119.306C65.8865 119.339 65.7937 119.33 65.711 119.281L20.7738 97.0478C20.5207 96.9048 20.4832 96.5815 20.4691 96.196L18.5332 45.3943V45.3819C18.5332 45.3694 18.5332 45.357 18.5379 45.3446C18.5379 45.3321 18.5426 45.3259 18.5473 45.3197C18.552 45.3073 18.5566 45.301 18.5613 45.2886C18.566 45.2762 18.5707 45.27 18.5754 45.2575C18.5941 45.2202 18.6223 45.1829 18.6316 45.1518C18.6363 45.1456 18.6363 45.1394 18.6363 45.1332V45.127L66.0912 62.088C66.1099 62.1999 66.2224 62.1564 66.2974 62.1626H66.297Z" fill="#BD8F63"/>
<path opacity="0.54" d="M65.9785 119.137V119.299C65.8915 119.331 65.7986 119.322 65.716 119.274L20.7783 97.0402C20.6002 96.9407 20.5299 96.748 20.4971 96.5117L65.9785 119.137Z" fill="url(#paint9_linear_703_23)"/>
<path d="M45.6592 84.4766L63.0587 92.0247L63.0165 114.531L45.9404 106.212L45.6592 84.4766ZM54.3779 99.5978L54.4201 110.024L62.8473 114.13V103.502L54.3775 99.5972L54.3779 99.5978ZM56.8675 102.966L58.5704 106.561L60.2387 104.622L60.5293 105.062L58.8076 107.062L60.5331 110.704L60.2832 110.913L58.5826 107.323L56.9228 109.253L56.6321 108.814L58.3454 106.822L56.6176 103.174L56.8675 102.966ZM61.8821 107.015V108.041L62.3275 108.233V109.39L61.8821 109.154V110.086L60.9071 108.122L61.8821 107.015ZM60.3821 105.765L60.7243 105.908V110.005L60.3821 109.844V105.765ZM46.0014 95.736L46.1279 106.001L54.1811 109.906L54.1342 99.5039L46.0014 95.736ZM58.592 107.972L59.4732 109.856L57.7154 109.011L58.592 107.972ZM59.9509 106.244V108.917L59.0368 107.208L59.9509 106.244ZM56.4634 103.862L56.8009 104.012V108.103L56.4634 107.947V103.862ZM57.2228 104.963L58.0946 106.747L57.2228 107.637V104.963ZM49.9384 100.008L50.2712 100.151L50.2721 100.413C51.2631 100.941 52.2418 102.26 52.7139 104.31C52.4045 103.62 52.1326 103.489 51.6498 103.707C51.4717 103.216 50.9467 102.955 50.6326 103.216C50.553 103.014 50.4317 102.847 50.2829 102.733L50.2998 106.636C50.2998 106.996 50.1123 107.319 49.6482 107.195C49.2264 107.058 49.0529 106.629 49.0998 105.896L49.3342 105.945C49.3342 106.437 49.3623 106.716 49.6436 106.803C49.8826 106.878 49.9904 106.76 49.9904 106.468L49.9595 102.597C49.8264 102.585 49.7031 102.628 49.6154 102.731C49.5076 102.37 48.9967 101.885 48.6123 102.246C48.3404 101.674 47.8295 101.456 47.5436 101.873C47.9087 100.409 48.9001 99.8956 49.9403 100.266L49.9389 100.008H49.9384ZM55.2728 103.819L56.2243 105.809L55.2821 106.847L55.3009 105.871L54.8415 105.728V104.596L55.2728 104.808V103.819ZM57.6868 104.248L59.4681 105.106L58.5775 106.144L57.6868 104.248ZM54.3634 88.5796L54.3821 99.2117L62.8525 103.129V92.2666L54.3634 88.5796ZM55.9431 97.763L61.0056 100.057V101.394L55.9431 99.0811V97.763ZM51.5659 100.293L51.5842 100.3C51.617 100.343 51.617 100.81 51.5092 100.915C51.4773 100.934 51.4422 100.942 51.4075 100.936C51.3728 100.931 51.3399 100.913 51.3123 100.884C51.2467 100.816 51.2092 100.716 51.2373 100.567C51.2654 100.418 51.5467 100.256 51.5842 100.3L51.5659 100.293ZM52.0347 99.2297L52.0529 99.2366C52.0904 99.2801 52.0904 99.7464 51.9779 99.8521C51.9461 99.8711 51.9109 99.8783 51.8762 99.8728C51.8415 99.8674 51.8086 99.8494 51.7811 99.821C51.7154 99.7526 51.6779 99.6531 51.7061 99.5039C51.7342 99.3547 52.0154 99.193 52.0529 99.2366L52.0347 99.2297ZM50.7221 99.1862L50.7404 99.193C50.7779 99.2366 50.7779 99.7029 50.6654 99.8086C50.6336 99.8276 50.5984 99.8348 50.5637 99.8293C50.529 99.8238 50.4961 99.8059 50.4686 99.7775C50.4029 99.7091 50.3654 99.6096 50.3936 99.4604C50.4217 99.3112 50.7029 99.1495 50.7404 99.193L50.7221 99.1862ZM49.3956 98.9313L49.4139 98.9381C49.4514 98.9816 49.4514 99.448 49.3389 99.5537C49.307 99.5727 49.2719 99.5799 49.2372 99.5744C49.2025 99.5689 49.1696 99.551 49.142 99.5226C49.0764 99.4542 49.0389 99.3547 49.067 99.2055C49.0951 99.0562 49.3764 98.8946 49.4139 98.9381L49.3956 98.9313ZM59.8525 91.9501L61.0806 95.1646L60.2415 94.7854V99.4424L59.4025 99.0569L59.4071 94.4372L58.5728 94.0766L59.8525 91.9501ZM45.842 84.8745L45.9873 95.3636L54.1389 99.0817L54.0686 88.4558L45.842 84.8745ZM57.0826 90.7253L58.3107 93.9398L57.4717 93.5605V98.2175L56.6326 97.832L56.642 93.2123L55.8029 92.8517L57.0826 90.7253ZM47.6654 86.9823L48.3311 87.2745L48.6404 88.7605L48.2936 88.7294L49.2826 91.9004L48.7717 89.289L49.0623 89.2828L48.767 87.461L52.2029 88.9657V91.4714C52.2029 92.4227 51.4248 93.6227 50.3279 93.0258L50.3326 95.5439L51.9076 96.8869L48.0967 95.1336L49.6295 95.233L49.6014 92.7398C48.5139 92.3108 47.7264 90.576 47.7264 89.5191L47.6654 86.9823Z" fill="#322214"/>
<path d="M66.2972 62.1628C66.1097 62.169 65.9691 62.4986 65.9644 62.797L65.9222 62.8219L18.5334 45.3877C18.5287 45.2695 18.6319 45.1949 18.6413 45.1203C18.6459 45.1141 18.6459 45.1079 18.6413 45.1017C18.6084 44.9089 18.3319 44.1815 18.2428 44.1069L0 30.3491L0.154688 29.8828L49.2122 46.5765H49.2169L65.4305 60.5095C66.0352 61.0132 66.082 61.5603 66.0867 62.0577C66.0867 62.064 66.0867 62.0764 66.0914 62.0826C66.1102 62.2007 66.2227 62.1572 66.2977 62.1634L66.2972 62.1628Z" fill="url(#paint10_linear_703_23)"/>
<path d="M101.673 39.9348C101.317 40.4073 101.153 40.9855 101.223 41.2218L66.7098 62.8834L66.6395 62.8087C66.6348 62.4481 66.4613 62.2056 66.3301 62.1683C66.4004 62.1808 66.466 62.2119 66.4848 62.0937C66.4941 62.0191 66.5082 61.9321 66.5316 61.8388C66.5504 61.758 66.5785 61.6709 66.6113 61.5777C66.7098 61.2792 66.8598 60.9559 67.052 60.6699C67.0801 60.6326 67.1082 60.5891 67.1363 60.5518L85.853 37.3358L119.794 18.1992L120 18.5785L101.673 39.9354V39.9348Z" fill="#CD9C6B"/>
<path d="M44.9979 67.8569C45.0495 67.8755 45.0682 67.8817 45.0682 67.8258L44.8901 55.1798C44.876 54.7507 44.7963 53.9051 44.4073 53.5632L27.1254 39.6363L19.0254 36.8633L36.589 50.7845C37.0296 51.17 37.0671 51.8913 37.0859 52.426L37.339 64.7232C37.339 64.7854 37.3484 64.7978 37.3812 64.8164L44.9984 67.8569H44.9979Z" fill="url(#paint11_linear_703_23)"/>
<path d="M66.2971 62.1618C66.1049 62.168 65.9643 62.5162 65.9643 62.8209C65.9596 62.8457 65.9268 62.8395 65.9221 62.8209C65.8846 62.1431 65.6737 61.3846 65.3971 61.1172L49.0527 47.14L49.2121 46.5742H49.2168L65.4304 60.5079C66.0351 61.0115 66.082 61.5587 66.0866 62.0561C66.0866 62.0623 66.0866 62.0747 66.0913 62.081C66.1101 62.1991 66.2226 62.1556 66.2976 62.1618H66.2971Z" fill="#D4A271"/>
<path d="M49.2122 46.5804L49.0528 47.14L0 30.3468L0.154688 29.8867L49.2122 46.5804Z" fill="#DEB37E"/>
<path d="M101.227 41.2206L99.3521 91.0032C99.324 91.3203 99.2115 91.4136 98.9724 91.6312L66.1238 119.211C66.077 119.255 66.0254 119.28 65.9785 119.298L66.302 62.1547C66.3863 62.161 66.466 62.2169 66.4848 62.0863C66.4848 62.0677 66.4895 62.0553 66.4895 62.0366L101.218 41.1641C101.218 41.1952 101.222 41.2076 101.227 41.22V41.2206Z" fill="#DBAD77"/>
<path opacity="0.54" d="M99.3521 90.9863V91.0112C99.324 91.3283 99.2115 91.4216 98.9724 91.6392L66.1238 119.219C66.077 119.263 66.0254 119.288 65.9785 119.306V119.145L99.3521 90.9863Z" fill="url(#paint12_linear_703_23)"/>
<path d="M98.7383 69.3242L97.9883 89.593L87.0664 98.6148L87.6289 77.5184L98.7383 69.3242ZM92.8977 83.9978L87.4695 88.2314L87.2117 98.2106L92.6164 93.7526L92.8977 83.9972V83.9978ZM90.3055 88.2811L90.2961 88.6169C90.9444 88.1878 91.557 88.4863 91.8148 89.9101C91.6367 89.5806 91.3133 89.7112 91.0977 90.3827C90.9992 90.1029 90.4977 90.3329 90.4227 90.9174C90.3828 90.8223 90.3111 90.7874 90.2286 90.7999L90.1091 94.648C90.0997 94.9775 90.0856 95.3319 89.7716 95.5868C89.6262 95.6739 89.2419 95.7423 89.2934 95.0272L89.4762 94.8407C89.4622 95.2946 89.5512 95.4314 89.7387 95.2821C89.9637 95.1018 89.9216 94.8158 89.9309 94.5485L90.0317 90.9025C89.9591 90.9657 89.8967 91.0474 89.848 91.1428C89.7994 91.2382 89.7654 91.3454 89.7481 91.4583C89.6919 91.2345 89.1481 91.3713 89.0825 92.0117C88.9278 91.7381 88.5059 92.0055 88.3466 92.6956C88.64 90.9031 89.3675 89.4152 90.0917 88.7748L90.0997 88.4801L90.3059 88.2811H90.3055ZM98.2273 79.8189L93.0523 83.879L92.7664 93.6593L97.8852 89.3878L98.2273 79.8189ZM96.6289 83.1143L96.7789 83.3008L95.6511 86.6944L96.582 88.3992L96.432 88.822L95.5039 87.1371L94.3883 90.4946L94.2336 90.308L95.3698 86.894L94.407 85.1474L94.5758 84.7246L95.518 86.45L96.6289 83.1143ZM93.4789 87.0127L94.0648 87.9578L93.4414 89.736V88.9526L93.1789 89.164L93.193 88.1505L93.4555 87.9454L93.4789 87.0127ZM94.4914 85.7816L94.3695 89.5308L94.1586 89.7174L94.2758 85.9806L94.4914 85.7816ZM95.4805 87.7402L95.982 88.6169L94.9039 89.4873L95.4805 87.7402ZM89.7383 88.0137C89.7617 88.0137 89.7477 88.4428 89.668 88.6542C89.6398 88.7288 89.5883 88.8096 89.5461 88.8158C89.5039 88.822 89.4852 88.7599 89.5086 88.5982C89.532 88.4365 89.7148 88.0137 89.7383 88.0137ZM94.7258 86.2915L95.2227 87.106L94.6414 88.6293L94.7258 86.2915ZM91.1633 87.2365C91.182 87.2428 91.168 87.6718 91.093 87.877C91.0648 87.9516 91.0133 88.0324 90.9711 88.0386C90.9289 88.0448 90.9102 87.9827 90.9336 87.821C90.957 87.6593 91.1398 87.2365 91.1633 87.2365ZM93.2445 73.6573L87.7602 77.736L87.4742 87.9143L92.9164 83.6614L93.2445 73.6573ZM96.8586 83.8728L96.7273 87.6158L96.5398 87.7775L96.6664 84.0407L96.8586 83.8728ZM90.6477 86.9568C90.6711 86.9568 90.657 87.3858 90.5773 87.5972C90.5492 87.6718 90.4977 87.7526 90.4555 87.7588C90.4133 87.765 90.3945 87.7029 90.418 87.5412C90.4414 87.3796 90.6242 86.9568 90.6477 86.9568ZM96.3758 84.9609L96.3008 87.3485L95.8133 86.5775L96.3758 84.9609ZM97.5383 83.8231L97.5102 84.7433L97.782 84.5443L97.7492 85.564L97.4867 85.7692L97.4773 86.6086L96.9102 85.707L97.5383 83.8231ZM91.5242 85.7257C91.5477 85.7257 91.5336 86.1547 91.4539 86.3661C91.4258 86.4407 91.3742 86.5215 91.332 86.5277C91.2898 86.534 91.2711 86.4718 91.2945 86.3101C91.318 86.1485 91.5008 85.7257 91.5242 85.7257ZM96.1086 84.2832L95.5273 86.049L95.0258 85.1474L96.1086 84.2832ZM91.9695 75.821L91.8992 78.3827C91.8711 79.2531 91.3461 80.8324 90.5633 81.4915L90.4789 83.9101L91.5242 83.6117L88.9789 85.564L90.0383 84.2272L90.0945 81.8521C89.4148 82.3682 88.8711 81.4106 88.9039 80.4407L88.9648 78.0904L89.4242 77.7609L89.5742 78.8925L89.3258 79.1599L89.8742 81.2676L89.6633 79.3464L89.8508 79.0604L89.7055 77.5495L91.9695 75.821ZM98.6258 69.6911L93.3758 73.5833L93.0477 83.5874L98.2508 79.4589L98.6258 69.6911ZM97.257 78.3149L97.1914 79.5025L94.1164 81.9149L94.1586 80.7149L97.257 78.3149ZM95.082 73.1854L95.7617 75.0879L95.2508 75.4672L95.0961 79.7387L94.6086 80.1118L94.7023 75.8403L94.2102 76.232L95.082 73.1854ZM96.7883 71.9294L97.4492 73.8009L96.9055 74.205L96.793 78.4455L96.2727 78.831L96.4367 74.5595L95.9258 74.9449L96.7883 71.9294Z" fill="#322214"/>
<path d="M86.1247 37.8268L67.5674 60.707C67.0424 61.3723 66.6955 62.3671 66.7096 62.8831C66.7002 62.908 66.6533 62.9267 66.6346 62.8831C66.658 62.4852 66.4658 62.2116 66.3252 62.1681C66.3955 62.1806 66.4611 62.2116 66.4799 62.0935C66.4893 62.0189 66.5033 61.9318 66.5268 61.8386C66.5455 61.7578 66.5736 61.6707 66.6064 61.5774C66.7189 61.2417 66.9018 60.8562 67.1268 60.5578L85.8435 37.3418L86.1247 37.8268Z" fill="#D7AA77"/>
<path d="M82.0327 65.5809C82.0327 65.6493 82.0561 65.6804 82.0889 65.6617L87.6624 61.869C87.6718 61.8627 87.6764 61.8503 87.6811 61.8254L87.9905 49.7079C87.9999 49.0426 88.2811 48.3836 88.6655 47.9297L107.175 25.8652L101.541 29.0673L82.9369 51.4246C82.4588 52.0464 82.2947 52.7801 82.2854 53.4018L82.0322 65.5821L82.0327 65.5809Z" fill="url(#paint13_linear_703_23)"/>
<path d="M86.1252 37.8273L119.996 18.5781L119.789 18.2051L85.8486 37.3361L86.1252 37.8273Z" fill="#F8CE93"/>
</g>
<defs>
<linearGradient id="paint0_linear_703_23" x1="82.3258" y1="105.345" x2="82.5779" y2="105.645" gradientUnits="userSpaceOnUse">
<stop/>
<stop offset="1" stop-opacity="0"/>
</linearGradient>
<linearGradient id="paint1_linear_703_23" x1="43.3871" y1="108.231" x2="43.3506" y2="108.305" gradientUnits="userSpaceOnUse">
<stop/>
<stop offset="1" stop-opacity="0"/>
</linearGradient>
<linearGradient id="paint2_linear_703_23" x1="51.2271" y1="39.1134" x2="54.3955" y2="40.1035" gradientUnits="userSpaceOnUse">
<stop stop-color="#C37A44"/>
<stop offset="0.4442" stop-color="#BB713D"/>
<stop offset="0.6406" stop-color="#A05728"/>
<stop offset="1" stop-color="#964E23"/>
</linearGradient>
<linearGradient id="paint3_linear_703_23" x1="36.7735" y1="24.5414" x2="27.753" y2="14.9958" gradientUnits="userSpaceOnUse">
<stop stop-color="#E9B880"/>
<stop offset="1" stop-color="#E4AF76"/>
</linearGradient>
<linearGradient id="paint4_linear_703_23" x1="42.0427" y1="33.5765" x2="41.8458" y2="33.1678" gradientUnits="userSpaceOnUse">
<stop stop-color="#C37A45" stop-opacity="0"/>
<stop offset="0.1334" stop-color="#C37A45"/>
<stop offset="0.2945" stop-color="#D08D55"/>
<stop offset="0.5021" stop-color="#DEA167"/>
<stop offset="0.6966" stop-color="#E8AF73"/>
<stop offset="0.8631" stop-color="#ECB477"/>
<stop offset="1" stop-color="#ECB477" stop-opacity="0"/>
</linearGradient>
<linearGradient id="paint5_linear_703_23" x1="70.6664" y1="37.5369" x2="61.4255" y2="53.5488" gradientUnits="userSpaceOnUse">
<stop offset="0.0881" stop-color="#AF6938"/>
<stop offset="0.4829" stop-color="#9A5227"/>
<stop offset="0.7792" stop-color="#8D4520"/>
</linearGradient>
<linearGradient id="paint6_linear_703_23" x1="79.5165" y1="22.3437" x2="84.5909" y2="15.4652" gradientUnits="userSpaceOnUse">
<stop offset="0.0327" stop-color="#E4AF76"/>
<stop offset="1" stop-color="#E9B880"/>
</linearGradient>
<linearGradient id="paint7_linear_703_23" x1="72.276" y1="32.0549" x2="72.3444" y2="31.8262" gradientUnits="userSpaceOnUse">
<stop stop-color="#AF6A38" stop-opacity="0"/>
<stop offset="0.086" stop-color="#AF6A38"/>
<stop offset="0.1977" stop-color="#B87542"/>
<stop offset="0.5828" stop-color="#D59C66"/>
<stop offset="0.7771" stop-color="#E4AF76"/>
<stop offset="0.9239" stop-color="#E4AF76" stop-opacity="0"/>
</linearGradient>
<linearGradient id="paint8_linear_703_23" x1="55.2777" y1="40.3618" x2="56.6369" y2="40.3618" gradientUnits="userSpaceOnUse">
<stop stop-color="#743F1A" stop-opacity="0"/>
<stop offset="0.4929" stop-color="#743F1A" stop-opacity="0.887"/>
<stop offset="0.5" stop-color="#743F1A" stop-opacity="0.9"/>
<stop offset="0.5297" stop-color="#743F1A" stop-opacity="0.847"/>
<stop offset="1" stop-color="#743F1A" stop-opacity="0"/>
</linearGradient>
<linearGradient id="paint9_linear_703_23" x1="43.1927" y1="107.936" x2="43.2105" y2="107.9" gradientUnits="userSpaceOnUse">
<stop stop-color="#322214"/>
<stop offset="0.2397" stop-color="#322314" stop-opacity="0.989"/>
<stop offset="1" stop-color="#322214" stop-opacity="0"/>
</linearGradient>
<linearGradient id="paint10_linear_703_23" x1="34.0637" y1="45.7713" x2="33.4458" y2="47.3258" gradientUnits="userSpaceOnUse">
<stop offset="0.0476" stop-color="#C69866"/>
<stop offset="0.4156" stop-color="#BA8C5E"/>
<stop offset="0.8135" stop-color="#B5875B"/>
</linearGradient>
<linearGradient id="paint11_linear_703_23" x1="35.4425" y1="51.3881" x2="23.8264" y2="41.662" gradientUnits="userSpaceOnUse">
<stop stop-color="#845F35"/>
<stop offset="0.4311" stop-color="#91673C"/>
<stop offset="0.4407" stop-color="#976A40"/>
<stop offset="0.8737" stop-color="#986B40"/>
<stop offset="1" stop-color="#AB8157"/>
</linearGradient>
<linearGradient id="paint12_linear_703_23" x1="82.665" y1="105.147" x2="82.6954" y2="105.184" gradientUnits="userSpaceOnUse">
<stop stop-color="#322214" stop-opacity="0"/>
<stop offset="1" stop-color="#322214"/>
</linearGradient>
<linearGradient id="paint13_linear_703_23" x1="93.5114" y1="50.7903" x2="96.4303" y2="39.6618" gradientUnits="userSpaceOnUse">
<stop stop-color="#A9794B"/>
<stop offset="0.3857" stop-color="#AE7F53"/>
<stop offset="0.4557" stop-color="#AC7D50"/>
<stop offset="0.6236" stop-color="#A9794B"/>
<stop offset="1" stop-color="#B2875D"/>
</linearGradient>
<clipPath id="clip0_703_23">
<rect width="120" height="120" fill="white"/>
</clipPath>
</defs>
</svg>
