<svg width="140" height="140" viewBox="0 0 140 140" fill="none" xmlns="http://www.w3.org/2000/svg">
<path d="M139.537 13.3157L73.7721 130.457C72.4142 132.876 68.9257 132.89 67.5476 130.483L0.478827 13.3265C-1.02289 10.7041 1.22859 7.52717 4.21234 8.05884L70.0479 19.7802C70.4679 19.8549 70.898 19.8542 71.3177 19.778L135.776 8.07518C138.75 7.53534 141.012 10.6878 139.537 13.3157V13.3157Z" fill="url(#paint0_linear_1081_127)"/>
<path d="M101.408 12.0344L52.7404 21.5337C52.3516 21.6096 51.9991 21.812 51.7383 22.1092C51.4776 22.4064 51.3234 22.7815 51.3 23.1755L48.3064 73.5407C48.2899 73.8169 48.3383 74.0932 48.4477 74.3475C48.5572 74.6018 48.7246 74.8273 48.9368 75.0059C49.149 75.1845 49.4 75.3114 49.67 75.3765C49.94 75.4416 50.2215 75.4431 50.4922 75.3808L64.0421 72.266C65.3098 71.9745 66.4555 73.0869 66.1946 74.3567L62.1691 93.9932C61.8984 95.3148 63.1436 96.4446 64.4392 96.0524L72.8086 93.5198C74.1057 93.1276 75.3526 94.2607 75.0781 95.5833L68.6807 126.427C68.2804 128.357 70.8568 129.409 71.9308 127.755L72.6489 126.65L112.306 47.8145C112.971 46.4945 111.825 44.9894 110.37 45.2694L96.4221 47.9506C95.1118 48.2023 93.9967 46.9864 94.3664 45.7096L103.47 14.2749C103.84 12.9948 102.72 11.7783 101.408 12.0344H101.408Z" fill="url(#paint1_linear_1081_127)"/>
<defs>
<linearGradient id="paint0_linear_1081_127" x1="-1.15871" y1="17.5099" x2="69.4101" y2="113.723" gradientUnits="userSpaceOnUse">
<stop stop-color="#41D1FF"/>
<stop offset="1" stop-color="#BD34FE"/>
</linearGradient>
<linearGradient id="paint1_linear_1081_127" x1="76.149" y1="14.6136" x2="90.6291" y2="114.332" gradientUnits="userSpaceOnUse">
<stop stop-color="#FFEA83"/>
<stop offset="0.08333" stop-color="#FFDD35"/>
<stop offset="1" stop-color="#FFA800"/>
</linearGradient>
</defs>
</svg>
