<svg width="140" height="140" viewBox="0 0 140 140" fill="none" xmlns="http://www.w3.org/2000/svg">
<path d="M25.8214 119.004L15.9951 8.75H124.005L114.166 118.987L69.9345 131.25L25.8214 119.004Z" fill="#1572B6"/>
<path d="M70 121.879L105.744 111.97L114.152 17.7676H70V121.879Z" fill="#33A9DC"/>
<path d="M70 57.7098H87.8938L89.1275 43.863H70V30.3398H103.906L103.583 33.9667L100.262 71.233H70V57.7098V57.7098Z" fill="white"/>
<path d="M70.0829 92.8278L70.0217 92.8453L54.9629 88.7766L54.0004 77.9922H40.4248L42.3192 99.2241L70.0173 106.915L70.0829 106.898V92.8278V92.8278Z" fill="#EBEBEB"/>
<path d="M86.7433 70.6602L85.1158 88.7683L70.0352 92.837V106.907L97.7552 99.2245L97.9608 96.9408L100.31 70.6602H86.7433V70.6602Z" fill="white"/>
<path d="M70.048 30.3398V43.863H37.3842L37.113 40.8223L36.4961 33.9667L36.1724 30.3398H70.048V30.3398ZM69.9999 57.7098V71.233H55.1292L54.858 68.1923L54.2455 61.3367L53.9217 57.7098H69.9999V57.7098Z" fill="#EBEBEB"/>
</svg>
