<svg width="140" height="140" viewBox="0 0 140 140" fill="none" xmlns="http://www.w3.org/2000/svg">
<path d="M97.0052 97.3878C102.172 96.8266 106.091 92.1539 105.913 86.5458C105.735 80.9384 101.281 76.4521 95.9361 76.4521H95.5801C90.0566 76.6391 85.7812 81.4989 85.9594 87.2934C86.1377 90.0975 87.2063 92.5274 88.8098 94.2097C82.7526 106.734 73.4885 115.893 59.5924 123.557C50.1501 128.791 40.3517 130.66 30.5534 129.352C22.5362 128.23 16.3007 124.492 12.3807 118.323C6.68007 109.164 6.14578 99.2566 10.9561 89.3498C14.3412 82.2466 19.6853 77.0126 23.0705 74.3957C22.3579 71.9657 21.2887 67.8535 20.7544 64.863C-5.07829 84.49 -2.40571 111.033 5.4332 123.557C11.3121 132.904 23.2487 138.698 36.4323 138.698C39.9951 138.698 43.558 138.324 47.1215 137.39C69.9256 132.717 87.2069 118.51 97.0052 97.3878V97.3878ZM128.361 74.2092C114.821 57.5727 94.8675 48.4136 72.0633 48.4136H69.213C67.6096 45.049 64.2244 42.8056 60.4833 42.8056H60.1267C54.6044 42.9926 50.3289 47.8525 50.5066 53.6475C50.6849 59.255 55.1387 63.7413 60.4833 63.7413H60.8393C64.7587 63.5543 68.1439 60.9373 69.5691 57.3857H72.7759C86.316 57.3857 99.143 61.4979 110.724 69.5358C119.631 75.7044 126.045 83.7424 129.608 93.4621C132.636 101.313 132.458 108.977 129.251 115.52C124.263 125.426 115.89 130.847 104.844 130.847C97.7178 130.847 90.948 128.604 87.3846 126.921C85.4251 128.791 81.8617 131.781 79.3674 133.651C87.0286 137.389 94.8675 139.446 102.35 139.446C119.453 139.446 132.102 129.538 136.912 119.632C142.079 108.79 141.722 90.0975 128.361 74.2092V74.2092ZM37.8574 100.565C38.0357 106.173 42.4894 110.659 47.8341 110.659H48.1906C53.7135 110.472 57.989 105.612 57.8107 99.8171C57.633 94.2091 53.1787 89.7234 47.8341 89.7234H47.478C47.1215 89.7234 46.5866 89.7234 46.2312 89.9098C38.9266 77.1991 35.898 63.3672 36.9671 48.413C37.6791 37.1975 41.2426 27.4773 47.478 19.4393C52.6444 12.5231 62.621 9.15853 69.3913 8.97205C88.2755 8.59795 96.2921 33.2718 96.8269 43.1791C99.143 43.7397 103.062 45.0484 105.735 45.9831C103.597 15.7018 85.7812 0 68.6787 0C52.6444 0 37.8574 12.1502 31.978 30.0948C23.783 54.0211 29.1276 77.0126 39.1043 95.1443C38.214 96.4525 37.6791 98.5089 37.8574 100.565V100.565Z" fill="#764ABC"/>
<path d="M97.0052 97.3878C102.172 96.8266 106.091 92.1539 105.913 86.5458C105.735 80.9384 101.281 76.4521 95.9361 76.4521H95.5801C90.0566 76.6391 85.7812 81.4989 85.9594 87.2934C86.1377 90.0975 87.2063 92.5274 88.8098 94.2097C82.7526 106.734 73.4885 115.893 59.5924 123.557C50.1501 128.791 40.3517 130.66 30.5534 129.352C22.5362 128.23 16.3007 124.492 12.3807 118.323C6.68007 109.164 6.14578 99.2566 10.9561 89.3498C14.3412 82.2466 19.6853 77.0126 23.0705 74.3957C22.3579 71.9657 21.2887 67.8535 20.7544 64.863C-5.07829 84.49 -2.40571 111.033 5.4332 123.557C11.3121 132.904 23.2487 138.698 36.4323 138.698C39.9951 138.698 43.558 138.324 47.1215 137.39C69.9256 132.717 87.2069 118.51 97.0052 97.3878V97.3878ZM128.361 74.2092C114.821 57.5727 94.8675 48.4136 72.0633 48.4136H69.213C67.6096 45.049 64.2244 42.8056 60.4833 42.8056H60.1267C54.6044 42.9926 50.3289 47.8525 50.5066 53.6475C50.6849 59.255 55.1387 63.7413 60.4833 63.7413H60.8393C64.7587 63.5543 68.1439 60.9373 69.5691 57.3857H72.7759C86.316 57.3857 99.143 61.4979 110.724 69.5358C119.631 75.7044 126.045 83.7424 129.608 93.4621C132.636 101.313 132.458 108.977 129.251 115.52C124.263 125.426 115.89 130.847 104.844 130.847C97.7178 130.847 90.948 128.604 87.3846 126.921C85.4251 128.791 81.8617 131.781 79.3674 133.651C87.0286 137.389 94.8675 139.446 102.35 139.446C119.453 139.446 132.102 129.538 136.912 119.632C142.079 108.79 141.722 90.0975 128.361 74.2092V74.2092ZM37.8574 100.565C38.0357 106.173 42.4894 110.659 47.8341 110.659H48.1906C53.7135 110.472 57.989 105.612 57.8107 99.8171C57.633 94.2091 53.1787 89.7234 47.8341 89.7234H47.478C47.1215 89.7234 46.5866 89.7234 46.2312 89.9098C38.9266 77.1991 35.898 63.3672 36.9671 48.413C37.6791 37.1975 41.2426 27.4773 47.478 19.4393C52.6444 12.5231 62.621 9.15853 69.3913 8.97205C88.2755 8.59795 96.2921 33.2718 96.8269 43.1791C99.143 43.7397 103.062 45.0484 105.735 45.9831C103.597 15.7018 85.7812 0 68.6787 0C52.6444 0 37.8574 12.1502 31.978 30.0948C23.783 54.0211 29.1276 77.0126 39.1043 95.1443C38.214 96.4525 37.6791 98.5089 37.8574 100.565V100.565Z" fill="#764ABC"/>
</svg>
