<svg width="120" height="120" viewBox="0 0 120 120" fill="none" xmlns="http://www.w3.org/2000/svg">
<path d="M60.375 69.2773C65.5527 69.2773 69.75 65.08 69.75 59.9023C69.75 54.7247 65.5527 50.5273 60.375 50.5273C55.1973 50.5273 51 54.7247 51 59.9023C51 65.08 55.1973 69.2773 60.375 69.2773Z" fill="#00D8FF"/>
<path d="M60 81.3968C48.7318 81.6694 37.4917 80.1504 26.7 76.8968C21.7148 75.3165 17.0653 72.8271 12.9863 69.5543C11.4297 68.4363 10.1335 66.9947 9.18653 65.3286C8.23955 63.6625 7.66421 61.8112 7.5 59.9018C7.5 53.703 14.31 47.628 25.7175 43.653C36.7977 40.1309 48.3747 38.4238 60 38.598C71.4701 38.4378 82.892 40.114 93.8325 43.563C98.6336 45.0936 103.125 47.4627 107.1 50.5605C108.63 51.6264 109.907 53.0158 110.84 54.63C111.773 56.2443 112.34 58.0441 112.5 59.9018C112.5 66.3443 104.888 72.873 92.625 76.9305C82.0422 80.0782 71.0394 81.5844 60 81.3968ZM60 43.083C48.8779 42.9344 37.8031 44.5572 27.1912 47.8905C16.6912 51.5543 11.985 56.5643 11.985 59.8905C11.985 63.3705 17.0438 68.8418 28.1512 72.6405C38.4753 75.7375 49.2248 77.1791 60 76.9118C70.5615 77.1007 81.0897 75.6716 91.2188 72.6743C102.75 68.853 108 63.3743 108 59.9018C107.811 58.7101 107.377 57.5707 106.725 56.5554C106.073 55.5401 105.217 54.671 104.213 54.003C100.657 51.2548 96.6439 49.1552 92.3587 47.8005C81.8926 44.5146 70.9687 42.9221 60 43.083Z" fill="#00D8FF"/>
<path d="M39.4251 106.662C37.6757 106.702 35.947 106.277 34.4151 105.432C29.0451 102.334 27.1851 93.4018 29.4389 81.533C31.9238 70.1746 36.2294 59.2929 42.1889 49.3093C47.7791 39.2934 54.9358 30.2364 63.3876 22.4818C67.1119 19.0869 71.4084 16.3788 76.0776 14.483C77.7664 13.6915 79.6087 13.2813 81.4739 13.2812C83.339 13.2813 85.1812 13.6915 86.8701 14.483C92.4538 17.7005 94.3026 27.5555 91.6964 40.2043C89.1347 50.9464 84.941 61.2322 79.2614 70.703C73.8679 80.6006 66.9365 89.5787 58.7263 97.3018C54.8668 100.83 50.3876 103.613 45.5151 105.511C43.5644 106.235 41.5054 106.624 39.4251 106.662ZM46.0739 51.5368C40.3892 61.0967 36.2626 71.5007 33.8489 82.358C31.7751 93.2893 33.7664 99.863 36.6614 101.536C39.6614 103.272 46.9438 101.626 55.7863 93.9005C63.624 86.5016 70.2397 77.9075 75.3876 68.438C80.8286 59.3837 84.8515 49.5498 87.3163 39.278C89.7688 27.3718 87.6501 20.0818 84.6426 18.3493C83.5154 17.9174 82.3108 17.724 81.1051 17.7815C79.8993 17.8389 78.7186 18.1459 77.6376 18.683C73.4814 20.3981 69.6603 22.8329 66.3501 25.8755C58.2751 33.3035 51.4389 41.974 46.1001 51.5593L46.0739 51.5368Z" fill="#00D8FF"/>
<path d="M81.9542 106.709C76.873 106.709 70.4192 103.634 63.6992 97.8557C55.0993 90.0305 47.8216 80.8659 42.148 70.7169C36.2632 60.8708 31.9917 50.1465 29.4955 38.9507C28.4129 34.025 28.2123 28.9464 28.903 23.9507C29.0626 22.0975 29.6269 20.3018 30.5561 18.6904C31.4852 17.079 32.7566 15.6911 34.2805 14.6244C39.8567 11.3957 49.318 14.7144 58.9742 23.2869C67.0014 30.8701 73.8182 39.6396 79.1867 49.2894C85.0678 58.9057 89.3841 69.3952 91.9742 80.3657C93.1034 85.4721 93.2776 90.7434 92.488 95.9132C92.3001 97.8197 91.7021 99.6631 90.7351 101.317C89.7681 102.971 88.4549 104.396 86.8855 105.494C85.3786 106.33 83.6766 106.749 81.9542 106.709ZM46.0292 68.4594C51.4721 78.1586 58.424 86.9295 66.6242 94.4432C75.058 101.699 81.748 103.259 84.6242 101.568C87.6242 99.8244 89.8367 92.7069 87.5567 81.1907C85.0587 70.7167 80.9188 60.7041 75.2905 51.5244C70.1673 42.2886 63.6607 33.8914 55.9967 26.6244C46.9067 18.5544 39.5342 16.7507 36.5305 18.4907C35.5942 19.2515 34.826 20.1981 34.2741 21.2709C33.7222 22.3436 33.3988 23.5191 33.3242 24.7232C32.728 29.1785 32.9222 33.7041 33.898 38.0919C36.2991 48.7987 40.3957 59.053 46.033 68.4669L46.0292 68.4594Z" fill="#00D8FF"/>
</svg>
