<svg width="140" height="140" viewBox="0 0 140 140" fill="none" xmlns="http://www.w3.org/2000/svg">
<g clip-path="url(#clip0_1086_102)">
<path d="M70.0831 0.000643561C81.4455 0.000643561 92.1441 2.65517 102.18 7.79744L103.507 8.46135L102.346 9.37353C99.5263 11.613 97.2869 14.5158 95.8765 17.8331L95.462 18.7453L94.6329 18.3308C86.9192 14.6815 78.7084 12.774 70.1657 12.774C38.5662 12.774 12.9385 38.4848 12.9385 70.0012C12.9385 101.518 38.483 127.229 70.0831 127.229C101.683 127.229 127.31 101.518 127.31 70.0012C127.31 62.4543 125.9 55.0726 122.915 48.1054L122.5 47.1932L123.412 46.7787C126.813 45.5346 129.799 43.4613 132.204 40.8068L133.116 39.6458L133.697 40.9731C137.927 50.1792 140 59.966 140 69.8355C140 108.402 108.566 139.835 70 139.835C31.4338 139.835 0 108.402 0 69.836C0 31.2704 31.4338 -0.163966 70.0831 0.000643561ZM70.0831 38.1528C87.5831 38.1528 101.931 52.4186 102.014 70.0843C102.014 87.75 87.7488 102.016 70.0831 102.016C52.4169 102.016 38.1516 87.75 38.1516 70.0843C38.1516 52.4186 52.5 38.1528 70.0831 38.1528ZM115.782 11.7787C123.844 11.7787 130.379 18.3138 130.379 26.3759C130.379 34.4374 123.844 40.9731 115.782 40.9731C107.72 40.9731 101.185 34.4379 101.185 26.3759C101.185 18.3138 107.72 11.7787 115.782 11.7787Z" fill="#3880FF"/>
</g>
<defs>
<clipPath id="clip0_1086_102">
<rect width="140" height="140" fill="white"/>
</clipPath>
</defs>
</svg>
