<svg width="87" height="87" viewBox="0 0 87 87" fill="none" xmlns="http://www.w3.org/2000/svg">
<path d="M43.5 58L48.575 52.925L42.775 47.125H58V39.875H42.775L48.575 34.075L43.5 29L29 43.5L43.5 58ZM43.5 79.75C38.4854 79.75 33.7729 78.7978 29.3625 76.8935C24.9521 74.9892 21.1156 72.407 17.8531 69.1469C14.5906 65.8844 12.0084 62.0479 10.1065 57.6375C8.20458 53.2271 7.25242 48.5146 7.25 43.5C7.25 38.4854 8.20217 33.7729 10.1065 29.3625C12.0108 24.9521 14.593 21.1156 17.8531 17.8531C21.1156 14.5906 24.9521 12.0084 29.3625 10.1065C33.7729 8.20458 38.4854 7.25242 43.5 7.25C48.5146 7.25 53.2271 8.20217 57.6375 10.1065C62.0479 12.0108 65.8844 14.593 69.1469 17.8531C72.4094 21.1156 74.9928 24.9521 76.8971 29.3625C78.8015 33.7729 79.7524 38.4854 79.75 43.5C79.75 48.5146 78.7978 53.2271 76.8935 57.6375C74.9892 62.0479 72.407 65.8844 69.1469 69.1469C65.8844 72.4094 62.0479 74.9928 57.6375 76.8971C53.2271 78.8015 48.5146 79.7524 43.5 79.75Z" fill="#FFFBFB"/>
</svg>
