<svg width="140" height="140" viewBox="0 0 140 140" fill="none" xmlns="http://www.w3.org/2000/svg">
<g clip-path="url(#clip0_1081_186)">
<path d="M118.003 92.1252C118.593 91.7857 119.084 91.2969 119.426 90.7077C119.768 90.1176 119.949 89.4476 119.951 88.7652L120.021 66.2603C120.022 65.5779 120.203 64.9079 120.546 64.3177C120.889 63.7279 121.382 63.239 121.975 62.9002L134.167 55.8828C134.758 55.5445 135.428 55.3675 136.109 55.3694C136.792 55.3711 137.461 55.5521 138.052 55.8944C138.642 56.2342 139.133 56.723 139.475 57.3119C139.816 57.9026 139.995 58.5726 139.994 59.2544V100.169C139.994 100.854 139.813 101.526 139.47 102.118C139.127 102.709 138.633 103.201 138.04 103.541L91.9975 129.989C91.4097 130.326 90.7441 130.503 90.0667 130.503C89.3893 130.503 88.7237 130.326 88.1358 129.989L52.0042 109.328C51.4088 108.988 50.9138 108.497 50.5692 107.904C50.2249 107.311 50.0438 106.637 50.0442 105.95V85.3178C50.0442 85.2944 50.0675 85.2827 50.0908 85.2944C50.1142 85.3061 50.1375 85.2944 50.1375 85.2652V85.2419C50.1375 85.2244 50.1492 85.2127 50.1608 85.2011L79.9225 68.1094C79.9458 68.0919 79.9342 68.0511 79.905 68.0511C79.9005 68.0511 79.896 68.05 79.892 68.048C79.8879 68.046 79.8844 68.043 79.8817 68.0394C79.8791 68.0362 79.8773 68.0324 79.8762 68.0284C79.8752 68.0244 79.8751 68.0202 79.8758 68.0161L79.9342 47.7919C79.9369 47.1069 79.7587 46.4333 79.4176 45.8392C79.0765 45.2451 78.5846 44.7516 77.9917 44.4086C77.4002 44.0671 76.7292 43.8873 76.0463 43.8873C75.3633 43.8873 74.6923 44.0671 74.1008 44.4086L51.9867 57.1602C51.3966 57.4996 50.7278 57.6782 50.0471 57.6782C49.3664 57.6782 48.6976 57.4996 48.1075 57.1602L25.9175 44.3853C25.3265 44.0461 24.6568 43.8681 23.9755 43.869C23.2941 43.87 22.6249 44.0498 22.0348 44.3906C21.4448 44.7314 20.9546 45.2212 20.6133 45.8109C20.272 46.4007 20.0915 47.0697 20.09 47.7511V84.3086C20.0902 84.9901 19.9115 85.6597 19.5716 86.2504C19.2317 86.8411 18.7426 87.3321 18.1533 87.6744C17.5649 88.016 16.8971 88.197 16.2167 88.1994C15.5354 88.2013 14.8656 88.0243 14.2742 87.6861L1.96001 80.6452C1.36465 80.3055 0.86961 79.8145 0.525009 79.2219C0.179731 78.6265 -0.00142919 77.9502 8.49072e-06 77.2619L0.110842 13.3694C0.112957 12.6889 0.293529 12.0208 0.634534 11.4319C0.975539 10.8429 1.46505 10.3538 2.0542 10.0131C2.64336 9.67251 3.31155 9.49237 3.99208 9.49069C4.67261 9.48902 5.34168 9.66587 5.93251 10.0036L48.1075 34.2294C48.6976 34.5688 49.3664 34.7473 50.0471 34.7473C50.7278 34.7473 51.3966 34.5688 51.9867 34.2294L94.15 10.0036C94.7413 9.66511 95.4112 9.48808 96.0925 9.49025C96.7749 9.49162 97.4449 9.6727 98.035 10.0153C98.6261 10.3566 99.117 10.8475 99.4583 11.4386C99.7966 12.03 99.9736 12.6998 99.9717 13.3811V77.2911C99.9717 77.9736 99.7967 78.6444 99.4525 79.2394C99.1095 79.8312 98.6166 80.3222 98.0234 80.6627L75.9442 93.3794C75.3502 93.7216 74.8572 94.2146 74.515 94.8086C74.1735 95.401 73.9944 96.0731 73.9958 96.7569C73.9965 97.4412 74.1776 98.1133 74.5208 98.7052C74.8668 99.2987 75.364 99.7899 75.9617 100.129L88.1417 107.064C88.7288 107.397 89.392 107.572 90.0667 107.572C90.7465 107.571 91.4142 107.392 92.0033 107.053L118.003 92.1194V92.1252ZM120.558 34.7953C120.557 35.4816 120.738 36.1558 121.083 36.7494C121.43 37.3437 121.929 37.8349 122.529 38.1728C123.127 38.5104 123.803 38.684 124.49 38.6758C125.176 38.6676 125.848 38.4779 126.438 38.1261L138.11 31.1261C138.686 30.7809 139.162 30.2926 139.493 29.7086C139.825 29.1235 140 28.4623 140 27.7894V13.5328C139.999 12.8459 139.816 12.1717 139.469 11.5786C139.122 10.9854 138.624 10.4948 138.025 10.1567C137.427 9.81855 136.75 9.64497 136.063 9.65359C135.376 9.66129 134.704 9.85046 134.114 10.2019L122.448 17.2019C121.87 17.5463 121.391 18.0347 121.059 18.6194C120.729 19.2052 120.556 19.8663 120.558 20.5386V34.7953Z" fill="#0019F5"/>
</g>
<defs>
<clipPath id="clip0_1081_186">
<rect width="140" height="140" fill="white"/>
</clipPath>
</defs>
</svg>
