<svg width="189" height="189" viewBox="0 0 189 189" fill="none" xmlns="http://www.w3.org/2000/svg">
<g clip-path="url(#clip0_1079_102)">
<path d="M159.303 124.37C160.101 123.911 160.763 123.251 161.225 122.456C161.687 121.659 161.932 120.755 161.934 119.834L162.028 89.452C162.03 88.5308 162.274 87.6264 162.737 86.8296C163.201 86.0333 163.866 85.3733 164.666 84.916L181.125 75.4424C181.923 74.9858 182.828 74.7468 183.747 74.7494C184.669 74.7516 185.573 74.996 186.37 75.4582C187.167 75.9168 187.829 76.5767 188.291 77.3718C188.751 78.1692 188.993 79.0737 188.992 79.9941V135.229C188.991 136.153 188.747 137.06 188.284 137.859C187.821 138.659 187.155 139.321 186.354 139.781L124.197 175.486C123.403 175.941 122.504 176.18 121.59 176.18C120.676 176.18 119.777 175.941 118.983 175.486L70.2056 147.593C69.4019 147.134 68.7336 146.472 68.2684 145.672C67.8036 144.87 67.5591 143.96 67.5596 143.034V115.18C67.5596 115.148 67.5911 115.132 67.6226 115.148C67.6541 115.164 67.6856 115.148 67.6856 115.109V115.077C67.6856 115.054 67.7014 115.038 67.7171 115.022L107.895 91.9484C107.927 91.9248 107.911 91.8697 107.872 91.8697C107.866 91.8697 107.86 91.8682 107.854 91.8655C107.849 91.8628 107.844 91.8588 107.84 91.8539C107.837 91.8495 107.834 91.8444 107.833 91.839C107.832 91.8336 107.831 91.8279 107.832 91.8224L107.911 64.5198C107.915 63.595 107.674 62.6856 107.214 61.8836C106.753 61.0816 106.089 60.4154 105.289 59.9523C104.49 59.4913 103.584 59.2486 102.662 59.2486C101.74 59.2486 100.835 59.4913 100.036 59.9523L70.182 77.167C69.3854 77.6251 68.4825 77.8662 67.5636 77.8662C66.6446 77.8662 65.7418 77.6251 64.9451 77.167L34.9886 59.9208C34.1908 59.4629 33.2867 59.2226 32.3669 59.2239C31.447 59.2251 30.5436 59.4679 29.747 59.928C28.9505 60.3881 28.2887 61.0493 27.828 61.8454C27.3672 62.6416 27.1236 63.5448 27.1215 64.4647V113.817C27.1218 114.737 26.8805 115.641 26.4217 116.439C25.9628 117.236 25.3026 117.899 24.507 118.361C23.7126 118.822 22.811 119.067 21.8925 119.07C20.9728 119.072 20.0685 118.833 19.2701 118.377L2.64601 108.872C1.84227 108.413 1.17397 107.75 0.708761 106.95C0.242637 106.146 -0.0019294 105.233 1.14625e-05 104.304L0.149636 18.0494C0.152492 17.1307 0.396264 16.2288 0.856621 15.4337C1.31698 14.6387 1.97782 13.9783 2.77318 13.5184C3.56853 13.0586 4.47059 12.8154 5.38931 12.8131C6.30803 12.8109 7.21127 13.0496 8.00889 13.5055L64.9451 46.2104C65.7418 46.6685 66.6446 46.9096 67.5636 46.9096C68.4825 46.9096 69.3854 46.6685 70.182 46.2104L127.103 13.5055C127.901 13.0486 128.805 12.8096 129.725 12.8125C130.646 12.8144 131.551 13.0588 132.347 13.5213C133.145 13.9821 133.808 14.6448 134.269 15.4428C134.725 16.2412 134.964 17.1454 134.962 18.0652V104.344C134.962 105.265 134.726 106.171 134.261 106.974C133.798 107.773 133.132 108.436 132.332 108.895L102.525 126.063C101.723 126.525 101.057 127.19 100.595 127.992C100.134 128.792 99.8925 129.699 99.8944 130.623C99.8952 131.546 100.14 132.454 100.603 133.253C101.07 134.054 101.741 134.717 102.548 135.174L118.991 144.538C119.784 144.987 120.679 145.223 121.59 145.223C122.508 145.222 123.409 144.98 124.205 144.522L159.303 124.362V124.37ZM162.753 46.9743C162.752 47.9008 162.996 48.8111 163.461 49.6124C163.931 50.4146 164.605 51.0778 165.414 51.5339C166.221 51.9898 167.134 52.2241 168.061 52.213C168.988 52.202 169.895 51.9459 170.691 51.4709L186.449 42.0209C187.225 41.5549 187.868 40.8956 188.315 40.1073C188.763 39.3174 189 38.4247 189 37.5164V18.2699C188.998 17.3427 188.751 16.4325 188.283 15.6318C187.815 14.831 187.142 14.1687 186.334 13.7122C185.527 13.2557 184.612 13.0214 183.684 13.033C182.758 13.0434 181.85 13.2988 181.054 13.7733L165.304 23.2233C164.524 23.6882 163.878 24.3476 163.43 25.1369C162.984 25.9276 162.751 26.8202 162.753 27.7278V46.9743Z" fill="#0019F5"/>
</g>
<defs>
<clipPath id="clip0_1079_102">
<rect width="189" height="189" fill="white"/>
</clipPath>
</defs>
</svg>
