<svg width="189" height="189" viewBox="0 0 189 189" fill="none" xmlns="http://www.w3.org/2000/svg">
<g clip-path="url(#clip0_1054_110)">
<path d="M91.1254 0.00025431C89.7394 0.00025431 88.6841 0.0081293 88.306 0.0553792C87.3513 0.150839 86.3958 0.237468 85.4394 0.315254C58.6082 2.725 33.4623 17.2071 17.5384 39.4697C8.73194 51.688 3.00701 65.8525 0.850535 80.7583C0.0945039 85.9479 0 87.4835 0 94.5159C0 101.548 0.0945039 103.092 0.850535 108.281C5.98525 143.766 31.2493 173.581 65.4991 184.629C71.634 186.598 78.0996 187.953 85.4552 188.764C88.3139 189.079 100.694 189.079 103.561 188.764C116.248 187.362 127.005 184.22 137.606 178.81C139.236 177.975 139.551 177.755 139.33 177.566C139.173 177.463 132.243 168.171 123.934 156.933L108.821 136.521L89.889 108.502C83.5903 99.1271 77.2322 89.7924 70.8149 80.4984C70.7441 80.4826 70.6732 92.933 70.6338 108.14C70.5787 134.757 70.5551 135.82 70.2243 136.45C69.9032 137.188 69.3274 137.787 68.602 138.135C68.0113 138.427 67.4994 138.482 64.7037 138.482H61.4984L60.6479 137.946C60.1221 137.617 59.695 137.152 59.4115 136.6L59.0177 135.765L59.065 98.729L59.1201 61.6772L59.6871 60.9527C60.0743 60.4998 60.5381 60.1187 61.0574 59.8266C61.8135 59.4564 62.1127 59.4249 65.3101 59.4249C69.0745 59.4249 69.7045 59.5667 70.6811 60.6377C78.3449 72.0426 85.9447 83.4904 93.4801 94.9805C105.903 113.807 118.332 132.628 130.77 151.444L145.733 174.116L146.489 173.62C153.693 168.833 160.224 163.105 165.91 156.587C177.815 142.959 185.537 126.187 188.149 108.281C188.906 103.084 189 101.556 189 94.5159C189 87.4835 188.906 85.9479 188.149 80.7583C183.015 45.2736 157.759 15.4589 123.509 4.41025C117.105 2.37443 110.511 0.994472 103.828 0.291629C99.5996 0.0914964 95.3667 -0.00565729 91.1333 0.00025431H91.1254ZM123.17 56.8341C125.903 56.8341 126.383 56.8734 126.998 57.2042C127.437 57.4262 127.829 57.7334 128.149 58.1078C128.47 58.4823 128.713 58.9166 128.864 59.3856C129.006 59.858 129.045 70.1349 129.006 93.2795L128.958 126.496L123.099 117.519L117.224 108.541V84.3965C117.224 68.7883 117.303 60.0077 117.405 59.5903C117.537 59.0977 117.768 58.6371 118.084 58.2364C118.399 57.8357 118.793 57.5033 119.24 57.2593C119.996 56.8656 120.264 56.8341 123.178 56.8341H123.17Z" fill="white"/>
</g>
<defs>
<clipPath id="clip0_1054_110">
<rect width="189" height="189" fill="white"/>
</clipPath>
</defs>
</svg>
