<svg width="140" height="140" viewBox="0 0 140 140" fill="none" xmlns="http://www.w3.org/2000/svg">
<g clip-path="url(#clip0_1081_180)">
<path d="M67.5003 0.000188378C66.4736 0.000188378 65.6919 0.0060217 65.4119 0.0410217C64.7047 0.111733 63.9969 0.175902 63.2885 0.233521C43.4135 2.01852 24.7869 12.746 12.9914 29.2368C6.4681 38.2874 2.22741 48.7796 0.630026 59.8209C0.0700029 63.6651 0 64.8026 0 70.0118C0 75.2209 0.0700029 76.3643 0.630026 80.2084C4.43352 106.493 23.1476 128.578 48.5178 136.763C53.0622 138.221 57.8516 139.224 63.3001 139.825C65.4177 140.058 74.5881 140.058 76.7115 139.825C86.1094 138.787 94.0781 136.459 101.93 132.452C103.138 131.833 103.371 131.67 103.208 131.53C103.091 131.454 97.9574 124.571 91.803 116.247L80.6084 101.127L66.5844 80.3717C61.9188 73.4275 57.209 66.5129 52.4555 59.6284C52.403 59.6168 52.3505 68.8393 52.3213 80.1034C52.2805 99.8201 52.263 100.608 52.018 101.074C51.7802 101.621 51.3537 102.064 50.8163 102.323C50.3788 102.538 49.9996 102.579 47.9287 102.579H45.5544L44.9244 102.183C44.5349 101.938 44.2185 101.594 44.0085 101.185L43.7168 100.567L43.7518 73.1326L43.7927 45.6868L44.2127 45.1501C44.4995 44.8147 44.8431 44.5323 45.2277 44.316C45.7877 44.0418 46.0094 44.0185 48.3778 44.0185C51.1663 44.0185 51.633 44.1235 52.3563 44.9168C58.0332 53.3649 63.6627 61.8447 69.2445 70.3559C78.4463 84.3012 87.6536 98.2429 96.8665 112.181L107.95 128.975L108.51 128.608C113.847 125.062 118.685 120.818 122.896 115.99C131.715 105.896 137.435 93.4719 139.37 80.2084C139.93 76.3584 140 75.2268 140 70.0118C140 64.8026 139.93 63.6651 139.37 59.8209C135.566 33.536 116.858 11.451 91.488 3.26685C86.7445 1.75884 81.86 0.736646 76.9099 0.216021C73.7775 0.0677751 70.642 -0.00419059 67.5061 0.000188378H67.5003ZM91.2371 42.0993C93.2614 42.0993 93.6172 42.1285 94.0723 42.3735C94.3981 42.538 94.6881 42.7655 94.9255 43.0428C95.1628 43.3202 95.3427 43.6419 95.4548 43.9893C95.5598 44.3393 95.589 51.9518 95.5598 69.0959L95.5248 93.7009L91.1846 87.0509L86.8328 80.4009V62.5159C86.8328 50.9543 86.8911 44.4501 86.967 44.141C87.0647 43.7761 87.2356 43.4349 87.4693 43.1381C87.7029 42.8413 87.9945 42.595 88.3262 42.4143C88.8862 42.1226 89.0845 42.0993 91.243 42.0993H91.2371Z" fill="white"/>
</g>
<defs>
<clipPath id="clip0_1081_180">
<rect width="140" height="140" fill="white"/>
</clipPath>
</defs>
</svg>
