<svg width="140" height="140" viewBox="0 0 140 140" fill="none" xmlns="http://www.w3.org/2000/svg">
<g clip-path="url(#clip0_1081_178)">
<path d="M120.466 80.584C115.596 80.6176 111.362 82.1817 107.818 84.4938C106.517 81.0595 105.217 77.9999 104.987 75.7555C104.732 73.1378 104.426 71.5395 104.732 68.4113C105.038 65.2832 106.415 60.8287 106.39 60.4889C106.364 60.1492 106.083 58.5508 103.278 58.5173C100.473 58.483 98.0508 59.2311 97.7703 60.217C97.4897 61.2028 96.9543 63.4472 96.5972 65.7586C96.1127 69.1595 90.9874 81.2972 88.055 87.6555C87.1111 85.1742 86.2952 82.9976 86.1164 81.2636C85.8615 78.6459 85.5553 77.0476 85.8615 73.9195C86.1678 70.7913 87.5448 66.3376 87.5191 65.9971C87.4934 65.6573 87.2128 64.0589 84.4079 64.0254C81.6025 63.9911 79.1798 64.7393 78.8998 65.7251C78.6193 66.7117 78.313 69.0231 77.7268 71.2675C77.14 73.5119 70.3314 93.7769 68.5464 99.0123C67.825 101.131 67.0683 103.229 66.2768 105.303C66.2768 105.303 66.2511 105.405 66.1746 105.575C65.9259 106.225 65.6711 106.871 65.41 107.513V107.546C65.0272 108.465 64.6193 109.315 64.4153 109.315C64.2621 109.315 63.9816 106.867 64.4661 103.535C65.4861 96.4966 67.9087 85.5482 67.8836 85.1742C67.8836 84.97 68.3424 83.0661 66.3025 82.0796C64.313 81.0937 63.5993 82.7256 63.4205 82.7256C63.2422 82.7256 63.1143 83.3038 63.1143 83.3038C63.1143 83.3038 65.3335 70.9955 58.8814 70.9955C54.8526 70.9955 49.2931 76.8777 46.539 82.1817C43.4082 84.4533 40.2801 86.7315 37.1546 89.0161C35.6507 90.1383 34.0949 91.2605 32.6413 92.3142C32.539 92.1785 32.4373 92.0079 32.335 91.8723C24.5317 80.7539 10.0986 72.8994 10.7105 57.9733C10.9402 52.533 12.3424 38.2523 38.43 20.912C59.9014 6.80113 76.9874 10.7109 79.9454 19.3814C84.1782 31.7583 70.7907 54.7431 48.6046 58.0747C40.1384 59.3332 35.7011 54.9808 34.5794 53.3489C33.4064 51.6485 33.2275 51.5464 32.7939 51.887C32.0802 52.3974 32.539 53.9272 32.7939 54.8109C33.4572 57.1224 36.1856 61.2028 40.8012 63.2095C44.8814 64.977 54.8012 65.9635 66.8122 59.7751C80.2511 52.8385 90.7577 33.5601 87.6722 17.4098C84.5862 1.02102 64.1856 -4.38502 44.8814 4.76092C33.4064 10.202 20.9617 18.7697 12.011 29.9223C1.37699 43.1822 -0.30629 54.7088 0.382225 59.5374C2.85629 76.6735 20.5794 87.8261 27.6686 96.0883C27.3114 96.3603 26.9795 96.5987 26.6995 96.8029C23.1546 99.1486 9.63918 108.567 6.27316 118.529C2.44832 129.817 6.88566 137.91 9.81801 138.998C18.9218 142.364 28.2805 136.312 33.3041 126.315C38.3277 116.319 37.7157 103.33 35.3954 97.3804C35.3696 97.3126 35.3445 97.244 35.2931 97.1762C36.2113 96.4624 37.1546 95.7143 38.0729 95.0004C39.7604 93.6702 41.4695 92.389 43.1987 91.1577C42.3314 94.3201 41.6937 98.0943 41.388 103.535C41.0052 109.927 42.9685 118.223 45.5443 121.487C46.6921 122.916 48.0435 122.949 48.9108 122.949C51.9197 122.949 53.2716 119.617 54.7761 115.673C56.6119 110.845 58.2695 105.235 58.2695 105.235C58.2695 105.235 56.2039 120.399 61.8143 120.399C63.8542 120.399 65.9197 116.863 66.8379 115.061V115.095C66.8379 115.095 66.8888 114.993 66.9911 114.755C67.195 114.313 67.3225 114.04 67.3225 114.04V113.973C68.1384 112.069 69.9748 107.751 72.7032 100.576C76.2223 91.3283 79.614 79.7681 79.614 79.7681C79.614 79.7681 79.9203 82.59 80.9653 87.2822C81.5778 90.0362 82.8521 93.0623 83.8725 95.9862C83.0566 97.5167 82.5464 98.3662 82.5464 98.3662L82.5721 98.4005C81.9087 99.5562 81.195 100.814 80.4043 102.039C77.6245 106.459 74.3099 111.525 73.8505 112.987C73.3146 114.721 73.4425 115.979 74.463 116.999C75.2024 117.747 76.528 117.849 77.8799 117.747C80.3791 117.509 82.1384 116.693 83.0052 116.183C84.3571 115.537 85.9381 114.551 87.4168 113.089C90.1457 110.403 91.8028 106.561 91.6502 101.495C91.5736 98.7068 90.8851 95.9184 90.0435 93.3C90.2989 92.8246 90.528 92.3484 90.7834 91.8723C95.0928 83.4737 98.4336 74.2593 98.4336 74.2593C98.4336 74.2593 98.7399 77.0811 99.785 81.7741C100.295 84.1541 101.341 86.7382 102.258 89.2538C98.2039 93.6405 95.7047 98.7403 94.8122 102.073C93.2061 108.261 94.4551 111.049 96.8269 111.695C97.8977 112.001 99.4279 111.321 100.55 110.675C101.978 110.063 103.661 109.009 105.268 107.444C107.997 104.759 110.623 101.018 110.47 95.9527C110.393 93.6405 109.934 91.3619 109.297 89.1518C112.739 87.2486 117.177 86.1943 122.837 87.078C134.976 88.9819 137.373 99.0801 136.914 103.331C136.455 107.581 133.905 109.893 133.064 110.607C132.222 111.321 131.942 111.559 132.018 112.069C132.12 112.817 132.528 112.783 133.242 112.647C134.237 112.409 139.618 109.213 139.847 101.392C140.23 91.3961 133.089 80.482 120.466 80.584ZM26.8269 122.677C22.7975 128.525 17.1877 130.735 14.765 128.866C12.1641 126.859 13.184 118.223 18.1311 112.035C21.14 108.261 25.0162 104.758 27.592 102.617C28.1782 102.14 29.0456 101.461 30.0912 100.611C30.2695 100.474 30.3718 100.406 30.3718 100.406L30.9837 99.896C32.7939 108.736 31.0603 116.523 26.8269 122.677ZM56.1531 96.0883C54.7504 100.645 51.818 112.307 50.033 111.661C48.5029 111.117 47.5589 102.277 49.7268 93.5384C50.8232 89.1518 53.1436 83.9156 54.4955 81.8761C56.6885 78.6117 59.1111 77.523 59.6974 78.8501C60.4373 80.584 57.0199 93.2322 56.1531 96.0883ZM80.3534 111.525C79.7666 111.933 79.2061 112.205 78.9507 112.001C78.7724 111.865 79.2061 111.321 79.2061 111.321C79.2061 111.321 82.2407 106.969 83.4389 104.997C84.1279 103.841 84.9433 102.481 85.8107 100.95V101.392C85.8107 106.595 82.0361 110.097 80.3529 111.525H80.3534ZM99.0199 105.847C98.5862 105.438 98.6628 104.079 100.116 99.8282C100.677 98.1621 102.003 95.3745 104.273 92.6882C104.528 93.7761 104.707 94.8305 104.681 95.8163C104.655 102.379 101.137 104.827 99.0199 105.847Z" fill="#CD6799"/>
</g>
<defs>
<clipPath id="clip0_1081_178">
<rect width="140" height="140" fill="white"/>
</clipPath>
</defs>
</svg>
