<svg width="256" height="192" viewBox="0 0 256 192" fill="none" xmlns="http://www.w3.org/2000/svg">
<g clip-path="url(#clip0_1001_16)">
<path d="M220.281 110.513C211.375 110.559 203.634 112.704 197.153 115.875C194.774 111.165 192.396 106.969 191.977 103.891C191.51 100.301 190.951 98.109 191.51 93.819C192.07 89.529 194.588 83.42 194.541 82.954C194.495 82.488 193.981 80.296 188.852 80.25C183.723 80.203 179.293 81.229 178.78 82.581C178.267 83.933 177.288 87.011 176.635 90.181C175.749 94.845 166.377 111.491 161.015 120.211C159.289 116.808 157.797 113.823 157.47 111.445C157.004 107.855 156.444 105.663 157.004 101.373C157.564 97.083 160.082 90.975 160.035 90.508C159.988 90.042 159.475 87.85 154.346 87.804C149.216 87.757 144.786 88.783 144.274 90.135C143.761 91.488 143.201 94.658 142.129 97.736C141.056 100.814 128.606 128.606 125.342 135.786C124.023 138.692 122.639 141.569 121.192 144.413C121.192 144.413 121.145 144.553 121.005 144.786C120.55 145.678 120.084 146.564 119.607 147.444V147.49C118.907 148.75 118.161 149.915 117.788 149.915C117.508 149.915 116.995 146.558 117.881 141.988C119.746 132.336 124.176 117.321 124.13 116.808C124.13 116.528 124.969 113.917 121.239 112.564C117.601 111.212 116.296 113.45 115.969 113.45C115.643 113.45 115.409 114.243 115.409 114.243C115.409 114.243 119.467 97.363 107.669 97.363C100.302 97.363 90.136 105.43 85.1 112.704C79.3751 115.819 73.6551 118.944 67.94 122.077C65.19 123.616 62.345 125.155 59.687 126.6C59.5 126.414 59.314 126.18 59.127 125.994C44.858 110.746 18.466 99.974 19.585 79.504C20.005 72.043 22.569 52.458 70.272 28.677C109.534 9.32503 140.777 14.687 146.186 26.578C153.926 43.552 129.446 75.074 88.877 79.643C73.396 81.369 65.282 75.4 63.231 73.162C61.086 70.83 60.759 70.69 59.966 71.157C58.661 71.857 59.5 73.955 59.966 75.167C61.179 78.337 66.168 83.933 74.608 86.685C82.069 89.109 100.208 90.462 122.171 81.975C146.745 72.462 165.957 46.023 160.315 23.874C154.672 1.39803 117.368 -6.01597 82.069 6.52703C61.086 13.989 38.33 25.739 21.963 41.034C2.51797 59.219 -0.560032 75.027 0.698968 81.649C5.22297 105.15 37.631 120.445 50.594 131.776C49.941 132.149 49.334 132.476 48.822 132.756C42.34 135.973 17.626 148.889 11.471 162.552C4.47697 178.033 12.591 189.132 17.953 190.623C34.6 195.24 51.713 186.94 60.899 173.23C70.085 159.521 68.966 141.708 64.723 133.548C64.676 133.455 64.63 133.361 64.536 133.268C66.215 132.289 67.94 131.263 69.619 130.284C72.7048 128.46 75.8299 126.703 78.992 125.014C77.406 129.351 76.24 134.527 75.681 141.988C74.981 150.755 78.571 162.132 83.281 166.608C85.38 168.568 87.851 168.614 89.437 168.614C94.939 168.614 97.411 164.044 100.162 158.635C103.519 152.014 106.55 144.32 106.55 144.32C106.55 144.32 102.773 165.117 113.032 165.117C116.762 165.117 120.539 160.267 122.218 157.796V157.842C122.218 157.842 122.311 157.702 122.498 157.376C122.871 156.77 123.104 156.396 123.104 156.396V156.304C124.596 153.692 127.954 147.77 132.943 137.931C139.378 125.248 145.58 109.394 145.58 109.394C145.58 109.394 146.14 113.264 148.051 119.699C149.171 123.476 151.501 127.626 153.367 131.636C151.875 133.735 150.942 134.9 150.942 134.9L150.989 134.947C149.776 136.532 148.471 138.257 147.025 139.937C141.942 145.998 135.881 152.947 135.041 154.951C134.061 157.329 134.295 159.055 136.161 160.454C137.513 161.48 139.937 161.619 142.409 161.48C146.979 161.153 150.196 160.034 151.781 159.335C154.253 158.449 157.144 157.096 159.848 155.091C164.838 151.407 167.868 146.138 167.589 139.191C167.449 135.367 166.19 131.543 164.651 127.952C165.118 127.3 165.537 126.647 166.004 125.994C173.884 114.476 179.993 101.839 179.993 101.839C179.993 101.839 180.553 105.709 182.464 112.145C183.397 115.409 185.309 118.953 186.987 122.403C179.573 128.419 175.003 135.413 173.371 139.983C170.434 148.47 172.718 152.293 177.055 153.179C179.013 153.599 181.811 152.666 183.863 151.78C186.474 150.941 189.552 149.496 192.49 147.35C197.48 143.667 202.282 138.537 202.002 131.59C201.862 128.419 201.023 125.294 199.857 122.263C206.152 119.653 214.266 118.207 224.617 119.419C246.814 122.03 251.197 135.879 250.357 141.709C249.518 147.537 244.855 150.708 243.317 151.687C241.777 152.667 241.265 152.993 241.405 153.692C241.591 154.718 242.337 154.672 243.643 154.485C245.462 154.159 255.301 149.775 255.72 139.05C256.42 125.341 243.363 110.373 220.281 110.513ZM49.055 168.241C41.687 176.261 31.429 179.292 26.999 176.728C22.243 173.976 24.108 162.132 33.154 153.646C38.656 148.47 45.744 143.666 50.454 140.729C51.526 140.076 53.112 139.144 55.024 137.978C55.35 137.791 55.537 137.698 55.537 137.698L56.656 136.998C59.966 149.122 56.796 159.801 49.055 168.241ZM102.68 131.776C100.115 138.025 94.753 154.019 91.489 153.133C88.691 152.387 86.965 140.263 90.929 128.279C92.934 122.263 97.177 115.082 99.649 112.285C103.659 107.808 108.089 106.315 109.161 108.135C110.514 110.513 104.265 127.859 102.68 131.776ZM146.932 152.946C145.859 153.506 144.834 153.879 144.367 153.599C144.041 153.412 144.834 152.666 144.834 152.666C144.834 152.666 150.383 146.698 152.574 143.993C153.834 142.408 155.325 140.543 156.911 138.444V139.05C156.911 146.185 150.009 150.988 146.931 152.946H146.932ZM181.065 145.159C180.272 144.599 180.412 142.734 183.07 136.905C184.096 134.62 186.52 130.797 190.671 127.113C191.137 128.605 191.464 130.051 191.417 131.403C191.37 140.403 184.936 143.76 181.065 145.159Z" fill="#CD6799"/>
</g>
<defs>
<clipPath id="clip0_1001_16">
<rect width="256" height="192" fill="white"/>
</clipPath>
</defs>
</svg>
