<svg width="40" height="39" viewBox="0 0 40 39" fill="none" xmlns="http://www.w3.org/2000/svg">
<path fill-rule="evenodd" clip-rule="evenodd" d="M20.0674 0.402344C9.13764 0.402344 0.285034 9.25495 0.285034 20.1847C0.285034 28.9384 5.94773 36.3321 13.8112 38.9532C14.8003 39.1263 15.1713 38.5328 15.1713 38.0136C15.1713 37.5437 15.1465 35.9859 15.1465 34.3291C10.1762 35.244 8.89036 33.1174 8.49471 32.0047C8.27216 31.4359 7.30777 29.6802 6.46702 29.2104C5.77464 28.8395 4.78552 27.9246 6.44229 27.8998C8.00015 27.8751 9.11291 29.334 9.48383 29.9275C11.2642 32.9196 14.108 32.0789 15.2454 31.5596C15.4185 30.2737 15.9378 29.4082 16.5066 28.9137C12.105 28.4191 7.5056 26.7129 7.5056 19.1461C7.5056 16.9948 8.27216 15.2144 9.53329 13.8296C9.33546 13.3351 8.64308 11.3074 9.73111 8.5873C9.73111 8.5873 11.3879 8.06801 15.1713 10.615C16.7538 10.1699 18.4353 9.94733 20.1168 9.94733C21.7983 9.94733 23.4799 10.1699 25.0624 10.615C28.8458 8.04328 30.5026 8.5873 30.5026 8.5873C31.5906 11.3074 30.8982 13.3351 30.7004 13.8296C31.9615 15.2144 32.7281 16.9701 32.7281 19.1461C32.7281 26.7376 28.104 28.4191 23.7024 28.9137C24.4195 29.5319 25.0377 30.7188 25.0377 32.5734C25.0377 35.2193 25.013 37.3459 25.013 38.0136C25.013 38.5328 25.3839 39.151 26.373 38.9532C34.1871 36.3321 39.8498 28.9137 39.8498 20.1847C39.8498 9.25495 30.9971 0.402344 20.0674 0.402344Z" fill="white" fill-opacity="0.5"/>
</svg>
