<svg width="92" height="92" viewBox="0 0 92 92" fill="none" xmlns="http://www.w3.org/2000/svg">
<path d="M62.1537 25.9219L61.8662 27.4207C61.4215 30.2612 61.5825 31.0739 62.8015 32.128L63.9783 33.1017L62.7593 38.5374C62.031 41.7804 61.1378 44.4982 60.5705 45.3914C60.0837 46.1619 59.5163 47.2965 59.3937 47.906C59.1905 48.6344 58.5005 49.3665 57.4463 50.0144C56.5148 50.5434 54.6863 51.9617 53.3907 53.1002C52.3557 54.0317 51.6427 54.6029 51.2555 54.8482L49.9905 55.8487C49.6652 56.3311 49.4205 56.8632 49.266 57.4242C49.1778 57.8344 49.2277 58.1065 49.358 58.3059C49.4845 58.4975 49.703 58.6317 50.002 58.716C50.3559 58.799 50.7203 58.8287 51.083 58.8042C51.9036 58.7481 52.7158 58.6042 53.5057 58.3749C53.774 58.302 53.9848 58.233 54.1688 58.1717C54.4525 57.8229 55.108 57.1635 56.2695 56.0174C59.3515 52.9775 60.5283 51.3139 59.3132 51.7624C58.8647 51.9234 59.0678 51.517 59.8383 50.7044C61.4637 49.1212 62.3952 46.7292 64.3425 39.2274C65.8835 33.3049 65.8835 33.2205 67.0182 33.2205C67.551 33.2205 69.0575 33.3125 69.0575 33.3125V25.9219H65.5998H62.1537ZM76.8698 38.0544C76.6245 38.0544 76.2182 38.4224 75.9767 38.8287C75.532 39.557 76.0572 40.0017 82.7502 44.18C86.7253 46.6985 89.93 48.8452 89.8495 49.01C89.769 49.1289 86.5222 51.241 82.6313 53.6752C75.5703 58.0529 75.532 58.095 76.1798 58.9882C76.9925 60.0424 76.1798 60.4065 85.3453 54.6872L92 50.4284V47.2237L84.5748 42.639C80.5613 40.1244 77.073 38.0965 76.8698 38.0544ZM15.2107 38.5029C15.0075 38.5029 11.5192 40.5729 7.50567 43.0454L0 47.63V50.8347L7.4635 55.4999C11.6035 58.0529 15.0918 60.165 15.2528 60.165C15.4138 60.165 15.7397 59.797 16.0655 59.3524C16.5523 58.5819 16.1422 58.256 9.28817 53.9167C2.76 49.8189 2.07 49.2515 2.72167 48.8069C3.128 48.5232 6.21 46.6142 9.53733 44.548C17.1235 39.8829 16.7172 40.2049 16.1077 39.2312C15.8662 38.8287 15.456 38.4645 15.2145 38.5029H15.2107ZM48.4993 38.591C47.38 38.5834 44.9727 40.2892 37.766 46.1734C37.4555 46.9132 37.4287 47.423 37.5705 47.7527C37.6625 47.9789 37.8312 48.136 38.065 48.251C38.295 48.366 38.594 48.435 38.9237 48.4619C39.5792 48.5194 40.3535 48.4159 40.9783 48.2932L41.4 48.1974C41.5443 48.0038 41.7339 47.8485 41.952 47.745C42.3967 47.4997 44.2635 45.7977 46.1303 43.973C49.4155 40.6457 50.186 39.143 48.8482 38.6562C48.7384 38.6125 48.6175 38.5904 48.4993 38.591ZM56.9173 40.9025C55.9322 40.9294 54.1573 42.0717 51.1175 44.4982C49.5918 45.7364 48.6258 46.4034 48.1083 46.5414L46.0997 48.1284C45.3445 49.5084 45.2333 50.3632 45.4327 50.8347C45.4826 50.951 45.555 51.0563 45.6458 51.1445C45.7366 51.2326 45.8439 51.3019 45.9617 51.3484C46.2545 51.464 46.5668 51.5226 46.8817 51.5209C47.6341 51.5129 48.3819 51.4033 49.105 51.195C49.4818 51.0939 49.854 50.9763 50.2205 50.8424L50.3317 50.7964L50.5348 50.689C50.9182 50.1945 51.7998 49.263 52.9038 48.1897C56.3922 44.824 58.1747 42.432 57.8105 41.5389C57.6457 41.1057 57.362 40.8872 56.9173 40.9025ZM47.6253 45.0425C47.3417 45.0732 46.7053 45.5639 45.5592 46.5682C43.9032 48.0325 42.0977 48.8759 41.4728 48.5002C41.3276 48.533 41.1819 48.5637 41.0358 48.5922C40.3995 48.7187 39.606 48.8222 38.8968 48.7647C38.5627 48.7445 38.2352 48.6626 37.9308 48.5232C37.6438 48.392 37.4147 48.1601 37.2868 47.8715C37.145 47.5265 37.145 47.0972 37.306 46.549L34.8143 48.596L29.1755 53.2612V60.8244L47.6522 46.2692C47.6486 46.1098 47.6693 45.9509 47.7135 45.7977C47.8553 45.284 47.8477 45.0234 47.6253 45.0464V45.0425ZM55.5757 47.492C55.2958 47.492 54.8282 47.8869 54.0807 48.6804C53.0648 49.7652 51.4663 50.8155 50.6192 51.0302L50.4888 51.0992C50.3497 51.1566 50.2091 51.2103 50.0672 51.2602C49.8372 51.3369 49.5382 51.4289 49.1932 51.5209C48.5032 51.7087 47.6445 51.8812 46.8778 51.862C46.5164 51.8616 46.1584 51.7913 45.8237 51.655C45.5081 51.525 45.2553 51.2777 45.1183 50.965C44.896 50.4322 44.9842 49.6847 45.471 48.6229L29.1717 61.4607V66.0799H36.3323L51.52 54.1505C51.9148 53.7135 52.509 53.1155 53.3102 52.368C55.4568 50.3785 55.9437 49.6924 55.9437 48.6765C55.9437 47.8869 55.8555 47.4882 55.5757 47.4882V47.492ZM59.1905 54.967L57.891 56.2627C57.1627 56.9527 55.8632 57.8037 54.9738 58.1679L54.7975 58.2445L54.786 58.2637L54.7477 58.302C54.7132 58.3289 54.6978 58.3327 54.671 58.3442C54.316 58.4786 53.9553 58.5975 53.59 58.7007C52.7778 58.9371 51.9424 59.0849 51.0983 59.1415C50.6993 59.1671 50.2986 59.1322 49.91 59.038C49.5727 58.9638 49.275 58.7671 49.0743 58.486C48.8903 58.2024 48.8367 57.8229 48.9402 57.3552C49.0225 57.0223 49.1448 56.7005 49.3043 56.3969L37.0492 66.0799H53.3485L55.2958 63.8489C57.9715 60.7285 59.1905 58.4975 59.1905 56.5885V54.967Z" fill="white"/>
</svg>
