<svg width="140" height="140" viewBox="0 0 140 140" fill="none" xmlns="http://www.w3.org/2000/svg">
<path d="M94.5817 39.4453L94.1442 41.7261C93.4675 46.0486 93.7125 47.2853 95.5675 48.8895L97.3583 50.3711L95.5033 58.6428C94.395 63.5778 93.0358 67.7136 92.1725 69.0728C91.4317 70.2453 90.5683 71.972 90.3817 72.8995C90.0725 74.0078 89.0225 75.122 87.4183 76.1078C86.0008 76.9128 83.2183 79.0711 81.2467 80.8036C79.6717 82.2211 78.5867 83.0903 77.9975 83.4636L76.0725 84.9861C75.5775 85.7203 75.2051 86.53 74.97 87.3836C74.8358 88.0078 74.9117 88.422 75.11 88.7253C75.3025 89.017 75.635 89.2211 76.09 89.3495C76.6286 89.4757 77.183 89.5209 77.735 89.4836C78.9837 89.3983 80.2197 89.1793 81.4217 88.8303C81.83 88.7195 82.1508 88.6145 82.4308 88.5211C82.8625 87.9903 83.86 86.987 85.6275 85.2428C90.3175 80.617 92.1083 78.0853 90.2592 78.7678C89.5767 79.0128 89.8858 78.3945 91.0583 77.1578C93.5317 74.7486 94.9492 71.1086 97.9125 59.6928C100.258 50.6803 100.258 50.552 101.984 50.552C102.795 50.552 105.087 50.692 105.087 50.692V39.4453H99.8258H94.5817ZM116.976 57.9078C116.603 57.9078 115.984 58.4678 115.617 59.0861C114.94 60.1945 115.739 60.8711 125.924 67.2295C131.973 71.062 136.85 74.3286 136.727 74.5795C136.605 74.7603 131.664 77.9745 125.743 81.6786C114.998 88.3403 114.94 88.4045 115.926 89.7636C117.162 91.3678 115.926 91.922 129.873 83.2186L140 76.7378V71.8611L128.701 64.8845C122.593 61.0578 117.285 57.972 116.976 57.9078ZM23.1467 58.5903C22.8375 58.5903 17.5292 61.7403 11.4217 65.5028L0 72.4795V77.3561L11.3575 84.4553C17.6575 88.3403 22.9658 91.5545 23.2108 91.5545C23.4558 91.5545 23.9517 90.9945 24.4475 90.3178C25.1883 89.1453 24.5642 88.6495 14.1342 82.0461C4.2 75.8103 3.15 74.947 4.14167 74.2703C4.76 73.8386 9.45 70.9336 14.5133 67.7895C26.0575 60.6903 25.4392 61.1803 24.5117 59.6986C24.1442 59.0861 23.52 58.532 23.1525 58.5903H23.1467ZM73.8033 58.7245C72.1 58.7128 68.4367 61.3086 57.47 70.2628C56.9975 71.3886 56.9567 72.1645 57.1725 72.6661C57.3125 73.0103 57.5692 73.2495 57.925 73.4245C58.275 73.5995 58.73 73.7045 59.2317 73.7453C60.2292 73.8328 61.4075 73.6753 62.3583 73.4886L63 73.3428C63.2196 73.0483 63.508 72.812 63.84 72.6545C64.5167 72.2811 67.3575 69.6911 70.1983 66.9145C75.1975 61.8511 76.37 59.5645 74.3342 58.8236C74.1672 58.7572 73.9831 58.7235 73.8033 58.7245ZM86.6133 62.242C85.1142 62.2828 82.4133 64.0211 77.7875 67.7136C75.4658 69.5978 73.9958 70.6128 73.2083 70.8228L70.1517 73.2378C69.0025 75.3378 68.8333 76.6386 69.1367 77.3561C69.2126 77.5331 69.3228 77.6933 69.461 77.8275C69.5991 77.9617 69.7625 78.0671 69.9417 78.1378C70.3873 78.3138 70.8625 78.4029 71.3417 78.4003C72.4866 78.3881 73.6247 78.2213 74.725 77.9045C75.2984 77.7506 75.8648 77.5715 76.4225 77.3678L76.5917 77.2978L76.9008 77.1345C77.4842 76.382 78.8258 74.9645 80.5058 73.3311C85.8142 68.2095 88.5267 64.5695 87.9725 63.2103C87.7217 62.5511 87.29 62.2186 86.6133 62.242ZM72.4733 68.542C72.0417 68.5886 71.0733 69.3353 69.3292 70.8636C66.8092 73.092 64.0617 74.3753 63.1108 73.8036C62.8899 73.8536 62.6682 73.9002 62.4458 73.9436C61.4775 74.1361 60.27 74.2936 59.1908 74.2061C58.6824 74.1753 58.184 74.0508 57.7208 73.8386C57.284 73.6389 56.9354 73.2862 56.7408 72.847C56.525 72.322 56.525 71.6686 56.77 70.8345L52.9783 73.9495L44.3975 81.0486V92.5578L72.5142 70.4086C72.5087 70.1661 72.5402 69.9242 72.6075 69.6911C72.8233 68.9095 72.8117 68.5128 72.4733 68.5478V68.542ZM84.5717 72.2695C84.1458 72.2695 83.4342 72.8703 82.2967 74.0778C80.7508 75.7286 78.3183 77.327 77.0292 77.6536L76.8308 77.7586C76.6192 77.846 76.4052 77.9277 76.1892 78.0036C75.8392 78.1203 75.3842 78.2603 74.8592 78.4003C73.8092 78.6861 72.5025 78.9486 71.3358 78.9195C70.7858 78.9188 70.2411 78.8118 69.7317 78.6045C69.2515 78.4066 68.8668 78.0302 68.6583 77.5545C68.32 76.7436 68.4542 75.6061 69.195 73.9903L44.3917 93.5262V100.555H55.2883L78.4 82.402C79.0008 81.737 79.905 80.827 81.1242 79.6895C84.3908 76.662 85.1317 75.6178 85.1317 74.072C85.1317 72.8703 84.9975 72.2636 84.5717 72.2636V72.2695ZM90.0725 83.6445L88.095 85.6161C86.9867 86.6661 85.0092 87.9611 83.6558 88.5153L83.3875 88.632L83.37 88.6611L83.3117 88.7195C83.2592 88.7603 83.2358 88.7661 83.195 88.7836C82.6548 88.9881 82.1059 89.1691 81.55 89.3261C80.314 89.6859 79.0427 89.9108 77.7583 89.997C77.1511 90.0359 76.5414 89.9828 75.95 89.8395C75.4368 89.7265 74.9837 89.4272 74.6783 88.9995C74.3983 88.5678 74.3167 87.9903 74.4742 87.2786C74.5994 86.772 74.7855 86.2823 75.0283 85.8203L56.3792 100.555H81.1825L84.1458 97.1603C88.2175 92.412 90.0725 89.017 90.0725 86.112V83.6445Z" fill="white"/>
</svg>
