<svg width="90" height="90" viewBox="0 0 90 90" fill="none" xmlns="http://www.w3.org/2000/svg">
<path d="M45 26.25L63.75 45H52.5V60H37.5V45H26.25L45 26.25ZM45 82.5C40.0754 82.5 35.1991 81.53 30.6494 79.6455C26.0997 77.7609 21.9657 74.9987 18.4835 71.5165C11.4509 64.4839 7.5 54.9456 7.5 45C7.5 35.0544 11.4509 25.5161 18.4835 18.4835C25.5161 11.4509 35.0544 7.5 45 7.5C49.9246 7.5 54.8009 8.46997 59.3506 10.3545C63.9003 12.2391 68.0343 15.0013 71.5165 18.4835C74.9987 21.9657 77.7609 26.0997 79.6455 30.6494C81.53 35.1991 82.5 40.0754 82.5 45C82.5 54.9456 78.5491 64.4839 71.5165 71.5165C64.4839 78.5491 54.9456 82.5 45 82.5ZM45 75C52.9565 75 60.5871 71.8393 66.2132 66.2132C71.8393 60.5871 75 52.9565 75 45C75 37.0435 71.8393 29.4129 66.2132 23.7868C60.5871 18.1607 52.9565 15 45 15C37.0435 15 29.4129 18.1607 23.7868 23.7868C18.1607 29.4129 15 37.0435 15 45C15 52.9565 18.1607 60.5871 23.7868 66.2132C29.4129 71.8393 37.0435 75 45 75Z" fill="white"/>
</svg>
